<?xml version="1.0" standalone="no"?>
<!DOCTYPE svg PUBLIC "-//W3C//DTD SVG 20010904//EN"
 "http://www.w3.org/TR/2001/REC-SVG-20010904/DTD/svg10.dtd">
<svg version="1.0" xmlns="http://www.w3.org/2000/svg"
 width="1122.000000pt" height="1280.000000pt" viewBox="0 0 1122.000000 1280.000000"
 preserveAspectRatio="xMidYMid meet">
<metadata>
Created by potrace 1.15, written by Peter Selinger 2001-2017
</metadata>
<g transform="translate(0.000000,1280.000000) scale(0.100000,-0.100000)"
fill="#000000" stroke="none">
<path d="M7587 12653 c-27 -7 -16 -25 26 -46 20 -10 37 -22 37 -26 0 -4 -13
-17 -28 -28 -35 -25 -62 -80 -62 -122 0 -47 -21 -81 -63 -102 -54 -28 -67 -21
-56 33 13 66 11 79 -11 85 -25 7 -25 7 2 43 22 30 31 108 13 111 -12 3 -74
-101 -179 -301 -105 -199 -130 -220 -143 -120 -5 32 -1 53 15 84 11 23 32 73
46 111 14 39 44 94 66 123 47 61 49 74 15 92 -20 11 -27 11 -40 0 -8 -7 -15
-18 -15 -26 0 -32 -21 -21 -39 21 -16 36 -25 45 -45 45 -26 0 -46 -24 -46 -57
0 -37 -22 -93 -47 -123 -22 -27 -25 -37 -20 -81 7 -53 6 -53 -44 -17 -14 11
-32 16 -40 13 -23 -10 -51 -55 -55 -89 -1 -17 -3 -34 -3 -37 -1 -3 -12 -11
-26 -17 -30 -14 -31 -31 -5 -107 11 -32 20 -60 20 -62 0 -2 -12 0 -26 3 -18 5
-34 0 -55 -15 l-30 -22 7 25 c5 21 -1 29 -36 52 -33 22 -38 29 -26 36 28 16
17 27 -15 16 -22 -7 -42 -7 -75 2 -47 13 -61 10 -48 -12 5 -7 9 -35 10 -63 0
-27 8 -65 18 -84 13 -25 15 -36 6 -45 -11 -11 -19 -5 -45 39 -6 10 -28 19 -57
22 -38 5 -55 1 -90 -20 -29 -17 -52 -23 -70 -20 -58 11 -58 -89 -1 -149 l28
-29 -45 20 c-58 27 -80 27 -80 1 0 -27 -33 -92 -56 -111 -16 -13 -17 -12 -9 6
21 50 46 167 52 242 5 71 4 83 -9 83 -18 0 -30 -29 -53 -120 -9 -36 -33 -94
-54 -130 -21 -36 -43 -80 -51 -97 -7 -18 -14 -33 -16 -33 -3 0 -17 15 -33 32
-24 27 -36 33 -69 33 -26 0 -48 -7 -62 -20 l-22 -20 7 33 c4 21 2 38 -5 47
-18 22 -30 8 -30 -34 0 -61 -17 -98 -49 -104 -25 -5 -91 -61 -91 -78 0 -4 12
-17 28 -30 19 -15 23 -23 13 -27 -9 -3 -5 -11 15 -27 l27 -22 -48 -6 c-27 -4
-85 -25 -129 -46 -119 -58 -160 -111 -85 -111 37 0 37 -15 1 -34 -50 -26 -57
-41 -33 -74 l20 -29 -24 -23 -25 -24 21 -22 c44 -47 -4 -78 -131 -87 -96 -7
-146 -21 -160 -47 -21 -39 35 -53 77 -20 30 23 52 25 78 7 22 -17 9 -28 -45
-37 -25 -4 -36 -11 -38 -26 -5 -33 20 -47 65 -35 50 14 59 2 34 -48 -22 -42
-30 -48 -47 -32 -5 5 -25 14 -46 20 -20 7 -39 19 -42 27 -5 13 -9 13 -33 0
-39 -20 -97 -82 -89 -95 4 -6 16 -11 27 -11 11 0 51 -7 90 -16 53 -12 74 -22
86 -40 21 -33 9 -43 -20 -16 -50 47 -173 46 -212 -2 -11 -14 -27 -26 -35 -26
-18 0 -70 -50 -70 -66 0 -7 10 -20 22 -28 23 -16 18 -21 -32 -29 -23 -3 -22
-5 15 -23 l40 -19 -37 -3 c-42 -4 -49 -16 -18 -32 30 -16 25 -24 -30 -50 -27
-13 -60 -34 -72 -47 -34 -36 -11 -44 114 -41 83 3 105 1 95 -8 -49 -47 -123
-104 -136 -104 -8 0 -23 8 -33 17 -17 16 -20 15 -46 -4 -37 -27 -40 -62 -7
-93 36 -33 31 -41 -14 -23 -22 9 -46 13 -54 10 -16 -6 -57 -105 -57 -136 0
-10 9 -30 20 -44 11 -14 20 -27 20 -30 0 -3 -21 -5 -47 -4 -44 2 -48 0 -51
-23 -2 -18 6 -34 27 -54 26 -24 32 -26 52 -16 13 7 34 22 47 33 12 11 22 16
22 10 0 -18 -81 -103 -152 -159 -37 -30 -68 -61 -68 -69 0 -7 -24 -34 -52 -59
l-53 -46 47 0 c56 0 69 -13 28 -30 -17 -7 -30 -20 -30 -29 0 -10 -10 -27 -23
-39 l-23 -22 -29 30 c-34 36 -66 40 -62 8 1 -16 -5 -23 -27 -29 -46 -13 -75
-48 -96 -117 -10 -37 -31 -77 -46 -93 l-28 -29 30 0 c42 0 47 -8 23 -42 -12
-16 -18 -32 -15 -36 19 -18 176 52 176 78 0 6 -15 10 -32 10 l-33 1 42 39 c74
70 123 64 123 -16 0 -35 -5 -46 -25 -61 -59 -42 -67 -50 -74 -82 -8 -41 -20
-48 -94 -56 -55 -6 -58 -8 -43 -24 23 -25 20 -31 -16 -31 -47 0 -62 13 -54 45
16 62 -31 87 -84 45 -24 -19 -24 -21 -7 -34 16 -13 14 -17 -28 -54 -25 -22
-74 -52 -110 -67 l-64 -28 29 -27 c19 -17 30 -38 30 -54 0 -29 -20 -35 -40
-11 -15 18 -40 20 -40 3 0 -7 9 -24 20 -38 11 -14 20 -29 20 -33 0 -5 -30 -5
-67 -2 -43 4 -79 3 -98 -5 -27 -11 -29 -13 -12 -24 9 -7 17 -15 17 -18 0 -3
-57 -5 -127 -4 -110 1 -128 -1 -131 -15 -2 -13 8 -17 47 -21 54 -5 106 -39
117 -75 4 -15 -1 -33 -16 -53 -28 -39 -40 -38 -40 4 0 52 -16 86 -40 86 -27 0
-70 -22 -94 -49 -17 -19 -18 -22 -2 -45 l16 -25 -66 2 c-61 2 -67 0 -90 -26
-13 -16 -22 -32 -19 -36 2 -5 55 -11 117 -15 123 -8 168 -15 168 -26 0 -14
-51 -30 -95 -30 -25 0 -50 -6 -59 -15 -13 -13 -17 -12 -33 8 -42 53 -81 56
-127 10 -33 -33 -33 -41 1 -45 19 -2 29 -10 31 -23 2 -11 11 -26 20 -32 14
-11 12 -14 -16 -24 -44 -15 -40 -29 8 -29 55 0 50 -13 -13 -33 -59 -19 -96
-42 -84 -53 4 -4 58 -10 120 -12 175 -7 179 -28 7 -53 -91 -13 -106 -26 -70
-64 24 -25 51 -38 84 -39 27 -1 36 -36 20 -81 -21 -62 -17 -135 8 -135 6 0 26
14 46 31 23 20 38 27 40 20 7 -22 -27 -97 -60 -130 -39 -40 -27 -53 45 -49 26
2 47 0 47 -3 0 -16 -52 -59 -72 -59 -22 0 -144 -95 -161 -125 -11 -21 0 -35
26 -35 27 0 70 28 62 40 -9 15 56 60 112 76 75 22 90 7 43 -41 -31 -32 -32
-35 -12 -35 31 0 27 -15 -8 -42 -18 -13 -28 -28 -25 -37 3 -7 -2 -23 -12 -33
-18 -20 -17 -20 42 -13 l60 6 -42 -26 c-28 -17 -43 -33 -43 -46 0 -20 -1 -20
-31 2 -26 18 -33 19 -40 8 -5 -8 -9 -18 -9 -24 0 -5 -9 0 -19 13 -25 29 -31
28 -31 -6 0 -39 44 -101 110 -157 66 -56 89 -84 90 -107 0 -42 183 -29 251 17
19 14 46 25 58 25 36 0 161 131 161 169 0 22 6 30 23 35 12 3 46 26 76 51 31
27 63 45 75 44 39 -3 45 1 62 34 13 23 17 60 18 137 1 114 17 160 55 160 26 0
31 -19 31 -123 0 -110 11 -136 66 -157 49 -18 74 -37 74 -57 0 -8 6 -13 12
-11 22 8 39 89 32 154 -5 47 -2 70 11 97 9 20 14 40 11 45 -3 5 11 24 31 43
75 72 99 188 68 342 -10 48 -16 89 -14 90 2 1 17 9 33 17 38 19 70 73 62 103
-3 13 -28 49 -55 80 -37 42 -52 69 -61 109 -17 83 -26 612 -11 689 23 113 87
211 165 251 34 17 52 20 114 15 69 -5 76 -4 98 18 39 39 27 101 -30 154 -37
34 -33 66 19 178 71 152 85 207 99 407 14 199 17 206 87 206 22 0 47 8 64 22
25 20 27 25 21 73 -5 48 -4 54 35 105 47 63 159 249 159 264 0 6 -14 31 -30
56 -39 59 -38 81 5 114 23 18 47 54 74 110 40 83 87 148 122 167 14 7 27 5 48
-6 81 -41 109 -10 120 134 9 111 20 135 60 128 14 -3 82 -30 151 -60 170 -74
163 -74 171 -7 3 30 16 77 27 104 27 60 27 79 2 135 -31 67 -27 78 24 83 30 4
65 19 106 46 94 63 158 66 193 10 129 -209 171 -253 241 -253 30 0 58 11 103
39 l63 39 80 -47 c44 -25 89 -46 100 -46 13 0 26 14 41 43 28 55 56 86 97 102
17 8 33 20 33 27 1 7 2 56 3 108 1 84 6 105 39 189 20 51 37 103 37 116 0 19
9 27 48 40 137 48 187 70 242 106 33 21 63 39 66 39 10 0 157 -126 200 -172
63 -66 74 -87 74 -143 0 -41 -7 -62 -40 -115 -44 -71 -48 -91 -25 -110 19 -16
18 -17 48 52 18 41 37 65 69 87 109 76 118 94 78 159 -23 38 -29 39 -63 12
-49 -39 -68 -10 -21 33 34 32 29 62 -10 62 -20 0 -30 5 -32 18 -4 26 -21 44
-80 83 -58 38 -70 57 -49 74 18 15 59 6 132 -27 37 -17 62 -23 81 -18 22 5
190 107 225 136 11 9 -49 76 -85 95 -23 12 -36 13 -60 5 -41 -15 -44 -9 -17
28 24 33 21 44 -19 56 -19 5 -25 2 -29 -14 -5 -21 -23 -30 -23 -11 0 6 -22 22
-50 38 -45 25 -56 38 -74 95 -15 46 -74 -9 -111 -103 -27 -69 -68 -120 -97
-120 -23 0 -23 10 4 65 12 24 19 48 15 52 -4 4 -28 -3 -52 -15 -25 -12 -45
-20 -45 -17 0 2 9 19 20 38 11 19 19 45 18 58 -3 20 3 24 41 31 79 14 98 58
36 84 -32 13 -147 18 -188 7z"/>
<path d="M6894 12485 c-9 -23 4 -65 23 -72 18 -7 57 33 47 48 -3 5 -19 16 -35
24 -26 14 -30 14 -35 0z"/>
<path d="M6003 12101 c-6 -10 -26 -21 -43 -24 l-32 -7 22 -30 c21 -30 60 -47
78 -36 17 10 23 58 11 88 -13 33 -20 35 -36 9z"/>
<path d="M7610 12064 c-52 -30 -114 -59 -138 -65 -46 -12 -63 -31 -105 -115
-40 -80 -60 -169 -55 -251 6 -83 -3 -103 -58 -129 -38 -18 -78 -77 -89 -134
-4 -19 -9 -38 -11 -42 -3 -4 -48 18 -102 49 -53 31 -108 56 -122 56 -14 0 -47
-14 -74 -31 -114 -73 -197 -27 -316 176 -57 96 -63 100 -118 81 -34 -12 -47
-37 -37 -70 7 -20 5 -21 -44 -14 -39 5 -51 4 -51 -6 0 -23 102 -113 226 -199
159 -112 264 -217 306 -305 28 -60 32 -83 38 -183 5 -90 10 -117 23 -126 12
-10 16 -27 15 -72 -1 -45 5 -72 25 -114 31 -64 32 -79 11 -207 -33 -207 32
-371 177 -444 35 -17 64 -40 73 -57 18 -35 48 -216 44 -267 l-3 -40 -46 3
c-64 5 -85 -16 -222 -218 -106 -155 -116 -167 -171 -196 -33 -18 -68 -42 -78
-55 -31 -39 -78 -142 -78 -172 0 -29 -9 -35 -87 -56 -34 -9 -44 -17 -49 -39
-12 -54 -16 -63 -55 -114 -44 -59 -47 -85 -24 -183 8 -33 15 -94 15 -135 0
-59 6 -86 26 -130 30 -64 33 -120 11 -200 -22 -75 -39 -263 -27 -294 11 -31
18 -35 93 -50 61 -13 62 -13 59 -44 -4 -44 32 -52 102 -23 28 11 55 21 59 21
3 0 4 -26 1 -57 -5 -48 -3 -62 13 -81 l19 -24 148 37 c92 23 172 49 214 71 37
19 94 39 129 44 34 6 93 24 133 41 44 18 102 34 150 39 44 5 92 16 107 24 45
24 357 353 484 511 93 115 195 264 224 326 31 67 33 140 6 185 -19 31 -54 62
-141 127 -47 35 -140 143 -140 163 0 7 23 26 50 44 85 54 91 94 29 166 -51 59
-60 83 -53 137 5 36 2 47 -25 80 -36 46 -46 98 -45 222 2 106 17 168 50 208
20 24 23 36 18 66 -11 58 -56 184 -128 358 l-68 162 50 83 c27 46 69 121 92
167 l42 84 -22 41 c-47 84 -100 145 -157 179 -78 45 -95 76 -101 192 -4 73 -1
102 13 139 17 44 17 47 0 66 -17 19 -16 21 13 67 21 33 30 59 29 85 -1 25 9
52 30 86 62 100 65 146 13 224 -28 43 -198 189 -216 187 -5 -1 -52 -26 -104
-55z"/>
<path d="M5856 11948 c-8 -13 -18 -42 -22 -65 -6 -39 -5 -43 14 -43 25 0 62
45 62 76 0 19 -23 54 -35 54 -3 0 -11 -10 -19 -22z"/>
<path d="M6020 11952 c-28 -23 -37 -92 -18 -147 26 -79 69 -44 83 66 11 87
-16 121 -65 81z"/>
<path d="M5714 11810 c-41 -16 -82 -156 -48 -167 16 -5 79 41 79 57 1 8 9 27
18 41 14 21 15 32 8 53 -11 27 -22 30 -57 16z"/>
<path d="M6218 11554 c-4 -3 3 -31 15 -63 l21 -58 -32 -61 c-28 -53 -31 -65
-20 -82 11 -17 10 -25 -2 -47 -30 -52 -48 -55 -123 -22 -38 17 -96 36 -130 43
-42 9 -65 19 -75 34 -8 12 -21 22 -28 22 -15 0 -18 -11 -33 -132 -9 -81 -37
-158 -61 -173 -5 -3 -32 6 -59 21 -70 40 -88 29 -141 -83 -72 -152 -75 -157
-109 -168 -17 -5 -31 -15 -31 -22 0 -6 15 -38 34 -69 33 -55 34 -59 21 -91 -8
-18 -42 -76 -76 -128 -69 -107 -108 -194 -109 -241 0 -38 -22 -59 -84 -80 -69
-24 -76 -40 -86 -206 -10 -155 -30 -242 -80 -353 -18 -39 -40 -93 -50 -121
l-18 -52 28 -20 c59 -44 59 -171 0 -213 -22 -15 -32 -16 -82 -7 -80 16 -125 1
-177 -58 -66 -75 -83 -134 -91 -314 -7 -174 4 -491 21 -561 7 -31 27 -66 60
-105 39 -46 49 -66 49 -94 0 -47 -29 -102 -62 -118 -33 -15 -33 -16 -12 -96
19 -73 14 -192 -10 -251 -9 -22 -33 -54 -52 -72 -24 -22 -35 -39 -33 -55 2
-13 -4 -34 -13 -48 -10 -16 -17 -57 -21 -116 -4 -92 -27 -163 -54 -172 -6 -2
-21 6 -32 17 -12 12 -23 21 -26 21 -11 0 -3 -101 15 -182 30 -139 195 -513
268 -608 23 -30 27 -47 30 -116 3 -67 1 -84 -14 -98 -17 -17 -16 -21 21 -94
26 -51 38 -87 37 -113 -3 -58 15 -66 101 -45 118 29 117 28 117 88 0 71 29
121 68 116 21 -2 28 2 30 19 6 41 26 47 116 35 46 -6 93 -8 105 -5 41 11 112
183 126 303 3 36 13 93 21 127 7 34 20 130 29 214 9 89 22 165 31 185 9 19 40
55 70 80 29 25 61 63 72 85 11 22 23 35 27 30 12 -20 37 -11 72 24 26 26 33
40 28 56 -6 18 -5 19 13 10 59 -31 89 5 41 50 -17 15 -28 33 -24 39 4 6 29 22
56 36 72 36 81 62 44 132 -43 82 -196 235 -255 254 -71 22 -84 59 -85 233 0
133 2 145 35 245 34 103 40 158 25 212 -6 24 -2 30 45 64 35 25 58 51 70 78
42 99 231 293 381 391 104 69 120 86 167 185 17 36 54 92 81 125 28 32 51 62
51 65 0 4 -18 25 -40 48 -52 52 -52 81 0 179 23 42 38 83 35 93 -3 11 15 40
56 86 65 73 89 116 89 161 0 52 11 74 31 68 11 -4 19 -3 19 2 0 4 4 15 10 23
8 12 11 12 27 -1 10 -9 33 -21 52 -28 41 -13 177 -15 186 -1 3 5 -4 51 -16
101 -22 93 -22 138 -3 340 5 59 3 73 -24 135 -20 46 -29 78 -25 97 4 18 0 34
-12 47 -14 16 -19 46 -24 147 -6 109 -11 136 -34 186 -36 78 -129 170 -287
282 -69 49 -153 118 -187 152 -56 57 -89 74 -105 57z"/>
<path d="M5210 11480 c0 -6 -19 -19 -43 -29 -23 -10 -48 -26 -56 -35 -21 -25
13 -33 55 -13 42 20 42 14 4 -43 -16 -25 -30 -48 -30 -52 0 -10 62 -10 75 0 6
4 11 14 12 22 1 8 7 29 13 45 9 23 10 40 1 73 -11 37 -31 59 -31 32z"/>
<path d="M5327 11463 c-8 -10 -20 -37 -26 -60 -7 -23 -19 -46 -28 -51 -8 -5
-19 -27 -22 -48 -6 -38 -7 -39 -57 -45 -80 -10 -154 -59 -141 -94 13 -32 67
-15 129 43 14 13 31 21 37 18 6 -4 28 9 49 29 22 19 42 35 45 35 3 0 1 -14 -5
-31 -6 -16 -8 -33 -4 -36 7 -7 83 55 138 111 41 44 54 73 44 104 -12 36 -35
34 -72 -6 l-34 -37 0 31 c0 28 -15 54 -30 54 -4 0 -14 -8 -23 -17z"/>
<path d="M6130 7646 c-18 -22 -9 -61 15 -61 25 0 48 44 33 62 -14 17 -33 16
-48 -1z"/>
<path d="M6659 7602 c-14 -12 -20 -25 -16 -35 8 -20 43 -11 62 16 26 38 -6 51
-46 19z"/>
<path d="M7217 7356 c-11 -9 -33 -12 -61 -9 -64 8 -148 -20 -187 -62 -18 -19
-46 -37 -61 -41 -53 -11 -62 -90 -18 -147 20 -25 20 -25 0 -30 -26 -7 -25 -12
11 -75 39 -68 70 -84 103 -53 l24 23 17 -26 c13 -19 16 -37 11 -65 -4 -29 -2
-44 10 -55 14 -14 19 -14 52 1 20 9 50 16 66 15 42 -2 113 -47 185 -119 35
-35 68 -63 73 -63 5 0 23 7 39 16 18 9 41 13 58 9 34 -7 87 26 113 71 18 31
18 33 -2 83 -43 111 -20 259 64 401 l44 75 -127 7 c-93 4 -148 13 -210 32 -92
28 -176 33 -204 12z"/>
<path d="M6647 7163 c-14 -13 -6 -43 14 -54 18 -9 25 -7 42 9 26 27 16 52 -21
52 -16 0 -32 -3 -35 -7z"/>
<path d="M6643 6999 c-45 -13 -70 -51 -54 -85 10 -22 16 -25 39 -19 34 8 104
49 122 71 12 14 12 18 -5 30 -21 16 -55 17 -102 3z"/>
<path d="M1286 6968 c-15 -36 -42 -127 -51 -170 -4 -19 -13 -30 -30 -34 -39
-10 -75 -59 -75 -103 0 -42 23 -81 49 -81 30 0 31 -12 4 -44 -55 -65 -105
-206 -73 -206 6 0 10 -4 10 -10 0 -5 -11 -10 -24 -10 -13 0 -29 -7 -36 -15
-18 -22 14 -55 54 -55 24 0 42 12 88 61 32 33 58 58 58 56 0 -3 -16 -38 -35
-79 -42 -88 -51 -132 -35 -173 l12 -30 9 24 c9 23 10 23 30 5 15 -13 34 -18
65 -17 48 2 46 6 28 -57 -3 -12 1 -32 10 -45 22 -33 21 -36 -18 -124 -53 -118
-52 -117 -13 -156 43 -43 54 -44 62 -5 8 35 11 36 54 14 41 -20 78 -12 113 27
22 24 35 29 72 29 44 0 59 -11 35 -25 -6 -4 -24 -25 -40 -47 -21 -30 -29 -52
-29 -84 0 -61 8 -74 56 -94 37 -16 45 -25 55 -62 8 -33 8 -54 0 -88 -7 -25
-15 -55 -18 -67 -3 -15 3 -32 21 -54 31 -36 30 -45 -7 -73 l-27 -20 -23 22
c-13 12 -37 24 -53 28 -43 8 -112 -13 -140 -43 -33 -36 -31 -59 7 -67 24 -4
30 -10 25 -22 -4 -9 1 -25 9 -34 14 -16 14 -22 -5 -72 -27 -74 -76 -122 -150
-149 -68 -25 -82 -42 -74 -91 11 -61 11 -62 50 -38 28 18 43 21 77 15 23 -3
66 -10 94 -14 41 -5 61 -15 88 -41 l34 -33 43 19 c24 10 65 39 92 64 l49 45
-22 -42 c-27 -54 -76 -110 -112 -129 -15 -7 -50 -14 -76 -14 -93 -1 -159 -52
-286 -221 -78 -104 -76 -119 11 -75 85 43 123 50 166 32 62 -26 83 -21 105 23
23 44 71 88 107 97 15 4 44 -2 74 -15 62 -27 106 -28 113 -2 6 23 27 26 297
39 156 8 193 12 236 31 49 21 134 95 122 106 -2 3 -37 9 -76 14 -39 5 -75 12
-81 16 -19 11 -12 33 19 55 17 12 29 29 28 38 -2 11 18 31 55 55 72 48 108
101 115 166 9 95 -48 145 -166 146 -49 0 -66 -4 -76 -17 -16 -21 -55 -23 -81
-4 -18 13 -18 15 7 45 34 39 41 64 34 106 -8 42 -57 84 -126 109 -27 10 -50
21 -50 25 0 3 13 22 28 41 82 100 69 152 -55 214 -81 40 -90 57 -158 297 -18
64 -71 125 -150 170 -41 23 -62 29 -114 29 -70 0 -143 18 -138 33 2 6 34 23
72 38 38 16 78 38 89 50 l21 21 -52 -6 c-29 -4 -53 -3 -53 2 0 4 21 21 46 37
63 40 104 91 158 196 57 111 82 194 66 214 -34 41 -271 24 -383 -27 -37 -17
-70 -28 -74 -24 -4 3 8 36 26 71 19 37 31 71 27 81 -6 17 26 52 128 141 52 45
58 72 16 84 -14 4 -92 7 -173 8 l-148 1 -13 -32z"/>
<path d="M5954 6785 c-33 -13 -91 -79 -118 -132 -17 -34 -21 -119 -7 -142 27
-43 101 53 101 132 0 47 5 56 58 99 44 35 19 65 -34 43z"/>
<path d="M7105 6778 c-74 -38 -77 -43 -70 -124 8 -84 -12 -143 -64 -186 -74
-63 -153 -41 -205 56 -44 81 -99 136 -136 136 -45 0 -137 -38 -160 -67 -11
-15 -20 -41 -20 -62 0 -32 -15 -79 -63 -208 -18 -45 -34 -173 -23 -173 4 0 38
18 74 40 103 60 131 63 379 43 203 -16 217 -16 245 0 40 23 45 22 89 -18 22
-19 46 -35 55 -35 31 0 81 -34 156 -107 l77 -74 47 27 c32 19 59 27 90 26 55
0 96 26 142 93 30 44 33 55 29 97 -7 56 -39 123 -67 138 -18 9 -19 18 -13 88
3 48 2 86 -5 98 -6 11 -34 33 -62 48 -52 28 -67 29 -143 10 -25 -6 -35 1 -97
65 -39 39 -85 80 -103 91 -41 26 -101 25 -152 -2z"/>
<path d="M4185 6592 c-74 -66 -112 -88 -167 -97 -45 -7 -117 -60 -138 -100
-12 -24 -15 -72 -15 -226 l0 -196 43 -46 c33 -37 42 -54 42 -82 0 -20 6 -51
14 -69 12 -29 21 -35 65 -46 38 -9 59 -9 85 0 35 11 69 40 48 40 -15 0 -32 65
-32 121 0 77 10 110 37 120 18 7 23 14 18 29 -5 15 0 21 27 28 30 7 33 12 34
45 1 45 28 77 64 77 29 0 76 42 65 59 -3 6 -19 11 -35 11 -75 0 -98 89 -60
229 12 41 20 93 18 115 -5 63 -31 60 -113 -12z"/>
<path d="M7078 6207 c-25 -19 -32 -19 -180 -8 -327 24 -410 14 -472 -60 -27
-31 -28 -37 -22 -99 8 -90 32 -156 72 -195 33 -33 44 -37 146 -50 30 -4 59
-16 79 -32 28 -24 31 -31 26 -72 -2 -25 -8 -54 -12 -63 -4 -11 1 -23 15 -35
13 -10 50 -46 85 -80 72 -72 95 -83 177 -83 54 0 63 3 89 31 15 17 45 35 66
41 50 13 129 94 141 145 6 21 13 49 16 63 3 15 18 31 38 40 20 9 35 25 38 40
4 17 16 28 37 35 29 10 30 12 17 30 -9 12 -12 30 -9 46 17 75 -142 249 -226
249 -13 0 -37 16 -58 39 l-36 38 -27 -20z"/>
<path d="M7725 6089 c-57 -58 -86 -71 -144 -63 -44 6 -50 4 -69 -21 -12 -15
-27 -46 -34 -68 -10 -34 -10 -41 5 -52 34 -25 13 -73 -40 -89 -34 -11 -111
-103 -119 -141 -3 -19 -15 -41 -25 -51 -12 -11 -19 -30 -19 -54 0 -36 -2 -38
-41 -44 -55 -9 -115 -41 -122 -65 -6 -26 -74 -44 -132 -36 -94 15 -106 -13
-74 -165 36 -176 19 -274 -49 -282 -53 -6 -55 -73 -2 -105 34 -20 44 -41 44
-97 1 -56 24 -67 74 -34 65 43 114 52 287 52 177 0 256 -12 323 -50 54 -32
105 -40 333 -54 207 -13 252 -22 273 -51 17 -24 21 -18 30 41 13 90 72 157
157 180 28 8 40 17 45 35 7 27 -10 115 -37 198 -21 62 -16 87 21 107 15 8 27
7 49 -5 40 -20 74 -19 121 5 57 29 67 54 36 90 -14 17 -22 37 -19 48 5 21 -19
32 -74 32 -35 0 -63 22 -63 49 0 9 -20 41 -45 70 -55 65 -126 205 -127 251 0
19 3 54 7 77 14 77 -45 167 -142 217 -42 21 -75 20 -106 -4 -39 -31 -57 -26
-57 15 0 45 -33 69 -83 60 -29 -6 -35 -4 -40 14 -4 17 -10 20 -35 15 -17 -4
-32 -1 -36 5 -13 20 -31 12 -71 -30z"/>
<path d="M4567 6076 c-133 -59 -145 -73 -111 -137 8 -17 13 -38 10 -46 -8 -19
42 -66 118 -111 64 -39 87 -39 57 0 -28 35 -27 43 9 58 17 7 30 14 30 17 0 2
-9 17 -21 32 -19 26 -20 32 -7 57 9 20 21 29 38 29 23 0 25 3 24 47 0 50 -23
88 -53 88 -9 0 -51 -16 -94 -34z"/>
<path d="M770 5847 c-75 -37 -140 -81 -140 -96 0 -7 -9 -29 -21 -47 l-21 -34
59 0 c87 0 129 29 178 122 43 82 29 96 -55 55z"/>
<path d="M5130 5830 c0 -6 11 -22 25 -35 13 -14 29 -25 35 -25 18 0 11 26 -13
48 -25 23 -47 29 -47 12z"/>
<path d="M6332 5794 l-44 -44 39 0 c21 0 44 5 51 12 13 13 17 79 5 77 -5 -1
-28 -21 -51 -45z"/>
<path d="M934 5795 c-63 -32 -214 -174 -214 -202 0 -11 19 -44 42 -73 34 -43
44 -50 52 -38 20 27 72 85 83 91 6 4 20 -8 32 -28 24 -41 75 -75 113 -75 38 0
95 53 110 102 11 39 11 42 -15 62 -18 14 -30 37 -37 71 -22 103 -79 134 -166
90z"/>
<path d="M3969 5689 c12 -19 30 -49 39 -67 l17 -34 -35 -29 c-24 -19 -30 -29
-18 -29 9 0 25 -18 37 -42 26 -53 99 -138 159 -183 27 -21 38 -35 28 -35 -27
0 -83 26 -123 58 -38 30 -91 52 -124 52 -15 0 -18 -8 -16 -57 2 -54 0 -58 -22
-61 -35 -5 -71 6 -71 23 0 20 -33 27 -110 23 l-65 -3 4 -110 c4 -136 -13 -190
-63 -203 -42 -11 -45 -38 -7 -60 63 -35 27 -125 -68 -170 l-56 -27 -5 -80 c-3
-44 -9 -86 -14 -93 -15 -25 -7 -100 17 -163 39 -99 40 -108 23 -134 -21 -32
-20 -47 4 -88 11 -18 23 -56 26 -83 4 -27 11 -57 16 -67 11 -22 74 -53 215
-107 l112 -43 -40 -78 c-65 -130 -110 -289 -81 -289 4 0 50 9 102 20 114 24
163 25 180 5 7 -8 28 -15 47 -15 20 0 63 -15 104 -36 38 -20 79 -36 92 -36 22
1 42 4 252 50 172 36 177 37 225 12 23 -12 44 -19 47 -16 3 2 -5 35 -17 71
-28 84 -24 94 72 175 40 34 79 68 87 76 12 11 -3 31 -106 138 -128 130 -183
210 -183 263 0 24 8 38 37 62 49 40 284 157 346 172 32 8 63 26 95 54 46 42
47 44 46 101 -2 72 -56 298 -85 357 -12 23 -35 57 -50 75 -35 39 -35 50 -8
104 40 78 22 217 -37 295 -22 29 -30 32 -68 31 -37 -2 -51 3 -87 33 -75 61
-81 63 -149 35 -73 -30 -169 -87 -192 -115 -20 -24 -37 -25 -89 -11 -67 19
-73 51 -18 83 49 27 24 44 -72 49 -64 2 -83 7 -90 21 -6 10 -22 17 -39 17 -36
0 -37 6 -7 38 l22 24 -23 18 c-20 16 -71 30 -201 56 l-34 6 22 -33z"/>
<path d="M5730 5674 c-100 -21 -201 -61 -272 -107 -38 -25 -111 -58 -179 -81
-63 -22 -135 -50 -161 -63 -54 -26 -57 -35 -36 -135 11 -54 10 -61 -15 -123
-15 -36 -27 -72 -27 -81 0 -9 16 -34 35 -56 54 -64 108 -246 121 -408 7 -90
17 -120 37 -120 7 0 29 -16 47 -35 23 -24 53 -41 90 -52 96 -27 142 -67 88
-75 -22 -3 -20 -6 19 -47 51 -51 79 -52 76 -2 -1 31 1 32 25 26 95 -23 308
-148 372 -218 35 -37 42 -41 60 -29 34 21 54 14 105 -38 27 -27 55 -50 61 -50
7 0 38 14 70 31 56 29 64 31 150 27 86 -4 98 -7 199 -56 59 -29 111 -50 116
-46 5 3 0 23 -11 44 -11 22 -20 46 -20 55 0 28 55 97 169 210 61 60 111 117
111 126 0 10 -13 47 -30 83 -41 92 -51 134 -59 254 l-8 103 -42 43 c-49 50
-48 56 19 121 60 57 74 88 66 151 -8 66 -57 260 -86 336 -21 56 -22 57 -68 65
-64 11 -601 10 -684 -1 -55 -7 -76 -6 -113 8 -47 18 -85 57 -85 86 0 23 -30
57 -55 63 -11 3 -49 -1 -85 -9z"/>
<path d="M4843 5593 c7 -43 18 -56 40 -48 38 15 22 66 -25 78 -19 5 -20 2 -15
-30z"/>
<path d="M605 5590 c-4 -6 -5 -27 -3 -48 3 -41 7 -40 -80 -26 -38 6 -44 4 -48
-13 -5 -20 -6 -20 -29 3 -13 13 -31 24 -40 24 -26 0 -71 -27 -89 -54 -26 -40
-21 -56 17 -56 35 0 57 -15 57 -38 0 -7 -22 -37 -50 -66 -27 -29 -50 -57 -50
-62 0 -20 46 -36 132 -45 49 -5 94 -11 99 -14 15 -10 -3 -35 -47 -66 -44 -30
-65 -72 -47 -90 6 -6 32 -16 59 -23 l49 -13 -65 -21 c-88 -30 -110 -46 -110
-83 0 -42 -15 -68 -63 -112 l-42 -38 45 7 c71 11 75 10 75 -10 0 -10 10 -22
23 -27 15 -6 22 -17 22 -34 0 -19 5 -25 23 -25 30 0 138 52 161 79 13 14 31
21 56 21 28 0 47 9 88 45 33 27 67 47 90 51 20 3 47 15 59 26 21 20 22 20 53
2 31 -19 32 -19 46 1 17 23 50 132 59 195 8 58 -10 199 -35 275 -11 33 -37 81
-58 107 -20 25 -43 54 -49 64 -12 18 -16 15 -61 -34 l-49 -54 -49 55 c-76 85
-133 123 -149 97z"/>
<path d="M3404 5221 c-44 -11 -54 -19 -70 -57 -21 -49 -17 -71 15 -100 34 -30
61 -81 61 -114 0 -35 -55 -80 -100 -80 -57 0 -74 26 -79 122 -4 99 -22 102
-55 8 -12 -36 -44 -107 -69 -157 -26 -51 -47 -95 -47 -97 0 -3 34 -10 75 -17
41 -6 75 -15 75 -18 -1 -3 -31 -20 -68 -37 l-67 -31 65 4 c53 4 71 1 100 -17
75 -44 158 -80 173 -74 9 3 21 21 27 40 10 29 9 45 -4 85 -9 27 -14 54 -11 59
3 5 22 14 43 21 52 17 96 48 121 84 28 41 27 50 -9 77 -39 28 -38 47 6 89 93
89 83 179 -22 208 -43 12 -113 13 -160 2z"/>
<path d="M8735 4880 c-22 -15 -40 -19 -66 -16 -27 4 -43 1 -61 -13 -30 -24
-49 -29 -165 -40 -144 -15 -176 -42 -189 -158 -12 -101 -33 -118 -72 -57 -23
35 -25 36 -68 29 -33 -5 -60 -1 -105 14 -56 20 -62 20 -91 5 -25 -13 -38 -14
-72 -5 -22 6 -87 15 -144 20 -78 7 -108 14 -128 30 -48 38 -121 53 -279 58
-169 6 -249 -5 -293 -41 -15 -13 -40 -29 -57 -37 -26 -12 -30 -21 -33 -57 -3
-34 5 -60 34 -118 33 -66 36 -80 30 -124 -9 -65 -15 -80 -33 -80 -21 0 -155
-132 -199 -195 l-36 -53 20 -70 c11 -39 17 -73 14 -76 -3 -3 -20 -6 -38 -6
-42 0 -65 -32 -72 -99 -11 -115 79 -165 323 -180 94 -6 115 -10 142 -30 l32
-24 68 17 c86 21 179 64 224 104 50 44 83 54 174 54 97 1 186 -21 282 -67 94
-47 113 -71 113 -147 0 -47 3 -60 18 -64 38 -12 46 -23 57 -76 6 -33 22 -68
38 -88 20 -23 27 -42 25 -63 -2 -24 2 -34 21 -43 23 -12 23 -12 3 -23 -11 -6
-38 -13 -60 -17 -34 -5 -42 -3 -51 15 -16 29 -32 26 -62 -12 -47 -60 -149
-242 -149 -267 0 -16 45 -12 102 11 121 47 318 209 318 260 0 38 41 65 131 84
98 20 138 13 180 -31 l23 -25 -29 -24 -30 -23 25 -10 c14 -5 72 -15 130 -22
57 -6 119 -18 137 -25 65 -27 31 -76 -90 -130 -36 -17 -67 -32 -67 -35 0 -3
32 -24 70 -48 83 -51 102 -80 94 -148 -4 -33 -1 -55 8 -67 12 -17 16 -17 57
-2 24 8 58 24 75 34 17 11 60 29 96 40 51 17 70 28 84 52 l18 30 81 -7 c75 -6
84 -4 110 16 30 24 36 57 11 67 -9 3 -50 -4 -91 -15 -94 -26 -114 -19 -192 63
-29 31 -59 54 -66 51 -25 -9 -23 34 4 77 28 42 106 117 124 117 5 0 54 18 109
40 55 22 123 46 151 52 29 6 62 19 75 29 13 10 60 30 105 45 105 34 137 51
137 70 0 25 69 113 113 145 35 25 49 29 107 29 79 0 86 5 102 84 10 48 10 62
-6 106 -23 64 -16 103 29 171 19 28 35 57 35 64 0 42 -243 150 -369 164 -54 6
-55 7 -101 71 -57 80 -73 84 -157 39 -45 -25 -67 -31 -77 -24 -61 45 -71 49
-125 50 -52 0 -57 2 -78 35 -17 24 -22 42 -18 62 5 21 -1 41 -19 72 -36 62
-71 88 -110 80 -17 -3 -44 -1 -59 5 -47 18 -74 114 -44 161 28 45 -68 159
-148 174 -21 4 -39 0 -60 -14z"/>
<path d="M3170 4613 c-8 -3 -48 -18 -89 -35 -57 -23 -82 -28 -110 -23 -20 4
-57 8 -83 8 -39 2 -52 -3 -78 -28 -25 -24 -30 -36 -28 -65 l3 -35 52 3 c45 3
52 1 58 -17 12 -39 58 -82 111 -106 57 -25 74 -47 74 -94 0 -50 13 -47 99 17
l31 23 0 -23 c1 -58 82 -166 128 -169 54 -4 62 8 55 77 -6 59 15 108 41 98 17
-6 36 24 36 58 0 39 -37 88 -70 95 -35 6 -50 28 -50 70 0 40 -24 70 -79 97
-26 14 -53 32 -60 40 -14 17 -17 17 -41 9z"/>
<path d="M2672 4477 c-18 -6 -47 -23 -63 -38 -23 -22 -29 -35 -29 -71 0 -54
-37 -133 -81 -175 -19 -17 -59 -44 -89 -59 -86 -42 -120 -71 -120 -103 0 -42
-17 -51 -95 -51 -99 0 -168 20 -199 57 -25 29 -81 61 -91 51 -3 -3 1 -20 9
-39 12 -30 56 -232 56 -260 0 -5 -34 -9 -75 -9 -41 0 -95 -5 -120 -12 l-45
-12 -48 47 c-53 52 -70 57 -97 27 -21 -23 -65 -37 -146 -45 -31 -3 -65 -12
-75 -19 -19 -14 -16 -19 41 -60 15 -11 19 -24 17 -59 -1 -25 -3 -51 -4 -58 -2
-8 11 -14 35 -16 20 -2 63 -15 95 -29 87 -39 133 -55 182 -62 41 -7 45 -10 45
-35 1 -18 15 -41 44 -71 29 -30 42 -50 37 -61 -15 -39 66 -145 137 -178 69
-33 69 -31 52 -238 -18 -214 -45 -377 -80 -486 -26 -78 -25 -88 10 -95 12 -2
20 -11 20 -24 0 -61 71 -84 295 -94 197 -10 262 -25 316 -73 31 -26 44 -31 88
-31 28 0 66 6 84 13 28 12 35 22 52 81 24 80 59 117 158 163 79 37 93 35 304
-31 l157 -49 38 17 c21 10 64 41 96 69 32 28 75 60 95 70 34 18 72 65 72 90 0
6 -14 11 -31 11 -67 0 -129 75 -129 157 0 28 -6 58 -15 69 -24 31 -17 52 25
79 22 14 40 29 40 34 0 5 -12 34 -26 65 -17 37 -24 66 -20 82 3 13 9 35 12 48
4 17 -2 32 -25 57 l-30 34 -70 -38 -70 -37 20 35 c11 19 20 45 19 57 -3 39 -1
44 26 56 14 7 32 29 41 49 8 21 33 58 55 82 22 25 42 58 45 72 3 18 13 29 28
33 32 8 49 39 81 142 14 49 38 114 51 144 39 87 44 108 27 125 -9 8 -22 15
-31 15 -8 0 -65 22 -127 48 -104 46 -182 74 -283 101 -22 6 -68 31 -101 55
-73 54 -114 76 -142 76 -34 0 -60 19 -60 43 0 47 -12 67 -37 67 -55 0 -133 60
-133 103 0 26 -24 37 -59 27 -43 -12 -58 -5 -71 35 -15 46 -30 51 -88 32z"/>
<path d="M5120 4445 c-132 -27 -337 -117 -407 -178 -67 -59 -37 -123 147 -308
178 -180 212 -193 289 -109 25 28 54 50 63 50 10 0 57 -11 105 -25 48 -14 126
-28 173 -32 74 -5 88 -3 103 12 10 10 26 15 38 12 51 -13 150 46 163 98 4 16
26 36 64 58 65 38 74 58 40 94 -39 41 -247 153 -285 153 -8 0 -28 -11 -45 -25
-16 -14 -34 -25 -39 -25 -18 0 -109 99 -109 118 0 23 -56 50 -125 60 -41 6
-51 11 -53 29 -3 17 -31 35 -52 32 -3 -1 -34 -7 -70 -14z"/>
<path d="M3420 4191 c-24 -45 3 -141 39 -141 46 0 55 82 15 129 -30 36 -39 38
-54 12z"/>
<path d="M6012 4035 c-32 -27 -58 -32 -64 -13 -3 7 -14 9 -29 5 -47 -13 -87
-46 -109 -91 -25 -52 -81 -92 -153 -108 -52 -11 -75 -32 -83 -73 -11 -62 51
-156 129 -194 38 -18 49 -19 112 -10 85 13 95 18 115 55 14 24 25 30 67 35 27
4 61 14 75 23 16 10 43 16 72 14 45 -1 50 1 86 43 l38 44 100 0 c90 0 103 -2
124 -22 14 -13 29 -23 34 -23 21 0 64 58 98 133 l36 78 -73 34 c-142 65 -266
69 -356 9 -22 -14 -54 -27 -71 -27 -28 -2 -33 2 -45 38 -13 37 -46 75 -65 75
-5 0 -22 -11 -38 -25z"/>
<path d="M5195 3858 c-11 -6 -40 -29 -65 -51 -48 -41 -42 -40 -145 -21 -25 4
-42 -4 -107 -53 -43 -32 -80 -68 -84 -80 -3 -12 2 -54 12 -92 22 -86 14 -104
-39 -82 -55 24 -110 24 -189 2 -63 -18 -142 -33 -304 -58 -19 -3 -45 2 -64 12
-46 24 -60 14 -60 -40 0 -76 58 -117 114 -80 21 14 26 13 60 -10 45 -30 55
-31 100 -4 29 17 184 59 218 59 4 0 19 -18 33 -40 14 -22 36 -47 50 -56 38
-25 161 -54 260 -60 159 -11 409 59 458 127 13 17 21 50 24 95 6 79 13 90 65
111 21 8 38 22 39 32 4 57 -22 180 -46 217 -10 16 -28 23 -69 28 -31 3 -91 17
-133 31 -88 28 -100 29 -128 13z"/>
<path d="M6275 3728 c-11 -6 -34 -26 -51 -44 -28 -30 -38 -34 -82 -34 -31 0
-52 -5 -54 -12 -3 -7 -31 -17 -64 -23 -47 -8 -61 -15 -71 -34 -15 -31 -45 -47
-105 -55 -66 -10 -132 2 -174 30 -44 30 -50 30 -66 -3 -13 -26 -26 -36 -60
-47 -11 -3 -18 -15 -18 -31 0 -14 -4 -25 -9 -25 -17 0 -46 -94 -46 -150 0
-106 69 -181 238 -260 95 -45 135 -49 175 -20 36 26 96 42 306 79 188 33 217
46 227 102 10 53 25 85 85 177 65 100 145 188 180 196 33 9 30 29 -8 58 -49
37 -91 57 -139 64 -24 4 -55 15 -68 26 -18 14 -41 18 -100 18 -42 0 -85 -6
-96 -12z"/>
<path d="M7566 3709 c-22 -5 -41 -11 -43 -13 -6 -5 163 -284 199 -329 41 -52
48 -81 55 -245 4 -86 11 -149 18 -159 11 -15 15 -14 37 9 13 15 43 65 65 111
55 111 61 117 134 117 53 0 61 3 68 23 7 17 4 27 -15 44 -12 13 -31 42 -42 65
-10 24 -37 65 -60 91 -47 54 -50 68 -22 104 33 42 22 63 -32 63 -11 0 -22 8
-25 20 -6 21 -11 23 -54 20 -16 -1 -29 5 -32 14 -9 22 -75 53 -142 65 -32 6
-61 11 -64 10 -3 -1 -24 -5 -45 -10z"/>
<path d="M7402 3631 c-47 -32 -190 -87 -252 -97 -33 -5 -44 -2 -70 20 -28 23
-40 26 -104 26 -40 0 -98 5 -129 11 -70 14 -94 8 -147 -36 -23 -19 -50 -35
-59 -35 -23 0 -110 -134 -171 -264 -52 -110 -64 -123 -157 -170 -29 -14 -53
-29 -53 -33 0 -4 15 -21 34 -38 21 -19 39 -48 46 -73 8 -33 20 -48 53 -68 54
-34 67 -51 67 -89 0 -55 68 -94 166 -95 29 0 58 -6 70 -15 19 -15 19 -15 -1
-30 -18 -15 -18 -16 23 -58 28 -28 42 -52 42 -69 0 -29 16 -38 64 -38 17 0 57
-9 89 -20 117 -41 301 -22 451 47 82 38 109 46 156 46 81 -1 176 -30 208 -64
29 -31 81 -40 100 -16 5 6 15 44 21 82 14 83 46 184 66 211 15 19 16 18 34 -3
25 -30 33 -29 75 11 23 21 36 43 36 59 0 49 -69 63 -121 25 -44 -33 -114 -30
-144 5 -25 28 -30 56 -45 232 -6 66 -15 138 -21 160 -14 52 -105 225 -168 319
-66 98 -87 105 -159 57z"/>
<path d="M3919 3485 c-133 -16 -211 -38 -264 -75 -45 -31 -88 -82 -106 -127
-7 -15 -28 -43 -48 -61 -30 -27 -34 -34 -21 -42 8 -6 30 -9 48 -6 48 7 60 -1
87 -54 33 -65 50 -80 91 -80 56 0 101 24 118 64 15 36 68 72 87 60 6 -3 17
-22 25 -41 8 -18 21 -36 29 -40 24 -9 61 23 91 77 15 27 30 50 34 50 4 0 19
-9 33 -20 14 -11 33 -20 42 -20 17 0 115 87 115 102 0 6 -14 8 -32 4 -67 -12
-124 48 -135 145 -10 85 -13 86 -194 64z"/>
<path d="M4476 3300 c-16 -5 -39 -19 -51 -30 -18 -17 -33 -21 -66 -18 -40 3
-44 1 -47 -22 -2 -14 -17 -37 -33 -52 -16 -15 -29 -34 -29 -42 0 -34 -83 -31
-116 5 -9 10 -23 19 -30 19 -17 0 -51 -49 -58 -83 -3 -15 -8 -38 -11 -52 -3
-14 -11 -25 -17 -25 -7 0 -39 29 -73 65 -69 74 -95 83 -95 32 0 -47 -24 -65
-111 -83 -125 -25 -122 -21 -85 -107 l17 -38 -43 -40 -43 -39 28 -49 c31 -56
33 -71 12 -71 -20 0 -19 -19 4 -54 23 -34 69 -66 96 -66 26 0 45 -18 45 -42 0
-32 25 -20 131 61 l103 80 108 -56 c132 -67 151 -90 179 -209 12 -49 26 -99
31 -111 17 -35 227 -261 312 -336 91 -79 131 -101 208 -116 83 -15 117 -33
174 -89 28 -28 64 -54 80 -57 16 -4 35 -8 41 -11 7 -2 25 -29 40 -60 22 -47
34 -60 70 -76 57 -25 87 -68 124 -172 39 -112 47 -180 26 -204 -24 -26 -57
-103 -57 -134 0 -39 34 -56 62 -31 28 25 68 96 83 146 10 33 21 47 55 67 74
43 71 92 -11 161 -33 27 -49 49 -49 64 0 31 107 174 135 181 43 11 167 -64
185 -111 10 -27 29 -32 48 -13 19 19 14 34 -20 74 -44 50 -110 97 -263 189
-197 117 -216 135 -180 165 8 7 15 21 15 31 0 17 -9 19 -92 19 -77 0 -102 4
-143 24 -93 44 -158 124 -207 259 -16 44 -35 91 -43 106 -19 38 -87 97 -141
124 -43 20 -46 21 -55 4 -6 -9 -16 -17 -24 -17 -16 0 -21 16 -30 105 -3 33 -9
81 -12 108 -4 37 -2 52 12 68 18 18 18 22 2 73 -9 29 -17 60 -17 69 0 24 43
52 126 83 95 34 109 53 100 132 -9 78 -23 95 -93 114 -32 9 -74 28 -93 42 -74
54 -139 68 -214 46z"/>
<path d="M5350 3239 c-66 -23 -219 -55 -314 -65 -74 -7 -116 -33 -116 -71 0
-28 49 -125 78 -155 29 -31 79 -38 88 -13 8 19 51 19 84 0 14 -8 35 -14 46
-15 18 0 22 5 20 32 -1 27 4 34 39 52 37 20 40 24 40 65 0 42 3 46 60 91 44
34 60 53 60 71 0 31 -17 32 -85 8z"/>
<path d="M5363 3114 c-21 -22 -24 -31 -19 -64 5 -35 3 -41 -20 -56 -14 -9 -34
-34 -44 -54 -11 -21 -26 -40 -35 -44 -33 -12 -75 -6 -94 15 -26 28 -51 18 -51
-18 0 -18 14 -46 40 -77 25 -30 42 -63 46 -87 4 -21 20 -55 38 -76 60 -72 59
-72 47 -87 -25 -30 30 -96 125 -152 31 -18 65 -28 110 -32 l66 -5 -86 120
c-142 198 -180 288 -139 329 16 15 34 16 173 10 196 -8 333 -23 385 -42 22 -9
47 -18 55 -20 10 -3 21 9 35 38 14 29 27 44 43 46 17 3 22 -2 22 -18 0 -13 -8
-24 -20 -27 -26 -7 -25 -18 2 -55 18 -27 20 -35 10 -59 -40 -97 -40 -85 6
-132 23 -23 42 -47 42 -53 0 -6 -11 -17 -25 -24 -31 -16 -31 -27 -4 -56 27
-29 19 -50 -21 -59 -17 -4 -38 -18 -48 -33 -22 -35 -30 -41 -53 -35 -14 4 -19
0 -19 -16 0 -12 -12 -33 -27 -47 -25 -23 -26 -26 -13 -66 14 -50 62 -123 86
-132 12 -5 30 8 63 43 25 28 58 53 73 56 54 14 168 -65 168 -116 0 -32 24 -32
86 1 45 23 81 33 154 41 125 14 130 17 130 81 0 48 4 56 41 94 l42 43 -36 41
c-35 41 -67 114 -67 153 0 11 7 40 17 66 18 52 12 121 -12 121 -7 0 -22 -12
-32 -26 l-20 -26 -61 46 c-67 51 -92 81 -92 109 0 27 -27 62 -70 91 -30 19
-42 36 -51 68 -15 56 -94 138 -133 138 -39 0 -169 -30 -185 -43 -9 -8 -11 -23
-6 -52 4 -22 9 -54 12 -71 6 -36 -10 -52 -32 -34 -10 8 -15 31 -15 64 0 52
-12 76 -37 76 -7 0 -13 -7 -13 -15 0 -50 -135 -14 -300 80 -97 55 -122 65
-163 65 -38 0 -53 -5 -74 -26z"/>
<path d="M5353 2815 c-3 -9 -3 -30 1 -48 13 -66 175 -309 247 -370 23 -21 44
-49 50 -69 5 -19 25 -51 44 -71 36 -37 147 -117 162 -117 4 0 8 24 8 54 0 46
5 60 31 93 18 22 41 39 56 41 22 3 26 8 24 35 -1 30 1 32 37 35 41 4 45 11 21
47 -9 14 -16 43 -16 66 1 27 -6 47 -19 60 -28 28 -24 64 11 99 32 33 34 38 21
59 -6 9 -18 11 -39 6 -21 -4 -44 0 -76 14 -58 27 -108 37 -284 56 -152 17
-172 14 -172 -26 0 -28 -15 -23 -44 16 -29 37 -53 45 -63 20z"/>
<path d="M6681 2525 c-17 -15 -31 -36 -31 -48 0 -32 55 -123 90 -149 21 -15
30 -30 30 -49 0 -24 -6 -30 -39 -39 -44 -12 -51 -29 -51 -135 0 -58 3 -67 36
-106 44 -52 54 -76 47 -112 -4 -21 0 -29 21 -38 21 -10 39 -9 93 6 109 29 164
30 220 5 32 -15 75 -24 129 -27 99 -6 153 15 183 75 27 53 59 79 113 93 41 11
52 11 83 -4 50 -24 74 -22 85 8 14 37 -6 85 -36 85 -33 0 -31 28 6 75 16 20
39 62 50 93 25 66 52 98 98 118 40 16 41 47 2 52 -14 2 -70 24 -125 50 -89 42
-108 47 -170 47 -65 0 -76 -3 -160 -50 l-90 -50 -165 1 c-166 0 -292 14 -339
37 -20 10 -26 20 -26 46 0 44 -15 48 -54 16z"/>
<path d="M680 2407 c-14 -7 -32 -28 -41 -46 -20 -42 -60 -65 -100 -56 -24 5
-36 2 -55 -16 -29 -27 -31 -62 -4 -99 27 -38 41 -77 49 -135 l6 -50 62 3 c45
3 63 0 70 -11 22 -37 114 -50 157 -22 30 20 105 29 138 16 20 -7 28 -19 33
-50 4 -22 13 -45 21 -52 21 -17 18 -26 -27 -96 -36 -55 -43 -74 -49 -138 -4
-42 -15 -86 -24 -100 -10 -15 -17 -38 -16 -53 4 -54 -1 -70 -30 -107 -36 -45
-37 -60 -7 -105 37 -55 37 -64 5 -125 l-30 -58 21 -44 c11 -24 21 -48 21 -54
0 -6 -16 -29 -35 -52 -29 -33 -35 -49 -33 -77 3 -32 9 -38 76 -75 76 -42 85
-52 181 -208 57 -93 94 -99 138 -22 12 22 37 47 55 56 53 27 171 48 338 60
233 16 212 9 306 104 50 51 94 87 111 91 15 3 36 8 45 11 10 2 22 21 29 46 12
46 33 79 92 147 63 72 64 76 23 169 -20 45 -36 86 -36 91 0 6 43 72 95 147 53
75 107 158 121 184 29 51 77 83 174 114 91 29 206 94 249 140 44 47 58 95 42
138 -12 32 -30 34 -54 7 -21 -25 -86 -27 -152 -4 -26 8 -56 14 -68 14 -40 -4
-47 0 -47 25 0 36 -27 45 -132 45 -204 0 -360 35 -427 95 -51 46 -89 54 -311
65 -297 15 -432 28 -479 45 -31 11 -84 15 -180 15 -114 0 -143 4 -180 20 -49
23 -105 25 -141 7z"/>
<path d="M4011 2133 c-51 -25 -55 -46 -36 -159 9 -54 20 -103 25 -108 16 -16
58 22 86 80 38 77 40 157 5 185 -28 23 -36 23 -80 2z"/>
<path d="M6076 2099 c-31 -24 -31 -28 -6 -159 13 -70 7 -196 -11 -249 -9 -25
-8 -40 5 -72 9 -23 14 -49 11 -58 -4 -12 8 -27 40 -49 31 -22 47 -41 52 -62 3
-17 9 -33 13 -35 12 -7 64 59 100 126 17 32 40 65 52 73 21 15 21 15 -26 108
-45 91 -46 95 -44 178 3 101 -16 149 -71 185 -55 36 -82 40 -115 14z"/>
<path d="M6443 2040 c-13 -5 -23 -14 -23 -20 0 -5 -11 -10 -25 -10 -32 0 -70
-37 -95 -93 -25 -54 -25 -81 0 -133 39 -80 139 -99 224 -42 28 18 69 35 99 39
70 11 102 44 101 104 -1 56 -42 121 -89 141 -43 18 -163 27 -192 14z"/>
<path d="M7516 1980 c-52 -16 -76 -48 -76 -101 0 -26 -4 -50 -9 -53 -31 -20
-16 -122 24 -162 36 -35 64 -30 133 25 66 53 120 71 215 71 29 0 68 3 88 6
l36 6 -70 37 c-55 28 -81 49 -115 94 -38 50 -48 58 -68 53 -15 -4 -39 1 -64
14 -43 22 -51 23 -94 10z"/>
<path d="M9040 1980 c-14 -4 -66 -8 -116 -9 -115 -1 -251 -35 -371 -91 -105
-49 -160 -85 -168 -111 -12 -36 -38 -40 -137 -24 -99 16 -298 21 -298 7 0 -19
61 -64 101 -76 l43 -13 -59 -22 c-73 -26 -91 -36 -88 -50 4 -15 -23 -19 -182
-26 -277 -11 -385 -58 -385 -165 0 -39 14 -44 90 -30 34 6 64 9 67 6 3 -3 -4
-17 -16 -32 -28 -35 -27 -47 9 -87 35 -41 37 -51 10 -84 -11 -14 -20 -32 -20
-39 0 -7 9 -18 20 -24 11 -6 20 -15 20 -19 0 -5 -9 -11 -20 -14 -15 -4 -20
-14 -20 -36 0 -27 4 -32 30 -38 38 -7 55 -35 40 -63 -6 -11 -15 -20 -20 -20
-19 0 -9 -18 35 -66 25 -27 48 -59 51 -72 6 -21 10 -22 53 -16 25 3 48 6 51 6
30 0 45 -8 76 -42 22 -23 46 -40 59 -40 23 0 55 -28 55 -48 0 -6 15 -27 34
-46 28 -30 40 -36 75 -36 79 0 151 52 166 119 11 50 27 56 98 37 87 -24 214
-87 273 -136 62 -52 83 -56 156 -36 80 22 146 57 203 106 25 22 57 43 71 46
36 9 103 -2 123 -20 24 -22 39 -20 77 9 45 34 76 45 97 34 25 -14 20 -48 -13
-98 -33 -49 -37 -77 -16 -107 14 -19 15 -18 41 6 38 35 55 72 55 118 0 24 8
49 19 63 l19 24 51 -19 c56 -20 89 -18 191 9 64 16 68 16 154 -4 116 -28 129
-27 250 14 106 35 169 48 314 64 54 6 90 15 102 26 18 16 20 16 48 -1 27 -15
34 -16 64 -3 25 10 75 13 201 11 143 -2 168 0 173 13 9 24 -15 73 -49 100 -29
22 -30 25 -18 49 20 36 9 173 -21 266 -27 84 -26 100 5 100 34 0 47 14 54 53
7 47 -9 67 -56 67 -55 0 -81 19 -105 78 -19 45 -21 60 -13 92 10 36 9 41 -31
94 -23 30 -58 67 -79 83 -33 26 -43 28 -114 26 -93 -2 -171 -23 -236 -63 -65
-40 -203 -75 -257 -64 -41 7 -65 7 -291 2 -117 -3 -123 -2 -227 35 -58 20
-116 37 -128 37 -35 0 -75 27 -103 69 -28 41 -41 49 -52 31 -10 -15 -68 -12
-93 6 -13 9 -34 33 -48 55 -25 40 -31 43 -74 29z"/>
<path d="M558 1973 c-26 -7 -29 -31 -12 -96 35 -132 -6 -398 -87 -563 -50
-103 -50 -136 1 -144 40 -7 86 -35 100 -60 6 -11 6 -39 1 -72 -5 -29 -12 -87
-15 -128 -8 -103 2 -121 79 -137 87 -18 93 -17 131 21 28 28 33 40 28 61 -5
18 4 46 30 100 l37 75 -21 40 -21 41 31 53 c35 62 34 70 -27 169 -37 60 -35
76 7 77 9 0 26 7 39 16 19 14 22 23 18 55 -3 26 1 49 14 74 12 23 19 55 19 92
0 39 7 70 20 93 57 104 63 121 51 161 -6 21 -21 45 -34 54 -32 22 -90 19 -113
-6 -17 -19 -28 -20 -98 -17 -68 3 -81 6 -94 26 -14 21 -42 26 -84 15z"/>
<path d="M6915 1834 c-22 -8 -69 -18 -104 -21 -46 -4 -70 -12 -87 -28 -16 -15
-44 -25 -82 -30 -63 -8 -98 -23 -126 -54 -14 -15 -31 -21 -63 -21 -53 0 -84
-15 -77 -35 4 -8 -9 -33 -30 -57 -20 -23 -36 -52 -36 -65 0 -15 -10 -28 -30
-38 -26 -14 -30 -21 -30 -58 1 -85 72 -186 133 -188 l32 -1 -40 -12 c-47 -15
-55 -36 -30 -83 23 -43 57 -52 185 -51 85 1 118 -3 170 -21 84 -29 187 -87
223 -124 33 -35 42 -30 33 18 -10 54 -76 118 -185 183 -94 55 -95 56 -66 65
39 13 38 10 18 45 -15 26 -15 32 -3 47 10 12 22 15 48 10 29 -5 33 -4 30 11
-2 10 -17 21 -35 26 -31 8 -34 13 -48 72 -3 16 -15 41 -26 54 -25 32 -24 46 6
110 23 50 45 62 45 24 0 -34 29 -62 65 -62 63 0 82 13 87 65 4 29 13 51 24 60
18 13 215 55 259 55 11 0 59 -10 107 -22 72 -18 89 -20 102 -9 21 18 20 44 -2
71 -16 20 -32 24 -123 31 -60 4 -129 16 -163 28 -68 24 -125 26 -181 5z"/>
<path d="M3975 1712 c-90 -43 -92 -48 -66 -141 25 -94 26 -137 4 -207 -20 -65
-11 -91 42 -119 l37 -20 23 29 c12 16 33 29 46 30 20 1 28 12 48 71 35 103 35
221 0 295 -24 53 -52 90 -67 90 -4 0 -34 -13 -67 -28z"/>
<path d="M6475 1022 c-22 -16 -48 -38 -59 -50 -18 -21 -17 -22 39 -77 47 -45
56 -59 50 -78 -16 -51 -16 -73 -1 -86 11 -10 20 -10 37 0 20 10 25 8 43 -13
12 -14 29 -41 40 -59 17 -31 19 -32 30 -16 32 53 33 53 53 34 32 -28 43 -21
43 28 0 29 -9 64 -25 95 -14 27 -25 57 -25 66 0 18 4 17 81 -12 48 -19 79 -14
79 11 0 10 -10 15 -28 15 -19 0 -39 11 -63 36 -48 50 -172 125 -216 131 -31 4
-46 -1 -78 -25z"/>
<path d="M4810 995 c-9 -11 -23 -15 -41 -11 -15 3 -35 -1 -45 -9 -18 -13 -17
-16 16 -49 51 -51 184 -124 252 -137 49 -10 66 -19 107 -60 54 -54 80 -60 112
-28 16 16 20 29 15 57 -19 121 -19 116 13 181 25 49 29 63 17 67 -8 3 -74 -2
-148 -11 -106 -13 -143 -14 -178 -5 -84 22 -105 23 -120 5z"/>
<path d="M6900 365 c0 -11 46 -27 102 -36 34 -6 72 -18 85 -29 30 -24 98 -34
143 -23 46 12 49 30 8 47 -57 24 -338 58 -338 41z"/>
</g>
</svg>
