<?xml version="1.0" encoding="UTF-8" standalone="no"?>
<!DOCTYPE svg PUBLIC "-//W3C//DTD SVG 1.1//EN" "http://www.w3.org/Graphics/SVG/1.1/DTD/svg11.dtd">
<svg width="100%" height="100%" viewBox="0 0 24 24" version="1.1" xmlns="http://www.w3.org/2000/svg" xmlns:xlink="http://www.w3.org/1999/xlink" xml:space="preserve" xmlns:serif="http://www.serif.com/" style="fill-rule:evenodd;clip-rule:evenodd;stroke-linejoin:round;stroke-miterlimit:2;">
    <g transform="matrix(0.61749,0,0,0.61749,4.59012,4.59012)">
        <path d="M12.02,0C18.634,0.011 24,5.383 24,12C24,18.623 18.624,24 12,24C5.377,24 0,18.623 0,12C0,5.383 5.367,0.011 11.981,0L12.02,0ZM15.714,16L8.287,16C8.926,20.266 10.529,23 12,23C13.472,23 15.075,20.266 15.714,16M22.249,16L16.726,16C16.3,18.985 15.405,21.402 14.241,22.771C17.91,22.011 20.912,19.421 22.249,16M7.275,16L1.751,16C3.089,19.421 6.091,22.011 9.76,22.771C8.596,21.402 7.701,18.985 7.275,16M7.152,9L1.416,9C1.085,10.166 0.675,12.389 1.416,15L7.152,15C6.964,13.186 6.937,11.075 7.152,9M15.843,9L8.158,9C7.963,10.8 7.933,12.927 8.158,15L15.843,15C16.039,13.189 16.067,11.07 15.843,9M22.585,9L16.849,9C16.911,9.592 17.157,12.019 16.849,15L22.585,15C23.326,12.388 22.916,10.165 22.585,9M9.76,1.229C6.091,1.989 3.089,4.579 1.751,8L7.275,8C7.701,5.015 8.596,2.597 9.76,1.229M15.714,8C15.075,3.734 13.472,1 12,1C10.529,1 8.926,3.734 8.287,8L15.714,8ZM14.241,1.229C15.405,2.597 16.3,5.015 16.726,8L22.249,8C20.912,4.579 17.91,1.989 14.241,1.229" style="fill:rgb(26,171,155);"/>
    </g>
</svg>
