<svg width="1255" height="1161" viewBox="0 0 1255 1161" fill="none" xmlns="http://www.w3.org/2000/svg">
<path d="M529 0.90008C527.6 1.30008 523.9 2.90008 520.7 4.40008C516.7 6.30008 514.1 7.00008 512.3 6.60008C510.9 6.20008 508.3 6.40008 506.5 7.00008C503.8 7.90008 502.3 7.70008 498.1 6.00008C491.9 3.60008 491 3.50008 491 5.50008C491 7.50008 485.1 7.50008 482.4 5.50008C479.9 3.60008 478.5 3.60008 476.6 5.50008C475.8 6.40008 473 7.40008 470.5 7.90008C467.9 8.40008 465.3 9.30008 464.7 9.90008C463.4 11.2001 459 11.4001 459 10.1001C459 9.60008 455.9 8.60008 452.1 8.00008C445.8 6.80008 443 6.90008 429.3 8.70008C426.5 9.00008 425 8.80008 425 8.10008C425 6.30008 423.2 6.80008 420.6 9.50008C418.3 11.7001 417.3 12.0001 410.2 12.0001C396.2 12.0001 383.6 15.7001 377 21.6001C373 25.2001 371.4 25.8001 370.8 23.8001C370.5 22.9001 369.6 23.0001 367.7 24.3001C366.3 25.2001 364 26.0001 362.6 26.0001C361.2 26.0001 358.2 27.6001 355.6 29.9001C350.4 34.4001 346.9 35.7001 338.7 36.3001C333.7 36.7001 332.5 36.4001 330.2 34.5001C327.9 32.5001 327.3 32.4001 324.6 33.5001C322.7 34.2001 316.8 34.6001 309.9 34.6001C298.8 34.5001 298.2 34.4001 294.7 31.7001C292.1 29.8001 291 28.1001 291 26.3001C291 23.9001 290.9 23.8001 286.4 24.5001C283.8 24.8001 281.2 25.4001 280.6 25.6001C279.9 25.9001 277.7 30.1001 275.6 35.1001C273.5 40.1001 269.8 46.8001 267.4 49.9001C263.2 55.4001 262.5 56.0001 250.7 61.0001C240.2 65.4001 237.3 67.2001 231.7 72.4001C226.2 77.4001 225 79.1001 225 81.6001C225 83.6001 223.7 86.4001 221.3 89.6001C218.1 93.8001 217.4 95.5001 216.9 101.5C216.4 106.8 216.5 108.9 217.6 110.1C218.4 110.9 219 112.3 219 113.1C219 114.9 206.6 127 198.7 133.1C195.5 135.5 191.3 138.7 189.5 140.1C186.9 142.1 184.2 142.9 177 143.8C168.2 144.9 161.3 147.5 161.7 149.6C161.8 150.1 161.5 150.9 161 151.5C160.6 152 159.4 155.3 158.5 158.7C156.5 165.7 156 166.3 148.1 170.5C143.1 173.2 142.2 174.2 139.1 180.5C137.2 184.6 135.5 190 135 193.4C134.3 199.7 134.9 198.9 123.1 208.8C120.3 211.2 117.5 214.1 116.9 215.3L115.7 217.5L118.1 215.5L120.4 213.5L118.1 217C116 220.3 114.3 223.8 110.2 233.3C109.3 235.5 107.6 237.6 106.4 238.1C105.1 238.5 103.5 240.2 102.7 241.7C100.9 245.2 98.4996 260.4 99.3996 262.7C99.9996 264.2 100.4 264 102.4 261.5L104.7 258.6L106.9 262.8C109 266.9 111 268.3 111 265.7C111.1 265.1 111.9 266.1 113 268C115.4 272.4 115.7 279.2 113.5 278.4C112.6 278 111.7 278.5 111.3 279.6C110.9 280.6 111.1 281.5 111.8 281.8C112.6 282 112.6 282.8 111.8 284.6C110.8 286.6 111 287.4 112.9 289.3C115.6 292.3 116.5 295.5 117.4 305.1C118.1 312.3 118 313.2 114.5 322.1C112.1 328.2 110.7 333.7 110.4 337.9C109.9 345.6 107.1 351 100.5 356.8C95.5996 361.1 95.0996 362 97.5996 362C99.8996 362 106 368.4 106 370.9C106 372.2 106.6 373 107.7 373C109 373 109.1 373.3 108.2 374.2C106.5 375.9 106.7 377.3 108.4 376.7C109.4 376.3 109.7 376.6 109.4 377.5C109 378.4 110.1 379.7 112.2 381C114.7 382.5 115 383 113.6 383C112.5 383 110.9 382.3 109.9 381.4C108.3 380 108.1 380 107.1 381.8C106.5 382.9 106.3 384 106.7 384.4C107 384.7 107.2 388.1 107.1 392C106.9 398.3 107.1 399.3 109.2 401C110.5 402.1 112 402.9 112.5 403C113.1 403 113.6 404 113.7 405.1C113.8 406.3 114.4 407.8 115 408.4C116.2 409.6 122.8 409.7 125.4 408.5C126.9 407.9 127.1 408 126.5 408.9C125.6 410.5 127.6 411.9 131 412.1C133.1 412.2 133.2 412.3 131.5 412.7C130.4 413 128.9 413.7 128.2 414.2C126.8 415.4 126.6 417.4 128 416.5C128.6 416.2 129 416.6 129 417.5C129 419.3 131.3 422 132.9 422C133.4 422 134.2 422.9 134.5 424C135.3 426.5 136.9 426.6 138.6 424.2C139.8 422.7 139.9 422.8 140 425.3C140 427.2 140.4 427.9 141.2 427.4C141.9 427 142 427.1 141.6 427.8C141.2 428.4 141.7 430.1 142.6 431.5C144.4 434.3 152.6 440.4 155.9 441.5C157.5 442 158 442.8 157.7 444C157.4 445.1 158.2 446.7 159.5 448C160.8 449.2 162.1 451.3 162.4 452.6C162.8 453.9 163.5 455 164.1 455C164.7 455 164.6 455.8 163.9 457.2C162.9 459 163.1 459.6 164.6 460.8C166.4 462.1 166.3 462.2 163.7 461.6L160.8 460.9L162.6 463.9C163.5 465.5 165.4 467.3 166.7 467.9C168 468.5 169 469.6 168.8 470.4C168.6 471.2 169.6 472.8 170.9 473.9C173.2 475.9 173.2 476 171.2 476C167.8 476 167.7 477.8 171.2 478.5C176.9 479.8 191.9 487.5 193.8 490.2C194.5 491.2 196.9 492.9 199.1 494C201.2 495.1 203 496.5 203 497.1C203 497.6 205.1 499 207.6 500C210.2 501.2 215.6 505.3 220.4 509.9C227.1 516.3 230.4 518.6 238.6 522.5C244 525.1 249.7 527.8 251.3 528.6C253.8 530 254.6 529.9 262.8 526.9C267.6 525.2 272 523.4 272.6 522.9C275.3 520.7 283.5 518.8 295.5 517.4C308.5 515.9 326 515.8 326 517.2C326 517.7 327.9 518 330.3 518C332.6 518.1 336.3 518.8 338.5 519.6C345.6 522.3 346.1 522.3 349 520.2C350.5 519.1 354.5 517.4 357.8 516.5C361.2 515.7 367.7 513.2 372.2 511C376.8 508.8 382.2 506.7 384.3 506.3C386.3 506 388 505.4 388 504.9C388 503.8 385 501 383.8 501C383.2 501 382.9 500.7 383.2 500.4C384.2 499.4 387.8 501.9 388.5 504C389.3 506.6 392.5 505.9 395.7 502.4C398.8 499.1 408.8 496.9 421.4 496.9C428.8 496.9 432.1 496.5 433.8 495.4C435.1 494.5 436.4 494.1 436.8 494.4C437.1 494.7 436.8 495 436.2 495C435.5 495 435 495.3 435 495.7C435 496.2 437.6 496.5 440.8 496.6C448.1 496.6 454.7 500.1 457.5 505.4C458.6 507.4 460.1 509 460.8 509C461.5 509 461.8 509.5 461.5 510.1C461.1 510.7 461.7 511.4 462.9 511.7C464.7 512.2 464.8 512.5 463.8 513.8C462.8 515 462.8 515.4 463.8 515.7C464.4 516 465 517.1 465 518.1C465 522.5 470.2 529.1 474.7 530.4C475.9 530.8 477.1 530.7 477.4 530.1C477.7 529.6 478.9 529.4 480 529.7C481.1 530 483.6 529.9 485.6 529.6C488.5 529 488.9 528.6 488 527.4C486.5 525.7 488.1 525.5 489.8 527.2C490.7 528.1 491.3 528.1 492.2 527.2C493.9 525.5 496.1 525.7 495.4 527.5C495 528.3 495.3 529 495.9 529C496.6 529 497.3 528.4 497.6 527.7C497.9 526.7 500.3 526.2 504.8 526.1C508.5 526 511.7 525.5 511.8 524.9C512.4 523.4 514 523.9 514 525.5C514 526.5 515 527 516.8 527C518.9 527 519.9 527.8 521 530.2C522.9 534.3 528.4 537.7 530.4 536.1C531.4 535.3 532 535.2 532.5 536C532.8 536.5 532.6 537 532.1 537C530.2 537 530.9 539.6 534.1 544L537.2 548.2L535.7 555.5C534.9 559.5 534.5 564 534.7 565.4C535.1 567.1 534.3 569.6 532.4 572.7C528.2 579.6 527.8 581 529.5 581.6C530.3 582 531 583.3 531 584.6C531 586.3 530.3 587.1 528.5 587.6L525.9 588.2L528.1 591.9C529.2 593.9 529.6 594.9 528.9 594.2C526.7 592.1 526.3 592.8 526.4 598.5C526.4 603.5 526.1 604.4 523.4 606.9C521.2 608.9 519.9 609.5 518.9 608.9C518.1 608.4 517.2 608 516.7 608C515.8 608 518.5 614.5 520.8 618C522.4 620.4 522.6 620.9 522.9 623C522.9 623.5 524 624 525.2 624C526.9 624 527.1 624.3 526.2 625.2C524.3 627.1 524.7 627.9 528.3 629.5C530.1 630.3 530.5 630.7 529.2 630.4L526.9 629.8L529.6 634C531.8 637.3 532.9 638.1 534.7 637.7C535.9 637.5 536.7 637.6 536.5 638.1C536.2 638.5 536.8 639.1 537.7 639.3C538.7 639.5 538.3 639.6 536.7 639.5C532.8 639.3 533.7 640.8 540.4 645.8C543.5 648.2 548.5 653.2 551.4 656.8C554.4 660.5 558.4 665.1 560.5 667C562.5 668.9 565 672.1 565.9 674C566.9 675.9 568.6 679.2 569.8 681.3C571 683.4 571.9 686.3 571.8 687.8C571.7 689.3 574.2 696 577.3 702.7C580.4 709.4 583.4 716.6 583.9 718.7C584.5 720.8 586.3 725.2 588 728.4C591.9 736.1 591.9 739.3 588 741.7C586.4 742.6 585 744.1 585 744.8C585 747.1 593.2 767.1 595.8 771.4C598.2 775.2 598.2 775.7 597.3 785C596.2 796.2 594.3 799.8 587.9 803C585.6 804.2 584 805.8 584 806.8C584 807.8 582.4 810.1 580.5 812C578.1 814.3 577 816.3 577 818.3C577 819.8 576.5 822.1 575.8 823.3C575.2 824.5 574.3 827.7 573.9 830.5C572.8 838.7 569.2 849.5 566.6 852.3C564.5 854.6 564.3 855.2 565.2 860.5C565.7 863.7 565.9 866.8 565.6 867.4C565.4 868 565.1 867.7 565.1 866.7C565 865.8 564.5 865 563.9 865C563.2 865 563.1 865.7 563.6 866.7C564 867.7 564.5 872.8 564.6 878C564.7 885.9 565.2 888.4 567.3 893C568.8 896.1 571.4 899.9 573.1 901.5C574.8 903.2 577.2 906.5 578.5 909C579.8 911.5 582.4 916.1 584.4 919.4C586.3 922.6 588.7 927.5 589.6 930.3C590.5 933.1 593.3 938.3 595.6 941.8C598 945.3 600 948.7 600 949.4C600 950.1 601.2 951.7 602.6 953.1C604 954.4 606 956.8 607 958.5C609.1 961.9 610.8 969.6 609.3 968.7C608.7 968.3 608.5 972.3 608.8 979.3C609.2 988.4 609.7 991.4 611.6 995.1C613 997.9 614.2 1003 614.9 1008.6C616.2 1020.3 617 1024.1 618.6 1026.6C619.4 1027.7 619.7 1028.9 619.4 1029.3C618.5 1030.2 622.4 1039.8 626.2 1046.3C628.9 1050.9 637.6 1059.8 640.7 1061.2C642.9 1062.1 647.3 1069.7 650.6 1078.1C655.3 1090.2 657.2 1093.9 663.2 1102.8C665.9 1106.9 668.8 1111.7 669.6 1113.5C672.5 1120.4 670.7 1127 665.9 1127C663.2 1127 663.5 1130 666.5 1132.9C667.9 1134.2 669 1135.7 669 1136.2C669 1136.7 669.9 1138.5 671.1 1140.1C672.9 1142.7 673 1143.5 672 1146.6C671.3 1148.5 671.1 1150.7 671.4 1151.5C672.2 1153.7 674.7 1153.3 675.3 1151C676 1148.3 678.8 1148.5 679.2 1151.2C679.4 1153 680.3 1153.6 682.8 1153.8C684.6 1154 686.4 1154.8 686.7 1155.6C687.9 1158.8 699.9 1161.6 701.5 1159C703.1 1156.4 711.3 1154.1 719.1 1154.1C726.4 1154.1 727.6 1153.8 731.2 1151.4C734.9 1148.8 736.1 1148.6 745.4 1148.3C762.8 1147.9 765.1 1148 770.8 1149.5C775.7 1150.7 776.6 1150.7 778 1149.5C779.1 1148.5 781.7 1148 785.3 1148C790.3 1148 790.9 1147.8 791.2 1145.7C791.5 1143.7 792 1143.5 799 1143.4C805.6 1143.4 807.4 1142.9 813.5 1139.8C823.3 1134.8 834.1 1126.8 843.5 1117.8C847.9 1113.6 853.9 1108.4 856.8 1106.3C862.2 1102.4 874.3 1087 877.9 1079.5C880.3 1074.5 884.8 1069.9 892.2 1064.8C898.7 1060.4 900.2 1058 902 1049.5C902.7 1046.2 904.1 1041.3 905.2 1038.5C906.3 1035.8 906.9 1032.8 906.7 1031.9C906.4 1031 906.5 1027.2 906.9 1023.6C907.5 1017.7 907.4 1016.8 905.7 1015.7C903.8 1014.5 903.8 1014.3 905.4 1011.2C907.7 1006.8 910.9 1005 925.5 1000.1C934.5 997 939 994.9 942 992.2C947.4 987.6 951.4 978.9 947.4 980.4C946.1 980.9 945.9 980.4 946.5 976.8C946.9 974.4 947.8 971.2 948.6 969.6C949.5 967.7 949.7 966.4 949.1 966C948.5 965.7 948.2 962.9 948.3 959.8C948.5 954 947 951.8 945.9 956.2C945.6 957.5 945.3 956 945.4 953C945.4 949.4 944.7 946.1 943.3 943.5C942 940.9 941.4 938.4 941.7 936.3C942.1 933.6 941.7 932.5 939.1 930.1C936.2 927.4 935.9 926.6 936.1 922.1C936.3 917.8 936.7 917 938.3 917C939.5 917 943.3 913.9 947.4 909.7C951.4 905.7 955.9 902.1 957.7 901.5C959.8 900.8 963.3 897.7 967.7 892.5C971.5 888.1 976.3 883.3 978.5 881.8C983.1 878.7 995.8 873.3 1001 872.4C1002.9 872 1005.6 870.7 1007 869.5C1008.4 868.2 1011.4 866.3 1013.8 865.1C1016.2 863.9 1018.4 862.1 1018.7 861.2C1019.6 858.9 1026.3 849.9 1028.9 847.6C1032.8 844.1 1035.6 830.5 1032.6 829.4C1031.8 829.1 1031.4 828.1 1031.7 826.9C1032 825.9 1031.8 825 1031.3 825C1030.9 825 1030.4 820.6 1030.3 815.2C1030.1 808 1029.7 805.6 1028.8 805.8C1028.1 806 1028.4 805.2 1029.4 804.1C1030.8 802.6 1031 801.7 1030.2 800.8C1029.7 800.1 1028.9 795.2 1028.5 790C1028 782.6 1028.2 779.5 1029.4 776C1030.2 773.5 1030.5 771.4 1030 771.2C1029.5 771 1029.4 770.2 1029.7 769.4C1030.4 767.5 1026.8 763.7 1021.3 760.4C1018.9 759.1 1017 757.8 1017 757.7C1016.9 754.5 1014.7 745.4 1013.8 744.3C1013.1 743.4 1012.5 742.2 1012.5 741.6C1012.4 741 1011.8 739.3 1011 737.8C1009.9 735.5 1009.9 734.1 1011 729.7C1012.1 724.9 1012.1 724 1010.5 721.7C1008.9 719.2 1008.9 718.9 1010.9 715.7C1012.1 713.8 1013 711.7 1013 711C1013 710.3 1010.6 707.3 1007.6 704.3C1004.6 701.3 1001.9 697.8 1001.6 696.5C1001.2 695.1 1002.1 691.3 1003.9 686.8C1005.5 682.8 1007.2 678.3 1007.5 676.8C1007.9 675.3 1009.1 673.8 1010.2 673.4C1011.5 673 1013.9 669.2 1017.2 662.4C1019.9 656.7 1022.6 651.8 1023.1 651.5C1023.6 651.1 1024 649.4 1024 647.7C1024 643.5 1026.3 640.3 1029.8 639.6C1033.1 638.8 1039.8 632.9 1039.2 631.2C1039 630.5 1039.7 630 1040.7 630C1043.2 630 1045.7 627.2 1050.6 619C1054.9 611.8 1073.5 591.6 1086.8 579.8C1092.7 574.6 1098.8 570.3 1105.5 566.8C1114.4 562.2 1116.9 560.2 1128.5 548.6C1144 533 1149.9 526.5 1152.3 521.9C1153.2 520 1156.9 514.3 1160.5 509.2C1164 504.2 1167.2 498.9 1167.5 497.5C1167.8 496.1 1168.2 494 1168.5 492.7C1168.7 491.5 1170.8 487.7 1173 484.2C1175.3 480.8 1177.9 476 1178.9 473.7C1179.9 471.4 1181.5 468.8 1182.4 468C1183.4 467.3 1185.8 463.4 1187.7 459.6C1189.6 455.7 1192 451.6 1193.1 450.5C1194.2 449.3 1195.4 445.5 1196.1 441C1196.8 436.9 1198 432.7 1198.8 431.7C1200.7 429.5 1202.1 418.8 1200.7 417.8C1200 417.4 1200.3 415.5 1201.4 412.5C1202.5 409.7 1202.9 407.5 1202.3 406.9C1201.8 406.4 1199.3 405.7 1196.6 405.4C1192.2 404.8 1191.7 404.9 1189 407.8C1187.5 409.5 1184.9 411.2 1183.3 411.5C1181.8 411.8 1178 412.8 1175 413.7C1172 414.6 1166.6 415.4 1163 415.4C1159.4 415.5 1155.4 416.1 1154.1 416.9C1152.4 417.8 1149.9 418.1 1145.6 417.6C1139.9 417 1139.4 417.2 1132.8 421.1L1125.9 425.3L1119.9 423.6L1114 422L1108.7 424.9C1105.9 426.5 1101.4 428.4 1098.9 429C1094.8 430 1093.6 429.9 1089.8 428.2C1087.3 427.1 1083.8 424.4 1081.9 422C1080 419.7 1077.5 416.6 1076.3 415.2C1074.4 412.8 1073.5 412.5 1068.2 412.5C1061.7 412.5 1061.8 412.1 1069.8 408.5C1075.8 405.7 1076.6 404.4 1075.1 399.8C1073.9 396.3 1069.6 390.9 1068.3 391.1C1066.2 391.5 1065 390.9 1065 389.4C1065 388.5 1063.7 387.3 1062 386.7C1060.1 386 1058.9 384.7 1058.5 382.9C1057.8 379.9 1054.9 377 1050.2 374.6C1048.5 373.7 1045.9 371.2 1044.6 369.1C1041.3 363.9 1037.9 361.4 1032.9 360.6C1028.4 359.9 1023 357.4 1023 356.1C1023 355.7 1022.1 354.3 1021.1 353.1C1020 351.8 1018.9 350.3 1018.7 349.7C1018 347.5 1015.8 350.3 1016.4 352.9C1016.8 355.2 1016.7 355.1 1015.5 352.3C1014.7 350.6 1013.5 348.8 1012.8 348.3C1011 347.2 1009 341.7 1007.5 333.5C1006.1 325.9 1005.5 324.3 1000.3 313.2C998.3 308.9 996.3 306 995.4 306C994.6 306 991.8 304 989.2 301.6C986.6 299.2 983.5 297 982.3 296.6C981.1 296.2 979.7 294.6 979.1 292.9C977.7 288.9 975.7 269.6 976.3 265.7C976.5 263.8 976.2 262 975.4 261.2C973.5 259.3 973.6 257.4 975.5 259C978.5 261.5 978.1 259.2 975 255.6C973 253.4 971.6 250.5 971.2 247.8C970.6 244.3 969.5 242.6 965 238.4C962 235.6 958 232.5 956.3 231.6C952.3 229.6 948 221.7 948 216.4C948 213 948.2 212.8 950.5 213.4C951.9 213.8 953 213.8 953 213.5C953 213.3 950.9 211.1 948.4 208.8C945.7 206.3 942.4 201.8 940.6 198C938.8 194.4 934.6 187 931.3 181.5C927.9 176 924.2 168.6 923 165.1C921.8 161.6 919.7 157.2 918.3 155.3C916.1 152.4 915.9 151.7 917.1 150.9C918.2 150.2 917.5 149.1 913.7 145.5C911.1 142.9 907.9 139.1 906.5 137C905.2 134.9 903.6 132.9 903.1 132.6C902.5 132.2 902.3 131.3 902.6 130.5C902.9 129.7 902.3 127.5 901.1 125.7C898.8 122 898.4 118.5 900 117.5C900.6 117.2 901 117.7 901 118.7C901 119.7 903 123.2 905.5 126.5C908.2 130.1 910 133.5 910 135.1C910 137.1 911.7 139.4 916.9 144.2C920.6 147.8 924.6 150.9 925.8 151.2C928.7 152 931.5 148.6 931.6 144.1C931.7 140.7 932.7 137.2 937.2 125.2C938.6 121.6 938.9 119.6 938.2 118.7C937.6 118.1 935.2 112.5 932.7 106.3L928.2 95.1001L930.6 92.9001C931.9 91.7001 933 90.3001 933 89.8001C933 88.3001 930.3 89.0001 928.4 91.1001C924.7 95.2001 921.2 96.3001 913.9 95.6001C909.6 95.1001 907 95.3001 906.5 95.9001C905.6 97.5001 900.4 97.2001 899 95.5001C898.4 94.7001 896.8 93.8001 895.7 93.4001C894.5 93.1001 892.9 92.2001 892.1 91.6001C890.7 90.5001 885.9 90.0001 876 90.0001C865.3 90.0001 864 90.2001 864 92.2001C864 93.6001 863.4 94.1001 861.7 93.8001C860.5 93.7001 858.1 94.5001 856.5 95.6001C852 98.8001 847.3 101 845.2 101C844.1 101 841.3 100.1 838.9 99.0001C836.5 97.9001 832.8 97.0001 830.8 97.0001C828.8 97.0001 826.8 96.5001 826.5 96.0001C826.2 95.4001 824.5 95.0001 822.9 95.0001C821.3 95.0001 818.9 94.3001 817.7 93.5001C816.4 92.7001 812.1 91.6001 808.1 91.0001C804.1 90.4001 798.9 89.5001 796.5 88.9001C793.5 88.1001 791.2 88.1001 788.4 88.9001C782.9 90.4001 782.2 90.3001 781.4 87.7001C780 83.0001 778.1 82.0001 770.8 82.0001C767 82.0001 762.9 81.5001 761.7 80.8001C760.5 80.2001 757.3 79.2001 754.5 78.6001C750.1 77.6001 749.5 77.1001 749.2 74.7001C748.9 72.3001 748.1 71.8001 740.5 69.4001C731.1 66.5001 726.7 66.5001 715.9 69.7001C707.1 72.3001 701 75.8001 698.3 79.9001C695.5 84.1001 695.4 87.9001 698 93.0001C700.3 97.6001 699.7 100.1 695.4 104.1C690.9 108.3 686.2 110.3 682.6 109.6C680.9 109.2 677 107.2 673.9 105C666.6 99.9001 652.7 95.3001 641.2 94.1001C635.7 93.5001 631.1 92.5001 629.5 91.4001C626.6 89.5001 624 85.1001 624 82.2001C624 78.5001 620.3 75.3001 615.3 74.5001C612.7 74.1001 609 73.0001 607 72.0001C605.1 71.1001 601.3 69.9001 598.5 69.5001C595.8 69.1001 592.7 68.4001 591.7 67.8001C590.5 67.2001 587.6 67.2001 583.1 68.1001C576.5 69.2001 576 69.2001 570.7 66.6001C564.3 63.6001 561.5 63.3001 560.2 65.7001C558.8 68.0001 556 66.6001 556 63.5001C556 60.8001 552.9 58.7001 552.2 60.8001C551.7 62.4001 548.9 62.3001 549.2 60.8001C549.4 60.1001 548.4 59.4001 547 59.2001C541.5 58.5001 537.4 54.8001 538.5 51.7001C538.8 51.0001 540.6 49.6001 542.5 48.7001C544.4 47.8001 547.1 46.1001 548.5 44.8001C552.2 41.7001 557.2 34.2001 556.1 33.6001C555.7 33.3001 555 31.7001 554.7 30.1001C554.2 27.9001 553 26.5001 550 25.0001C546.7 23.3001 546 22.5001 546 20.0001C546 18.3001 546.4 17.0001 546.9 17.0001C549.2 17.0001 554 11.6001 554.6 8.40008C554.9 6.50008 555 4.60008 554.6 4.30008C554.3 4.00008 552.3 4.80008 550.3 6.20008C545 9.60008 543 10.3001 543 8.40008C543 7.60008 542.3 6.70008 541.4 6.30008C540.3 5.90008 540.2 5.50008 541 5.00008C543.1 3.70008 540.9 1.80008 537.9 2.20008C536.3 2.50008 535.2 2.20008 535.3 1.60008C535.6 0.30008 532.2 -0.0999196 529 0.90008ZM121.8 381.7C120.8 381.9 119.2 381.9 118.3 381.7C117.3 381.4 118.1 381.2 120 381.2C121.9 381.2 122.7 381.4 121.8 381.7ZM135 407C135 407.5 134.1 408 132.9 408C131.8 408 131.2 407.5 131.5 407C131.8 406.4 132.8 406 133.6 406C134.4 406 135 406.4 135 407Z" fill="#1AAB9B"/>
<path d="M148.3 131.4C145.9 133.4 145.8 134 146.9 135.4C148.7 137.5 149.2 137.4 152.4 134.5C157.6 129.6 153.8 126.7 148.3 131.4Z" fill="#1AAB9B"/>
<path d="M79.3992 136.5C78.5992 138.4 81.6992 143.3 83.2992 142.7C84.4992 142.3 86.0992 136.4 85.1992 135.5C84.0992 134.4 79.8992 135.1 79.3992 136.5Z" fill="#1AAB9B"/>
<path d="M142.4 140.2C141.5 142 139.6 144.7 138.2 146.2L135.6 149H138.4C142.8 149 146.9 146.3 147.8 142.7C148.3 141 148.5 138.9 148.2 138.2C147.4 135.8 144.1 137 142.4 140.2Z" fill="#1AAB9B"/>
<path d="M105.5 140.4C104.4 141.1 102 142.1 100.3 142.5C98.5 142.8 97 143.4 97 143.7C97 145.5 101.3 150.8 102.4 150.4C104.5 149.6 111.2 141.1 110.5 140C109.6 138.6 107.8 138.8 105.5 140.4Z" fill="#1AAB9B"/>
<path d="M90.9997 146.5C89.4997 148.3 90.4997 150 92.9997 150C93.9997 150 95.1997 149.5 95.4997 149C96.1997 147.9 94.2997 145 92.9997 145C92.5997 145 91.6997 145.7 90.9997 146.5Z" fill="#1AAB9B"/>
<path d="M116.2 147.2C112.9 150.5 116.8 156.3 120.9 154.1C123.3 152.8 123.9 151 122.9 148.2C122 145.8 118.2 145.2 116.2 147.2Z" fill="#1AAB9B"/>
<path d="M78.0991 152.1C76.1991 152.9 75.9991 153.3 76.9991 154.5C78.6991 156.6 81.2991 156.4 82.6991 154.1C83.6991 152.5 83.5991 152.1 82.3991 151.6C81.4991 151.3 80.7991 151 80.6991 151.1C80.5991 151.1 79.3991 151.6 78.0991 152.1Z" fill="#1AAB9B"/>
<path d="M922 154.8C922 155.3 922.7 156.1 923.6 156.4C924.6 156.8 925 156.5 924.8 155.8C924.3 154.3 922 153.5 922 154.8Z" fill="#1AAB9B"/>
<path d="M2.29955 325.6C1.19955 326.1 0.399553 330 1.39955 330C3.29955 330 7.99955 327.5 7.69955 326.6C7.29955 325.4 4.19955 324.8 2.29955 325.6Z" fill="#1AAB9B"/>
<path d="M6.29983 329.7C4.29983 330.5 4.79983 332 6.99983 332C8.09983 332 8.99983 331.3 8.99983 330.5C8.99983 329 8.39983 328.8 6.29983 329.7Z" fill="#1AAB9B"/>
<path d="M38.5997 329.8C37.7997 331.1 39.5997 335 40.9997 335C42.3997 335 42.1997 332.7 40.6997 330.5C39.6997 329.3 39.0997 329.1 38.5997 329.8Z" fill="#1AAB9B"/>
<path d="M10.4994 332C10.1994 332.5 10.3994 333 10.8994 333C11.4994 333 11.9994 332.5 11.9994 332C11.9994 331.4 11.7994 331 11.5994 331C11.2994 331 10.7994 331.4 10.4994 332Z" fill="#1AAB9B"/>
<path d="M16.6996 333.6C15.2996 335 17.2996 336.6 19.9996 336.2C23.5996 335.7 23.8996 334.5 20.7996 333.6C17.8996 332.9 17.4996 332.9 16.6996 333.6Z" fill="#1AAB9B"/>
<path d="M1019 339.8C1019 340.4 1019.5 341 1020.1 341.2C1020.9 341.5 1020.7 342.2 1019.6 343.3C1018.6 344.2 1018.3 345 1018.9 345C1019.5 345 1019.7 345.7 1019.4 346.5C1018.6 348.4 1020.4 348.4 1022 346.5C1022.6 345.7 1022.8 344.5 1022.4 343.8C1021.9 343.1 1021.5 341.9 1021.5 341.1C1021.5 339.5 1019 338.3 1019 339.8Z" fill="#1AAB9B"/>
<path d="M39.6 341.6C38.4 344.8 41.7 346.3 43.9 343.6C44.9 342.4 44.7 341.9 43.1 341.1C40.5 339.7 40.3 339.7 39.6 341.6Z" fill="#1AAB9B"/>
<path d="M1024.5 346C1023.7 347.3 1024.4 348.4 1025.9 347.9C1026.5 347.6 1026.6 346.9 1026.1 346.1C1025.5 345.1 1025.1 345.1 1024.5 346Z" fill="#1AAB9B"/>
<path d="M35 357C35 358.1 35.5 359 36 359C36.6 359 37 358.1 37 357C37 355.9 36.6 355 36 355C35.5 355 35 355.9 35 357Z" fill="#1AAB9B"/>
<path d="M26.6999 356.7C24.2999 359 28.2999 363.9 31.5999 362.6C33.4999 361.9 33.3999 360.4 30.9999 358C28.8999 355.9 27.7999 355.6 26.6999 356.7Z" fill="#1AAB9B"/>
<path d="M1063.5 372C1062.8 373.2 1063.7 375 1065.1 375C1066.3 375 1066.3 372.3 1065.1 371.5C1064.6 371.2 1063.9 371.4 1063.5 372Z" fill="#1AAB9B"/>
<path d="M1062 378C1062 378.5 1062.4 379 1062.9 379C1063.5 379 1064.2 378.5 1064.5 378C1064.8 377.4 1064.4 377 1063.6 377C1062.7 377 1062 377.4 1062 378Z" fill="#1AAB9B"/>
<path d="M1236 394.5C1235.1 395.5 1235.4 396.4 1236.9 397.9C1239.6 400.6 1245.1 400.6 1251 397.9C1255.2 396 1255.3 395.8 1253.5 394.7C1250.5 393 1237.4 392.9 1236 394.5Z" fill="#1AAB9B"/>
<path d="M1215 400.9C1215 401.9 1220 403.4 1220.8 402.5C1221.6 401.8 1220.9 401.4 1217.8 400.6C1216.2 400.3 1215 400.4 1215 400.9Z" fill="#1AAB9B"/>
<path d="M1230 402C1230 402.5 1230.5 403 1231 403C1231.6 403 1232 402.5 1232 402C1232 401.4 1231.6 401 1231 401C1230.5 401 1230 401.4 1230 402Z" fill="#1AAB9B"/>
<path d="M112.399 413.2C111.899 414 112.199 414.1 113.299 413.7C114.299 413.3 114.999 413.5 114.999 414.1C114.999 414.7 115.599 415 116.399 414.7C117.099 414.4 118.299 414.7 118.899 415.3C119.799 416.2 120.299 416.1 120.999 415C122.399 412.9 122.199 412 120.499 412C119.699 412 118.999 412.4 118.999 413C118.999 413.6 118.099 413.6 116.399 413C113.199 411.8 113.299 411.8 112.399 413.2Z" fill="#1AAB9B"/>
<path d="M123.5 414C123.2 414.5 123.3 415 123.9 415C124.4 415 125.2 414.5 125.5 414C125.8 413.4 125.7 413 125.1 413C124.6 413 123.8 413.4 123.5 414Z" fill="#1AAB9B"/>
<path d="M115.499 417C115.199 417.5 115.399 418 115.899 418C116.499 418 116.999 417.5 116.999 417C116.999 416.4 116.799 416 116.599 416C116.299 416 115.799 416.4 115.499 417Z" fill="#1AAB9B"/>
<path d="M123.999 416.9C123.999 417.5 123.399 417.7 122.799 417.5C120.799 416.8 118.899 418.5 119.599 420.3C120.299 422.1 121.999 422.6 121.999 421C121.999 420.4 121.499 420 120.899 420C120.399 420 120.199 419.5 120.499 419C120.999 418.2 121.599 418.2 122.499 419C123.399 419.7 124.099 419.6 124.899 418.6C125.699 417.6 125.799 417 124.999 416.5C124.499 416.2 123.999 416.3 123.999 416.9Z" fill="#1AAB9B"/>
<path d="M115.2 420.2C115.7 421.7 118 422 118.1 420.5C118.1 419.9 117.4 419.3 116.4 419.2C115.4 418.9 114.9 419.3 115.2 420.2Z" fill="#1AAB9B"/>
<path d="M518.299 536.7C517.599 537 516.999 537.7 516.999 538.4C516.999 539.2 515.999 541 514.799 542.5C512.699 545.2 512.699 545.3 514.499 546.6C517.499 548.8 518.799 548.3 520.999 544.1C523.599 539 522.199 535.3 518.299 536.7Z" fill="#1AAB9B"/>
<path d="M496.4 572.1C496.1 572.7 496.3 573.7 496.9 574.3C497.7 575.1 498 574.8 498 573.2C498 570.8 497.5 570.4 496.4 572.1Z" fill="#1AAB9B"/>
<path d="M1014.6 680.7C1014.7 683.4 1015.1 685.4 1015.4 685.2C1015.7 685.1 1016.4 685 1016.9 685C1018.2 685 1018.9 678.7 1017.8 677.2C1015.6 674.6 1014.4 676 1014.6 680.7Z" fill="#1AAB9B"/>
<path d="M1007.4 691.4C1006.6 693.5 1007.4 699.5 1008.4 699.2C1008.9 699 1009.7 699.5 1010.2 700.4C1010.7 701.3 1011.5 702 1011.9 702C1013.6 702 1014 698.7 1012.7 697.1C1011.9 696.2 1011 694.3 1010.6 692.7C1009.9 689.8 1008.3 689.1 1007.4 691.4Z" fill="#1AAB9B"/>
<path d="M1015.8 723.4C1014.2 724.6 1013 725.9 1013 726.3C1013 727.7 1015.7 727 1017.4 725.1C1020.1 722.1 1018.9 720.9 1015.8 723.4Z" fill="#1AAB9B"/>
<path d="M1124 754C1124 754.5 1124.5 755 1125 755C1125.6 755 1126 754.5 1126 754C1126 753.4 1125.6 753 1125 753C1124.5 753 1124 753.4 1124 754Z" fill="#1AAB9B"/>
<path d="M1071.6 781.6C1070.5 784.4 1071 786.7 1073 788.5C1076.1 791.3 1077.5 789.3 1075.9 784.1C1074.7 779.9 1072.7 778.8 1071.6 781.6Z" fill="#1AAB9B"/>
<path d="M1167.3 791.7C1166.3 794.7 1163.8 797 1161.7 797C1159.8 797 1159.8 797.1 1161.3 798.8C1162.3 799.8 1163 801.7 1163 803.1C1163 806.7 1159.8 812.2 1157.3 813.1C1155.3 813.8 1155 813.6 1155 811.5C1155 810.1 1154.5 809 1154 809C1152.4 809 1151.4 812.3 1152.8 812.8C1154.2 813.2 1154.4 816.6 1153.1 817.5C1152.6 817.8 1151.9 817.1 1151.5 816C1151.2 814.9 1150.5 814 1150 814C1148.4 814 1145.8 818.8 1146.6 820.2C1147.1 820.9 1147.5 822.7 1147.6 824.2C1147.7 826.3 1147.3 827 1145.9 827C1143.5 827 1142.7 828.5 1143.8 830.7C1144.9 832.7 1142.6 835.8 1141.5 834C1140.4 832.2 1139.1 833 1136.4 837C1134.5 839.8 1134 841.7 1134.4 843.5C1134.8 844.9 1134.6 846 1134 846C1133.5 846 1133 845.2 1133 844.2C1133 841.4 1132 840.9 1129.1 842.4C1124.9 844.6 1121.7 848.6 1122.3 851C1122.6 852.1 1122.4 852.8 1121.9 852.4C1121.4 852.1 1121 851.2 1121 850.4C1121 849.3 1120.6 849.2 1119.1 850C1118 850.5 1116 851 1114.6 851C1113.2 851 1111.7 851.6 1111.3 852.3C1110.2 854.1 1106.2 855.1 1105.7 853.7C1105.5 853 1104.2 853.4 1102.5 854.8C1100.8 856.2 1098.3 857 1096.1 857C1091.5 857 1090 858.4 1090 863C1090 865.4 1088.9 868 1086.5 871.4C1083 876.4 1083 876.4 1083.6 884.4C1084 889.1 1085.1 894.1 1086.1 896.2C1087.2 898.3 1088 901.2 1088 902.7C1088 904.2 1088.7 906.4 1089.6 907.5C1090.6 908.9 1090.9 910.6 1090.5 913.1C1090.1 915.2 1090.3 917.1 1090.9 917.4C1091.5 917.8 1090.9 919.5 1089.4 921.7C1088.1 923.7 1085.5 928.3 1083.7 932C1082 935.7 1079.7 939.1 1078.6 939.6C1077.6 940.1 1075.6 943.2 1074.3 946.5C1070.8 954.9 1071.3 961.6 1076.3 969.5C1079.3 974.2 1079.7 975.7 1078.8 977.3C1077.1 980.5 1078.3 989.7 1080.8 992.3C1082 993.6 1083 995.2 1083 995.9C1083 998 1091 1005 1093.3 1005C1094.5 1005 1097.6 1006.1 1100.2 1007.5C1102.8 1008.9 1105.5 1010 1106.2 1010C1107 1010 1110.7 1008.5 1114.5 1006.7C1118.4 1004.8 1123.7 1003 1126.4 1002.7C1133.3 1001.7 1135.5 999.9 1137.5 993.8C1138.5 990.9 1140.1 986.8 1141.1 984.8C1142.2 982.7 1144.3 975.5 1145.9 968.8C1147.5 962 1150.3 953.3 1152 949.5C1153.7 945.6 1155.8 939.7 1156.6 936.2C1157.4 932.7 1159 927.6 1160.1 924.7C1161.3 921.8 1164.9 911.7 1168.1 902.3C1173.1 887.7 1174 884 1174 878.1C1174 872.4 1174.3 870.9 1175.9 869.8C1176.9 869.1 1178.3 866.6 1179 864.3C1180.1 860.6 1180.1 859.7 1178.6 857.5C1177.7 856.1 1177.2 854.5 1177.5 854C1177.8 853.5 1177.5 852.2 1176.9 851.2C1175.7 849.2 1176.2 846 1177.8 846C1178.3 846 1179.4 847.8 1180.3 850C1182 854.3 1184.7 856.1 1186.1 853.9C1186.6 853.1 1187.7 850.3 1188.6 847.7C1190.2 842.9 1190.2 842.9 1187.5 839C1185.5 836.2 1184.9 834.2 1185.1 831.3C1185.3 829.2 1185.1 826.9 1184.7 826.3C1184.3 825.6 1184.2 824 1184.5 822.7C1184.9 821.1 1184.4 818.7 1183.1 816.2C1181.9 813.9 1181 810.8 1181 809.1C1181 807.3 1179.9 805.1 1178 803C1176.4 801.2 1175 799.2 1175 798.5C1175 797.7 1174.2 796.5 1173.1 795.8C1172.1 795.1 1171.1 793.6 1170.9 792.6C1170.4 790 1168.2 789.4 1167.3 791.7Z" fill="#1AAB9B"/>
<path d="M1090.3 791.8C1087.4 792.2 1087.4 793.5 1090.2 795.4C1092.9 797.3 1094.8 796 1093.4 793.3C1092.8 792.1 1091.7 791.6 1090.3 791.8Z" fill="#1AAB9B"/>
<path d="M1078 795C1078 796.3 1080.8 797.5 1081.8 796.6C1082.1 796.2 1081.8 795.5 1081 795C1079 793.7 1078 793.8 1078 795Z" fill="#1AAB9B"/>
<path d="M1101.3 803.5C1101.3 805 1101.8 806 1102.6 806C1103.4 806 1104 805.3 1104 804.5C1104 803.7 1104.6 803 1105.3 803C1106.1 803 1106 802.6 1105 802C1102.5 800.4 1101.3 800.9 1101.3 803.5Z" fill="#1AAB9B"/>
<path d="M1179.6 867.9C1178.6 869 1178 870.7 1178.2 871.7C1178.5 873.1 1179 872.8 1180.4 870.2C1182.4 866.2 1182.1 865.2 1179.6 867.9Z" fill="#1AAB9B"/>
<path d="M1063.5 872C1063.8 872.5 1064.3 873 1064.6 873C1064.8 873 1065 872.5 1065 872C1065 871.4 1064.5 871 1063.9 871C1063.4 871 1063.2 871.4 1063.5 872Z" fill="#1AAB9B"/>
<path d="M946 946C946 947.1 946.5 948 947 948C947.6 948 948 947.1 948 946C948 944.9 947.6 944 947 944C946.5 944 946 944.9 946 946Z" fill="#1AAB9B"/>
</svg>
