<svg width="1280" height="993" viewBox="0 0 1280 993" fill="none" xmlns="http://www.w3.org/2000/svg">
<path d="M340.6 1.40021C339.1 2.30021 336 3.00021 333.9 3.00021C329.5 3.00021 328.5 4.10021 330.1 7.10021C331.2 9.20021 331.7 9.20021 341.4 8.70021C346.9 8.30021 353.8 7.80021 356.5 7.50021C361.1 7.10021 360.9 7.20021 354.1 9.00021C345.6 11.3002 345.5 11.3002 346.4 13.6002C346.9 14.8002 347.8 15.1002 350.1 14.6002C351.8 14.3002 354.6 14.6002 356.5 15.4002C358.3 16.2002 363.3 17.1002 367.6 17.5002C372 17.9002 378.6 18.8002 382.4 19.6002C391.3 21.3002 396 19.4002 391.3 15.8002C390.3 15.1002 389 13.6002 388.4 12.5002C387.4 10.8002 386.2 10.5002 380.9 10.5002C377.4 10.5002 373.5 9.90021 372.4 9.30021C371.2 8.60021 368.4 7.80021 366.2 7.40021C363.1 6.90021 362.3 6.40021 362.7 5.10021C363.4 2.20021 360.9 1.20021 352 0.500209C345.3 0.000208744 342.9 0.200209 340.6 1.40021Z" fill="#1AAB9B"/>
<path d="M404.2 15.1001C401.6 16.1001 399.6 20.5001 400.4 23.6001C401.2 26.5001 404.2 27.4001 408.4 26.0001C410.2 25.4001 415.3 25.0001 419.8 25.1001C428.7 25.4001 431.7 24.2001 430 21.0001C429 19.2001 423.8 18.2001 413.3 17.7001C410.8 17.6001 409 17.1001 409 16.4001C409 14.7001 406.9 14.1001 404.2 15.1001Z" fill="#1AAB9B"/>
<path d="M425.1 30.9C424.3 32.2 424.3 33.7 425 35.5C426.4 39.3 426.4 39.3 421.6 38.6C417.8 38 417.2 38.2 416.7 40C416.3 41.5 415.4 42 412.6 42C410.7 42 406.9 42.5 404.1 43.1C400.1 43.9 398.6 43.8 396.1 42.6C391.7 40.3 381.8 40.5 380.3 42.8C379.4 44.4 377.4 44.8 369 45.4C362.3 45.8 357.8 46.6 355.7 47.8C353.9 48.7 350.9 49.7 349 50C343.6 50.8 344.8 52.8 352.9 56.9C357 58.9 360.2 60.9 359.9 61.5C359.7 62.1 356.4 62.4 352 62.2C347.9 62 343.8 61.9 343 62C342.2 62.1 336.2 62.3 329.7 62.5C323.3 62.6 317.7 63 317.4 63.3C316.3 64.4 319 67.9 321.2 68.2C322.6 68.4 323.6 69.4 324 71C324.6 73.3 325 73.5 329.3 73.2C332.2 73 334.9 73.4 336.7 74.4C338.2 75.3 342 76.9 345 78C348 79.1 350.3 80 350 80C349.7 80.1 346.1 80.1 342 80.1C333.5 80.1 326.2 79.2 325.4 77.9C325.1 77.4 323.4 77 321.7 77C319.9 77 316.2 76.1 313.3 75C307.7 72.9 305.5 73.7 308.4 76.9C310.6 79.3 310.4 80.3 308.1 79C305.1 77.5 298.9 77.7 299.6 79.4C300.5 81.6 304.5 82.9 310.2 82.6C314.8 82.4 316.2 82.7 318.5 84.7C320 86 321 87.4 320.7 87.7C320 88.3 297.5 84.3 294.3 83C293 82.5 292 81.2 292 80.1C292 76.8 289.9 73.3 287.3 72.1C283.5 70.4 282.4 70.8 284.8 73.1C287.3 75.3 286.9 77 284 77C282.9 77 281.6 77.9 281 78.9C280.2 80.6 280.6 81.4 283.2 83.9C285 85.6 287 87 287.7 87C289.7 87 292 90 292 92.8C292.1 94.5 293.6 97.2 295.9 99.9L299.8 104.2L311.8 104.4C321.8 104.6 324.2 104.9 326.6 106.5C328.2 107.6 330.4 108.9 331.5 109.5C332.6 110.1 333.6 111.4 333.8 112.5C334.3 115.2 336 117 338.7 118.1C342.1 119.4 341.5 121 337.7 121C334.1 121 331.7 119.1 330.5 115.1C330 113.6 328 112 324.3 110.3C319.3 108 318.1 107.8 313.1 108.6C309.1 109.2 307.4 110 307.2 111.2C307 112.1 307.7 113.1 308.8 113.5C310.4 113.9 310.9 115.2 311.2 119.3C311.7 124.8 310.9 126.6 307.5 128.1C306.4 128.6 304.4 129.8 303 130.9C300.7 132.7 299.9 132.7 291.2 131.6C286.1 130.9 281.4 129.8 280.8 129.2C280.1 128.5 278.8 128 277.8 128C276.8 128 276 127.5 276 127C276 125.7 278.6 125.7 281.2 127.1C282.3 127.7 285.7 128.5 288.7 128.9C294.5 129.7 295 129.4 299.7 121.5C302.1 117.5 302.2 116.9 300.6 115.1C299.7 114.1 299 112.7 299.2 111.9C299.4 111.2 297.7 109.7 295.5 108.5C293.3 107.3 290.5 104.8 289.3 102.9C288.1 101 286.2 98.6 285.2 97.5C284.1 96.4 283 94.3 282.6 92.8C282.3 91.4 279.7 88.1 276.9 85.6C274.1 83.1 272.1 80.6 272.5 80C273.5 78.4 271.2 73.3 269.2 72.4C268.2 72 262.8 71.2 257.1 70.6C248 69.6 246.5 69.6 244.8 71C243.1 72.4 243 72.9 244.1 75.3C245.8 79.1 244.1 82.6 240 83.5C236.4 84.3 236.1 87.3 239.6 87.8C242 88.1 245 92.8 245 96.4C245 99.3 247.5 101 251.8 101C253.4 101 255.5 101.9 256.5 103C257.5 104.1 259.3 105 260.5 105C263.1 105 266 107.9 266 110.4C266 112.4 266 112.4 253.7 109.6C249.9 108.7 246 107.6 245 107C241.4 105 241.1 106.1 244 110.7C245.7 113.3 247 116.2 247 117.1C247 118.2 244.8 120.1 241.3 122.1C234.4 126.1 228 131.7 228 133.7C228 134.6 229.4 138 231 141.4C232.7 144.7 234.9 150.6 236 154.5C240.2 169.1 247 200.6 247 205.6C247 209.1 247.5 211.2 248.6 212.1C251.1 214.1 255.5 221.1 257.4 225.9C258.9 229.8 258.9 230.5 257.5 232.6C256.6 234 254 235.5 251.1 236.4C239.2 239.9 237.8 242.2 243 250.3C247.1 256.8 253.3 259.8 258.8 258.2C261.2 257.4 264.3 255.3 266.9 252.5L271.1 248L273.5 250.4C275.4 252.3 276 254 276 257.1C276 259.4 276.5 264.2 277.1 267.7C277.7 271.2 277.9 276.5 277.5 279.5C276.9 284.4 276.4 285.4 272.6 288.5L268.3 292L260.4 288.7C256 286.8 250.3 284.1 247.5 282.7C240.3 278.9 234.8 278.3 230 280.6L226.1 282.5L228.1 285.7C229.8 288.3 229.9 289.2 228.9 290.9C227.5 293 224.4 293.7 213.5 294.6C205.5 295.3 203.9 296.4 200.5 303C199.2 305.5 197 308.6 195.6 310C193.4 312 192.6 312.2 191.2 311.2C188.1 309 187 308.8 185.4 310.1C184.2 311.1 183.9 312.6 184.3 316.3C184.7 320.5 185.3 321.8 188.9 325C192.8 328.6 193 329.1 193 334.6C193.1 338.3 193.8 341.8 194.9 343.9L196.7 347.3L198.8 344.3C200.5 341.9 201.9 341.2 205.7 340.7C209.4 340.3 210.9 339.6 213 336.9L215.7 333.7L220.2 335.8C224 337.7 225 337.8 227.9 336.7C230.8 335.6 231.3 335.7 232.6 337.4C233.4 338.6 234 341.7 234 345.1C234 348.3 234.5 351.2 235 351.5C237.5 353.1 235.5 353.5 230.2 352.6C226.9 352.1 223.6 352 222.7 352.3C220.6 353.1 220.5 357.6 222.5 358.4C224.5 359.1 224.4 362 222.4 362C221.6 362 220 361.5 218.9 360.9C217.4 360.2 216.5 360.2 215.5 361C213.6 362.6 215.3 366 218 366C219 366 220.1 366.9 220.5 367.9C220.8 369 222.2 370.5 223.5 371.4C224.9 372.3 226 373.7 226 374.5C226 375.4 226.9 376 228.3 376C229.7 376 230.9 376.9 231.5 378.2C232.2 379.8 233.4 380.5 235.5 380.5C238.2 380.6 238.5 380.9 239.2 385C240.2 390.9 244.1 400.1 245.4 399.7C246.5 399.3 246.7 396.2 245.9 392.5C245.6 391.1 246.3 390.3 248.3 389.6C250.9 388.7 251.4 388.9 255.1 393.3C257.3 395.9 259.8 398 260.5 398C261.2 398 262.6 398.7 263.4 399.6C264.6 400.8 264.8 401.6 263.9 403.2C263 404.9 262.2 405.1 259.2 404.6C257.1 404.2 253.6 403.7 251.3 403.4L247 402.8V406.9C247 410.7 247.2 411.1 250.1 411.7C253.8 412.4 254.6 414 253.1 418C251.8 421.9 252.3 423 256.6 425.8C260.2 428.2 261.3 430.1 263.6 438.8C266.3 449 266.9 448.5 251.3 448.8C238.2 449.1 237.6 449 235.1 446.7C230.6 442.6 227.7 441 224.5 441C220.3 441 217.4 438.7 216.6 434.8C214.8 426 214.8 425 216.6 422.2C217.7 420.7 218.7 417.9 219 416C219.5 412.7 219.7 412.5 223.3 412.6C229.6 412.8 227 408.3 219.8 406.6C218.3 406.3 215.5 404 213.5 401.6C209.6 396.8 210.4 397.1 193.3 395.1C184.1 394.1 175.5 390.5 168.2 384.5C163.9 381 158.8 379.9 157.5 382C156.2 384 151.1 383 147.7 380C142 375 134.5 373.4 130.4 376.4C128.3 378 128.2 377.8 133.2 380.9C136.1 382.6 137.2 384.2 138.3 387.8C140.1 393.9 139.2 395.5 132.7 398.4C128.5 400.2 125.9 400.6 119 400.5C114.3 400.4 109.3 399.8 107.7 399.2C106.2 398.5 102.9 398.1 100.4 398.2C96.5 398.4 95.4 398 93.6 395.8C90.9 392.5 86.8 391.7 71 391.6C59.9 391.5 58 391.8 54.3 393.7C52 395 49.5 396.9 48.6 398.1C47.2 400.1 46.5 400.2 40.3 399.7C36.5 399.4 32.8 399 32 398.8C30 398.4 29.5 402.1 31.4 403.2C36 405.8 30.4 407.8 17.3 408.2C11.6 408.4 6.6 409 6.1 409.5C5.7 410.1 5 412.2 4.7 414.3C4.1 418 4.2 418.2 8.6 420C13.6 422.2 14.3 424.7 10.9 428.1C9.5 429.5 8.2 430 6.7 429.5C1.3 427.8 0 427.8 0 429.2C0 431.7 3.6 434.1 8.2 434.7C13.2 435.4 15 436.5 15 439C15 440 15.9 441 17.1 441.3C18.9 441.8 19 442.1 17.9 443.9C16.8 445.6 16.9 446.2 18.4 447.9C19.9 449.5 21.5 450 25.6 450C30.4 450 31.2 450.3 33.2 453C35.2 455.7 35.9 456 40.9 456C46.1 456 46.6 455.7 48.2 453C50.7 448.6 54.3 448.1 60.4 451.5C63.2 453 66.2 454.9 67.1 455.6C69.5 457.8 77.6 456.2 82.6 452.7C86.3 450.1 87.2 449.9 89.9 450.8C92.3 451.7 93.8 451.6 96.5 450.4C99.6 449.2 100 449.2 100 450.4C100 451.2 99.5 452.2 98.9 452.6C98.2 453 97.9 457.5 97.9 464.9C98 480.1 97.1 489.9 95.5 492.4C94.7 493.6 93.4 497.4 92.5 501C90.8 507.7 88.7 512.5 87.1 513.5C86.6 513.8 82.2 513.6 77.4 513C72.6 512.5 68.4 512.2 68.2 512.4C67.7 513 74.6 527.6 75.8 528.4C76.4 528.7 77.6 531.4 78.4 534.3C79.2 537.2 81.5 541.4 83.3 543.5C85.2 545.7 86.9 548.4 87.1 549.5C87.8 552.8 90.8 552.5 93 548.8C94.4 546.5 95 543.8 95 539.7C95 536.6 95.4 534 95.9 534C97.4 534 98.1 537 97 539C95.9 541.1 95.7 547.9 96.6 550.4C96.9 551.3 98.2 552 99.4 552C102.6 552 105.6 554.5 109.5 560.3C111.4 563.2 115 568.2 117.4 571.5C119.8 574.8 122.1 579.1 122.4 581.1C122.7 583 123.9 585.5 125 586.5C126.1 587.5 127 588.9 127 589.7C127 590.4 128.2 591.5 129.7 592.1C135.9 594.4 142.3 603.3 142.7 610C143.3 622.2 144 625 147.8 630.8C150.7 635.2 152.2 636.6 154.4 636.8C158.8 637.3 162.8 642 164.2 648.2C164.9 651.6 166.2 654.2 167.7 655.3C168.9 656.3 170 657.7 170 658.4C170 659.1 172 662 174.5 664.9C177 667.8 179 671 179 672.1C179 673.2 180.1 674.5 181.4 675.1C183.8 676.2 186 679.8 186 682.5C186 683.3 185.1 684.4 184 685C181.4 686.4 181.4 689.9 184.1 695C185.2 697.2 186.4 700.9 186.7 703.2C187.1 705.6 187.9 708.5 188.7 709.7C189.6 711.1 189.9 713 189.5 715.2C188.9 718.2 189.2 718.9 191.4 720.3C195.3 722.9 198.9 722.4 210.1 717.5C215.8 715.1 221.5 713 222.8 713C225.8 713 231.2 710.7 232.9 708.7C233.9 707.5 234.7 707.3 236 708C238.3 709.2 242.1 707.9 244.8 704.9C247.2 702.4 260.5 696.1 263.5 696C264.6 696 267.9 694.9 270.9 693.5L276.3 691L275.8 686.6C275.3 682.4 275.4 682.1 279.2 679.6C281.4 678.2 285.1 676.7 287.3 676.4C289.6 676 293.2 674.9 295.3 673.8C298.1 672.4 299.5 672.2 300.9 673C303.4 674.3 306.7 674.3 307.5 673C307.9 672.4 307.4 670.8 306.5 669.4C304.2 665.8 305.2 664.3 310.2 663.5C315.4 662.6 317 661.5 317 658.6C317 657.3 318.9 654.6 321.5 652C325.9 647.7 329 641.2 329 636.3C329 634.6 329.6 634 331.3 634C333.9 634 336 632.3 336 630.1C336 629.3 337.9 626.7 340.2 624.3C343.7 620.8 344.3 619.4 344.4 615.8C344.5 612.6 344.1 611.5 343 611.5C340.5 611.5 335.8 606.1 336.5 603.9C337 602.5 336.5 601.8 334.5 601C333.1 600.5 330.9 600 329.7 600C325 600 320.3 597.7 315.3 593.1C310.7 588.9 309.9 587.7 309.4 583.4C309 580.7 307.9 577.5 306.8 576.3C305 574.4 305 574.1 306.5 573.2C307.4 572.7 308 571.5 307.9 570.5C307.4 568.3 305 567.3 305 569.3C305 570.1 303.7 572.3 302 574.1C300.4 576 299 578 299 578.6C299 579.2 298.1 580.5 297 581.5C295.9 582.5 295 584.1 295 585C295 587.5 289.9 591.8 284.7 593.6C280.4 595.1 279.9 595 277.1 593.4C274.7 592 273.8 591.8 272.8 592.8C271.4 594.2 268.6 594.4 266.2 593.1C265.3 592.6 263.7 591.9 262.7 591.6C261.1 591.1 261 590.2 261.6 582.6C262.3 574.1 262.3 574.1 259.6 572.9C258.2 572.2 256.7 572 256.3 572.4C255.9 572.8 255.7 575.7 255.8 579C255.9 582.2 255.6 585.1 255.1 585.4C253.6 586.4 250.8 582.9 251.4 580.7C251.7 579.3 250.9 577.8 248.9 575.9C246.6 573.7 245.8 572 245.4 568.3C245.1 564.8 244.4 563 242.7 561.8C238.2 558.4 234 553.3 231.2 547.9C226.2 538.3 224.4 535.7 222.2 534.9C218.9 533.6 219.5 532.2 225 528.8C227.8 527.1 230 525.3 230 524.9C230 523.3 233.9 524 234.9 525.7C235.6 527.1 236.1 527.2 237.3 526.2C238.7 525 242 525.5 242 526.9C242 527.2 243.8 529.9 246 532.7C248.1 535.6 251.3 541.2 253 545.2C254.7 549.2 256.6 552.8 257.3 553.2C258 553.6 260.2 554 262.2 554C264.2 554 266.1 554.4 266.4 554.9C267.4 556.4 277.8 562 279.7 562C280.7 562 283 562.9 284.8 564C289.3 566.7 290.4 566.6 295.1 562.3C298.7 559.1 299.8 558.6 304.2 558.6C308.6 558.6 309.6 559 312.1 561.8C314.2 564.1 315 566.1 315 568.6C315 573.5 319.4 577.4 325.2 577.6C332.3 577.9 345.2 580 350 581.7C355.3 583.6 358.4 583.6 370.5 582C375.5 581.3 380.7 580.8 382.3 580.9C383.8 580.9 387.6 581.1 390.8 581.2C395 581.4 397.4 581 399.3 579.7C404.3 576.4 409.6 577.9 408.4 582.4C407.9 584.7 408.2 585.2 411.4 586.5C413.8 587.5 415.6 589.3 417 592C418.1 594.2 420.4 596.7 422.1 597.6C423.8 598.4 427.2 601 429.7 603.2C434.3 607.5 440.6 609.4 444.8 607.9C448.1 606.7 448.3 608.6 445.3 611C443.3 612.5 441.7 613 439.5 612.6C437.9 612.3 435.8 612.5 435 613C433.8 613.8 435.3 615.7 442.9 623C448 627.9 452.8 632 453.4 632C454.1 632 456.9 631.3 459.7 630.5C465.4 628.8 467 626.2 466.3 619.9C466 617.6 466.3 616 467.3 615.2C468.6 614.1 469.1 614.6 470.5 618.4C471.4 620.8 471.9 623.3 471.5 623.9C471.2 624.5 471.8 626.2 472.9 627.6C475.4 630.8 475.6 634.2 473.5 637.4C471.6 640.2 472.2 642.9 477.4 657.5C479.9 664.6 481 669.2 481 673.2C481 678.1 481.4 679.4 483.9 682.2C485.4 684 488.2 688.4 490 692C491.8 695.6 494.4 699.8 495.8 701.3C498.4 704 498.8 705.3 501.9 722.8C502.5 725.8 503.7 728 506.1 730.3C510.3 734.1 518 751.9 518.8 759.2C519.1 762.4 520 764.6 521.6 766.1C522.9 767.3 524 769.2 524 770.1C524 772.4 526.9 774 531.3 774C534.4 774 534.9 773.6 536.5 769.5C537.4 766.9 539.7 763.7 541.6 762.2C543.6 760.6 545 758.6 545 757.3C545 756.1 545.5 754.8 546 754.5C546.6 754.1 546.8 753 546.5 751.9C546 750.4 546.4 750 548.3 750C552.2 750 553.5 747.6 552.1 743.1C550.5 737.5 550.7 732.2 553.1 725.2C554.8 720.2 555 718.4 554.1 716.2C553.6 714.7 553.1 711.4 553.1 708.9C553.1 706.4 552.6 702.4 552 700C550.2 693.3 553.2 688 558.8 688C560.2 688 560.9 687.1 561.4 684.9C561.9 682.2 562.3 681.9 564.4 682.4C567.5 683.2 571.5 680 573 675.5C573.6 673.6 575.3 671.1 576.8 669.9C578.3 668.8 579.7 666.9 580 665.7C580.3 664.4 581.5 663.4 582.7 663.2C584 663 586.1 660.9 588 657.9C591.3 652.8 602.8 642 604.9 642C605.6 642 607.2 640.9 608.5 639.5C610.5 637.5 611 636.1 611 631.7C611 627.7 611.5 625.9 612.8 624.7C613.8 623.7 615 623 615.5 623C616 623 617.2 622.2 618.2 621.3C619.8 619.9 620.3 619.8 620.9 620.9C621.5 621.9 622.3 622 623.5 621.2C624.5 620.7 627 620.5 629.1 620.7C633.8 621.4 638 620.4 638 618.6C638 617.7 638.8 617.4 640.4 617.7C641.7 618 643.1 617.7 643.4 617.1C643.8 616.5 645 616 646 616C647.4 616 648 615.1 648.2 612.3C648.4 609.3 648.9 608.5 650.5 608.5C653.7 608.5 657.2 616.9 657.4 624.9C657.5 630.9 657.9 632 661.4 636.5C663.5 639.2 665.4 641.7 665.5 641.8C665.7 642 667.2 641.4 668.9 640.4C672.7 638.2 676.2 639.5 678.5 643.9C679.9 646.7 679.9 647 678 648C674.1 650.1 676.5 654.9 680.6 653.3C683.2 652.3 686.7 656.8 689 664.1C691 670.1 691.1 671.7 690.1 674.9C688.6 680 688.7 684.5 690.4 685.9C691.2 686.6 694.4 686.9 698.5 686.7C704.5 686.4 705.6 686 707.5 683.7C708.6 682.2 710.3 681 711.3 681C712.6 681 713 680.1 713 677C713 672 715.4 670.5 718.2 673.9C719.2 675.2 720 676.9 720 677.8C720 678.7 721.2 680.6 722.6 682.1C724.6 684.2 725.4 686.3 726 691.2C726.4 694.7 727.5 699.3 728.5 701.5C729.6 704 730 706.6 729.6 708.9C729.1 711.9 729.5 712.8 731.6 714.5C733.9 716.4 734.1 717.2 734.2 725.6C734.4 733.7 734.6 734.8 736.4 735.6C739.3 736.8 739.6 739.9 737.1 741.6C734.4 743.5 734.3 748.9 736.9 752.1C738.8 754.4 738.8 754.5 736.5 758.5C734.9 761.3 734.1 764.4 733.9 768.5C733.7 774.4 733.7 774.5 736.3 774.2C738.4 774 740.2 775.2 745.1 780.2C748.4 783.7 751.9 787.8 752.7 789.5C753.5 791.1 755.4 793.7 756.8 795.3C758.9 797.5 759.6 799.5 760.3 805.8C760.8 810 761.1 814.6 761.1 815.9C761 817.2 762.3 819.7 763.9 821.5C765.5 823.3 767.8 827.8 769 831.5C770.7 836.5 771.8 838.4 773.8 839.3C775.3 840 778.4 842.4 780.7 844.7C783.1 847 787.1 849.5 789.7 850.4C793.9 851.8 794.6 851.8 796.7 850.5C798.4 849.4 799 848 799 845.4C799 842 798 840.5 792.6 836.2C791.3 835.2 791 832.8 791 824.2C791 815 790.6 812.8 788.6 808.3C787.2 805.5 785 802.4 783.7 801.5C782.3 800.6 781 799 780.7 798C780.4 796.8 779.3 796 778.2 796C776.9 796 775.8 795 775.2 793.1C774.4 791 773.2 789.9 770.3 789C763.9 787.1 762.2 785.9 760.4 782.1C759.5 780.1 757.4 776.3 755.7 773.7C754.1 771.1 752.4 767.5 752.1 765.7C751.6 763.5 750.7 762.4 749.1 762C747.4 761.6 746.2 760.1 744.9 756.7C742.7 751.1 743.3 747.3 747.5 739.3C749.6 735.4 750 733.3 750 725.9C750 718 750.2 717 752.2 715.6C753.4 714.7 755.5 714 756.7 714C758.8 714 759 714.4 758.8 718.2L758.5 722.4L763.4 723.2C766.8 723.7 769.1 724.7 770.7 726.4C772 727.8 774.1 729 775.4 729C776.9 729 778.1 729.9 778.8 731.5C779.4 732.9 780.4 734 781 734C781.5 734 782 735.8 782 738C782 741.2 782.4 742 783.8 742C784.8 742 786.4 743.3 787.3 745C788.7 747.3 789.8 748 792.3 748C794.5 748.1 796.7 749.2 799.2 751.4C802.8 754.5 802.9 754.8 801.8 758.2C800.4 762.9 801.5 769 803.8 769C806.1 769 807.5 767.9 808.9 765.2C809.5 764 810.7 763 811.5 763C813.3 763 821 753.3 821 751C821 748.5 822.8 747.4 827.9 746.6C833.9 745.7 835.1 744.9 839.9 738.7C844 733.3 844 733.1 844.2 724.9C844.3 714.7 843.3 709.3 840.9 706.1C839.8 704.8 839 702.6 839 701.3C839 698.5 836.8 693.9 834.6 692.1C833.7 691.3 833 689.7 833 688.3C833 686.6 832 685.4 829.9 684.2C828.2 683.3 824.9 681 822.6 679.2C820.4 677.4 817.4 675.2 816.1 674.2C810.7 670.2 808 667.1 808 664.6C808 662.7 807.5 662 806 662C804.9 662 804 661.6 804 661.1C804 660.6 803.2 659.4 802.3 658.5C801.4 657.5 800.3 654.1 799.8 650.8C799 645 799.1 644.6 802 641.3C804.1 639 805 636.9 805 634.5C805 631.6 805.4 631 807.2 631C808.4 631 810.5 629.9 811.9 628.6C815.7 625.2 822.6 622.7 825 624C826 624.5 827.9 624.9 829.2 624.7C831.3 624.5 831.5 624.8 831.2 628.2C830.9 631.8 832.3 635.8 834.4 637.2C836.2 638.4 840.7 638.1 841.9 636.6C842.6 635.8 842.8 633.5 842.4 630.7C841.5 624.3 842.8 623 849.9 623C853.3 623 857.2 622.2 859.9 621C862.3 619.9 864.8 619 865.6 619C866.3 619 867.7 617.9 868.6 616.5C870 614.4 870.7 614.1 874.4 614.6C878.8 615.2 882.8 613.8 887.9 609.9C889.2 608.8 891.8 608 893.7 608C896.3 608 897.3 607.5 897.9 605.7C898.4 604.5 901.1 601.6 903.9 599.2C906.7 596.8 909 594.2 909 593.4C909 592.6 910.6 591 912.5 589.9C914.9 588.4 916 587.1 916 585.4C916 584 917 582.4 918.4 581.5C920.7 580 920.8 579.3 920.9 570.5C920.9 564.4 921.4 560.1 922.3 558.3C923.1 556.8 924 554.2 924.4 552.7C924.8 551 926 549.6 927.5 549C928.8 548.5 930.2 547 930.4 545.8C931.3 541.2 932 530.2 931.4 528.7C931 527.7 928.7 527 923.9 526.5C916.3 525.7 915.4 524.4 921.1 522.5C923.7 521.6 924.6 520.7 924.8 518.6C925 517.1 924.7 515.3 924.2 514.7C923.7 514 923 511.5 922.6 509.1C921.7 503.3 920.4 501 917.9 501C913.1 501 908 496.8 904.4 489.9C899.8 481.1 895.1 475.8 890.1 473.5C883.7 470.7 883.7 470 891.3 456.6C893.1 453.3 894.3 452.5 898 451.6C901.4 450.8 902.8 449.8 903.8 447.7C905.9 443.3 904.7 441.6 900.1 442.4C897.5 442.8 895.2 442.5 893.4 441.5C888 438.7 879.7 440.1 878.7 443.9C878.4 445.1 877.5 446 876.6 446C874.6 446 867.3 439.5 866.5 436.9C866.1 435.6 864.9 435 862.9 435C859.3 435 851 428.7 851 426C851 424.6 852 424.3 857.2 424.2C861.4 424.1 863.8 423.6 864.9 422.5C866.4 421 866.4 420.8 864.8 419.6C862.3 417.8 862.5 416.7 865.9 414.2C867.5 413 869.3 410.6 869.9 408.8C870.8 406 871.8 405.2 875.5 404.1C880.6 402.6 882 403.2 884.5 408C885.7 410.4 885.7 411 883.9 414C882.2 416.7 882 417.7 883 420.1C883.7 421.6 883.9 424.2 883.5 425.9C882.4 431.2 885.9 429.8 891 422.9C892 421.5 895 419.5 897.7 418.5C901.9 416.9 903.2 416.8 910 417.9C914.1 418.6 918.2 419.6 919.1 420.1C921.5 421.3 922.2 425.3 921 430.3C920.2 433.3 920.2 435.4 920.9 437.3C921.9 440 922.2 440.1 928.7 439.9C937.2 439.6 941.4 441.3 941.8 445.4C942 447 941.7 448.7 941.1 449.3C939.1 451.3 939.9 454.8 942.9 456.9C945.9 459.1 948 464.9 948 471.3C948 479.7 950.9 485 955.5 485C958.6 485 959.3 483.8 958 480.5C955.7 474.5 958.9 472.1 970.5 471.1C976.7 470.6 977.6 470.2 978.7 468C980.3 464.5 978.9 458.5 975.6 455.1C974.2 453.6 973 451.7 973 450.9C973 450.1 967.9 444.4 961.7 438.2C953.1 429.7 949.7 427 947.7 427C944.8 427 943.4 425.4 943.8 422.7C944 421.6 943.5 421 942.1 421C941 421 939.5 420 938.9 418.8C937.9 416.9 938 416.4 940 415.1C941.3 414.2 943.8 412.1 945.6 410.3C949.6 406.6 950.1 402.2 947 397.5C944.6 393.9 944.5 391.4 946.6 390.6C947.5 390.2 948 389.3 947.6 388.5C947.3 387.7 947.6 387 948.3 387C949 387 950 385.6 950.5 383.8C951.1 382.1 952.4 380.1 953.5 379.4C955.2 378.3 956.1 378.5 959.9 381C967 385.8 971.9 385 979.6 377.8C982.4 375.2 982.7 374.4 982.3 370.6C981.9 367.7 982.3 365.5 983.3 363.9C984.1 362.6 985.1 359.9 985.5 358C985.8 356.1 986.9 352.6 987.7 350.2C989 346.6 989.1 344.9 988.1 339C986.5 329.3 986.7 327 989.2 324.3C991 322.3 991.2 321.6 990.2 320.2C989.6 319.3 987.6 315.6 986 312C984.3 308.4 981.4 303.9 979.6 302C975.5 297.8 973.5 293.9 971.9 287.4C971.1 283.9 969.6 281.4 966.6 278.5C964.4 276.3 961 272.4 959.3 269.7C957.3 266.9 955.3 265 954.2 265C953.1 265 950.8 264 948.9 262.7C944.9 260 933.5 256.2 930.1 256.4C927.8 256.5 926.7 257.7 925.6 261.2C924.8 264 921.7 263.3 919.8 260C918.4 257.6 917.4 257 914.7 257C912.3 257 910.6 256.2 908.5 254C905.8 251.2 905.1 251 898.7 251C892 251 891.8 250.9 892.4 248.7C892.7 247.5 893 245.7 893 244.8C893 243.7 894.4 242.4 896.5 241.6C899.1 240.5 900 239.5 900 237.8C900 236.5 900.4 234.9 900.9 234.1C901.5 233.2 901.4 232 900.8 231C899.3 228.7 900.5 226 903 226C904.3 226 905 225.3 905 224C905 222.9 905.5 221.1 906.2 220C907.1 218.5 907.1 217.6 906.1 215.7C905 213.7 905.1 212.7 906.7 209.4L908.5 205.5H922.5C930.2 205.4 937.1 205.1 937.8 204.6C938.5 204.2 940 204.2 941.3 204.7C942.5 205.1 945.8 205.5 948.5 205.6C951.3 205.7 954.4 205.9 955.5 206.1C957.1 206.4 957.4 206 957.2 204.4C957.1 203.2 957.6 201.7 958.4 201.1C959.7 200 960.6 200.2 963.4 202C966.3 203.7 967.8 204 971.6 203.4C976.8 202.6 979.3 204.3 978.3 208C977.8 209.8 978.3 210 982.4 210C985 210 987.9 209.6 988.9 209.1C989.9 208.5 991.2 208.5 992 209C993 209.6 994.1 209.4 995.2 208.3C996.3 207.4 999.1 206.7 1002.7 206.6C1007.2 206.5 1008.6 206.1 1008.8 204.8C1009.1 203.1 1006.8 202.3 999 201.8C996 201.5 995.5 201.1 995.2 198.7C995 197.1 995.4 195.2 996.2 194.3C997 193.3 997.4 190.6 997.1 186.4L996.8 180H1001.7C1004.3 180.1 1009.1 179.8 1012.2 179.4C1017.8 178.8 1017.9 178.9 1022.1 182.9C1024.5 185.2 1027.4 187 1028.6 187C1029.8 187 1031 187.7 1031.4 188.5C1032.3 191 1035.9 190.3 1037.2 187.2C1037.9 185.7 1039.2 183.4 1040.2 182.1C1042.7 178.8 1042.5 178.3 1038 176C1035.8 174.9 1034 173.6 1034 173.1C1034 172.1 1041.8 170.7 1043.1 171.6C1043.6 171.9 1045.8 174.5 1048 177.3C1050.2 180.2 1053 183.7 1054.2 185.2L1056.4 188L1054.1 190.4C1051.3 193.3 1050.1 198.9 1050 208.3C1050 216.7 1048.9 219 1045 219C1041.7 219 1041.5 219.3 1043 222C1043.6 223.1 1044.2 225.9 1044.3 228.2C1044.7 234.4 1051.8 243.1 1066.2 254.6C1072.7 259.8 1079 265.6 1080.2 267.5C1081.5 269.4 1085.3 272.5 1088.9 274.5C1092.6 276.7 1098.6 281.6 1103.2 286.4C1112.2 295.7 1113.3 295.6 1112.8 285.4C1112.5 280.6 1111.8 278.5 1109.7 275.7C1108.2 273.7 1107 271.9 1107 271.6C1107 271.4 1108.2 271 1109.8 270.8C1113.8 270.4 1114.1 265.8 1110.4 261.9C1106.9 258.2 1107.7 256.2 1113.2 255.8C1118.8 255.4 1119.5 252.8 1114.8 250.4C1113 249.5 1109.4 246.9 1106.8 244.6C1101.8 240.4 1101.9 239 1107.3 239C1108.9 239 1110.3 238.3 1110.7 237.4C1111.5 235.3 1106.3 231.1 1102.8 231C1101 231 1099.4 230 1097.8 227.9C1092.6 220.9 1089 217.8 1086.9 218.3C1082.3 219.5 1075 214.5 1075 210.1C1075 208.7 1073.7 206.3 1072 204.5C1068.5 200.9 1068.7 197.3 1072.4 198.5C1077.5 200.2 1079.5 199.6 1080.5 196.2C1081.7 192.1 1084.8 192.1 1086.8 196.2C1088.6 200 1090.5 199.7 1092.7 195.2C1094.1 192.4 1095.2 191.4 1097.4 191.2C1103 190.5 1109 192.1 1112.3 194.9C1115.7 197.8 1121.5 199.6 1122.5 198C1122.8 197.5 1122.4 195.7 1121.5 194C1120.1 191.3 1120.1 190.9 1121.5 190.4C1122.3 190.1 1123 188.7 1123 187.3C1123 183.2 1124.8 181 1128.1 181C1130.3 181 1131.3 180.4 1132 178.6C1132.5 177.2 1133.8 175.6 1135 175C1136.1 174.4 1137 173 1137 172C1137 169.9 1139.4 169.3 1140.5 171C1140.8 171.5 1143.2 172 1145.8 172C1148.4 172 1152 172.4 1153.7 172.9C1155.5 173.4 1158.2 173.5 1159.7 173.1C1162.4 172.4 1161.9 171.9 1149 162.3C1133 150.4 1102.2 129.5 1078.5 114.5L1061.5 103.7L1050 103.6C1040.7 103.5 1037.8 103.1 1035 101.6C1031.2 99.5 1023.3 99.3 1013.4 100.8C1009.9 101.4 1006.9 101.2 1004 100.4C998.4 98.7 987.7 98.3 987.3 99.7C986.6 101.6 991.3 104 995.5 104C1000.2 104 1004 106.3 1004 109.1C1004 111.6 1000.6 111.6 995.5 109C993.3 107.9 989.8 107 987.7 107C985.6 107 982.1 106 979.9 104.7C976.5 102.8 976 102.2 976.6 99.8C977.1 97.4 976.9 97.1 975.3 97.7C974.3 98 972.2 99.4 970.7 100.7C967.3 103.4 967.1 103.4 949.6 101.4C939.4 100.2 935.1 100.1 932.8 100.9C931.1 101.5 926.8 102 923.4 102C917.6 102 916.7 101.7 913.3 98.6C907.9 93.9 906.6 93.4 893.9 90.7C878.7 87.4 859.8 86.5 853.8 88.6C848.6 90.5 842.3 90 836 87.1C833.5 86 829.9 85 828 85C826.1 85 821.9 84.3 818.8 83.6C815.7 82.8 812.9 82.4 812.6 82.7C812.4 83 811.6 82.9 811 82.5C810.2 82 810.2 81.4 811.1 80.4C811.7 79.6 812.1 78.8 811.9 78.6C811.7 78.3 808.1 77.7 803.9 77.1C799.8 76.5 795.6 75.8 794.7 75.4C793.4 74.9 792.6 75.7 791.5 78.4C789.7 82.6 786.5 83.5 787.2 79.5C788 75.5 785.8 74.6 774.2 74.3C768.3 74.1 758.6 73.3 752.5 72.4C742.1 71 741.4 71 740.2 72.7C739.5 73.7 738.1 74.4 737 74.2C736 74 734.9 74.4 734.5 75C733.5 76.7 735.9 79 738.8 79C740.2 79 742.3 80.1 743.6 81.6L746 84.1L731.3 83.8C723.1 83.7 714 83.9 711 84.4C706 85.1 704.8 85 700.2 82.6C697.4 81.2 694.8 80 694.5 80C693.4 80 694.1 82.4 695.7 84.2C697.1 85.8 697.2 86.2 695.9 87.5C693.8 89.6 681 87.9 677.4 85.1C675.9 84 674 83 673.2 83C672.3 83 668.7 81.5 665.1 79.7C659.7 77.1 657.4 76.5 652.3 76.6C644.5 76.7 642.9 74.7 649 72.3C654.9 70 654 67.7 647 66.9C644 66.6 640.7 66 639.8 65.6C638.9 65.2 637 65.5 635.5 66.2C633.3 67.4 631.8 67.3 623.7 65.3C615.1 63.1 610 63 610 64.8C610 65.9 616.6 69 618.8 69C621 69 624.8 71.6 623.9 72.4C623.6 72.8 620.9 72.4 617.9 71.7C614.9 70.9 606.5 70.3 599.2 70.2C586.6 70 585.6 69.8 579.9 67C574.3 64.3 573.2 64.1 560.7 63.9C552.1 63.8 546.6 64.1 545.2 64.9C543.3 65.9 542.5 65.7 539.6 63.5C535.8 60.6 534.7 60.4 533 62.5C531.3 64.6 527.7 64.4 524.7 62C521.4 59.4 513 60.2 513 63.1C513 64 513.8 65.1 514.8 65.3C515.9 65.6 515.6 65.8 513.9 65.9C512.4 65.9 509.3 66.7 507 67.5C500.8 69.7 498.8 69.5 499.2 66.8C499.4 65.5 500.3 64.4 501.5 64.2C502.6 64 504.9 62.5 506.5 60.9C508.2 59.4 511.1 57.5 513 56.8C521 54.1 525 50.3 521.9 48.5C521.4 48.1 520.5 46.7 520 45.5C519.3 43.7 518.1 43 515.3 42.5C513.2 42.2 507.9 40.8 503.5 39.5C494.8 36.7 487.9 36.4 476.5 38.1C464.5 39.9 464.5 39.9 464.8 36.6C465.2 33.7 465.2 33.7 460.7 34.3C454.3 35.2 449 34.1 448.1 31.7C447.4 29.9 446.2 29.7 436.7 29.3C426.9 28.9 426.1 29 425.1 30.9ZM301.2 339C301.9 340.1 303 341 303.7 341C304.4 341 305.4 340.1 306 339C306.6 337.9 307.7 337 308.5 337C310.3 337 310.3 337.8 308.5 341C305.9 345.5 306.6 349.6 310.4 352.5C315.1 356 315.5 357.7 312.4 360.5C310.3 362.4 309.9 363.6 310.1 367.4C310.3 369.9 310.2 372.1 309.9 372.3C309.7 372.6 307.6 373 305.4 373.4C302.1 373.9 301.1 373.7 300.6 372.4C300.1 371.1 299 370.9 294.5 371.5C289.1 372.1 289 372.1 289 369.6C289 368.1 288.2 366.6 287 366C285.1 365 284.9 364.1 285.2 356.7L285.5 348.5L288.4 348.2C290.2 348 291.4 347.1 291.7 345.9C292 344.9 293.1 344 294.2 344C295.7 344 296 343.5 295.5 342C294.8 339.7 296.5 337 298.6 337C299.4 337 300.5 337.9 301.2 339Z" fill="#1AAB9B"/>
<path d="M387.1 31.9001C386.4 32.4001 386.1 33.3001 386.4 33.9001C387.2 35.2001 391 33.6001 391 32.0001C391 30.8001 389 30.7001 387.1 31.9001Z" fill="#1AAB9B"/>
<path d="M675.4 42.4998C675 43.2998 676 45.5998 677.4 47.4998C679.7 50.3998 680.7 50.9998 683.9 50.9998C686.1 50.9998 688.8 51.7998 690.1 52.7998C693.9 55.6998 695.6 55.9998 701.2 54.5998C709.7 52.3998 717.7 51.7998 721.3 52.8998C724.8 54.0998 732.1 52.2998 732.8 50.0998C733.4 48.1998 730.9 45.8998 728.6 46.1998C724.6 46.6998 705.5 43.8998 701.7 42.2998C697.5 40.4998 696 41.1998 697.8 43.9998C699.3 46.4998 699.4 46.4998 691.4 43.4998C683.8 40.5998 676.3 40.1998 675.4 42.4998Z" fill="#1AAB9B"/>
<path d="M666 45.5C666 47.2 668.2 50 669.6 50C672.1 50 670.9 45.6 668.3 45.2C667 45 666 45.1 666 45.5Z" fill="#1AAB9B"/>
<path d="M739 48.9998C739 50.8998 742.1 51.9998 747.6 51.9998C751.6 51.9998 755.3 52.6998 758.1 53.9998C763.1 56.1998 772.9 56.6998 774.8 54.7998C777.4 52.1998 776.1 50.9998 770.6 50.9998C767.7 50.9998 763.7 50.2998 761.7 49.4998C758.3 48.0998 739 47.5998 739 48.9998Z" fill="#1AAB9B"/>
<path d="M717 59.5C717 60.6 718.1 61 720.8 61C724.3 60.9 724.4 60.8 722.6 59.5C720 57.6 717 57.6 717 59.5Z" fill="#1AAB9B"/>
<path d="M726.5 63.9998C725.5 65.0998 724.9 66.1998 725.1 66.3998C725.3 66.5998 730 67.2998 735.4 67.8998C740.9 68.4998 746.4 69.2998 747.8 69.6998C749.7 70.0998 750.1 69.8998 749.8 68.4998C749.4 66.3998 741.6 63.5998 733.6 62.5998C729.1 61.9998 728.1 62.1998 726.5 63.9998Z" fill="#1AAB9B"/>
<path d="M979.8 99.0998C977.4 100.5 977.6 101.6 980.2 102.4C983.2 103.1 984.9 101.4 983 99.4998C981.9 98.4998 981 98.3998 979.8 99.0998Z" fill="#1AAB9B"/>
<path d="M1145 249.7C1145 251 1150.3 256 1151.7 256C1154.4 256 1152.9 253.3 1148.8 250.7C1145.8 248.9 1145 248.6 1145 249.7Z" fill="#1AAB9B"/>
<path d="M1161 252.4C1161 253.8 1164.6 257 1166.3 257C1166.7 257 1166.1 255.6 1164.8 254C1162.4 250.7 1161 250.2 1161 252.4Z" fill="#1AAB9B"/>
<path d="M957.4 256.5C957 257.5 957.7 259.1 959.3 260.8C961.2 262.7 961.8 264.2 961.3 265.8C960.9 267.6 962.3 269.6 968.6 276.3C972.8 280.8 978.1 285.7 980.3 287.2C984.2 289.9 990.9 299.2 991 301.9C991 302.6 992.8 304.9 995 306.9C997.5 309.2 1000 312.8 1001.5 316.5C1003.4 321.4 1004.4 322.6 1006.8 323.2C1009.3 323.9 1009.8 324.6 1010.4 327.9C1010.7 330.1 1012.5 333.9 1014.5 336.4C1016.4 339 1018 341.6 1018 342.4C1018 344.2 1021.3 347 1023.3 347C1024.4 347 1025 346.2 1025 344.5C1025 341.6 1026.5 341.3 1031.7 343.2C1034.1 344.1 1035.3 344.1 1036.1 343.3C1036.9 342.5 1036.2 341.6 1033.4 340.2C1027.4 337.1 1016 326.2 1016 323.5C1016 322.3 1015.1 320.1 1014 318.7C1011.6 315.7 1011.5 314.4 1013.5 313.6C1015.7 312.8 1019.4 314.5 1022.2 317.5C1023.8 319.2 1025.2 319.9 1026.3 319.4C1028.8 318.5 1028.4 317.4 1024.8 314.9C1023 313.7 1019.2 310.5 1016.3 307.8C1013.5 305.2 1010.6 303 1009.9 303C1007.3 303 1002.2 297.9 999.1 292.1C996.5 287.1 995.2 285.8 992.9 285.3C991.3 285 989.5 283.9 988.9 282.9C988.4 281.8 987.3 281 986.6 281C985.8 281 984.2 279 983 276.5C980.8 271.9 972.4 264 969.7 264C968.8 264 967.1 262.7 965.8 261.1C964.5 259.6 962.3 257.5 960.8 256.5C958.2 254.9 958 254.9 957.4 256.5Z" fill="#1AAB9B"/>
<path d="M1225.4 274.1C1224.7 275.4 1226.7 277 1229 277C1230.7 277 1233.7 275.3 1233 274.7C1231.7 273.6 1226 273.2 1225.4 274.1Z" fill="#1AAB9B"/>
<path d="M1238 278.5C1238 280.3 1240.4 281.5 1241.9 280.6C1243.5 279.6 1242 277 1239.9 277C1238.9 277 1238 277.7 1238 278.5Z" fill="#1AAB9B"/>
<path d="M1277.6 283.7C1276.5 284.8 1277 286 1278.5 286C1279.3 286 1280 285.6 1280 285.1C1280 283.8 1278.4 282.9 1277.6 283.7Z" fill="#1AAB9B"/>
<path d="M1101.3 293.7C1099.7 294.3 1099.6 297 1101 297C1102.1 297 1103.6 294.2 1102.9 293.6C1102.7 293.4 1101.9 293.5 1101.3 293.7Z" fill="#1AAB9B"/>
<path d="M1105.7 297.5C1103.6 299.6 1102.6 303 1103.7 304.1C1105.5 305.9 1110 303.3 1110 300.6C1110 297.2 1107.7 295.5 1105.7 297.5Z" fill="#1AAB9B"/>
<path d="M1106.6 308.8C1106.3 309.4 1106.5 310.2 1107.1 310.5C1108.6 311.5 1109.6 310.2 1108.3 308.9C1107.6 308.2 1107 308.2 1106.6 308.8Z" fill="#1AAB9B"/>
<path d="M1092.4 348.6C1091.3 350.2 1091 351.4 1091.7 352.1C1093.1 353.5 1096 352.1 1096 349.9C1096 348.9 1096.5 348 1097 348C1097.6 348 1098 347.5 1098 347C1098 345 1094 346.1 1092.4 348.6Z" fill="#1AAB9B"/>
<path d="M1079.4 356.6C1077.6 359.2 1077.1 364.4 1078.4 365.7C1079.5 366.8 1082.5 364.5 1082.8 362.3C1083 361.1 1084 359.4 1085.1 358.4C1087.9 355.9 1087.5 354 1084 354C1081.9 354 1080.5 354.8 1079.4 356.6Z" fill="#1AAB9B"/>
<path d="M1027 356.5C1025.9 357.8 1026.3 358.6 1029.4 361.4C1031.7 363.7 1033 365.8 1033 367.4C1033 368.8 1033.5 370 1034 370C1035.1 370 1036.6 373.2 1037.2 376.6C1037.4 377.9 1036.9 378.5 1035.4 378.6C1031.8 378.8 1030.9 379.9 1032.1 382.2C1033 383.8 1032.8 384.8 1031.1 387.1C1029.9 388.6 1029 390.5 1029 391.3C1029 393.2 1031.1 395 1033.3 395C1034.3 395 1036.4 396.4 1037.9 398C1040.4 400.8 1040.8 401 1044.1 399.9C1046 399.2 1047.9 398.3 1048.4 397.9C1049.8 396.7 1046.3 393.3 1042.5 392C1039.4 391 1037.3 388.4 1038.5 387.2C1038.8 386.9 1040.2 387.2 1041.6 387.9C1043.8 388.9 1044.6 388.8 1046 387.5C1048.4 385.3 1049.8 385.6 1054.4 389.3C1063.2 396.5 1066 396.6 1066 389.7C1066 384.7 1067.1 383.3 1071.5 382.8C1073.7 382.6 1074.6 381.9 1074.8 380.2C1075 378.9 1074.7 377.3 1074.1 376.6C1073.5 375.9 1073.3 373.9 1073.6 372.2C1074.4 368.1 1073.4 365.4 1071.7 366.8C1071 367.4 1067.4 368.2 1063.8 368.6C1057.7 369.2 1056.6 369 1050.6 366.2C1046.9 364.5 1041.4 361.3 1038.3 359C1032.4 354.8 1029.1 354 1027 356.5Z" fill="#1AAB9B"/>
<path d="M1049 401.4C1047.1 402.1 1045.5 403.2 1045.5 403.9C1045.5 404.5 1044.8 405.5 1044 406C1042.8 406.7 1042.8 407.2 1043.8 408.2C1044.4 408.8 1045 411.3 1045 413.5C1045 417.6 1047.2 421 1049.7 421C1050.9 421 1052 428 1052.1 436.3C1052.2 440.3 1051.7 442.7 1050.6 443.9C1049.7 444.9 1049 446.2 1049 446.8C1049 448.4 1045.1 450.3 1043.3 449.6C1042.4 449.2 1042 448.2 1042.3 447C1042.9 444.8 1041.2 443.9 1038.8 445.2C1037.5 445.8 1037 447.3 1037 450.1C1037 452.3 1036.3 455.7 1035.5 457.6C1034.7 459.6 1034.3 462.3 1034.6 463.6C1035.3 466.4 1035.1 466.5 1030.6 464.4C1027.5 462.9 1026.3 462.8 1019.3 464.1C1011.7 465.4 1011.3 465.6 1006 471.1C1003 474.3 999.6 477 998.6 477.2C996.1 477.6 995.6 479.1 997.3 481.4C999.3 484.1 1010.1 484.5 1013.4 481.9C1014.7 480.9 1016.7 480 1017.8 480C1018.8 480 1020.8 479.2 1022.1 478.1C1023.7 476.9 1026.8 476.1 1031.8 475.8L1039 475.3V479.5C1039 483.8 1040.5 486 1044.4 487.4C1046.6 488.2 1051 485.6 1051 483.5C1051 482.8 1051.8 481.4 1052.7 480.4C1054.3 478.8 1054.2 478.6 1051.6 476.5C1050 475.2 1049.1 473.7 1049.4 473.1C1050.6 471.2 1053.7 471.9 1055.4 474.6C1057.1 477 1057.4 477.1 1064.3 476.4C1071.9 475.7 1074.8 474.4 1073 472.6C1070 469.6 1073.9 466.7 1077.1 469.6C1079.1 471.4 1079.2 471.4 1081.1 469.1C1083.6 466 1083.5 463.7 1080.5 460.2C1078.9 458.3 1077.5 454.9 1076.9 451.3C1076.3 448.1 1075.2 444 1074.4 442.1C1073.1 439.1 1073.2 438.5 1074.6 436.9C1076.1 435.2 1076.1 434.7 1074 429.3C1069.8 418.7 1067.3 414.5 1063.1 411.2C1060.9 409.4 1058.2 408 1057.3 408.2C1055.8 408.4 1055.5 407.8 1055.5 404.5C1055.5 400 1054.4 399.4 1049 401.4Z" fill="#1AAB9B"/>
<path d="M78.0003 464.5C77.3003 465.3 75.3003 466 73.5003 466C69.9003 466 66.4003 469.1 67.3003 471.5C67.7003 472.5 69.2003 473 71.8003 473C79.2003 473 87.9003 464.1 81.4003 463.2C80.3003 463 78.7003 463.6 78.0003 464.5Z" fill="#1AAB9B"/>
<path d="M1024.4 481.5C1024 482.4 1022.5 483 1020.6 483C1018 483 1017.2 483.6 1015.8 486.8C1014.3 490 1014.2 491.1 1015.2 493.8C1017.2 498.9 1023.9 499.5 1022.6 494.5C1021.7 490.9 1024.1 489.6 1028.5 491.1C1032.8 492.7 1034 491.6 1034 485.7C1034 482.6 1033.6 481.8 1031.4 481C1027.7 479.6 1025 479.8 1024.4 481.5Z" fill="#1AAB9B"/>
<path d="M992.2 487.8C990.1 489.6 989.3 490.9 989.9 491.5C990.4 492.1 991 493.6 991.2 495C991.6 498.5 994.5 498.7 996.2 495.3C997.7 492.1 1000.7 491.6 1002.4 494.2C1003.2 495.5 1003.2 496.5 1002.3 497.9C1001.5 499.1 1001.5 500.1 1002.2 500.8C1002.8 501.4 1002.8 502.4 1001.9 503.7C1000.9 505.4 1001 506.1 1002.3 508.1C1003.3 509.4 1004 511.2 1004 512.2C1004 513.9 1007.6 517 1009.5 517C1010.7 516.9 1015 510.4 1015 508.5C1015 507.7 1014.5 506.8 1013.9 506.5C1013.3 506.1 1012.9 503.5 1013 500.6C1013.2 493.3 1013.3 493.5 1010.4 490.1C1008.5 487.8 1007 487 1004.5 487C1002.6 487 1000.8 486.5 1000.5 486C999.4 484.2 995.6 485 992.2 487.8Z" fill="#1AAB9B"/>
<path d="M958 488.5C957.3 489.3 956.9 490.3 957.2 490.5C958.1 491.5 964.1 489.7 963.7 488.6C963.1 486.8 959.5 486.8 958 488.5Z" fill="#1AAB9B"/>
<path d="M1009.9 523.6C1008.8 525 1008.9 525.1 1011 524.8C1012.3 524.7 1013.5 523.9 1013.8 523.2C1014.3 521.5 1011.5 521.7 1009.9 523.6Z" fill="#1AAB9B"/>
<path d="M1005 547C1001.5 550.5 1002.6 551.7 1007.8 550.4C1010.3 549.7 1010.8 546.5 1008.5 545.6C1007.6 545.3 1006.1 545.9 1005 547Z" fill="#1AAB9B"/>
<path d="M298.7 561.8C297.1 563.6 297.1 563.8 298.6 565C300.6 566.7 303.5 565.2 303.5 562.4C303.5 559.8 300.8 559.5 298.7 561.8Z" fill="#1AAB9B"/>
<path d="M997.6 566.2C996.5 567.8 996.3 568.7 997.2 569.7C998.7 571.6 1000 571.3 1000 569.1C1000 568.1 1000.7 566.9 1001.6 566.6C1002.4 566.3 1002.8 565.6 1002.5 565C1001.5 563.3 999.2 563.9 997.6 566.2Z" fill="#1AAB9B"/>
<path d="M248 568.4C248 569.2 248.4 570.1 248.9 570.4C249.9 571.1 251.2 568.5 250.3 567.6C249.2 566.5 248 567 248 568.4Z" fill="#1AAB9B"/>
<path d="M936.8 583.7C933.8 587.3 930.8 598 931.2 603.6C931.7 609.5 936.2 617.3 938.8 616.8C939.6 616.6 940.8 614.4 941.5 611.7C942.2 609 943.2 606.4 943.9 605.7C945.5 604.1 945.3 601.4 943.4 599.5C942 598.2 941.9 597.4 942.9 595.4C946.4 587.7 941.5 578.2 936.8 583.7Z" fill="#1AAB9B"/>
<path d="M833.9 643C826.3 647 823.1 653.8 826.5 658.7C829.4 662.9 843 662.8 843 658.6C843 657.8 843.7 656.7 844.5 656C845.4 655.3 845.8 653.9 845.5 652.9C845.1 651.7 845.4 650.8 846.4 650.4C848 649.8 848.5 645.6 847.4 642.6C846.5 640.3 838.5 640.6 833.9 643Z" fill="#1AAB9B"/>
<path d="M945.2 659.3C943.2 661.6 942.9 665.7 943.9 673.1C944.5 677.2 945.3 681.6 945.6 683C946.2 685.1 946 685.3 944.9 684.2C943.1 682.6 940.5 682.7 939 684.5C938.1 685.6 938.6 687.3 941.7 693C944.1 697.4 946.2 700.2 947.5 700.5C955.6 702.1 955.3 701.9 954.8 705.3C954 710.5 954.6 711 961.6 711C967.5 711 968.1 711.2 970.2 714C972.8 717.6 974.6 717.8 975.3 714.8C975.9 712.7 976 712.7 978 714.5C980.1 716.4 980.7 719 979 719C977.4 719 977.9 721.8 979.7 722.9C981.3 723.8 981.3 724 979.5 727.4C978.4 729.3 977.8 731.1 978 731.3C978.3 731.6 980.6 732.1 983.3 732.4L988 733.1V729.5C988 727.5 988.5 725 989.1 723.8C990 722.2 989.8 721.4 988.1 719.9C986.9 718.8 986 716.7 986 715C986 711.8 981.3 707.6 978.7 708.6C977.9 708.9 977 708.4 976.7 707.6C976.2 706.4 974.6 706 970.5 706C965.7 706 965 705.8 965 704C965 703 964.2 701.6 963.1 701.1C961.9 700.4 961.1 698.5 960.7 695.6C960.1 691.8 960.6 690.2 964.2 683.5L968.2 675.7L965.2 669.6C963.5 666.2 961.7 662.3 961.2 660.9C960.2 658.5 959.7 658.3 953.2 658.2C948.7 658.1 945.8 658.5 945.2 659.3Z" fill="#1AAB9B"/>
<path d="M676.7 715.4C674.5 717.6 673.7 731.3 675.5 735.6C676.5 738.1 677.5 739 678.7 738.8C680.2 738.5 680.5 736.9 680.8 726.2C681.1 715.8 680.9 714 679.7 714C678.8 714 677.5 714.6 676.7 715.4Z" fill="#1AAB9B"/>
<path d="M953 715.2C953 715.8 954.1 717.5 955.5 719.2C958.1 722.3 958.7 725.4 957 726.5C955.2 727.6 955.9 729 958.3 729C959.6 729 961.4 728.2 962.3 727.2C964.4 724.9 964.5 718.7 962.5 717C960.5 715.3 953 714 953 715.2Z" fill="#1AAB9B"/>
<path d="M287.3 722.6C286.6 722.9 286 724 286 725.1C286 726.6 286.7 727 289.5 727C291.4 727 293 726.6 293 726.1C293 725.6 294.1 725 295.5 724.8C300.1 724.3 298.6 722.5 293.5 722.3C290.8 722.2 287.9 722.3 287.3 722.6Z" fill="#1AAB9B"/>
<path d="M994.2 726.7C993.6 728.3 992.5 731.7 991.9 734.5C990.1 742.4 988.8 743.8 983.3 744.2C978.7 744.5 978.5 744.6 978 748.1C977.6 750 976.6 752.7 975.7 754C973.2 757.5 973.6 759.8 977.1 763.1C981.8 767.5 983.4 767 986.9 759.4C988.6 755.8 990.5 751.1 991.1 748.9C991.8 746.7 992.9 744.5 993.5 744C994.7 743 995.4 744.2 997.4 750.2C998.1 752.4 1001.8 752.6 1002.7 750.4C1003 749.6 1002.8 747.8 1002.2 746.6C1001.4 744.8 1001.5 743.7 1002.6 742.1C1004.2 739.9 1003.8 733.3 1001.8 728C1000 723.3 995.8 722.6 994.2 726.7Z" fill="#1AAB9B"/>
<path d="M968.6 726.8C968.2 727.5 968.4 729.7 969 731.9C969.7 734.6 969.7 736.7 969 738.5C967.5 742.5 967.8 746.7 969.6 747.4C971.6 748.2 979.7 743.2 980.3 740.8C981.1 738.1 978.2 734.9 975.2 735.2C973 735.5 972.5 735 972 732.5C971.1 728.2 969.4 725.5 968.6 726.8Z" fill="#1AAB9B"/>
<path d="M947.4 728.5C946.4 731 947.8 733.2 950.2 732.8C953 732.4 953.5 730.7 951.5 728.6C949.5 726.6 948.1 726.6 947.4 728.5Z" fill="#1AAB9B"/>
<path d="M942 743.9C942 745.6 941.5 747.2 941 747.5C940.4 747.9 938.7 750 937.3 752.3C935.8 754.6 932 759.2 928.8 762.5C923.3 768.2 921.8 771.2 923.9 772.5C925.5 773.4 931.8 769.8 932.4 767.6C932.7 766.4 934.2 764.8 935.8 763.9C937.9 762.7 938.9 761.2 939.4 758.7C939.8 756.5 940.7 755 941.9 754.7C942.9 754.5 944.5 752.7 945.5 750.7C947 747.5 947 746.9 945.5 744.1C943.5 740.2 942 740.1 942 743.9Z" fill="#1AAB9B"/>
<path d="M675.5 745C675.8 745.5 676.8 746 677.6 746C678.4 746 679 745.5 679 745C679 744.4 678.1 744 676.9 744C675.8 744 675.2 744.4 675.5 745Z" fill="#1AAB9B"/>
<path d="M991.8 754.1C989.6 755.3 989.5 759.6 991.6 760.4C992.4 760.7 994.2 760.2 995.6 759.3C1000.4 756.2 996.7 751.1 991.8 754.1Z" fill="#1AAB9B"/>
<path d="M554 756.5C553 757.7 553 758.4 554.3 760.3C555.9 762.8 555.7 769.7 553.8 773.2C553.3 774.3 553.3 775.8 554 777C554.8 778.4 554.7 779.5 553.8 780.9C552.8 782.5 552.8 783.6 553.8 786.3C554.5 788.1 555 791 555 792.6C555 796.7 556.6 798 561.7 798C565.4 798 566.6 797.4 570.1 794C574 790.2 574.2 789.8 573.5 785.8C573.1 783.4 572.2 780.8 571.6 780C569.3 777.2 565 768.8 565 767C565 766 564.3 764.7 563.4 763.9C562.5 763.2 561.1 761 560.2 759.1C558.3 755.1 556 754.1 554 756.5Z" fill="#1AAB9B"/>
<path d="M1004.7 757.7C1004.3 758 1004 759.7 1004 761.5C1004 765.3 1002.7 767 997.7 769.8C993.2 772.4 992 772.5 992 770.6C992 768.3 990.2 767.8 986.5 769C984.3 769.7 982.4 771.3 981.5 773.1C980.6 774.7 979.3 776 978.6 776C977.9 776 976.1 776.9 974.6 778.1C972.6 779.7 972 781 972 784C972 789.1 975 791.2 977.4 787.8C978.3 786.6 979 784.8 979 783.8C979 781.4 980.4 780.8 983.3 781.9C985.1 782.6 986.3 782.5 987.6 781.5C989.8 779.9 999.6 779.5 1000.5 781C1000.8 781.5 1000 782.5 998.6 783.1C995.3 784.6 994.6 786.9 996 791.9C996.9 795.2 997.9 796.4 1002.4 798.9C1011.1 803.9 1013.4 802.8 1010 795.3C1008.9 792.8 1008.2 789.8 1008.6 788.8C1009.4 786 1012.4 787 1012.8 790.2C1013.2 793.4 1015.4 795.5 1017.5 794.6C1018.7 794.2 1019 792.2 1019 785.7C1019 778.1 1018.8 777.1 1016.5 775C1014.7 773.3 1014.2 772 1014.6 770.4C1015.2 768 1012.9 763.4 1009 759.2C1006.8 756.9 1005.8 756.5 1004.7 757.7Z" fill="#1AAB9B"/>
<path d="M1096.7 780.7C1095.7 781.6 1095.8 787 1096.8 787C1097.6 787 1098.4 785.6 1100.8 780.7C1101.3 779.8 1097.6 779.7 1096.7 780.7Z" fill="#1AAB9B"/>
<path d="M690.7 785.2C690.2 786.8 691.7 790 693.1 790C694.5 790 693.8 784.8 692.4 784.3C691.7 784.1 691 784.5 690.7 785.2Z" fill="#1AAB9B"/>
<path d="M919.2 789.6C917.9 790.5 917 792.2 917 793.7C917 795.3 915.5 798.2 913.1 801C911 803.5 909.1 806.5 908.8 807.5C908.5 809.1 907.6 809.5 904.6 809.5C901.5 809.5 900.6 809.9 899.9 811.7C899.4 813 898.4 814 897.5 814C896.7 814 895.2 815.5 894.3 817.3C890.8 823.8 885.8 831 884 832C883 832.6 880.1 833 877.7 833C873.4 833 873.1 833.2 870.6 837.4C869.2 839.9 868 843.2 868 844.9C868 848.7 866.4 849.7 864 847.5C862.9 846.5 861.4 846.1 860.2 846.4C859 846.8 857.7 846.3 856.5 845C854.2 842.4 853.2 842.5 849.6 845.5C847 847.6 846.6 848.7 846.2 854.3C845.9 858.9 846.2 861.6 847.5 863.9C848.7 866.3 848.8 867.5 848 868.5C847.2 869.5 847.5 870.4 849.2 872.3C855.4 878.9 856 880.1 856.4 886.6C856.7 890.7 857.5 893.6 858.5 894.7C859.5 895.7 859.9 897.2 859.6 898.6C859.2 899.9 859.5 901 860.2 901.2C861.3 901.6 869 900.7 871.9 899.9C872.8 899.7 873.6 900.5 874 902C874.5 904.1 875.2 904.5 878.5 904.6C880.7 904.7 883.6 904.2 885 903.5C887.1 902.4 888.1 902.4 891 903.7C892.9 904.5 895.8 905.2 897.4 905.3C899.9 905.5 900.5 906.1 901.4 909.5C902.9 914.8 905.2 915 911.3 910.4C917.2 906.1 922 897 922 890.1C922 886 922.4 885.3 927.1 881.1L932.3 876.5L932.4 868.8C932.6 859.1 933.7 857.6 940.1 858.3C943.1 858.7 945.4 858.4 946.5 857.6C948.1 856.4 948 856.1 944.9 852.6C943.1 850.5 940.6 848.4 939.4 848C937.5 847.2 937.2 846.6 937.7 843.1C938.2 839.7 937.9 838.8 935.7 836.8C932.2 833.5 930.9 824.9 933.5 822C934.5 820.9 935.9 820 936.5 820C937.2 820 938.8 819.2 940 818.2L942.3 816.3L940.1 814.8C938.1 813.4 938 813.1 939.5 811.6C940.4 810.7 942.2 810 943.4 810C944.7 810 946.3 809.3 947 808.5C948.1 807.2 947.9 806.5 946 804.5C944.7 803.1 942.8 802 941.8 802C940 802 934.2 798.5 932.8 796.5C932.4 796 932.4 795.2 932.6 794.8C932.9 794.3 931.7 792.6 930 791C926.4 787.6 922.7 787.2 919.2 789.6Z" fill="#1AAB9B"/>
<path d="M972.2 794.2C972.8 796 974.4 796.2 976.5 794.5C978.4 793.1 978.3 793.1 975.2 793C973 793 972 793.4 972.2 794.2Z" fill="#1AAB9B"/>
<path d="M965.2 798.1C963.9 798.6 963.2 799.4 963.5 800C964.3 801.3 967.7 801.3 968.6 799.9C969.6 798.2 967.7 797.1 965.2 798.1Z" fill="#1AAB9B"/>
<path d="M709.4 802.5C708.3 805.2 710 811 712.9 814.3C714.4 816 716.3 818.5 716.9 819.8C717.6 821.1 720.1 823 722.5 824C724.9 825 727.4 826.9 728.1 828.2C728.8 829.5 730.1 831.1 731.2 831.8C732.3 832.7 733 834.4 733 836.6C733 841.6 734.5 843.8 738.6 844.6C743 845.4 744.3 847.5 746.6 857.4C748.3 864.3 748.8 865.4 751.3 866.2C752.8 866.8 754 867.6 754 868.1C754 868.6 755 870 756.2 871.2C757.4 872.4 759.4 876.2 760.6 879.6C761.8 883 763.9 887.7 765.3 890.1C766.7 892.5 769 896.7 770.3 899.5C771.6 902.2 773.7 905.4 775 906.5C776.2 907.6 777.8 909.7 778.6 911.2C779.4 912.8 781.5 914.6 783.3 915.4C786.8 916.9 797 926.6 797 928.5C797 929.1 797.9 930.5 798.9 931.4C800.7 933 801 933 804 931.5C806.9 930 807.3 930 809.7 931.5C813.4 933.9 814 932.4 814 920.1C814 910.5 814.2 909.4 816.6 906.3L819.1 903L814.8 898C812.1 894.9 809.7 893 808.4 893C805.7 893 800 884.6 800 880.8C800 877.9 797.9 875.7 795.5 876.2C792.4 876.8 791.5 873.7 793.3 868.4C794.7 863.9 794.7 863.4 793.3 861.8C792.4 860.7 790.3 860 788.3 860C785 860 784.9 859.9 785.5 856.7C786.3 852.4 784.1 850 779.5 850C776.4 850 776.1 849.7 775.8 846.7C775.5 843.8 775.2 843.5 772.4 843.7C770 843.9 768.8 843.4 767.6 841.5C766.6 839.9 765 839 763.4 839C761.8 839 759.8 837.8 758.2 836.1C756.7 834.4 754.1 831.6 752.4 829.7C750.6 827.8 748.7 825.3 748.1 824.1C747.4 823 746.2 822 745.4 822C743.2 822 737 816.8 737 814.9C737 814 735.5 811.6 733.7 809.6C730.5 806.2 730.1 806 723.8 806C718.2 806 716.7 805.6 714.2 803.5C710.7 800.6 710.1 800.5 709.4 802.5Z" fill="#1AAB9B"/>
<path d="M1083 814.5C1083 815.3 1083.9 816.4 1085 817C1086.6 817.9 1087.2 817.8 1087.6 816.6C1087.9 815.8 1087.9 814.6 1087.5 814C1086.6 812.5 1083 812.8 1083 814.5Z" fill="#1AAB9B"/>
<path d="M1021.4 817.5C1020.7 819.2 1021.8 821.2 1023.1 820.5C1024.3 819.7 1024.3 816 1023 816C1022.4 816 1021.7 816.7 1021.4 817.5Z" fill="#1AAB9B"/>
<path d="M712.9 834.6C711.9 835.9 711.9 836.3 713.1 837.1C713.9 837.6 715.3 838 716.2 838C717.1 838 718.5 838.3 719.4 838.6C721.6 839.5 721.5 836.7 719.2 834.7C716.9 832.6 714.6 832.5 712.9 834.6Z" fill="#1AAB9B"/>
<path d="M1039.1 838.4C1038.1 839.6 1038.1 840.6 1038.9 842.5C1040.5 846.1 1041.5 846 1041.8 842.1C1042.2 838.1 1040.8 836.3 1039.1 838.4Z" fill="#1AAB9B"/>
<path d="M1033.7 844.8C1032.7 845.8 1031.3 848.8 1030.4 851.4C1028.9 855.6 1028.9 856.4 1030.4 860C1032.6 865.6 1032.4 867.7 1029.3 871.4L1026.7 874.5L1030.1 874.8C1032 875 1034.3 875.9 1035.2 876.7C1036.6 878 1037.3 878 1038.4 877C1039.7 876 1039.7 875.5 1037.9 873.1C1036.6 871.4 1036 869.2 1036.2 867.4C1036.4 865 1037 864.4 1039.5 864.2C1044.7 863.7 1045.2 863.3 1043.9 860.9C1043.1 859.3 1043.1 858.2 1044 856.5C1044.6 855.3 1045 853 1044.8 851.4C1044.5 848.5 1043.3 848 1039.8 849.5C1038.4 850 1038 849.7 1038 848.2C1038 845.6 1037 843 1036 843C1035.6 843 1034.6 843.8 1033.7 844.8Z" fill="#1AAB9B"/>
<path d="M1003.8 849.5C1003.2 850.9 1002.1 852 1001.3 852C1000.6 852 999.5 853.1 999 854.5C998.1 856.8 997.7 857 990.8 856.8C986.8 856.8 982.6 856.3 981.5 855.7C980.4 855.1 976.6 854 973.1 853.3C966.7 852 966.6 852 964.3 854.4C963 855.8 960.2 857.5 958 858.1C954.1 859.3 952.8 861.1 953.2 865C953.6 869.9 952.8 876 951.5 877.2C950.7 877.9 949.4 879.1 948.5 879.8C947.5 880.7 947 882.9 947 886.5C947 890.1 946.3 893 944.9 895.4C943.7 897.5 943 900.2 943.2 902.2C943.5 905.2 943.8 905.5 946.7 905.3C953 904.8 954.8 912.1 950.9 922.5C949.8 925.6 949.1 928.7 949.4 929.5C950.1 931.4 958.5 931.6 959.6 929.8C960.1 929.1 960.5 921.7 960.5 913.2C960.7 897.6 961.2 895.5 964.6 896.2C966.2 896.5 966.5 897.5 966.5 903.5C966.5 910 966.6 910.4 969 911C970.8 911.5 971.4 912.2 971.2 913.6C971 914.6 970.7 916.8 970.7 918.5C970.5 921.1 970.9 921.5 973.2 921.8C975.4 922.1 976.2 921.6 977 919.5C977.8 917.3 978.5 916.9 981.2 917.2C984 917.5 984.5 917.1 984.8 915.1C985.1 913.6 984.2 911.8 982.4 909.9C979.9 907.3 979.8 906.8 981 904.5C982.2 902.2 982 901.7 977.6 896.5C972.2 890.3 972.1 887.8 977.3 886.1C979 885.4 982 883.5 983.8 881.7C985.6 879.9 988.1 878.5 989.3 878.5C991.9 878.5 992.9 874.9 990.8 873.3C989 871.8 979 872.9 979 874.6C979 875.4 977.4 876 974.8 876.2C971.4 876.4 970.5 876.9 970.5 878.4C970.5 881.2 967.6 882.7 965.5 881C964.6 880.3 964.1 879.1 964.4 878.4C964.7 877.7 963.9 876.3 962.6 875.3C961 874.1 960.1 872.1 959.7 869.3C959 863.4 960.2 862.6 968.4 864.1C973.9 865.1 975.5 865.1 978.9 863.8C981.2 862.9 983.3 862.6 984.1 863.1C986.1 864.3 999.7 864.2 1002.1 863C1004.1 861.9 1010 851.1 1010 848.5C1010 845.9 1005.1 846.6 1003.8 849.5Z" fill="#1AAB9B"/>
<path d="M485.7 860.2C485 862.9 485.6 864.1 487.5 863.3C489.4 862.6 489.5 858 487.6 858C486.9 858 486 859 485.7 860.2Z" fill="#1AAB9B"/>
<path d="M801.4 868.1C801.1 868.7 801.2 869.6 801.8 870.2C803.3 871.7 806.4 870.7 806.8 868.7C807.1 867.5 806.5 867 804.6 867C803.2 867 801.8 867.5 801.4 868.1Z" fill="#1AAB9B"/>
<path d="M739.7 869.6C738.3 871 739 873.1 740.8 872.8C741.7 872.6 742.5 871.8 742.5 871.1C742.5 869.5 740.7 868.6 739.7 869.6Z" fill="#1AAB9B"/>
<path d="M1060.6 875.7C1059.7 876.6 1059.9 879 1060.9 879C1062.1 879 1063.1 876.2 1062.1 875.6C1061.6 875.3 1061 875.3 1060.6 875.7Z" fill="#1AAB9B"/>
<path d="M742.3 877.7C739.1 878.8 742.6 885 746.3 885C748.3 885 748.3 885.1 746.9 881.2C745.8 878 744.4 877 742.3 877.7Z" fill="#1AAB9B"/>
<path d="M985.7 881.8C983.3 884.4 983.6 885 987.3 885C991.2 885 993.9 883.5 992.5 882.2C990.3 880.1 987.3 880 985.7 881.8Z" fill="#1AAB9B"/>
<path d="M1030.2 883.2C1028.8 884.6 1028.6 887.6 1029.9 888.5C1030.4 888.8 1031.2 888.5 1031.5 887.9C1031.9 887.4 1033.7 887 1035.6 887.2C1037.4 887.3 1039 887.1 1039 886.7C1039 886.3 1039 885.6 1039 885.2C1039 884.2 1034.6 882 1032.7 882C1032 882 1030.9 882.5 1030.2 883.2Z" fill="#1AAB9B"/>
<path d="M811.5 885.1C808.9 886.7 807.3 888.9 807.1 891.2C807 891.6 808.7 892 810.7 892.2C813.8 892.4 814.5 893 815.1 895.3C815.9 898.4 821.6 904.7 822.6 903.7C823 903.4 823.5 901.2 823.7 898.8C824.2 894.9 823.9 894.3 821.6 893.1C820.2 892.3 819 890.8 819 889.8C819 887.3 817.4 884.4 815.8 883.8C815.1 883.5 813.2 884.1 811.5 885.1Z" fill="#1AAB9B"/>
<path d="M998.7 885.9C998.5 887 998.7 888.3 999.3 888.9C1000.7 890.3 1006.5 890.3 1009.1 888.9C1011.1 887.9 1011.1 887.8 1009.4 885.9C1007 883.2 999.4 883.2 998.7 885.9Z" fill="#1AAB9B"/>
<path d="M1054.4 886.4C1053.5 888.9 1054.7 890.9 1057.5 891.6C1060.6 892.4 1063.2 890.4 1062.8 887.6C1062.6 886 1061.7 885.4 1058.7 885.2C1056.1 885 1054.8 885.3 1054.4 886.4Z" fill="#1AAB9B"/>
<path d="M753.5 892.1C752.5 893.6 753.6 894.4 755.5 893.6C756.4 893.3 756.8 892.6 756.5 892C755.7 890.7 754.3 890.7 753.5 892.1Z" fill="#1AAB9B"/>
<path d="M1015.7 892.7C1014.5 893.8 1014.9 895 1016.5 895C1017.3 895 1018 894.3 1018 893.5C1018 891.9 1016.8 891.5 1015.7 892.7Z" fill="#1AAB9B"/>
<path d="M832.1 896.6C830.1 898.7 829.9 899.4 830.8 901.5C832.1 904.3 832.8 904.5 836.4 902.9C840 901.2 840.3 898.4 837.1 896.1C834.4 894.2 834.4 894.2 832.1 896.6Z" fill="#1AAB9B"/>
<path d="M1039.2 899.1C1037.3 899.8 1036.9 900.6 1037.2 903.7L1037.5 907.5L1045.1 907.2C1052.1 906.9 1052.9 907 1055.8 909.5C1059.7 912.8 1064.3 912.7 1064.8 909.3C1065.6 903.9 1059.5 899.7 1050.5 899.5C1047.8 899.4 1044.6 899.1 1043.5 898.8C1042.4 898.4 1040.5 898.6 1039.2 899.1Z" fill="#1AAB9B"/>
<path d="M1018.3 901.8C1017.7 902.2 1017.4 903.7 1017.7 905.3C1018.4 908.9 1023.1 911.5 1026 910C1028.2 908.8 1028.7 904.8 1026.8 903.2C1025 901.8 1019.7 900.9 1018.3 901.8Z" fill="#1AAB9B"/>
<path d="M985.6 918.5C985.3 919.3 984.2 920 983.3 920C977.4 920 975 926.8 979.4 930.9C983.1 934.4 985.6 933 986.3 927.3C986.6 924.2 987.5 922.1 988.9 921.1C990.6 919.8 990.8 919.2 989.8 918.2C988.2 916.6 986.3 916.7 985.6 918.5Z" fill="#1AAB9B"/>
<path d="M1083 929.9C1082.3 931.3 1082.3 932.1 1083.1 932.5C1084.4 933.3 1084.6 933.1 1085.4 930.2C1086.3 927.5 1084.5 927.2 1083 929.9Z" fill="#1AAB9B"/>
<path d="M1099.1 931.2C1098.6 932.5 1097.3 934.3 1096.2 935.4C1093.8 937.5 1091.5 943.4 1092.5 945C1093.6 946.8 1096.8 946.1 1098.8 943.6C1099.8 942.2 1101.5 939.1 1102.4 936.5C1103.8 932.9 1103.9 931.6 1103 930.5C1101.3 928.4 1100.1 928.6 1099.1 931.2Z" fill="#1AAB9B"/>
<path d="M958 934.5C956.4 936.4 957.4 939.1 959.5 938.4C961.1 937.7 961.6 934.5 960.1 933.6C959.6 933.3 958.7 933.7 958 934.5Z" fill="#1AAB9B"/>
<path d="M813.3 935.1C812.7 935.9 811.9 937.7 811.5 939.3C811 941.3 810.2 942 808.4 942C806.3 942 806 942.3 806.6 944.7C807.6 948.7 808 949.1 810.1 948.5C811.1 948.2 812.9 947.8 813.9 947.4C815.4 947 816.3 947.7 817.5 950C818.9 952.7 819.4 953 822.4 952.5C824.4 952.1 827.1 952.4 829.5 953.4C831.9 954.4 836.2 955 841.5 955C846.7 955 850.9 955.5 852.7 956.4C862.6 961.3 864.5 961.8 874.3 961.9C880.2 961.9 885.9 962.6 888.5 963.5C894.1 965.4 895.7 964.7 897.1 959.9C898.2 956.5 898.1 955.7 896.5 954C895 952.3 893.6 952 889.2 952.2C883.8 952.5 883.8 952.5 882.7 949C881.7 946.1 880.9 945.5 877.5 944.8C875.3 944.3 873 943.2 872.3 942.4C871.5 941.3 870.3 941 868.6 941.4C866.7 941.9 866 941.6 866 940.5C866 938 863.3 938.8 861 942C858.6 945.4 857.2 945.7 852.7 943.3C850.9 942.4 847.3 941.6 844.5 941.5C840.2 941.4 839.5 941 839.2 939.2C838.7 936 836.5 935.2 824.9 934.5C816.6 933.9 814.2 934 813.3 935.1Z" fill="#1AAB9B"/>
<path d="M883.3 943.5C882.5 945.7 885.8 949 888.9 949C892 949 896 946.5 896 944.6C896 941.8 884.4 940.9 883.3 943.5Z" fill="#1AAB9B"/>
<path d="M1065.8 950C1060.2 957.2 1059.3 958.6 1059.7 959.7C1060.6 962.3 1063.8 960.9 1068.1 955.9C1070.5 953.1 1072.7 950.7 1072.9 950.4C1073.6 949.8 1070.8 947 1069.5 947C1068.8 947 1067.1 948.3 1065.8 950Z" fill="#1AAB9B"/>
<path d="M1015.4 952.7C1013.6 952.9 1011.4 954 1010.5 955C1008.9 956.8 1008.9 957 1010.4 957.6C1012.7 958.5 1018.6 957.2 1020 955.5C1021.1 954.1 1020.6 951.8 1019.2 952.2C1018.8 952.2 1017.1 952.5 1015.4 952.7Z" fill="#1AAB9B"/>
<path d="M924.5 962.1C918.4 966.2 916.9 968.2 919 969.5C920.6 970.5 939.7 967 941.8 965.4C944.2 963.6 942.2 960.6 938.4 960.2C936.8 960 935.1 959.4 934.6 958.9C932.9 957.3 930.6 958 924.5 962.1Z" fill="#1AAB9B"/>
<path d="M899 960.2C899 960.9 899.8 962.5 900.8 963.8C902.5 966 902.7 966 905.8 964.5C907.7 963.5 909 962.1 909 960.9C909 959.3 908.3 959 904 959C900.7 959 899 959.4 899 960.2Z" fill="#1AAB9B"/>
<path d="M911.5 963C908.3 968.1 908.4 968.7 912 969.2C915.7 969.8 917 968.4 917.7 963C918.2 959.4 918 959 916.1 959C914.8 959 913.2 960.4 911.5 963Z" fill="#1AAB9B"/>
<path d="M952.2 962.2C944.5 967 945.4 969.3 955.4 970.3C960.2 970.8 962 970.5 965.4 968.7C967.7 967.6 971.8 966.3 974.5 966C979.3 965.5 979.5 965.4 979.5 962.5C979.5 959.1 979.6 959.1 971.8 961.5C966.2 963.2 966.1 963.2 963.4 961.1C959.8 958.3 958.4 958.4 952.2 962.2Z" fill="#1AAB9B"/>
<path d="M985.2 960.2C983.1 962.3 983.9 964 987 964C989.3 964 990 963.5 990 962.1C990 961.1 989.3 959.9 988.4 959.6C986.4 958.8 986.6 958.8 985.2 960.2Z" fill="#1AAB9B"/>
<path d="M1010.1 961.9C1002.8 963.4 1001.3 964.1 998.9 967C997.3 968.8 993.2 972 989.8 974C984.1 977.2 983.5 977.9 983.2 981.1C982.6 987.6 987.6 988.4 992.9 982.6C994.3 981.2 996.1 980 997.1 980C998 980 999.4 979 1000.3 977.7C1001.1 976.5 1003.7 974.5 1006.1 973.3C1014.3 969.3 1021.9 966 1022.9 966C1024.8 966 1024.1 963.2 1021.8 961.6C1020.6 960.7 1019.3 960 1019 960.1C1018.7 960.1 1014.7 960.9 1010.1 961.9Z" fill="#1AAB9B"/>
<path d="M941.7 972.4C940.9 974.3 943.8 978 946 978C947 978 948.8 979.1 950.1 980.5C953.2 983.7 955.8 983.7 956.6 980.5C957.4 977.2 956.5 975 954.3 975C953.3 975 952 974.2 951.3 973.1C949.9 970.9 942.5 970.3 941.7 972.4Z" fill="#1AAB9B"/>
<path d="M976.6 988.5C974.3 990.2 975.2 993 978 993C980.4 993 984.3 989.4 983.5 988C982.6 986.6 978.8 986.8 976.6 988.5Z" fill="#1AAB9B"/>
</svg>
