<svg width="1073" height="1239" viewBox="0 0 1073 1239" fill="none" xmlns="http://www.w3.org/2000/svg">
<path d="M733.7 0.70004C731 1.40004 732.1 3.20004 736.3 5.30004C738.3 6.30004 740 7.50004 740 7.90004C740 8.30004 738.7 9.60004 737.2 10.7C733.7 13.2 731 18.7 731 22.9C731 27.6 728.9 31 724.7 33.1C719.3 35.9 718 35.2 719.1 29.8C720.4 23.2 720.2 21.9 718 21.3C715.5 20.6 715.5 20.6 718.2 17C720.4 14 721.3 6.20004 719.5 5.90004C718.3 5.60004 712.1 16 701.6 36C691.1 55.9 688.6 58 687.3 48C686.8 44.8 687.2 42.7 688.8 39.6C689.9 37.3 692 32.3 693.4 28.5C694.8 24.6 697.8 19.1 700 16.2C704.7 10.1 704.9 8.80004 701.5 7.00004C699.5 5.90004 698.8 5.90004 697.5 7.00004C696.7 7.70004 696 8.80004 696 9.60004C696 12.8 693.9 11.7 692.1 7.50004C690.5 3.90004 689.6 3.00004 687.6 3.00004C685 3.00004 683 5.40004 683 8.70004C683 12.4 680.8 18 678.3 21C676.1 23.7 675.8 24.7 676.3 29.1C677 34.4 676.9 34.4 671.9 30.8C670.5 29.7 668.7 29.2 667.9 29.5C665.6 30.5 662.8 35 662.4 38.4C662.3 40.1 662.1 41.8 662.1 42.1C662 42.4 660.9 43.2 659.5 43.8C656.5 45.2 656.4 46.9 659 54.5C660.1 57.7 661 60.5 661 60.7C661 60.9 659.8 60.7 658.4 60.4C656.6 59.9 655 60.4 652.9 61.9L649.9 64.1L650.6 61.6C651.1 59.5 650.5 58.7 647 56.4C643.7 54.2 643.2 53.5 644.4 52.8C647.2 51.2 646.1 50.1 642.9 51.2C640.7 51.9 638.7 51.9 635.4 51C630.7 49.7 629.3 50 630.6 52.2C631.1 52.9 631.5 55.7 631.6 58.5C631.6 61.2 632.4 65 633.4 66.9C634.7 69.4 634.9 70.5 634 71.4C632.9 72.5 632.1 71.9 629.5 67.5C628.9 66.5 626.7 65.6 623.8 65.3C620 64.8 618.3 65.2 614.8 67.3C611.9 69 609.6 69.6 607.8 69.3C602 68.2 602 78.2 607.7 84.2L610.5 87.1L606 85.1C600.2 82.4 598 82.4 598 85C598 87.7 594.7 94.2 592.4 96.1C590.8 97.4 590.7 97.3 591.5 95.5C593.6 90.5 596.1 78.8 596.7 71.3C597.2 64.2 597.1 63 595.8 63C594 63 592.8 65.9 590.5 75C589.6 78.6 587.2 84.4 585.1 88C583 91.6 580.8 96 580 97.7C579.3 99.5 578.6 101 578.4 101C578.1 101 576.7 99.5 575.1 97.8C572.7 95.1 571.5 94.5 568.2 94.5C565.6 94.5 563.4 95.2 562 96.5L559.8 98.5L560.5 95.2C560.9 93.1 560.7 91.4 560 90.5C558.2 88.3 557 89.7 557 93.9C557 100 555.3 103.7 552.1 104.3C549.6 104.8 543 110.4 543 112.1C543 112.5 544.2 113.8 545.8 115.1C547.7 116.6 548.1 117.4 547.1 117.8C546.2 118.1 546.6 118.9 548.6 120.5L551.3 122.7L546.5 123.3C543.8 123.7 538 125.8 533.6 127.9C521.7 133.7 517.6 139 525.1 139C528.8 139 528.8 140.5 525.2 142.4C520.2 145 519.5 146.5 521.9 149.8L523.9 152.7L521.5 155L519 157.4L521.1 159.6C525.5 164.3 520.7 167.4 508 168.3C498.4 169 493.4 170.4 492 173C489.9 176.9 495.5 178.3 499.7 175C502.7 172.7 504.9 172.5 507.5 174.3C509.7 176 508.4 177.1 503 178C500.5 178.4 499.4 179.1 499.2 180.6C498.7 183.9 501.2 185.3 505.7 184.1C510.7 182.7 511.6 183.9 509.1 188.9C506.9 193.1 506.1 193.7 504.4 192.1C503.9 191.6 501.9 190.7 499.8 190.1C497.8 189.4 495.9 188.2 495.6 187.4C495.1 186.1 494.7 186.1 492.3 187.4C488.4 189.4 482.6 195.6 483.4 196.9C483.8 197.5 485 198 486.1 198C487.2 198 491.2 198.7 495.1 199.6C500.4 200.8 502.5 201.8 503.7 203.6C505.8 206.9 504.6 207.9 501.7 205.2C496.7 200.5 484.4 200.6 480.5 205.4C479.4 206.8 477.8 208 477 208C475.2 208 470 213 470 214.6C470 215.3 471 216.6 472.2 217.4C474.5 219 474 219.5 469 220.3C466.7 220.6 466.8 220.8 470.5 222.6L474.5 224.5L470.8 224.8C466.6 225.2 465.9 226.4 469 228C472 229.6 471.5 230.4 466 233C463.3 234.3 460 236.4 458.8 237.7C455.4 241.3 457.7 242.1 470.2 241.8C478.5 241.5 480.7 241.7 479.7 242.6C474.8 247.3 467.4 253 466.1 253C465.3 253 463.8 252.2 462.8 251.3C461.1 249.7 460.8 249.8 458.2 251.7C454.5 254.4 454.2 257.9 457.5 261C461.1 264.3 460.6 265.1 456.1 263.3C453.9 262.4 451.5 262 450.7 262.3C449.1 262.9 445 272.8 445 275.9C445 276.9 445.9 278.9 447 280.3C448.1 281.7 449 283 449 283.3C449 283.6 446.9 283.8 444.3 283.7C439.9 283.5 439.5 283.7 439.2 286C439 287.8 439.8 289.4 441.9 291.4C444.5 293.8 445.1 294 447.1 293C448.4 292.3 450.5 290.8 451.8 289.7C453 288.6 454 288.1 454 288.7C454 290.5 445.9 299 438.8 304.6C435.1 307.6 432 310.7 432 311.5C432 312.2 429.6 314.9 426.8 317.4L421.5 322H426.2C431.8 322 433.1 323.3 429 325C427.3 325.7 426 327 426 327.9C426 328.9 425 330.6 423.7 331.8L421.4 334L418.5 331C415.1 327.4 411.9 327 412.3 330.2C412.4 331.8 411.8 332.5 409.6 333.1C405 334.4 402.1 337.9 400 344.8C399 348.5 396.9 352.5 395.4 354.1L392.6 357H395.6C399.8 357 400.3 357.8 397.9 361.2C396.7 362.8 396.1 364.4 396.4 364.8C398.3 366.6 414 359.6 414 357C414 356.4 412.5 356 410.8 356L407.5 355.9L411.7 352C419.1 345 424 345.6 424 353.6C424 357.1 423.5 358.2 421.5 359.7C415.6 363.9 414.8 364.7 414.1 367.9C413.3 372 412.1 372.7 404.7 373.5C399.2 374.1 398.9 374.3 400.4 375.9C402.7 378.4 402.4 379 398.8 379C394.1 379 392.6 377.7 393.4 374.5C395 368.3 390.3 365.8 385 370C382.6 371.9 382.6 372.1 384.3 373.4C385.9 374.7 385.7 375.1 381.5 378.8C379 381 374.1 384 370.5 385.5L364.1 388.3L367 391C368.9 392.7 370 394.8 370 396.4C370 399.3 368 399.9 366 397.5C364.5 395.7 362 395.5 362 397.2C362 397.9 362.9 399.6 364 401C365.1 402.4 366 403.9 366 404.3C366 404.8 363 404.8 359.3 404.5C355 404.1 351.4 404.2 349.5 405C346.8 406.1 346.6 406.3 348.3 407.4C349.2 408.1 350 408.9 350 409.2C350 409.5 344.3 409.7 337.3 409.6C326.3 409.5 324.5 409.7 324.2 411.1C324 412.4 325 412.8 328.9 413.2C334.3 413.7 339.5 417.1 340.6 420.7C341 422.2 340.5 424 339 426C336.2 429.9 335 429.8 335 425.6C335 420.4 333.4 417 331 417C328.3 417 324 419.2 321.6 421.9C319.9 423.8 319.8 424.1 321.4 426.4L323 428.9L316.4 428.7C310.3 428.5 309.7 428.7 307.4 431.3C306.1 432.9 305.2 434.5 305.5 434.9C305.7 435.4 311 436 317.2 436.4C329.5 437.2 334 437.9 334 439C334 440.4 328.9 442 324.5 442C322 442 319.5 442.6 318.6 443.5C317.3 444.8 316.9 444.7 315.3 442.7C311.1 437.4 307.2 437.1 302.6 441.7C299.3 445 299.3 445.8 302.7 446.2C304.6 446.4 305.6 447.2 305.8 448.5C306 449.6 306.9 451.1 307.8 451.7C309.2 452.8 309 453.1 306.2 454.1C301.8 455.6 302.2 457 307 457C312.5 457 312 458.3 305.7 460.3C299.8 462.2 296.1 464.5 297.3 465.6C297.7 466 303.1 466.6 309.3 466.8C326.8 467.5 327.2 469.6 310 472.1C300.9 473.4 299.4 474.7 303 478.5C305.4 481 308.1 482.3 311.4 482.4C314.1 482.5 315 486 313.4 490.5C311.3 496.7 311.7 504 314.2 504C314.8 504 316.8 502.6 318.8 500.9C321.1 498.9 322.6 498.2 322.8 498.9C323.5 501.1 320.1 508.6 316.8 511.9C312.9 515.9 314.1 517.2 321.3 516.8C323.9 516.6 326 516.8 326 517.1C326 518.7 320.8 523 318.8 523C316.6 523 304.4 532.5 302.7 535.5C301.6 537.6 302.7 539 305.3 539C308 539 312.3 536.2 311.5 535C310.6 533.5 317.1 529 322.7 527.4C330.2 525.2 331.7 526.7 327 531.5C323.9 534.7 323.8 535 325.8 535C328.9 535 328.5 536.5 325 539.2C323.2 540.5 322.2 542 322.5 542.9C322.8 543.6 322.3 545.2 321.3 546.2C319.5 548.2 319.6 548.2 325.5 547.5L331.5 546.9L327.3 549.5C324.5 551.2 323 552.8 323 554.1C323 556.1 322.9 556.1 319.9 553.9C317.3 552.1 316.6 552 315.9 553.1C315.4 553.9 315 554.9 315 555.5C315 556 314.1 555.5 313.1 554.2C310.6 551.3 310 551.4 310 554.8C310 558.7 314.4 564.9 321 570.5C327.6 576.1 329.9 578.9 330 581.2C330 585.4 348.3 584.1 355.1 579.5C357 578.1 359.7 577 360.9 577C364.5 577 377 563.9 377 560.1C377 557.9 377.6 557.1 379.3 556.6C380.5 556.3 383.9 554 386.9 551.5C390 548.8 393.2 547 394.4 547.1C398.3 547.4 398.9 547 400.6 543.7C401.9 541.4 402.3 537.7 402.4 530C402.5 518.6 404.1 514 407.9 514C410.5 514 411 515.9 411 526.3C411 537.3 412.1 539.9 417.6 542C422.5 543.8 425 545.7 425 547.7C425 548.5 425.6 549 426.2 548.8C428.4 548 430.1 539.9 429.4 533.4C428.9 528.7 429.2 526.4 430.5 523.7C431.4 521.7 431.9 519.7 431.6 519.2C431.3 518.7 432.7 516.8 434.7 514.9C442.2 507.7 444.6 496.1 441.5 480.7C440.5 475.9 439.9 471.8 440.1 471.7C440.3 471.6 441.8 470.8 443.4 470C447.2 468.1 450.4 462.7 449.6 459.7C449.3 458.4 446.8 454.8 444.1 451.7C440.4 447.5 438.9 444.8 438 440.8C436.3 432.5 435.4 379.6 436.9 371.9C439.2 360.6 445.6 350.8 453.4 346.8C456.8 345.1 458.6 344.8 464.8 345.3C471.7 345.8 472.4 345.7 474.6 343.5C478.5 339.6 477.3 333.4 471.6 328.1C467.9 324.7 468.3 321.5 473.5 310.3C480.6 295.1 482 289.6 483.4 269.6C484.8 249.7 485.1 249 492.1 249C494.3 249 496.8 248.2 498.5 246.8C501 244.8 501.2 244.3 500.6 239.5C500.1 234.7 500.2 234.1 504.1 229C508.8 222.7 520 204.1 520 202.6C520 202 518.6 199.5 517 197C513.1 191.1 513.2 188.9 517.5 185.6C519.8 183.8 522.2 180.2 524.9 174.6C528.9 166.3 533.6 159.8 537.1 157.9C538.5 157.2 539.8 157.4 541.9 158.5C550 162.6 552.8 159.5 553.9 145.1C554.8 134 555.9 131.6 559.9 132.3C561.3 132.6 568.1 135.3 575 138.3C592 145.7 591.3 145.7 592.1 139C592.4 136 593.7 131.3 594.8 128.6C597.5 122.6 597.5 120.7 595 115.1C591.9 108.4 592.3 107.3 597.4 106.8C600.4 106.4 603.9 104.9 608 102.2C617.4 95.9 623.8 95.6 627.3 101.2C640.2 122.1 644.4 126.5 651.4 126.5C654.4 126.5 657.2 125.4 661.7 122.6L668 118.7L676 123.4C680.4 125.9 684.9 128 686 128C687.3 128 688.6 126.6 690.1 123.7C692.9 118.2 695.7 115.1 699.8 113.5C701.5 112.7 703.1 111.5 703.1 110.8C703.2 110.1 703.3 105.2 703.4 100C703.5 91.6 704 89.5 707.3 81.1C709.3 76 711 70.8 711 69.5C711 67.6 711.9 66.8 715.8 65.5C729.5 60.7 734.5 58.5 740 54.9C743.3 52.8 746.3 51 746.6 51C747.6 51 762.3 63.6 766.6 68.2C772.9 74.8 774 76.9 774 82.5C774 86.6 773.3 88.7 770 94C765.6 101.1 765.2 103.1 767.5 105C769.4 106.6 769.3 106.7 772.3 99.8C774.1 95.7 776 93.3 779.2 91.1C790.1 83.5 791 81.7 787 75.2C784.7 71.4 784.1 71.3 780.7 74C775.8 77.9 773.9 75 778.6 70.7C782 67.5 781.5 64.5 777.6 64.5C775.6 64.5 774.6 64 774.4 62.7C774 60.1 772.3 58.3 766.4 54.4C760.6 50.6 759.4 48.7 761.5 47C763.3 45.5 767.4 46.4 774.7 49.7C778.4 51.4 780.9 52 782.8 51.5C785 51 801.8 40.8 805.3 37.9C806.4 37 800.4 30.3 796.8 28.4C794.5 27.2 793.2 27.1 790.8 27.9C786.7 29.4 786.4 28.8 789.1 25.1C791.5 21.8 791.2 20.7 787.2 19.5C785.3 19 784.7 19.3 784.3 20.9C783.8 23 782 23.9 782 22C782 21.4 779.8 19.8 777 18.2C772.5 15.7 771.4 14.4 769.6 8.70004C768.1 4.10004 762.2 9.60004 758.5 19C755.8 25.9 751.7 31 748.8 31C746.5 31 746.5 30 749.2 24.5C750.4 22.1 751.1 19.7 750.7 19.3C750.3 18.9 747.9 19.6 745.5 20.8C743 22 741 22.8 741 22.5C741 22.3 741.9 20.6 743 18.7C744.1 16.8 744.9 14.2 744.8 12.9C744.5 10.9 745.1 10.5 748.9 9.80004C756.8 8.40004 758.7 4.00004 752.5 1.40004C749.3 0.10004 737.8 -0.39996 733.7 0.70004Z" fill="#1AAB9B"/>
<path d="M664.4 17.4998C663.5 19.7998 664.8 23.9998 666.7 24.6998C668.5 25.3998 672.4 21.3998 671.4 19.8998C671.1 19.3998 669.5 18.2998 667.9 17.4998C665.3 16.0998 664.9 16.0998 664.4 17.4998Z" fill="#1AAB9B"/>
<path d="M575.3 55.9C574.7 56.9 572.7 58 571 58.3L567.8 59L570 62C572.1 65 576 66.7 577.8 65.6C579.5 64.6 580.1 59.8 578.9 56.8C577.6 53.5 576.9 53.3 575.3 55.9Z" fill="#1AAB9B"/>
<path d="M736 59.6002C730.8 62.6002 724.6 65.5002 722.2 66.1002C717.6 67.3002 715.9 69.2002 711.7 77.6002C707.7 85.6002 705.7 94.5002 706.2 102.7C706.8 111 705.9 113 700.4 115.6C696.6 117.4 692.6 123.3 691.5 129C691.1 130.9 690.6 132.8 690.4 133.2C690.1 133.6 685.6 131.4 680.2 128.3C674.9 125.2 669.4 122.7 668 122.7C666.6 122.7 663.3 124.1 660.6 125.8C649.2 133.1 640.9 128.5 629 108.2C623.3 98.6002 622.7 98.2002 617.2 100.1C613.8 101.3 612.5 103.8 613.5 107.1C614.2 109.1 614 109.2 609.1 108.5C605.2 108 604 108.1 604 109.1C604 111.4 614.2 120.4 626.6 129C642.5 140.2 653 150.7 657.2 159.5C660 165.5 660.4 167.8 661 177.8C661.5 186.8 662 189.5 663.3 190.4C664.5 191.4 664.9 193.1 664.8 197.6C664.7 202.1 665.3 204.8 667.3 209C670.4 215.4 670.5 216.9 668.4 229.7C665.1 250.4 671.6 266.8 686.1 274.1C689.6 275.8 692.5 278.1 693.4 279.8C695.2 283.3 698.2 301.4 697.8 306.5L697.5 310.5L692.9 310.2C686.5 309.7 684.4 311.8 670.7 332C660.1 347.5 659.1 348.7 653.6 351.6C650.3 353.4 646.8 355.8 645.8 357.1C642.7 361 638 371.3 638 374.3C638 377.2 637.1 377.8 629.3 379.9C625.9 380.8 624.9 381.6 624.4 383.8C623.2 389.2 622.8 390.1 618.9 395.2C614.5 401.1 614.2 403.7 616.5 413.5C617.3 416.8 618 422.9 618 427C618 432.9 618.6 435.6 620.6 440C623.6 446.4 623.9 452 621.7 460C619.5 467.5 617.8 486.3 619 489.4C620.1 492.5 620.8 492.9 628.3 494.4C634.4 495.7 634.5 495.7 634.2 498.8C633.8 503.2 637.4 504 644.4 501.1C647.2 500 649.9 499 650.3 499C650.6 499 650.7 501.6 650.4 504.7C649.9 509.5 650.1 510.9 651.7 512.8L653.6 515.2L668.4 511.5C677.6 509.2 685.6 506.6 689.8 504.4C693.5 502.5 699.2 500.5 702.7 500C706.1 499.4 712 497.6 716 495.9C720.4 494.1 726.2 492.5 731 492C735.4 491.5 740.2 490.4 741.7 489.6C746.2 487.2 777.4 454.3 790.1 438.5C799.4 427 809.6 412.1 812.5 405.9C815.6 399.2 815.8 391.9 813.1 387.4C811.2 384.3 807.7 381.2 799 374.7C794.3 371.2 785 360.4 785 358.4C785 357.7 787.3 355.8 790 354C798.5 348.6 799.1 344.6 792.9 337.4C787.8 331.5 786.9 329.1 787.6 323.7C788.1 320.1 787.8 319 785.1 315.7C781.5 311.1 780.5 305.9 780.6 293.5C780.8 282.9 782.3 276.7 785.6 272.7C787.6 270.3 787.9 269.1 787.4 266.1C786.3 260.3 781.8 247.7 774.6 230.3L767.8 214.1L772.8 205.8C775.5 201.2 779.7 193.7 782 189.1L786.2 180.7L784 176.6C779.3 168.2 774 162.1 768.3 158.7C760.5 154.2 758.8 151.1 758.2 139.5C757.8 132.2 758.1 129.3 759.5 125.6C761.2 121.2 761.2 120.9 759.5 119C757.8 117.1 757.9 116.9 760.8 112.3C762.9 109 763.8 106.4 763.7 103.8C763.6 101.3 764.6 98.6002 766.7 95.2002C772.9 85.2002 773.2 80.6002 768 72.8002C765.2 68.5002 748.2 53.9002 746.4 54.1002C745.9 54.2002 741.2 56.7002 736 59.6002Z" fill="#1AAB9B"/>
<path d="M560.6 71.2C559.8 72.5 558.8 75.4 558.4 77.7C557.8 81.6 557.9 82 559.8 82C562.3 82 566 77.5 566 74.4C566 72.5 563.7 69 562.5 69C562.2 69 561.4 70 560.6 71.2Z" fill="#1AAB9B"/>
<path d="M577 70.8001C574.2 73.1001 573.3 80.0001 575.2 85.5001C577.8 93.4001 582.1 89.9001 583.5 78.9001C584.6 70.2001 581.9 66.8001 577 70.8001Z" fill="#1AAB9B"/>
<path d="M546.4 85C542.3 86.6 538.2 100.6 541.6 101.7C543.2 102.2 549.5 97.6 549.5 96C549.6 95.2 550.4 93.3 551.3 91.9C552.7 89.8 552.8 88.7 552.1 86.6C551 83.9 549.9 83.6 546.4 85Z" fill="#1AAB9B"/>
<path d="M596.8 110.6C596.4 110.9 597.1 113.7 598.3 116.9L600.4 122.7L597.2 128.8C594.4 134.1 594.1 135.3 595.2 137C596.3 138.7 596.2 139.5 595 141.7C592 146.9 590.2 147.2 582.7 143.9C578.9 142.2 573.1 140.3 569.7 139.6C565.5 138.7 563.2 137.7 562.2 136.2C561.4 135 560.1 134 559.4 134C557.9 134 557.6 135.1 556.1 147.2C555.2 155.3 552.4 163 550 164.5C549.5 164.8 546.8 163.9 544.1 162.4C537.1 158.4 535.3 159.5 530 170.7C522.8 185.9 522.5 186.4 519.1 187.5C517.4 188 516 189 516 189.7C516 190.3 517.5 193.5 519.4 196.6C522.7 202.1 522.8 202.5 521.5 205.7C520.7 207.5 517.3 213.3 513.9 218.5C507 229.2 503.1 237.9 503 242.6C503 246.4 500.8 248.5 494.6 250.6C487.7 253 487 254.6 486 271.2C485 286.7 483 295.4 478 306.5C476.2 310.4 474 315.8 473 318.6L471.2 323.8L474 325.8C479.9 330.2 479.9 342.9 474 347.1C471.8 348.6 470.8 348.7 465.8 347.8C457.8 346.2 453.3 347.7 448.1 353.6C441.5 361.1 439.8 367 439 385C438.3 402.4 439.4 434.1 441.1 441.1C441.8 444.2 443.8 447.7 447.1 451.6C451 456.2 452 458.2 452 461C452 465.7 449.1 471.2 445.8 472.8C442.5 474.3 442.5 474.4 444.6 482.4C446.5 489.7 446 501.6 443.6 507.5C442.7 509.7 440.3 512.9 438.4 514.7C436 516.9 434.9 518.6 435.1 520.2C435.3 521.5 434.7 523.6 433.8 525C432.8 526.6 432.1 530.7 431.7 536.6C431.3 545.8 429 552.9 426.3 553.8C425.7 554 424.2 553.2 423.1 552.1C421.9 550.9 420.8 550 420.5 550C419.4 550 420.2 560.1 422 568.2C425 582.1 441.5 619.5 448.8 629C451.1 632 451.5 633.7 451.8 640.6C452.1 647.3 451.9 649 450.4 650.4C448.7 652.1 448.8 652.5 452.5 659.8C455.1 664.9 456.3 668.5 456.2 671.1C455.9 676.9 457.7 677.7 466.3 675.6C478.1 672.7 478 672.8 478 666.8C478 659.7 480.9 654.7 484.8 655.2C486.9 655.4 487.6 655 487.8 653.3C488.4 649.2 490.4 648.6 499.4 649.8C504 650.4 508.7 650.6 509.9 650.3C514 649.2 521.1 632 522.5 620C522.8 616.4 523.8 610.7 524.6 607.3C525.3 603.9 526.6 594.3 527.5 585.9C528.4 577 529.7 569.4 530.6 567.4C531.5 565.5 534.6 561.9 537.6 559.4C540.5 556.9 543.7 553.1 544.8 550.9C545.9 548.7 547.1 547.4 547.5 547.9C548.7 549.9 551.2 549 554.7 545.5C557.3 542.9 558 541.5 557.5 539.9C556.9 538.1 557 538 558.8 538.9C564.7 542 567.7 538.4 562.9 533.9C561.2 532.4 560.1 530.6 560.5 530C560.9 529.4 563.4 527.8 566.1 526.4C573.3 522.8 574.2 520.2 570.5 513.2C566.2 505 550.9 489.7 545 487.8C537.9 485.6 536.6 481.9 536.5 464.5C536.5 451.2 536.7 450 540 440C543.4 429.7 544 424.2 542.5 418.8C541.9 416.4 542.3 415.8 547 412.4C550.5 409.9 552.8 407.3 554 404.6C558.2 394.7 577.1 375.3 592.1 365.5C602.5 358.6 604.1 356.9 608.8 347C610.5 343.4 614.2 337.8 616.9 334.5C619.7 331.3 622 328.3 622 328C622 327.6 620.2 325.5 618 323.2C612.8 318 612.8 315.1 618 305.3C620.3 301.1 621.8 297 621.5 296C621.2 294.9 623 292 627.1 287.4C633.6 280.1 636 275.8 636 271.3C636 266.1 637.1 263.9 639.1 264.5C640.2 264.9 641 264.8 641 264.3C641 263.9 641.4 262.8 642 262C642.8 260.8 643.1 260.8 644.7 262.1C645.7 263 648 264.2 649.9 264.9C654 266.2 667.6 266.4 668.5 265C668.8 264.5 668.1 259.9 666.9 254.9C664.7 245.6 664.7 241.1 666.6 220.9C667.1 215 666.9 213.6 664.2 207.4C662.2 202.8 661.3 199.6 661.7 197.7C662.1 195.9 661.7 194.3 660.5 193C659.1 191.4 658.6 188.4 658.1 178.3C657.5 167.4 657 164.7 654.7 159.7C651.1 151.9 641.8 142.7 626 131.5C619.1 126.6 610.7 119.7 607.3 116.3C601.7 110.6 598.4 108.9 596.8 110.6Z" fill="#1AAB9B"/>
<path d="M496 118C496 118.6 494.1 119.9 491.7 120.9C489.4 121.9 486.9 123.5 486.1 124.4C484 126.9 487.4 127.7 491.6 125.7C495.8 123.7 495.8 124.3 492 130C490.4 132.5 489 134.8 489 135.2C489 136.2 495.2 136.2 496.5 135.2C497.1 134.8 497.6 133.8 497.7 133C497.8 132.2 498.4 130.1 499 128.5C499.9 126.2 500 124.5 499.1 121.2C498 117.5 496 115.3 496 118Z" fill="#1AAB9B"/>
<path d="M507.7 119.7C506.9 120.7 505.7 123.4 505.1 125.7C504.4 128 503.2 130.3 502.3 130.8C501.5 131.3 500.4 133.5 500.1 135.6C499.5 139.4 499.4 139.5 494.4 140.1C486.4 141.1 479 146 480.3 149.5C481.6 152.7 487 151 493.2 145.2C494.6 143.9 496.3 143.1 496.9 143.4C497.5 143.8 499.7 142.5 501.8 140.5C504 138.6 506 137 506.3 137C506.6 137 506.4 138.4 505.8 140.1C505.2 141.7 505 143.4 505.4 143.7C506.1 144.4 513.7 138.2 519.2 132.6C523.3 128.2 524.6 125.3 523.6 122.2C522.4 118.6 520.1 118.8 516.4 122.8L513 126.5V123.4C513 120.6 511.5 118 510 118C509.6 118 508.6 118.8 507.7 119.7Z" fill="#1AAB9B"/>
<path d="M588 501.4C586.2 503.6 587.1 507.5 589.5 507.5C592 507.5 594.3 503.1 592.8 501.3C591.4 499.6 589.5 499.7 588 501.4Z" fill="#1AAB9B"/>
<path d="M640.9 505.8C639.5 507 638.9 508.3 639.3 509.3C640.1 511.3 643.6 510.4 645.5 507.7C648.1 503.9 644.9 502.6 640.9 505.8Z" fill="#1AAB9B"/>
<path d="M696.7 530.4C695.6 531.3 693.4 531.6 690.6 531.3C684.2 530.5 675.8 533.3 671.9 537.5C670.1 539.4 667.3 541.2 665.8 541.6C660.5 542.7 659.6 550.6 664 556.3C666 558.8 666 558.8 664 559.3C661.4 560 661.5 560.5 665.1 566.8C669 573.6 672.1 575.2 675.4 572.1L677.8 569.8L679.5 572.4C680.8 574.3 681.1 576.1 680.6 578.9C680.2 581.8 680.4 583.3 681.6 584.4C683 585.8 683.5 585.8 686.8 584.3C688.8 583.4 691.8 582.7 693.4 582.8C697.6 583 704.7 587.5 711.9 594.7C715.4 598.2 718.7 601 719.2 601C719.7 601 721.5 600.3 723.1 599.4C724.9 598.5 727.2 598.1 728.9 598.5C732.3 599.2 737.6 595.9 740.2 591.4C742 588.3 742 588.1 740 583.1C735.7 572 738 557.2 746.4 543L750.8 535.5L738.1 534.8C728.8 534.4 723.3 533.5 717.1 531.6C707.9 528.8 699.5 528.3 696.7 530.4Z" fill="#1AAB9B"/>
<path d="M639.7 549.7C638.3 551 639.1 554 641.1 555.1C642.9 556 643.6 555.8 645.3 554.2C647.9 551.5 646.9 549 643.2 549C641.6 549 640 549.3 639.7 549.7Z" fill="#1AAB9B"/>
<path d="M639.3 566.1C634.8 567.4 632.3 571.2 633.9 574.6C634.9 576.8 635.5 577.1 637.8 576.5C641.2 575.7 648.2 571.6 650 569.4C651.2 568 651.2 567.6 649.5 566.4C647.4 564.8 644 564.7 639.3 566.1Z" fill="#1AAB9B"/>
<path d="M103.6 569.2C102.1 572.8 99.4001 581.9 98.5001 586.2C98.1001 588.1 97.2001 589.2 95.5001 589.6C91.6001 590.6 88.0001 595.5 88.0001 599.9C88.0001 604.1 90.3001 608 92.9001 608C95.9001 608 96.0001 609.2 93.3001 612.4C87.8001 618.9 82.8001 633 86.0001 633C86.6001 633 87.0001 633.4 87.0001 634C87.0001 634.5 85.9001 635 84.6001 635C83.3001 635 81.7001 635.7 81.0001 636.5C79.2001 638.7 82.4001 642 86.4001 642C88.8001 642 90.6001 640.8 95.2001 635.9C98.4001 632.6 101 630.1 101 630.3C101 630.6 99.4001 634.1 97.5001 638.2C93.3001 647 92.4001 651.4 94.0001 655.5L95.2001 658.5L96.1001 656.1C97.0001 653.8 97.1001 653.8 99.1001 655.6C100.6 656.9 102.5 657.4 105.6 657.3C110.4 657.1 110.2 656.7 108.4 663C108.1 664.2 108.5 666.2 109.4 667.5C111.6 670.8 111.5 671.1 107.6 679.9C102.3 691.7 102.4 691.6 106.3 695.5C110.6 699.8 111.7 699.9 112.5 696C113.3 692.5 113.6 692.4 117.9 694.6C122 696.6 125.7 695.8 129.2 691.9C131.4 689.5 132.7 689 136.4 689C140.8 689 142.3 690.1 139.9 691.5C139.3 691.9 137.5 694 135.9 696.2C133.8 699.2 133 701.4 133 704.6C133 710.7 133.8 712 138.6 714C142.3 715.6 143.1 716.5 144.1 720.2C144.9 723.5 144.9 725.6 144.1 729C143.4 731.5 142.6 734.5 142.3 735.7C142 737.2 142.6 738.9 144.4 741.1C147.5 744.7 147.4 745.6 143.7 748.4L141 750.4L138.7 748.2C137.4 747 135 745.8 133.4 745.4C129.1 744.6 122.2 746.7 119.4 749.7C116.1 753.3 116.3 755.6 120.1 756.4C122.5 756.8 123.1 757.4 122.6 758.6C122.2 759.5 122.7 761.1 123.5 762C124.9 763.6 124.9 764.2 123 769.2C120.3 776.6 115.4 781.4 108 784.1C101.2 786.6 99.8001 788.3 100.6 793.2C101.7 799.3 101.7 799.4 105.6 797C108.4 795.2 109.9 794.9 113.3 795.5C115.6 795.8 119.9 796.5 122.7 796.9C126.8 797.4 128.8 798.4 131.5 801L134.9 804.3L139.2 802.4C141.6 801.4 145.7 798.5 148.4 796L153.3 791.5L151.1 795.7C148.4 801.1 143.5 806.7 139.9 808.6C138.4 809.3 134.9 810 132.3 810C123 810.1 116.4 815.2 103.7 832.1C95.9001 842.5 96.1001 844 104.8 839.6C113.3 835.3 117.1 834.6 121.4 836.4C127.6 839 129.7 838.5 131.9 834.1C134.2 829.7 139 825.3 142.6 824.4C144.1 824 147 824.6 150 825.9C156.2 828.6 160.6 828.7 161.3 826.1C161.9 823.8 164 823.5 191 822.2C206.6 821.4 210.3 821 214.6 819.1C219.5 817 228 809.6 226.8 808.5C226.6 808.2 223.1 807.6 219.2 807.1C215.3 806.6 211.7 805.9 211.1 805.5C209.2 804.4 209.9 802.2 213 800C214.7 798.8 215.9 797.1 215.8 796.2C215.6 795.1 217.6 793.1 221.3 790.7C228.5 785.9 232.1 780.6 232.8 774.1C233.7 764.6 228 759.6 216.2 759.5C211.3 759.5 209.6 759.9 208.6 761.2C207 763.3 203.1 763.5 200.5 761.6C198.7 760.3 198.7 760.1 201.2 757.1C204.6 753.2 205.3 750.7 204.6 746.5C203.8 742.3 198.9 738.1 192 735.6C189.3 734.6 187 733.5 187 733.1C187 732.8 188.3 730.9 189.8 729C198 719 196.7 713.8 184.3 707.6C176.2 703.6 175.3 701.9 168.5 677.9C166.7 671.5 161.4 665.4 153.5 660.9C149.4 658.6 147.3 658 142.1 658C135.1 658 127.8 656.2 128.3 654.7C128.5 654.1 131.7 652.4 135.5 650.9C139.3 649.3 143.3 647.1 144.4 645.9L146.5 643.8L141.3 644.4C138.4 644.8 136 644.7 136 644.2C136 643.8 138.1 642.1 140.6 640.5C146.9 636.5 151 631.4 156.4 620.9C162.1 609.8 164.6 601.5 163 599.5C159.6 595.4 135.9 597.1 124.7 602.2C121 603.9 117.7 605 117.3 604.6C116.9 604.3 118.1 601 119.9 597.5C121.8 593.8 123 590.4 122.6 589.4C122 587.7 125.2 584.2 135.4 575.3C140.6 570.8 141.2 568.1 137 566.9C135.6 566.5 127.8 566.2 119.7 566.1L104.9 566L103.6 569.2Z" fill="#1AAB9B"/>
<path d="M570.401 587.5C567.101 588.8 561.301 595.4 558.601 600.7C556.901 604.1 556.501 612.6 557.901 614.9C560.601 619.2 568.001 609.6 568.001 601.7C568.001 597 568.501 596.1 573.801 591.8C578.201 588.3 575.701 585.3 570.401 587.5Z" fill="#1AAB9B"/>
<path d="M685.5 588.2C678.1 592 677.8 592.5 678.5 600.6C679.3 609 677.3 614.9 672.1 619.2C664.7 625.5 656.8 623.3 651.6 613.6C647.2 605.5 641.7 600 638 600C633.5 600 624.3 603.8 622 606.7C620.9 608.2 620 610.8 620 612.9C620 616.1 618.5 620.8 613.7 633.7C611.9 638.2 610.3 651 611.4 651C611.8 651 615.2 649.2 618.8 647C629.1 641 631.9 640.7 656.7 642.7C677 644.3 678.4 644.3 681.2 642.7C685.2 640.4 685.7 640.5 690.1 644.5C692.3 646.4 694.7 648 695.6 648C698.7 648 703.7 651.4 711.2 658.7L718.9 666.1L723.6 663.4C726.8 661.5 729.5 660.7 732.6 660.8C738.1 660.8 742.2 658.2 746.8 651.5C749.8 647.1 750.1 646 749.7 641.8C749 636.2 745.8 629.5 743 628C741.2 627.1 741.1 626.2 741.7 619.2C742 614.4 741.9 610.6 741.2 609.4C740.6 608.3 737.8 606.1 735 604.6C729.8 601.8 728.3 601.7 720.7 603.6C718.2 604.2 717.2 603.5 711 597.1C707.1 593.2 702.5 589.1 700.7 588C696.6 585.4 690.6 585.5 685.5 588.2Z" fill="#1AAB9B"/>
<path d="M393.5 606.8C386.1 613.4 382.3 615.6 376.8 616.5C372.3 617.2 365.1 622.5 363 626.5C361.8 628.9 361.5 633.7 361.5 649.1V668.7L365.8 673.3C369.1 677 370 678.7 370 681.5C370 683.5 370.6 686.6 371.4 688.4C372.6 691.3 373.5 691.9 377.9 693C381.7 693.9 383.8 693.9 386.4 693C389.9 691.9 393.3 689 391.2 689C389.7 689 388 682.5 388 676.9C388 669.2 389 665.9 391.7 664.9C393.5 664.2 394 663.5 393.5 662C393 660.5 393.5 659.9 396.2 659.2C399.2 658.5 399.5 658 399.6 654.7C399.7 650.2 402.4 647 406 647C408.9 647 413.6 642.8 412.5 641.1C412.2 640.5 410.6 640 409 640C401.5 640 399.2 631.1 403 617.1C404.2 613 405 607.8 404.8 605.6C404.3 599.3 401.7 599.6 393.5 606.8Z" fill="#1AAB9B"/>
<path d="M682.8 645.3C680.3 647.2 679.6 647.2 664.8 646.1C632.1 643.7 623.8 644.7 617.6 652.1C614.9 655.2 614.8 655.8 615.4 662C616.2 671 618.6 677.6 622.6 681.5C625.9 684.8 627 685.2 637.2 686.5C640.2 686.9 643.1 688.1 645.1 689.7C647.9 692.1 648.2 692.8 647.7 696.9C647.5 699.4 646.9 702.3 646.5 703.2C646.1 704.3 646.6 705.5 648 706.7C649.3 707.7 653 711.3 656.5 714.7C663.7 721.9 666 723 674.2 723C679.6 723 680.5 722.7 683.1 719.9C684.6 718.2 687.6 716.4 689.7 715.8C694.7 714.5 702.6 706.4 703.8 701.3C704.4 699.2 705.1 696.4 705.4 695C705.7 693.5 707.2 691.9 709.2 691C711.2 690.1 712.7 688.5 713 687C713.4 685.3 714.6 684.2 716.7 683.5C719.6 682.5 719.7 682.3 718.4 680.5C717.5 679.3 717.2 677.5 717.5 675.9C719.2 668.4 703.3 651 694.9 651C693.6 651 691.2 649.4 689.1 647.1L685.5 643.3L682.8 645.3Z" fill="#1AAB9B"/>
<path d="M747.5 657.1C741.8 662.9 738.9 664.2 733.1 663.4C728.7 662.8 728.1 663 726.2 665.5C725 667 723.5 670.1 722.8 672.3C721.8 675.7 721.8 676.4 723.3 677.5C726.7 680 724.6 684.8 719.3 686.4C715.9 687.5 708.2 696.7 707.4 700.5C707.1 702.4 705.9 704.6 704.9 705.6C703.7 706.7 703 708.6 703 711C703 714.6 702.8 714.8 698.9 715.4C693.4 716.3 687.4 719.5 686.7 721.9C686.1 724.5 679.3 726.3 673.5 725.5C664.1 724 662.9 726.8 666.1 742C669.7 759.6 668 769.4 661.2 770.2C655.9 770.8 655.7 777.5 661 780.7C664.4 782.7 665.4 784.8 665.4 790.4C665.5 796 667.8 797.1 672.8 793.8C679.3 789.5 684.2 788.6 701.5 788.6C719.2 788.6 727.1 789.8 733.8 793.6C739.2 796.8 744.3 797.6 767.1 799C787.8 800.3 792.3 801.2 794.4 804.1C796.1 806.5 796.5 805.9 797.4 800C798.7 791 804.6 784.3 813.1 782C815.9 781.2 817.1 780.3 817.6 778.5C818.3 775.8 816.6 767 813.9 758.7C811.8 752.5 812.3 750 816 748C817.5 747.2 818.7 747.3 820.9 748.5C824.9 750.5 828.3 750.4 833 748C838.7 745.1 839.7 742.6 836.6 739C835.2 737.3 834.4 735.3 834.7 734.2C835.2 732.1 832.8 731 827.3 731C823.8 731 821 728.8 821 726.1C821 725.2 819 722 816.5 719.1C811 712.6 803.9 698.6 803.8 694C803.8 692.1 804.1 688.6 804.5 686.3C805.9 678.6 800 669.6 790.3 664.6C786.1 662.5 782.8 662.6 779.7 665C775.8 668.1 774 667.6 774 663.5C774 659 770.7 656.6 765.7 657.5C762.8 658.1 762.2 657.9 761.7 656.1C761.3 654.4 760.7 654.1 758.2 654.6C756.5 655 755 654.7 754.6 654.1C753.3 652.1 751.5 652.9 747.5 657.1Z" fill="#1AAB9B"/>
<path d="M431.7 658.4C418.4 664.3 417.2 665.7 420.6 672.1C421.4 673.8 421.9 675.9 421.6 676.7C420.8 678.6 425.8 683.3 433.4 687.8C439.8 691.7 442.1 691.7 439.1 687.8C436.3 684.3 436.4 683.5 440 682C441.7 681.3 443 680.6 443 680.3C443 680.1 442.1 678.6 440.9 677.1C439 674.5 438.9 673.9 440.2 671.4C441.1 669.4 442.3 668.5 444 668.5C446.3 668.5 446.5 668.2 446.4 663.8C446.4 658.8 444.1 655 441.1 655C440.2 655 436 656.6 431.7 658.4Z" fill="#1AAB9B"/>
<path d="M51.9998 681.3C44.4998 685 37.9998 689.4 37.9998 690.9C37.9998 691.6 37.0998 693.8 35.8998 695.6L33.7998 699H39.6998C48.3998 699 52.5998 696.1 57.4998 686.8C61.7998 678.6 60.3998 677.2 51.9998 681.3Z" fill="#1AAB9B"/>
<path d="M488 683C488 683.6 489.1 685.2 490.5 686.5C491.8 687.9 493.4 689 494 689C495.8 689 495.1 686.4 492.7 684.2C490.2 681.9 488 681.3 488 683Z" fill="#1AAB9B"/>
<path d="M608.2 686.6L603.8 691H607.7C609.8 691 612.1 690.5 612.8 689.8C614.1 688.5 614.5 681.9 613.3 682.1C612.8 682.2 610.5 684.2 608.2 686.6Z" fill="#1AAB9B"/>
<path d="M68.4 686.5C62.1 689.7 47 703.9 47 706.7C47 707.8 48.9 711.1 51.2 714C54.6 718.3 55.6 719 56.4 717.8C58.4 715.1 63.6 709.3 64.7 708.7C65.3 708.3 66.7 709.5 67.9 711.5C70.3 715.6 75.4 719 79.2 719C83 719 88.7 713.7 90.2 708.8C91.3 704.9 91.3 704.6 88.7 702.6C86.9 701.2 85.7 698.9 85 695.5C82.8 685.2 77.1 682.1 68.4 686.5Z" fill="#1AAB9B"/>
<path d="M371.9 697.1C373.1 699 374.9 702 375.8 703.8L377.5 707.2L374 710.1C371.6 712 371 713 372.2 713C373.1 713 374.7 714.8 375.9 717.2C378.5 722.5 385.8 731 391.8 735.5C394.5 737.6 395.6 739 394.6 739C391.9 739 386.3 736.4 382.3 733.2C378.5 730.2 373.2 728 369.9 728C368.4 728 368.1 728.8 368.3 733.7C368.5 739.1 368.3 739.5 366.1 739.8C362.6 740.3 359 739.2 359 737.5C359 735.5 355.7 734.8 348 735.2L341.5 735.5L341.9 746.5C342.3 760.1 340.6 765.5 335.6 766.8C331.4 767.9 331.1 770.6 334.9 772.8C341.2 776.3 337.6 785.3 328.1 789.8L322.5 792.5L322 800.5C321.7 804.9 321.1 809.1 320.6 809.8C319.1 812.3 319.9 819.8 322.3 826.1C326.2 836 326.3 836.9 324.6 839.5C322.5 842.7 322.6 844.2 325 848.3C326.1 850.1 327.3 853.9 327.6 856.6C328 859.3 328.7 862.3 329.2 863.3C330.3 865.5 336.6 868.6 350.7 874L361.9 878.3L357.9 886.1C351.4 899.1 346.9 915 349.8 915C350.2 915 354.8 914.1 360 913C371.4 910.6 376.3 910.5 378 912.5C378.7 913.3 380.8 914 382.7 914C384.7 914 389 915.5 393.1 917.6C396.9 919.6 401 921.2 402.3 921.2C404.5 921.1 406.5 920.8 427.5 916.2C444.7 912.6 445.2 912.5 450 915C452.3 916.2 454.4 916.9 454.7 916.6C455 916.4 454.2 913.1 453 909.5C450.2 901.1 450.6 900.1 460.2 892C464.2 888.6 468.1 885.2 468.9 884.4C470.1 883.3 468.6 881.3 458.3 870.6C445.5 857.6 440 849.6 440 844.3C440 841.9 440.8 840.5 443.7 838.1C448.6 834.1 472.1 822.4 478.3 820.9C481.5 820.1 484.6 818.3 487.8 815.5C492.4 811.3 492.5 811.1 492.4 805.4C492.2 798.2 486.8 775.6 483.9 769.7C482.7 767.4 480.4 764 478.9 762.2C475.4 758.3 475.4 757.2 478.1 751.8C482.1 744 480.3 730.1 474.4 722.3C472.2 719.4 471.4 719.1 467.6 719.2C463.9 719.4 462.5 718.9 458.9 715.9C451.4 709.8 450.8 709.6 444 712.4C436.7 715.4 427.1 721.1 424.8 723.9C422.8 726.3 421.1 726.4 415.9 725C409.2 723.1 408.6 719.9 414.1 716.7C419 714 416.5 712.3 406.9 711.8C400.5 711.6 398.6 711.1 397.9 709.7C397.3 708.7 395.7 708 394 708C390.4 708 390.3 707.4 393.3 704.2L395.5 701.8L393.2 700C391.2 698.4 386.1 697 373.1 694.4L369.7 693.8L371.9 697.1Z" fill="#1AAB9B"/>
<path d="M548 698.6C538 700.7 527.9 704.7 520.8 709.3C517 711.8 509.7 715.1 502.9 717.4C496.6 719.6 489.4 722.4 486.8 723.7C481.4 726.3 481.1 727.2 483.2 737.2C484.3 742.6 484.2 743.3 481.7 749.5C480.2 753.1 479 756.7 479 757.6C479 758.5 480.6 761 482.5 763.2C487.9 769.6 493.3 787.8 494.6 804C495.3 813 496.3 816 498.3 816C499 816 501.2 817.6 503 819.5C505.3 821.9 508.3 823.6 512 824.7C521.6 827.4 526.2 831.4 520.8 832.2C518.6 832.5 518.8 832.8 522.7 836.9C527.8 842 530.6 842.1 530.3 837.1C530.2 834 530.4 833.9 532.8 834.5C542.3 836.8 563.6 849.3 570 856.3C573.5 860 574.2 860.4 576 859.2C579.4 857.1 581.4 857.8 586.5 863C589.2 865.7 592 868 592.6 868C593.3 868 596.4 866.6 599.6 864.9C605.2 862 606 861.8 614.6 862.2C623.2 862.6 624.4 862.9 634.5 867.8C640.4 870.7 645.6 872.8 646.1 872.4C646.6 872.1 646.1 870.1 645 868C643.9 865.8 643 863.4 643 862.5C643 859.7 648.5 852.8 659.9 841.5C666 835.5 671 829.8 671 828.9C671 827.9 669.7 824.2 668 820.6C663.9 811.4 662.9 807.2 662.1 795.2L661.3 784.9L657.1 780.6C652.2 775.6 652.3 775 659 768.5C665 762.8 666.4 759.7 665.6 753.4C664.8 746.8 659.9 727.4 657 719.8C654.9 714.2 654.8 714.1 650.2 713.3C643.8 712.2 590.1 712.3 581.8 713.4C576.3 714.1 574.2 714 570.5 712.6C565.8 710.8 562 706.9 562 704C562 701.7 559 698.3 556.5 697.7C555.4 697.4 551.6 697.8 548 698.6Z" fill="#1AAB9B"/>
<path d="M459.3 706.7C460 711 461.1 712.3 463.3 711.5C467.1 710 465.5 704.9 460.8 703.7C458.9 703.2 458.8 703.5 459.3 706.7Z" fill="#1AAB9B"/>
<path d="M35.5 707C35.1 707.6 35 709.7 35.2 711.8C35.5 715.9 35.9 715.8 27.2 714.4C23.4 713.8 22.8 714 22.4 715.7C21.9 717.7 21.8 717.7 19.5 715.4C18.2 714.1 16.4 713 15.5 713C12.9 713 8.4 715.7 6.6 718.4C4 722.4 4.5 724 8.3 724C11.8 724 14 725.5 14 727.8C14 728.5 11.8 731.5 9 734.4C6.3 737.3 4 740.1 4 740.6C4 742.6 8.6 744.2 17.2 745.1C22.1 745.6 26.6 746.2 27.1 746.5C28.6 747.5 26.8 750 22.4 753.1C18 756.1 15.9 760.3 17.7 762.1C18.3 762.7 20.9 763.7 23.6 764.4L28.5 765.7L22 767.8C13.2 770.8 11 772.4 11 776.1C11 780.3 9.5 782.9 4.7 787.3L0.5 791.1L5 790.4C12.1 789.3 12.5 789.4 12.5 791.4C12.5 792.4 13.5 793.6 14.8 794.1C16.3 794.7 17 795.8 17 797.5C17 799.4 17.5 800 19.3 800C22.3 800 33.1 794.8 35.4 792.1C36.7 790.7 38.5 790 41 790C43.8 790 45.7 789.1 49.8 785.5C53.1 782.8 56.5 780.8 58.8 780.4C60.8 780.1 63.5 778.9 64.7 777.8C66.8 775.8 66.9 775.8 70 777.6C73.1 779.5 73.2 779.5 74.6 777.5C76.3 775.2 79.6 764.3 80.5 758C81.3 752.2 79.5 738.1 77 730.5C75.9 727.2 73.3 722.4 71.2 719.8C69.2 717.3 66.9 714.4 66.3 713.4C65.1 711.6 64.7 711.9 60.2 716.8L55.3 722.2L50.4 716.7C42.8 708.2 37.1 704.4 35.5 707Z" fill="#1AAB9B"/>
<path d="M315.4 743.9C311 745 310 745.8 308.4 749.6C306.3 754.5 306.7 756.7 309.9 759.6C313.3 762.6 316 767.7 316 771C316 774.5 310.5 779 306 779C300.3 779 298.6 776.4 298.1 766.8C297.7 756.9 295.9 756.6 292.6 766C291.4 769.6 288.2 776.7 285.7 781.7C283.1 786.8 281 791.2 281 791.4C281 791.7 284.4 792.4 288.5 793.1C292.6 793.7 296 794.6 296 794.9C295.9 795.2 292.9 796.9 289.2 798.6L282.5 801.7L289 801.3C294.3 800.9 296.1 801.2 299 803C306.5 807.4 314.8 811 316.3 810.4C317.2 810.1 318.4 808.3 319 806.4C320 803.5 319.9 801.9 318.6 797.9C317.7 795.2 317.2 792.5 317.5 792C317.8 791.5 319.7 790.6 321.8 789.9C327 788.2 331.4 785.1 333.9 781.5C336.7 777.4 336.6 776.5 333 773.8C329.1 771 329.2 769.1 333.6 764.9C342.9 756 341.9 747 331.4 744.1C327.1 742.9 320.1 742.8 315.4 743.9Z" fill="#1AAB9B"/>
<path d="M848.5 778C846.3 779.5 844.5 779.9 841.9 779.6C839.2 779.2 837.6 779.5 835.8 780.9C832.8 783.3 830.9 783.8 819.3 784.9C804.9 786.4 801.7 789.1 800.4 800.7C799.2 810.8 797.1 812.5 793.2 806.4C790.9 802.9 790.7 802.8 786.4 803.5C783.1 804 780.4 803.6 775.9 802.1C770.3 800.1 769.7 800.1 766.8 801.6C764.3 802.9 763 803 759.6 802.1C757.4 801.5 750.9 800.6 745.2 800.1C737.4 799.4 734.4 798.7 732.4 797.1C727.6 793.3 720.3 791.8 704.5 791.3C687.6 790.7 679.6 791.8 675.2 795.4C673.7 796.7 671.2 798.3 669.5 799.1C666.9 800.3 666.5 801.2 666.2 804.8C665.9 808.2 666.7 810.8 669.6 816.6C672.9 823.2 673.2 824.6 672.6 829C671.7 835.5 671.1 837 669.3 837C667.2 837 653.8 850.2 649.4 856.5L645.8 861.8L647.8 868.8C648.9 872.7 649.5 876.1 649.2 876.4C648.9 876.7 647.2 877 645.4 877C641.2 877 638.9 880.2 638.2 886.9C637.1 898.4 646.1 903.4 670.5 904.9C679.9 905.5 682 905.9 684.7 907.9L687.9 910.3L694.7 908.6C703.3 906.5 712.6 902.2 717.1 898.2C722.1 893.8 725.4 892.8 734.5 892.8C744.2 892.7 753.1 894.9 762.7 899.5C772.1 904.2 774 906.6 774 914.2C774 918.9 774.3 920.2 775.8 920.6C779.6 921.8 780.4 922.9 781.5 928.2C782.1 931.5 783.7 935 785.3 937C787.3 939.3 788 941.2 787.8 943.3C787.6 945.7 788 946.7 789.9 947.6C792.2 948.8 792.2 948.8 790.2 949.9C789.1 950.5 786.4 951.2 784.2 951.6C780.8 952.1 780 951.9 779.1 950.1C777.5 947.2 775.9 947.5 772.9 951.3C768.2 957.3 758 975.5 758 978C758 979.6 762.5 979.2 768.2 976.9C780.3 972.2 800 956 800 950.9C800 947.1 804.1 944.4 813.1 942.5C822.9 940.5 826.9 941.2 831.1 945.6L833.4 948.1L830.5 950.5L827.5 952.8L830 953.8C831.4 954.3 837.2 955.3 843 956C848.7 956.6 854.9 957.8 856.7 958.5C863.2 961.2 859.8 966.1 847.7 971.5C844.1 973.2 841 974.7 841 975C841 975.3 844.2 977.4 848 979.8C856.3 984.9 858.2 987.8 857.4 994.6C857 997.9 857.3 1000.1 858.2 1001.3C859.4 1003 859.8 1003 863.9 1001.5C866.3 1000.7 869.7 999.1 871.4 998.1C873.1 997 877.4 995.2 881 994.1C886.1 992.4 888 991.3 889.4 988.9L891.2 985.9L899.3 986.6C906.8 987.2 907.7 987 910.3 985C913.3 982.6 913.9 979.3 911.4 978.3C910.5 978 906.4 978.7 902.3 979.8C892.9 982.4 890.9 981.7 883.1 973.5C880.2 970.4 877.2 968.1 876.5 968.4C874 969.3 874.2 965 876.9 960.7C879.7 956.5 887.5 949 889.3 949C889.8 949 894.7 947.2 900.2 945C905.7 942.8 912.5 940.4 915.3 939.8C918.2 939.2 921.5 937.9 922.8 936.9C924.1 935.9 928.8 933.9 933.3 932.4C943.8 929 947 927.3 947 925.4C947 922.9 953.9 914.1 958.3 910.9C961.8 908.4 963.2 908 969 908C976.9 908 977.6 907.5 979.2 899.6C980.2 894.8 980.2 893.4 978.6 889C976.3 882.6 977 878.7 981.5 871.9C983.4 869.1 985 866.2 985 865.5C985 861.3 960.7 850.5 948.1 849.1C942.7 848.5 942.6 848.4 938 842C932.3 834 930.7 833.6 922.3 838.1C917.8 840.6 915.6 841.2 914.6 840.5C908.5 836 907.5 835.6 902.1 835.5C896.9 835.5 896.4 835.3 894.3 832C892.6 829.6 892.1 827.8 892.5 825.8C893 823.7 892.4 821.7 890.6 818.6C887 812.4 883.5 809.8 879.6 810.6C877.9 810.9 875.2 810.7 873.7 810.1C869 808.3 866.3 798.7 869.3 794C872.1 789.5 862.5 778.1 854.5 776.6C852.4 776.2 850.6 776.6 848.5 778Z" fill="#1AAB9B"/>
<path d="M292 804.7C291.2 805 287.2 806.5 283.1 808.2C277.4 810.5 274.9 811 272.1 810.5C270.1 810.1 266.4 809.7 263.8 809.7C259.9 809.5 258.6 810 256 812.5C253.5 814.9 253 816.1 253.2 819L253.5 822.5L258.7 822.2C263.2 821.9 263.9 822.1 264.5 823.9C265.7 827.8 270.3 832.1 275.6 834.5C281.3 837 283 839.2 283 843.9C283 848.9 284.3 848.6 292.9 842.2L296 839.9V842.2C296.1 848 304.2 858.8 308.8 859.1C314.2 859.5 315 858.3 314.3 851.4C313.7 845.5 315.8 840.6 318.4 841.6C320.1 842.2 322 839.2 322 835.8C322 831.9 318.3 827 315 826.3C311.5 825.7 310 823.5 310 819.3C310 815.3 307.6 812.3 302.1 809.6C299.5 808.2 296.8 806.4 296.1 805.6C294.7 803.9 294.4 803.9 292 804.7Z" fill="#1AAB9B"/>
<path d="M242.2 818.3C240.4 818.9 237.5 820.6 235.9 822.1C233.6 824.3 233 825.6 233 829.2C233 834.6 229.3 842.5 224.9 846.7C223 848.4 219 851.1 216 852.6C207.4 856.8 204 859.7 204 862.9C204 867.1 202.3 868 194.5 868C184.6 868 177.7 866 174.6 862.3C172.1 859.4 166.5 856.2 165.5 857.2C165.2 857.5 165.6 859.2 166.4 861.1C167.6 864.1 172 884.3 172 887.1C172 887.6 168.6 888 164.5 888C160.4 888 155 888.5 152.5 889.2L148 890.4L143.2 885.7C137.9 880.5 136.2 880 133.5 883C131.4 885.3 127 886.7 118.9 887.5C115.8 887.8 112.4 888.7 111.4 889.4C109.5 890.8 109.8 891.3 115.5 895.4C117 896.5 117.4 897.8 117.2 901.3C117.1 903.8 116.9 906.4 116.8 907.1C116.6 907.9 117.9 908.5 120.3 908.7C122.3 908.9 126.6 910.2 129.8 911.6C138.5 915.5 143.1 917.1 148 917.8C152.1 918.5 152.5 918.8 152.5 921.3C152.6 923.1 154 925.4 156.9 928.4C159.8 931.4 161.1 933.4 160.6 934.5C159.1 938.4 167.2 949 174.3 952.3C181.2 955.6 181.2 955.4 179.5 976.1C177.7 997.5 175 1013.8 171.5 1024.7C168.9 1032.5 169 1033.5 172.5 1034.2C173.7 1034.4 174.5 1035.3 174.5 1036.6C174.5 1042.7 181.6 1045 204 1046C223.7 1047 230.2 1048.5 235.6 1053.3C238.7 1055.9 240 1056.4 244.4 1056.4C247.2 1056.4 251 1055.8 252.8 1055.1C255.6 1053.9 256.3 1052.9 258 1047C260.4 1039 263.9 1035.3 273.8 1030.7C281.7 1027 283.1 1027.2 304.2 1033.8L319.9 1038.7L323.7 1037C325.8 1036 330.1 1032.9 333.3 1030.1C336.5 1027.3 340.8 1024.1 342.8 1023.1C346.2 1021.3 350 1016.6 350 1014.1C350 1013.5 348.6 1013 346.9 1013C340.2 1013 334 1005.5 334 997.3C334 994.5 333.4 991.5 332.5 990.4C330.1 987.3 330.8 985.2 335 982.5C337.2 981.1 339 979.6 339 979.1C339 978.6 337.8 975.7 336.4 972.6C334.7 968.9 334 966 334.4 964.4C334.7 963.1 335.3 960.9 335.6 959.6C336 957.9 335.4 956.4 333.1 953.9L330.1 950.5L323.1 954.3L316.1 958L318.1 954.5C319.2 952.6 320.1 950 320 948.8C319.7 944.9 319.9 944.4 322.6 943.2C324 942.5 325.8 940.3 326.7 938.3C327.5 936.2 330 932.5 332.2 930.1C334.4 927.6 336.4 924.3 336.7 922.9C337 921.1 338 920 339.5 919.6C342.7 918.8 344.4 915.7 347.6 905.4C349 900.5 351.4 894 352.7 891C356.6 882.3 357.1 880.2 355.4 878.5C354.5 877.7 353.2 877 352.3 877C351.5 877 345.8 874.8 339.6 872.2C329.2 867.6 321.4 864.8 311.3 862.1C309.1 861.5 304.5 859 301.2 856.6C293.9 851.2 289.8 849 287 849C283.6 849 281 847.1 281 844.7C281 840 279.8 838 277.3 838C271.8 838 264 832 264 827.7C264 825.1 261.6 824 258.1 825C253.8 826.2 252.3 825.5 251 821.5C249.5 816.9 248 816.4 242.2 818.3Z" fill="#1AAB9B"/>
<path d="M487 821.5C473.8 824.2 453.3 833.2 446.3 839.3C439.6 845.2 442.6 851.6 461 870.1C478.8 888.1 482.2 889.4 489.9 881C492.4 878.2 495.3 876 496.2 876C497.2 876 501.9 877.1 506.7 878.5C511.5 879.9 519.3 881.3 524 881.7C531.4 882.2 532.8 882 534.3 880.5C535.3 879.5 536.9 879 538.1 879.3C543.2 880.6 553.1 874.7 554.4 869.5C554.8 867.9 557 865.9 560.8 863.7C567.3 859.9 568.2 857.9 564.8 854.3C560.9 850.2 540.1 839 536.3 839C535.5 839 533.5 840.1 531.8 841.5C530.2 842.9 528.4 844 527.9 844C526.1 844 517 834.1 517 832.2C517 829.9 511.4 827.2 504.5 826.2C500.4 825.6 499.4 825.1 499.2 823.3C498.9 821.6 496.1 819.8 494 820.1C493.7 820.2 490.6 820.8 487 821.5Z" fill="#1AAB9B"/>
<path d="M317 846.9C314.6 851.4 317.3 861 320.9 861C325.5 861 326.4 852.8 322.4 848.1C319.4 844.5 318.5 844.3 317 846.9Z" fill="#1AAB9B"/>
<path d="M576.2 862.5C573 865.2 570.4 865.7 569.8 863.8C569.5 863.1 568.4 862.9 566.9 863.3C562.2 864.6 558.2 867.9 556 872.4C553.5 877.6 547.9 881.6 540.7 883.2C535.5 884.3 533.2 886.4 532.4 890.5C531.3 896.7 537.5 906.1 545.3 909.9C549.1 911.7 550.2 911.8 556.5 910.9C565 909.6 566 909.1 568 905.4C569.4 903 570.5 902.4 574.7 901.9C577.4 901.5 580.8 900.5 582.2 899.6C583.8 898.6 586.5 898 589.4 898.2C593.9 898.3 594.4 898.1 598 893.9L601.8 889.5H611.8C620.8 889.5 622.1 889.7 624.2 891.7C625.6 893 627.1 894 627.6 894C629.7 894 634 888.2 637.4 880.7L641 872.9L633.7 869.5C619.5 863 607.1 862.6 598.1 868.6C595.9 870 592.7 871.3 591 871.3C588.2 871.5 587.7 871.1 586.5 867.5C585.2 863.8 581.9 860 580 860C579.5 860 577.8 861.1 576.2 862.5Z" fill="#1AAB9B"/>
<path d="M494.5 880.2C493.4 880.8 490.5 883.1 488 885.3C483.2 889.4 483.8 889.3 473.5 887.4C471 887 469.3 887.8 462.8 892.7C458.5 895.9 454.8 899.5 454.4 900.7C454.1 901.9 454.6 906.1 455.6 909.9C457.8 918.5 457 920.3 451.7 918.1C446.2 915.7 440.7 915.7 432.8 917.9C426.5 919.7 418.6 921.2 402.4 923.7C400.5 924 397.9 923.5 396 922.5C391.4 920.1 390 921.1 390 926.5C390 934.1 395.8 938.2 401.4 934.5C403.5 933.1 404 933.2 407.4 935.5C411.9 938.5 412.9 938.6 417.4 935.9C420.3 934.2 435.8 930 439.2 930C439.6 930 441.1 931.8 442.5 934C443.9 936.2 446.1 938.7 447.5 939.6C451.3 942.1 463.6 945 473.5 945.6C489.4 946.7 514.4 939.7 519.3 932.9C520.6 931.2 521.4 927.9 521.7 923.4C522.3 915.5 523 914.4 528.2 912.3C530.3 911.5 532 910.1 532.1 909.1C532.5 903.4 529.9 891.1 527.5 887.4C526.5 885.8 524.7 885.1 520.6 884.6C517.5 884.3 511.5 882.9 507.3 881.5C498.5 878.7 497.3 878.6 494.5 880.2Z" fill="#1AAB9B"/>
<path d="M602.5 893.2C601.4 893.8 599.1 895.8 597.4 897.6C594.6 900.6 593.6 901 589.2 901C586.1 901 584 901.5 583.8 902.2C583.5 902.9 580.7 903.9 577.4 904.5C572.7 905.3 571.3 906 570.3 907.9C568.8 911 565.8 912.6 559.8 913.4C553.2 914.4 546.6 913.2 542.4 910.4C538 907.4 537.4 907.4 535.8 910.7C534.5 913.3 533.2 914.3 529.8 915.4C528.7 915.7 528 916.9 528 918.5C528 919.9 527.6 921 527.1 921C525.4 921 522.5 930.4 522.5 936C522.5 946.6 529.4 954.1 546.3 962C555.8 966.5 559.8 966.9 563.8 964C567.4 961.4 573.4 959.8 594.4 956.1C613.2 952.8 616.1 951.5 617.1 945.9C618.1 940.6 619.6 937.4 625.6 928.2C632.1 918.2 640.1 909.4 643.6 908.6C646.9 907.7 646.6 905.7 642.8 902.8C637.9 899.1 633.7 897.1 628.9 896.4C626.5 896 623.4 894.9 622.1 893.8C620.3 892.4 618 892 612.1 892C607.9 892 603.6 892.6 602.5 893.2Z" fill="#1AAB9B"/>
<path d="M731.6 895.1C729.4 895.6 727.5 896.2 727.3 896.4C726.7 896.9 743.6 924.8 747.2 929.3C751.3 934.5 752 937.4 752.7 953.8C753.1 962.4 753.8 968.7 754.5 969.7C755.6 971.2 756 971.1 758.2 968.8C759.5 967.3 762.5 962.3 764.7 957.7C770.2 946.6 770.8 946 778.1 946C783.4 946 784.2 945.7 784.9 943.7C785.6 942 785.3 941 783.4 939.3C782.2 938 780.3 935.1 779.2 932.8C778.2 930.4 775.5 926.3 773.2 923.7C768.5 918.3 768.2 916.9 771 913.3C774.3 909.1 773.2 907 767.8 907C766.7 907 765.6 906.2 765.3 905C764.7 902.9 764.2 902.7 759.9 903C758.3 903.1 757 902.5 756.7 901.6C755.8 899.4 749.2 896.3 742.5 895.1C739.3 894.5 736.4 894 736.1 894.1C735.8 894.2 733.7 894.6 731.6 895.1Z" fill="#1AAB9B"/>
<path d="M715.2 902.9C710.5 906.1 696.2 911.6 690 912.6C686.7 913.1 685.6 912.8 683 910.6C680.2 908.3 679 908 672.6 908C668.6 908 662.8 907.5 659.7 906.9C652.7 905.5 650.3 906.1 645 910.5C642.7 912.4 640 914 639.1 914C636.8 914 628.1 927.4 622 940.4C616.8 951.4 615.6 952.7 606.3 957.4C603.4 958.8 601 960.3 601 960.7C601 961.1 602.5 962.8 604.4 964.5C606.5 966.4 608.3 969.3 609 971.8C609.8 975.1 611 976.6 614.3 978.6C619.7 982 621 983.7 621 987.5C621 993 627.8 996.9 637.6 997C640.5 997 643.4 997.6 644.6 998.5C646.5 1000 646.5 1000 644.5 1001.5C642.7 1003 642.7 1003.1 646.8 1007.3C649.6 1010.1 651 1012.5 651 1014.2C651 1017.1 652.6 1018 657.4 1018C659.1 1018 663.1 1018.9 666.3 1020C678 1024.1 696.4 1022.2 711.4 1015.3C719.6 1011.5 722.3 1010.7 727 1010.7C735.1 1010.8 744.6 1013.7 747.8 1017.1C750.7 1020.2 755.9 1021.1 757.8 1018.7C758.3 1018.1 759.3 1014.3 759.9 1010.5C761.3 1002.2 764.5 992.1 766.5 989.4C768 987.5 768.1 987.6 769.9 989.7C772.4 992.7 773.2 992.6 777.4 988.6C779.7 986.5 781 984.3 781 982.7C781 977.8 774.1 976.4 768.9 980.2C764.5 983.5 757.5 983.2 754.5 979.7C752 976.9 751.5 974.1 750 956.5C749.4 949.9 748.5 942.7 747.9 940.5C746.5 935.3 737.4 918 731.1 908.6C724.5 898.8 722.4 898.1 715.2 902.9Z" fill="#1AAB9B"/>
<path d="M366.9 917.5C353.6 919.1 345.8 921.3 340.5 925C336 928.1 331.7 933.2 329.9 937.7C329.2 939.2 327.1 942 325.1 943.8C322.1 946.5 321.7 947.2 323 948C323.8 948.6 326 948.9 327.8 948.6C332.6 947.9 333.8 948.7 336.5 954C339.8 960.5 341.5 962 345.6 962C351.2 962 355.7 959.6 357.4 955.6C358.9 952 364.2 948.4 366.1 949.6C366.7 949.9 367.8 951.8 368.6 953.7C369.4 955.5 370.7 957.3 371.5 957.7C373.9 958.6 377.6 955.4 380.6 950C382.1 947.3 383.6 945 384 945C384.4 945 385.9 945.9 387.3 947C388.7 948.1 390.6 949 391.5 949C393.2 949 403 940.3 403 938.8C403 938.2 401.6 938 399.8 938.4C393.1 939.6 387.4 933.6 386.3 923.9C385.3 915.4 385 915.3 366.9 917.5Z" fill="#1AAB9B"/>
<path d="M422.6 936C421 936.5 418.7 937.9 417.5 939C415.7 940.7 414.2 941.1 410.9 940.8C406.9 940.5 406.5 940.7 406.2 943C406 944.4 404.5 946.7 402.9 948.2C401.3 949.7 400 951.6 400 952.4C400 955.8 391.7 955.5 388.4 951.9C387.5 950.9 386.1 950 385.4 950C383.7 950 380.3 954.9 379.6 958.3C379.3 959.8 378.8 962.1 378.5 963.5C378.2 964.9 377.4 966 376.8 966C376.1 966 372.9 963.1 369.5 959.5C362.6 952.1 360 951.2 360 956.3C360 961 357.6 962.8 348.9 964.6C336.4 967.1 336.7 966.7 340.4 975.3L342.1 979.1L337.8 983.1L333.5 987L336.3 991.9C339.4 997.5 339.6 999 337.5 999C335.5 999 335.6 1000.9 337.9 1004.4C340.2 1007.8 344.8 1011 347.5 1011C350.1 1011 352 1012.8 352 1015.2C352 1018.4 354.5 1017.2 365.1 1009.1L375.4 1001.1L386.2 1006.7C399.4 1013.4 401.3 1015.7 404.1 1027.6C405.3 1032.5 406.7 1037.5 407.2 1038.7C408.9 1042.2 429.9 1064.8 438.4 1072.3C447.5 1080.2 451.5 1082.4 459.2 1083.9C467.5 1085.4 470.9 1087.2 476.6 1092.8C479.4 1095.6 483 1098.2 484.6 1098.5C486.2 1098.9 488.1 1099.3 488.7 1099.6C489.4 1099.8 491.2 1102.5 492.7 1105.6C494.9 1110.3 496.1 1111.6 499.7 1113.2C505.4 1115.7 508.4 1120 512.1 1130.4C516 1141.6 516.8 1148.4 514.7 1150.8C512.3 1153.4 509 1161.1 509 1164.2C509 1168.1 512.4 1169.8 515.2 1167.3C518 1164.8 522 1157.7 523.5 1152.7C524.5 1149.4 525.6 1148 529 1146C536.4 1141.7 536.1 1136.8 527.9 1129.9C524.6 1127.2 523 1125 523 1123.5C523 1120.4 533.7 1106.1 536.5 1105.4C540.8 1104.3 553.2 1111.8 555 1116.5C556 1119.2 557.9 1119.7 559.8 1117.8C561.7 1115.9 561.2 1114.4 557.8 1110.4C553.4 1105.4 546.8 1100.7 531.5 1091.5C511.8 1079.8 509.9 1078 513.5 1075C514.3 1074.3 515 1072.9 515 1071.9C515 1070.2 514.1 1070 505.8 1070C498.1 1070 495.6 1069.6 491.5 1067.6C482.2 1063.2 475.7 1055.2 470.8 1041.7C469.2 1037.3 467.3 1032.6 466.5 1031.1C464.6 1027.3 457.8 1021.4 452.4 1018.7C448.1 1016.7 447.8 1016.6 446.9 1018.3C446.3 1019.2 445.3 1020 444.5 1020C442.9 1020 442.4 1018.4 441.5 1009.5C441.2 1006.2 440.6 1001.4 440.3 998.7C439.9 995 440.1 993.5 441.5 991.9C443.3 990.1 443.3 989.7 441.7 984.6C440.8 981.7 440 978.6 440 977.7C440 975.3 444.3 972.5 452.6 969.4C462.1 966 463.5 964.1 462.6 956.2C461.7 948.4 460.3 946.7 453.3 944.8C450.1 943.9 445.9 942 444 940.6C436.6 935.2 430.1 933.8 422.6 936Z" fill="#1AAB9B"/>
<path d="M510 942.1C503.4 944.4 488.1 947.6 478.6 948.6C471.2 949.3 467 951.9 467 955.7C467 958.5 471.9 968.2 474.8 971.2C477.7 974.3 482.7 975 483.6 972.5C484.4 970.6 488.7 970.6 492 972.5C493.4 973.3 495.5 973.9 496.6 974C498.4 974 498.8 973.5 498.6 970.8C498.5 968.1 499 967.4 502.5 965.6C506.2 963.6 506.5 963.2 506.5 959.1C506.5 954.9 506.8 954.5 512.5 950C516.9 946.6 518.5 944.7 518.5 942.9C518.5 939.8 516.8 939.7 510 942.1Z" fill="#1AAB9B"/>
<path d="M511.3 954.6C509.2 956.8 508.9 957.7 509.4 961C509.9 964.5 509.7 965.1 507.4 966.6C506 967.5 504 970 503 972C501.9 974.1 500.4 976 499.5 976.4C496.2 977.6 492 977 490.1 974.9C487.5 972.1 485 973.1 485 976.7C485 978.5 486.4 981.3 489 984.4C491.5 987.4 493.2 990.7 493.6 993.1C494 995.2 495.6 998.6 497.4 1000.7C503.4 1007.9 503.3 1007.9 502.1 1009.4C499.6 1012.4 505.1 1019 514.6 1024.6C517.7 1026.4 521.1 1027.4 525.6 1027.8L532.2 1028.3L523.6 1016.3C509.4 996.5 505.6 987.5 509.7 983.4C511.3 981.9 513.1 981.8 527 982.4C546.6 983.2 560.3 984.7 565.5 986.6C567.7 987.5 570.2 988.4 571 988.6C572 988.9 573.1 987.7 574.5 984.8C575.9 981.9 577.2 980.4 578.8 980.2C580.5 979.9 581 980.4 581 982C581 983.3 580.2 984.4 579 984.7C576.4 985.4 576.5 986.5 579.2 990.2C581 992.9 581.2 993.7 580.2 996.1C576.2 1005.8 576.2 1004.6 580.8 1009.3C583.1 1011.6 585 1014 585 1014.6C585 1015.2 583.9 1016.3 582.5 1017C579.4 1018.6 579.4 1019.7 582.1 1022.6C584.8 1025.5 584 1027.6 580 1028.5C578.3 1028.9 576.2 1030.3 575.2 1031.8C573 1035.3 572.2 1035.9 569.9 1035.3C568.5 1034.9 568 1035.3 568 1036.9C568 1038.1 566.8 1040.2 565.3 1041.6C562.8 1043.9 562.7 1044.2 564 1048.2C565.4 1053.2 570.2 1060.5 572.6 1061.4C573.8 1061.9 575.6 1060.6 578.9 1057.1C581.4 1054.3 584.7 1051.8 586.2 1051.5C591.6 1050.1 603 1058 603 1063.1C603 1066.3 605.4 1066.3 611.6 1063C616.1 1060.7 619.7 1059.7 627 1058.9C639.5 1057.5 640 1057.2 640 1050.8C640 1046 640.4 1045.2 644.1 1041.4L648.3 1037.1L644.7 1033C641.2 1028.9 638 1021.6 638 1017.7C638 1016.6 638.7 1013.7 639.7 1011.1C641.5 1005.9 640.9 999 638.5 999C637.8 999 636.3 1000.2 635.3 1001.6L633.3 1004.2L627.2 999.6C620.5 994.5 618 991.5 618 988.7C618 986 615.3 982.5 611 979.6C608 977.7 606.8 976 605.9 972.8C604.4 967.2 596.5 959 592.6 959C588.7 959 575.7 962 574.1 963.3C573.2 964.1 573 965.6 573.5 968.5C573.9 970.7 574.4 973.9 574.7 975.6C575.3 979.2 573.7 980.8 571.5 979C570.5 978.2 570 975.9 570 972.6C570 967.4 568.8 965 566.3 965C565.6 965 565 965.7 565 966.5C565 971.5 551.5 967.9 535 958.5C525.3 953 522.8 952 518.7 952C514.9 952 513.4 952.5 511.3 954.6Z" fill="#1AAB9B"/>
<path d="M510.3 984.5C510 985.4 510 987.5 510.4 989.3C511.7 995.9 527.9 1020.2 535.1 1026.3C537.4 1028.4 539.5 1031.2 540.1 1033.2C540.6 1035.1 542.6 1038.3 544.5 1040.3C548.1 1044 559.2 1052 560.7 1052C561.1 1052 561.5 1049.6 561.5 1046.6C561.5 1042 562 1040.6 564.6 1037.3C566.4 1035.1 568.7 1033.4 570.2 1033.2C572.4 1032.9 572.8 1032.4 572.6 1029.7C572.5 1026.7 572.7 1026.5 576.3 1026.2C580.4 1025.8 580.8 1025.1 578.4 1021.5C577.5 1020.1 576.8 1017.2 576.8 1014.9C576.9 1012.2 576.2 1010.2 574.9 1008.9C572.1 1006.1 572.5 1002.5 576 999C579.2 995.7 579.4 995.2 578.1 993.1C577.5 992.2 576.3 992 574.2 992.5C572.1 992.9 569.8 992.5 566.6 991.1C560.8 988.4 555.8 987.4 538.2 985.5C523 983.8 521 984.1 521 988.1C521 990.9 519.5 990.4 516.6 986.5C513.7 982.8 511.3 982 510.3 984.5Z" fill="#1AAB9B"/>
<path d="M643.1 1013.5C641.4 1015 640 1017.1 640 1018.3C640 1021.5 645.5 1030.6 649 1033.2C651.1 1034.7 652 1036.2 652 1038.1C652 1040.5 651.4 1041.1 648.1 1042C643.7 1043.2 643 1044.9 643 1055.5C643 1061.3 643.3 1062.2 646.6 1066.1C651 1071.3 652 1073.7 651.3 1077.3C650.9 1079.4 651.3 1080.2 653.4 1081.1C655.5 1082.1 657.3 1082 662.7 1080.5C673.6 1077.6 679.1 1077.5 684.7 1080C687.9 1081.5 692.2 1082.4 697.6 1082.7C707.5 1083.3 712.9 1081.2 715.9 1075.2C718.6 1069.9 721.8 1067.3 727.2 1065.9C731.3 1064.8 732.4 1064.8 735.5 1066.3C740.5 1068.7 742.9 1068.5 744 1065.5C745.4 1061.8 743.4 1057 740.4 1057C737.1 1057 737.3 1054.2 741 1049.5C742.6 1047.5 744.9 1043.3 746 1040.2C748.5 1033.6 751.2 1030.4 755.8 1028.4C759.8 1026.8 759.9 1023.7 756 1023.2C754.6 1023 749 1020.8 743.5 1018.2C734.6 1014 732.7 1013.5 726.5 1013.5C720 1013.5 718.9 1013.8 710.5 1018.5L701.5 1023.5L685 1023.4C668.4 1023.4 655.8 1022 651.1 1019.7C649.1 1018.7 648.5 1017.7 648.5 1015.1C648.5 1010.7 647 1010.3 643.1 1013.5Z" fill="#1AAB9B"/>
<path d="M42.9998 1025.3C41.5998 1026 39.7998 1028.1 38.8998 1029.9C36.8998 1034.1 32.8998 1036.4 28.8998 1035.5C26.4998 1035 25.2998 1035.3 23.3998 1037.1C20.4998 1039.8 20.2998 1043.3 22.9998 1047C25.6998 1050.8 27.0998 1054.7 27.8998 1060.5L28.4998 1065.5L34.6998 1065.2C39.1998 1064.9 40.9998 1065.2 41.6998 1066.3C43.8998 1070 53.0998 1071.3 57.3998 1068.5C60.3998 1066.5 67.8998 1065.6 71.1998 1066.9C73.1998 1067.6 73.9998 1068.8 74.4998 1071.9C74.8998 1074.1 75.7998 1076.4 76.5998 1077.1C78.6998 1078.8 78.3998 1079.7 73.8998 1086.7C70.2998 1092.2 69.5998 1094.1 68.9998 1100.5C68.5998 1104.7 67.4998 1109.1 66.5998 1110.5C65.5998 1112 64.8998 1114.3 64.9998 1115.8C65.3998 1121.2 64.8998 1122.8 61.9998 1126.5C58.3998 1131 58.2998 1132.5 61.2998 1137C64.9998 1142.5 64.9998 1143.4 61.7998 1149.5L58.7998 1155.3L60.8998 1159.7C61.9998 1162.1 62.9998 1164.5 62.9998 1165.1C62.9998 1165.7 61.3998 1168 59.4998 1170.3C56.5998 1173.6 55.9998 1175.2 56.1998 1178C56.4998 1181.2 57.0998 1181.8 63.7998 1185.5C71.3998 1189.7 72.2998 1190.7 81.8998 1206.3C87.5998 1215.6 91.2998 1216.2 95.6998 1208.5C96.8998 1206.3 99.3998 1203.8 101.2 1202.9C106.5 1200.2 118.3 1198.1 135 1196.9C158.3 1195.3 156.2 1196 165.6 1186.5C170.6 1181.4 175 1177.8 176.7 1177.4C178.2 1177.1 180.3 1176.6 181.2 1176.3C182.2 1176.1 183.4 1174.2 184.1 1171.7C185.3 1167.1 187.4 1163.8 193.3 1157C199.6 1149.8 199.7 1149.4 195.6 1140.1C193.6 1135.6 192 1131.5 192 1131C192 1130.4 196.3 1123.8 201.5 1116.3C206.8 1108.8 212.2 1100.5 213.6 1097.9C216.5 1092.8 221.3 1089.6 231 1086.5C240.1 1083.6 251.6 1077.1 255.9 1072.5C260.3 1067.8 261.7 1063 260.1 1058.7C258.9 1055.5 257.1 1055.3 254.7 1058C252.6 1060.5 246.1 1060.7 239.5 1058.4C236.9 1057.6 233.9 1057 232.7 1057C228.7 1057.4 228 1057 228 1054.5C228 1050.9 225.3 1050 214.8 1050C194.4 1050 178.8 1046.5 172.1 1040.5C167 1035.9 163.2 1035.1 141 1034C111.3 1032.5 97.7998 1031.2 93.0998 1029.5C89.9998 1028.4 84.6998 1028 75.0998 1028C63.6998 1028 60.7998 1027.6 57.0998 1026C52.1998 1023.7 46.5998 1023.5 42.9998 1025.3Z" fill="#1AAB9B"/>
<path d="M376.1 1052.7C371 1055.2 370.6 1057.3 372.5 1068.6C373.4 1074 374.5 1078.9 375 1079.4C376.6 1081 380.8 1077.2 383.6 1071.4C387.4 1063.7 387.6 1055.7 384.1 1052.9C381.3 1050.6 380.5 1050.6 376.1 1052.7Z" fill="#1AAB9B"/>
<path d="M582.6 1056.1C579.5 1058.5 579.5 1058.9 582 1072C583.3 1079 582.7 1091.6 580.9 1096.9C580 1099.4 580.1 1100.9 581.4 1104.1C582.3 1106.4 582.8 1109 582.5 1109.9C582.1 1111.1 583.3 1112.6 586.5 1114.8C589.6 1117 591.2 1118.9 591.7 1121C592 1122.7 592.6 1124.3 593 1124.5C594.2 1125.2 599.4 1118.6 603 1111.9C604.7 1108.7 607 1105.4 608.2 1104.6C610.3 1103.1 610.3 1103.1 605.6 1093.8C601.1 1084.7 601 1084.3 601.2 1076C601.5 1065.9 599.6 1061.1 594.1 1057.5C588.6 1053.9 585.9 1053.5 582.6 1056.1Z" fill="#1AAB9B"/>
<path d="M619.3 1062C618 1062.5 617 1063.4 617 1064C617 1064.5 615.9 1065 614.5 1065C611.3 1065 607.5 1068.7 605 1074.3C602.5 1079.7 602.5 1082.4 605 1087.6C608.9 1095.6 618.9 1097.5 627.4 1091.8C630.2 1090 634.3 1088.3 637.3 1087.9C644.3 1086.8 647.5 1083.5 647.4 1077.5C647.3 1071.9 643.2 1065.4 638.5 1063.4C634.2 1061.6 622.2 1060.7 619.3 1062Z" fill="#1AAB9B"/>
<path d="M726.6 1068C721.4 1069.6 719 1072.8 719 1078.1C719 1080.7 718.6 1083.1 718.1 1083.4C715 1085.4 716.5 1095.6 720.5 1099.6C724.1 1103.1 726.9 1102.6 733.8 1097.1C740.4 1091.8 745.8 1090 755.3 1090C758.2 1090 762.1 1089.7 764.1 1089.4L767.7 1088.8L760.7 1085.1C755.2 1082.3 752.6 1080.2 749.2 1075.7C745.4 1070.7 744.4 1069.9 742.4 1070.4C740.9 1070.8 738.5 1070.3 736 1069C731.7 1066.8 730.9 1066.7 726.6 1068Z" fill="#1AAB9B"/>
<path d="M879 1068C877.6 1068.4 872.4 1068.8 867.4 1068.9C855.9 1069 842.3 1072.4 830.3 1078C819.8 1082.9 814.3 1086.5 813.5 1089.1C812.3 1092.7 809.7 1093.1 799.8 1091.5C789.9 1089.9 770 1089.4 770 1090.8C770 1092.7 776.1 1097.2 780.1 1098.4L784.4 1099.7L778.5 1101.9C771.2 1104.5 769.4 1105.5 769.7 1106.9C770.1 1108.4 767.4 1108.8 751.5 1109.5C723.8 1110.6 713 1115.3 713 1126C713 1129.9 714.4 1130.4 722 1129C725.4 1128.4 728.4 1128.1 728.7 1128.4C729 1128.7 728.3 1130.1 727.1 1131.6C724.3 1135.1 724.4 1136.3 728 1140.3C731.5 1144.4 731.7 1145.4 729 1148.7C727.9 1150.1 727 1151.9 727 1152.6C727 1153.3 727.9 1154.4 729 1155C730.1 1155.6 731 1156.5 731 1156.9C731 1157.4 730.1 1158 729 1158.3C727.5 1158.7 727 1159.7 727 1161.9C727 1164.6 727.4 1165.1 730 1165.7C733.8 1166.4 735.5 1169.2 734 1172C733.4 1173.1 732.5 1174 732 1174C730.1 1174 731.1 1175.8 735.5 1180.6C738 1183.3 740.3 1186.5 740.6 1187.8C741.2 1189.9 741.6 1190 745.9 1189.4C748.4 1189.1 750.7 1188.8 751 1188.8C754 1188.8 755.5 1189.6 758.6 1193C760.8 1195.3 763.2 1197 764.5 1197C766.8 1197 770 1199.8 770 1201.8C770 1202.4 771.5 1204.5 773.4 1206.4C776.2 1209.4 777.4 1210 780.9 1210C788.8 1210 796 1204.8 797.5 1198.1C798.6 1193.1 800.2 1192.5 807.3 1194.4C816 1196.8 828.7 1203.1 834.6 1208C840.8 1213.2 842.9 1213.6 850.2 1211.6C858.2 1209.4 864.8 1205.9 870.5 1201C873 1198.8 876.2 1196.7 877.6 1196.4C881.2 1195.5 887.9 1196.6 889.9 1198.4C892.3 1200.6 893.8 1200.4 897.6 1197.5C902.1 1194.1 905.2 1193 907.3 1194.1C909.8 1195.5 909.3 1198.9 906 1203.9C902.7 1208.8 902.3 1211.6 904.4 1214.6C905.8 1216.5 905.9 1216.4 908.5 1214C912.3 1210.5 914 1206.8 914 1202.2C914 1199.8 914.8 1197.3 915.9 1195.9L917.8 1193.5L922.9 1195.4C928.5 1197.4 931.8 1197.2 942 1194.5C948.4 1192.9 948.8 1192.9 957.4 1194.9C969 1197.7 970.3 1197.6 982.4 1193.5C993 1190 999.3 1188.7 1013.8 1187.1C1019.2 1186.5 1022.8 1185.6 1024 1184.5C1025.8 1182.9 1026 1182.9 1028.8 1184.6C1031.5 1186.1 1032.2 1186.2 1035.2 1184.9C1037.7 1183.9 1042.7 1183.6 1055.3 1183.8C1069.6 1184 1072.1 1183.8 1072.6 1182.5C1073.5 1180.1 1071.1 1175.2 1067.7 1172.5C1064.8 1170.3 1064.7 1170 1065.9 1167.6C1067.9 1164 1066.8 1150.3 1063.8 1141C1061.1 1132.6 1061.2 1131 1064.3 1131C1067.7 1131 1069 1129.6 1069.7 1125.7C1070.4 1121 1068.8 1119 1064.1 1119C1058.6 1119 1056 1117.1 1053.6 1111.2C1051.7 1106.7 1051.5 1105.2 1052.3 1102C1053.3 1098.4 1053.2 1097.9 1049.2 1092.6C1046.9 1089.6 1043.4 1085.9 1041.3 1084.3C1038 1081.7 1037 1081.5 1029.9 1081.7C1020.6 1081.9 1012.8 1084 1006.3 1088C999.8 1092 986 1095.5 980.6 1094.4C976.5 1093.7 974.1 1093.7 951.5 1094.2C939.8 1094.5 939.2 1094.4 928.8 1090.7C923 1088.7 917.2 1087 916 1087C912.5 1087 908.5 1084.3 905.7 1080.1C902.9 1076 901.6 1075.2 900.5 1077C899.5 1078.5 893.7 1078.2 891.2 1076.4C889.9 1075.5 887.8 1073.1 886.4 1070.9C883.9 1066.9 883.3 1066.6 879 1068Z" fill="#1AAB9B"/>
<path d="M30.7997 1068.7C28.1997 1069.4 27.8997 1071.8 29.5997 1078.3C33.0997 1091.5 28.9997 1118.1 20.8997 1134.6C15.8997 1144.9 15.8997 1148.2 20.9997 1149C24.9997 1149.7 29.5997 1152.5 30.9997 1155C31.5997 1156.1 31.5997 1158.9 31.0997 1162.2C30.5997 1165.1 29.8997 1170.9 29.5997 1175C28.7997 1185.3 29.7997 1187.1 37.4997 1188.7C46.1997 1190.5 46.7997 1190.4 50.5997 1186.6C53.3997 1183.8 53.8997 1182.6 53.3997 1180.5C52.8997 1178.7 53.7997 1175.9 56.3997 1170.5L60.0997 1163L57.9997 1159L55.8997 1154.9L58.9997 1149.6C62.4997 1143.4 62.3997 1142.6 56.2997 1132.7C52.5997 1126.7 52.7997 1125.1 56.9997 1125C57.8997 1125 59.5997 1124.3 60.8997 1123.4C62.7997 1122 63.0997 1121.1 62.6997 1117.9C62.3997 1115.3 62.7997 1113 64.0997 1110.5C65.2997 1108.2 65.9997 1105 65.9997 1101.3C65.9997 1097.4 66.6997 1094.3 67.9997 1092C73.6997 1081.6 74.2997 1079.9 73.0997 1075.9C72.4997 1073.8 70.9997 1071.4 69.6997 1070.5C66.4997 1068.3 60.6997 1068.6 58.3997 1071.1C56.6997 1073 55.5997 1073.1 48.5997 1072.8C41.7997 1072.5 40.4997 1072.2 39.1997 1070.2C37.7997 1068.1 34.9997 1067.6 30.7997 1068.7Z" fill="#1AAB9B"/>
<path d="M666.5 1082.6C664.3 1083.4 659.6 1084.4 656.1 1084.7C651.5 1085.1 649.1 1085.9 647.4 1087.5C645.8 1089 643 1090 639.2 1090.5C632.9 1091.3 629.4 1092.8 626.6 1095.9C625.2 1097.4 623.5 1098 620.3 1098C615 1098 611.9 1099.5 612.6 1101.5C613 1102.3 611.7 1104.8 609.6 1107.2C607.6 1109.5 606 1112.4 606 1113.7C606 1115.2 605 1116.5 603 1117.5C600.4 1118.9 600 1119.6 600 1123.3C600.1 1131.8 607.2 1141.9 613.3 1142.1L616.5 1142.2L612.5 1143.4C607.8 1144.9 607 1147 609.5 1151.7C611.8 1156 615.2 1156.9 628 1156.8C636.5 1156.7 639.8 1157.1 645 1158.9C653.4 1161.8 663.7 1167.6 667.3 1171.3C670.6 1174.8 671.5 1174.3 670.6 1169.5C669.6 1164.1 663 1157.7 652.1 1151.2C642.7 1145.7 642.6 1145.6 645.5 1144.7C649.4 1143.4 649.3 1143.7 647.3 1140.2C645.8 1137.6 645.8 1137 647 1135.5C648 1134.3 649.2 1134 651.8 1134.5C654.7 1135 655.1 1134.9 654.8 1133.4C654.6 1132.4 653.1 1131.3 651.3 1130.8C648.2 1130 647.9 1129.5 646.5 1123.6C646.2 1122 645 1119.5 643.9 1118.2C641.4 1115 641.5 1113.6 644.5 1107.2C646.8 1102.2 649 1101 649 1104.8C649 1108.2 651.9 1111 655.5 1111C661.8 1111 663.7 1109.7 664.2 1104.5C664.6 1101.6 665.5 1099.4 666.6 1098.5C668.4 1097.2 688.1 1093 692.5 1093C693.6 1093 698.4 1094 703.2 1095.2C710.4 1097 712.1 1097.2 713.4 1096.1C715.5 1094.3 715.4 1091.7 713.2 1089C711.6 1087 710 1086.6 700.9 1085.9C694.9 1085.5 688 1084.3 684.6 1083.1C677.8 1080.7 672.1 1080.5 666.5 1082.6Z" fill="#1AAB9B"/>
<path d="M372.5 1094.8C363.5 1099.1 363.3 1099.6 365.9 1108.9C368.4 1118.3 368.5 1122.6 366.3 1129.6C364.3 1136.1 365.2 1138.7 370.5 1141.5L374.2 1143.5L376.5 1140.6C377.7 1139 379.8 1137.7 381.1 1137.6C383.1 1137.5 383.9 1136.4 385.9 1130.5C389.4 1120.2 389.4 1108.4 385.9 1101C383.5 1095.7 380.7 1092 379.2 1092C378.8 1092 375.8 1093.3 372.5 1094.8Z" fill="#1AAB9B"/>
<path d="M622.5 1163.8C620.3 1165.4 617.7 1167.6 616.6 1168.8C614.8 1170.9 614.9 1171 620.5 1176.5C625.2 1181 626.1 1182.4 625.5 1184.3C623.9 1189.4 623.9 1191.6 625.4 1192.9C626.5 1193.9 627.4 1193.9 629.1 1192.9C631.1 1191.9 631.6 1192.1 633.4 1194.2C634.6 1195.6 636.3 1198.3 637.4 1200.1C639.1 1203.2 639.3 1203.3 640.4 1201.7C643.6 1196.4 643.7 1196.4 645.7 1198.3C648.9 1201.1 650 1200.4 650 1195.5C650 1192.6 649.1 1189.1 647.5 1186C646.1 1183.3 645 1180.3 645 1179.4C645 1177.6 645.4 1177.7 653.1 1180.6C657.9 1182.5 661 1182 661 1179.5C661 1178.5 660 1178 658.2 1178C656.3 1178 654.3 1176.9 651.9 1174.4C647.1 1169.4 634.7 1161.9 630.3 1161.3C627.2 1160.9 625.7 1161.4 622.5 1163.8Z" fill="#1AAB9B"/>
<path d="M456 1166.5C455.1 1167.6 453.7 1168 451.9 1167.6C450.4 1167.3 448.4 1167.7 447.4 1168.5C445.6 1169.8 445.7 1170.1 449 1173.4C454.1 1178.5 467.4 1185.8 474.2 1187.1C479.1 1188.1 480.8 1189 484.9 1193.1C490.3 1198.5 492.9 1199.1 496.1 1195.9C497.7 1194.3 498.1 1193 497.6 1190.2C495.7 1178.1 495.7 1178.6 498.9 1172.1C501.4 1167.2 501.8 1165.8 500.6 1165.4C499.8 1165.1 493.2 1165.6 485.8 1166.5C475.2 1167.8 471.5 1167.9 468 1167C459.6 1164.8 457.5 1164.7 456 1166.5Z" fill="#1AAB9B"/>
<path d="M665 1229.5C665 1230.6 669.6 1232.2 675.2 1233.1C678.6 1233.7 682.4 1234.9 683.7 1236C686.7 1238.4 693.5 1239.4 698 1238.3C702.6 1237.1 702.9 1235.3 698.8 1233.6C693.1 1231.2 665 1227.8 665 1229.5Z" fill="#1AAB9B"/>
</svg>
