<svg width="1279" height="761" viewBox="0 0 1279 761" fill="none" xmlns="http://www.w3.org/2000/svg">
<path d="M1178 1.00013C1169 1.40013 1162.6 2.10013 1161.1 2.90013C1159.2 4.00013 1157.7 4.00013 1153.6 3.10013C1149.8 2.20013 1145.8 2.20013 1137.5 3.00013C1131.5 3.60013 1121.9 4.10013 1116.3 4.10013C1107.1 4.10013 1105.8 4.30013 1102.4 6.70013C1098.8 9.10013 1098.5 9.10013 1095.9 7.60013C1091.7 5.10013 1088.4 5.60013 1086 9.00013C1083.4 12.6001 1082.4 12.7001 1076.4 9.50013C1070.3 6.30013 1068.9 6.40013 1066.5 10.3001C1064 14.3001 1061.6 14.8001 1057.9 12.1001C1055.6 10.4001 1054.7 10.2001 1053.2 11.1001C1051.7 12.1001 1050.8 11.9001 1048.4 10.1001C1045.6 8.10013 1045 8.00013 1031.5 8.90013C1019 9.80013 1016.5 10.3001 1008 13.6001C999.101 17.0001 997.701 17.3001 986.501 17.5001C973.501 17.7001 962.401 19.5001 961.601 21.5001C961.401 22.2001 961.801 24.0001 962.601 25.5001C963.401 27.0001 964.001 28.3001 964.001 28.5001C964.001 29.3001 954.501 31.0001 950.401 31.0001C944.101 31.0001 914.701 35.0001 913.701 36.0001C913.201 36.4001 913.101 37.7001 913.501 38.8001C914.101 40.8001 914.801 40.9001 929.401 40.8001C937.701 40.7001 945.201 41.0001 946.001 41.5001C946.901 42.1001 944.301 43.1001 938.201 44.6001C929.801 46.7001 928.601 46.8001 924.901 45.5001C919.601 43.6001 914.801 44.5001 915.201 47.4001C915.501 49.2001 916.101 49.5001 919.701 49.2001C924.001 48.8001 924.001 48.8001 923.401 51.8001C922.801 54.6001 923.001 54.7001 927.001 55.4001C930.101 55.9001 931.901 55.6001 933.601 54.5001C936.801 52.5001 941.601 52.6001 943.001 54.7001C943.901 56.3001 944.201 56.2001 946.501 53.5001C948.801 50.8001 949.201 50.7001 950.101 52.2001C951.401 54.6001 954.101 54.5001 957.301 52.0001C960.401 49.6001 962.201 49.4001 961.801 51.6001C961.501 53.0001 962.601 53.3001 968.101 53.4001C972.701 53.5001 975.401 54.0001 976.601 55.1001C977.701 56.0001 979.801 57.0001 981.301 57.4001C983.501 57.9001 984.001 58.6001 983.801 60.3001C983.601 62.0001 984.101 62.6001 986.101 62.8001C988.301 63.1001 988.801 63.8001 989.901 68.8001C991.401 75.5001 990.201 81.9001 986.401 88.6001C982.901 94.5001 983.201 96.3001 987.301 95.5001C989.001 95.2001 991.701 94.4001 993.101 93.9001C995.201 93.1001 996.501 93.4001 1000.3 95.7001C1005.6 98.9001 1006.4 100.1 1004.5 102.6C1003.3 104.3 1003 104.3 999.401 102.7C994.301 100.5 986.501 100 986.501 101.9C986.501 102.7 988.401 103.8 991.001 104.4C1002.6 107.4 1006.4 111.3 1003.5 116.9C1001.9 120.1 1001.9 120.1 996.101 119.4C990.601 118.8 990.201 118.9 987.101 121.9C985.401 123.6 983.501 125 983.001 125C982.601 125 980.801 126.2 979.101 127.6C975.301 130.7 974.701 135.9 978.001 136.7C980.201 137.3 980.701 139 978.701 139C976.901 139 974.001 142.3 974.001 144.3C974.001 145.2 975.201 147 976.701 148.4C979.401 150.9 979.401 151 978.301 157.6C976.901 165.4 978.101 169.7 982.401 172.5C984.501 173.9 984.701 174.5 983.701 176C982.801 177.6 982.901 178.4 984.601 180.7C985.801 182.2 987.201 185.2 987.901 187.3C988.601 189.3 990.001 191.5 991.001 192C993.801 193.5 1002.6 193.2 1003.9 191.6C1004.9 190.4 1005.7 190.5 1009 192.4C1012 194 1013.1 195.3 1013.6 197.7C1014.3 201.3 1015.1 201.8 1017 199.5C1018 198.3 1019.4 198.1 1022.4 198.5C1026.4 199.1 1026.6 199 1031.2 193.3C1033.8 190.1 1037 186.5 1038.1 185.3C1039.8 183.6 1040.2 182.4 1039.7 179.6C1039.1 176 1041.1 172.7 1042.5 175C1043.6 176.7 1044.9 176.1 1046.5 173C1047.4 171.3 1048.8 170 1049.8 170C1052.5 170 1056 167.1 1056 164.9C1056 163.7 1055.3 163 1054 163C1050.9 163 1051.6 161 1054.9 160.4C1057.6 159.8 1057.8 159.5 1057.3 156.4C1056.7 153 1056.7 153 1060.8 153C1063.2 153 1065 152.5 1065.3 151.6C1065.6 150.8 1068.3 150 1072.1 149.6C1079.7 148.7 1081.8 147.7 1082.2 144.8C1082.4 143.5 1083.3 142.4 1084.3 142.2C1085.8 141.9 1086.1 142.2 1085.5 144C1084.9 146 1085.1 146.1 1090.2 145.8C1094.1 145.6 1095.5 145.1 1095.5 144C1095.5 142.9 1096.7 142.5 1099.8 142.3C1104.9 142.1 1107 140.9 1114.2 133.6C1117.8 130 1120.7 128 1122.6 127.8C1125.1 127.6 1125.5 127 1125.8 124.2C1126.2 120.3 1126.6 120.3 1130.1 123.6C1132.8 126.2 1132.8 126.2 1138.1 124.6C1141.1 123.8 1147.4 122.7 1152.2 122.1C1157.8 121.5 1162.6 120.2 1165.7 118.7C1170 116.5 1177.6 113.4 1191.3 108.5C1196.2 106.8 1197.1 105.6 1194.4 104.6C1191.5 103.5 1169.6 105.2 1167.2 106.7C1165.9 107.5 1164.1 107.9 1163.3 107.6C1160.8 106.6 1164.6 103.2 1168.9 102.5C1175.4 101.4 1177 100.3 1177 97.0001C1177 94.0001 1177.2 93.9001 1180.7 94.2001C1183.6 94.4001 1184.7 95.1001 1186 97.5001C1187.4 100 1188.3 100.5 1191.6 100.6C1193.7 100.6 1196.3 101 1197.2 101.4C1200.8 103 1202.5 101.7 1202.4 97.5001C1202.3 94.0001 1202 93.5001 1200.1 93.8001C1198.6 94.0001 1198 93.6001 1198 92.1001C1198 89.8001 1196.2 88.4001 1193.7 88.8001C1192.7 89.0001 1190.8 88.5001 1189.6 87.6001C1187.2 86.1001 1183.4 79.3001 1184.4 78.3001C1184.9 77.7001 1188.8 78.8001 1198.9 82.5001C1201.6 83.5001 1203.7 83.7001 1204.2 83.2001C1204.8 82.6001 1204.8 82.0001 1204.1 81.6001C1200.6 79.4001 1206.8 74.1001 1213 73.9001C1214.9 73.9001 1218.5 73.1001 1221 72.0001C1224.9 70.4001 1225.5 69.9001 1225.2 67.5001L1224.9 64.8001L1230.3 65.5001C1234.5 66.0001 1235.9 65.8001 1236.9 64.6001C1238.5 62.6001 1237.5 61.0001 1234.6 61.0001C1233.3 61.0001 1231.7 60.3001 1231 59.4001C1229.9 58.1001 1230 57.8001 1231.7 57.4001C1233.3 57.0001 1233.7 56.1001 1233.6 53.2001C1233.5 50.1001 1233.9 49.5001 1235.8 49.2001C1237.3 49.0001 1238 48.3001 1237.8 47.2001C1237.6 45.9001 1236.2 45.4001 1232.7 45.2001C1230.1 45.0001 1228 44.5001 1228 43.9001C1228 43.4001 1228.4 43.0001 1228.9 43.0001C1229.5 43.0001 1232 41.2001 1234.5 39.0001C1237 36.8001 1239.8 35.0001 1240.6 35.0001C1242.6 35.0001 1242.3 33.0001 1239.9 30.4001C1237.4 27.7001 1238.3 25.6001 1241.6 26.3001C1242.9 26.5001 1244.5 26.1001 1245.1 25.4001C1245.7 24.6001 1247.3 24.0001 1248.6 24.0001C1249.8 24.0001 1251.6 23.3001 1252.4 22.4001C1253.5 21.3001 1254.9 21.0001 1256.9 21.5001C1259 21.9001 1260.4 21.5001 1262.6 19.7001C1264.6 18.0001 1267.4 17.1001 1271.5 16.6001C1278.1 15.9001 1280.7 14.4001 1276.9 13.6001C1264.4 11.0001 1257.6 10.7001 1252.4 12.4001C1249.7 13.2001 1244.5 14.1001 1240.9 14.3001C1236.3 14.5001 1233.7 15.2001 1232.5 16.3001C1231.6 17.2001 1230.1 18.0001 1229.1 18.0001C1228.2 18.0001 1225 18.9001 1222 19.9001C1219 21.0001 1216.2 21.6001 1215.8 21.4001C1214.2 20.4001 1215.1 19.2001 1218.8 17.5001C1222.2 15.8001 1223.9 14.3001 1224 13.0001C1224 12.7001 1219.7 12.6001 1214.5 12.8001C1205.2 13.2001 1203.3 12.6001 1206.3 10.2001C1207 9.60013 1212.1 8.90013 1217.5 8.80013C1223.9 8.60013 1227.5 8.10013 1227.7 7.30013C1228 6.60013 1226.4 5.90013 1223.3 5.50013C1213.1 4.20013 1205.3 2.80013 1201.1 1.40013C1198.6 0.600131 1195.7 0.100131 1194.6 0.200131C1193.4 0.300131 1186 0.600131 1178 1.00013Z" fill="#1AAB9B"/>
<path d="M929.7 3.69988C929.2 4.09988 919.9 4.49988 908.9 4.59988L888.9 4.79988L886.5 7.39988C884 10.0999 880.6 10.7999 879.5 8.99988C878.7 7.69988 869.9 8.59988 864.9 10.4999C862.5 11.3999 855.6 11.9999 845.1 12.1999C836.3 12.2999 829 12.6999 829 13.0999C829 13.4999 830.4 15.0999 832 16.6999L835 19.5999L852.6 19.7999C862.3 19.9999 870.7 20.2999 871.2 20.5999C871.7 20.8999 871.6 21.7999 870.9 22.5999C869.5 24.2999 853.9 24.5999 850.8 22.8999C849.2 21.9999 848.3 22.2999 846.1 24.2999C844.7 25.5999 842.2 27.0999 840.5 27.3999C837.6 28.0999 837.6 28.0999 839.4 26.0999C841.3 23.9999 841 20.9999 838.8 20.9999C838.2 20.9999 836.6 21.9999 835.3 23.1999L832.9 25.3999L832.3 23.1999C831.9 21.4999 831 20.9999 828.4 20.9999C825.7 20.9999 824.8 20.4999 824 18.5999C823.5 17.0999 821.8 15.6999 819.7 15.0999C816.7 14.0999 815.1 14.2999 807.7 16.8999C803 18.4999 798.3 20.2999 797.2 20.8999C796.1 21.4999 793.6 21.9999 791.7 21.9999C787 21.9999 783.1 25.1999 784.6 27.6999C786.1 30.0999 796 31.3999 801.7 29.9999C804 29.4999 806.7 28.9999 807.7 28.9999C809.3 28.9999 809.3 29.0999 807.8 30.5999C806.6 31.7999 804.1 32.2999 798.1 32.3999C791.1 32.4999 790 32.6999 790 34.1999C790 36.9999 794 38.6999 802.1 39.3999C808.9 39.9999 809.8 39.7999 811.5 37.9999C812.5 36.8999 814.3 35.9999 815.4 35.9999C816.6 35.9999 820.8 35.0999 824.8 33.9999C828.7 32.8999 833.9 31.9999 836.3 31.9999C842.4 31.9999 846.9 30.1999 847.6 27.5999C848.1 25.5999 848.5 25.7999 853.1 30.1999C855.8 32.8999 858 35.0999 858 35.2999C858 35.3999 851.5 35.3999 843.5 35.1999L829.1 34.7999L826.7 37.3999C825.2 38.9999 823.2 39.9999 821.4 39.9999C817.9 39.9999 816.5 40.8999 815.6 43.4999C815.2 45.0999 814.1 45.5999 811.3 45.6999C806 45.9999 796.6 49.4999 796.2 51.3999C795.7 53.8999 798.7 54.3999 807 53.0999C812.7 52.0999 815.3 52.0999 816.8 52.8999C818.3 53.6999 819.7 53.5999 822.6 52.3999C825.7 51.0999 827.1 50.9999 830.2 51.8999C833.2 52.7999 835 52.7999 838.8 51.5999C844.1 50.0999 847.5 50.8999 845.2 53.1999C844.6 53.7999 844 54.9999 844 55.7999C844 57.2999 844.4 57.2999 854 54.4999C857 53.5999 862 52.5999 865 52.1999C869.9 51.5999 870.5 51.1999 870.8 48.9999C871.3 45.7999 872.8 43.9999 875 43.9999C875.9 43.9999 877.5 43.0999 878.6 41.8999C879.8 40.5999 881.3 39.9999 882.8 40.2999C884.2 40.5999 886.7 40.3999 888.4 39.9999C890.1 39.4999 892.7 38.8999 894.3 38.5999C896.1 38.1999 897 37.2999 897 35.9999C897 34.8999 898.1 33.2999 899.4 32.4999C900.7 31.5999 903 29.0999 904.4 26.9999C907.6 22.1999 910.7 21.7999 917.8 25.3999C921.6 27.2999 923.5 27.6999 928 27.2999C931.2 26.9999 934.3 25.9999 935.5 24.9999C936.9 23.7999 939.8 23.0999 944.5 22.7999C948.9 22.4999 953.1 21.4999 955.7 20.0999C958 18.9999 961.3 17.9999 962.9 17.9999C967.2 17.9999 969 17.0999 969 14.8999C969 12.9999 969.8 12.8999 984.1 13.0999C993.5 13.1999 999.6 12.7999 1000.2 12.1999C1002.2 10.1999 1000.2 8.09988 995.8 7.59988C993.4 7.29988 987.7 6.59988 983 5.89988C978.3 5.29988 965.5 4.59988 954.5 4.49988C943.5 4.39988 933.6 3.99988 932.5 3.59988C931.4 3.19988 930.1 3.19988 929.7 3.69988Z" fill="#1AAB9B"/>
<path d="M722.3 32.6C720.5 34.6 719 36.7 719 37.1C719 38.7 723.5 39.1 729.5 38.2C736.3 37.1 738.7 37.9 739.6 41.5C739.9 42.9 740.3 44 740.5 44C741.3 44 750.1 38.7 750.6 37.9C750.9 37.3 750.5 35.9 749.8 34.8C748.2 32.4 740.3 30.1 731 29.4C725.7 28.9 725.4 29 722.3 32.6Z" fill="#1AAB9B"/>
<path d="M680.8 33.3999C679.8 34.0999 679 35.2999 679 36.0999C679 37.1999 680.7 37.4999 686.8 37.3999C697.5 37.1999 697.2 37.2999 696.8 34.6999C696.5 32.6999 695.9 32.4999 689.5 32.2999C684.8 32.0999 681.9 32.4999 680.8 33.3999Z" fill="#1AAB9B"/>
<path d="M761.001 35.4999C758.701 38.1999 761.601 39.7999 769.301 40.0999C781.201 40.4999 781.001 35.6999 769.001 34.4999C763.501 33.8999 762.201 34.0999 761.001 35.4999Z" fill="#1AAB9B"/>
<path d="M659.8 38.7C658.8 38.9 658 40 658 41.1C658 42.5 658.7 43 660.5 43C663.5 43 669 40.4 669 39C669 38 663.1 37.8 659.8 38.7Z" fill="#1AAB9B"/>
<path d="M682 38.9997C681.2 39.4997 678.2 39.9997 675.5 39.9997C670.4 39.9997 666 41.9997 666 44.3997C666 46.0997 677.7 45.2997 680.7 43.3997C681.9 42.5997 684.1 41.9997 685.5 41.9997C688.3 41.9997 689 39.5997 686.4 38.5997C684.3 37.7997 683.8 37.8997 682 38.9997Z" fill="#1AAB9B"/>
<path d="M704.4 42.4998C703.1 44.3998 703 45.2998 703.9 46.3998C706.3 49.2998 709.9 46.1998 710 41.1998C710 38.9998 706.1 39.8998 704.4 42.4998Z" fill="#1AAB9B"/>
<path d="M635 42.8999C633.6 43.3999 629.6 44.2999 626.1 44.8999C620.7 45.9999 619.6 45.8999 618.1 44.5999C615.8 42.4999 614.4 42.5999 612.8 44.7999C611.7 46.2999 593.9 51.9999 586.5 53.1999C585.3 53.3999 584.5 54.2999 584.5 55.3999C584.5 56.9999 585.5 57.2999 591.9 57.5999C597.3 57.8999 599.9 57.5999 601.6 56.4999C602.9 55.6999 605.1 54.9999 606.6 54.9999C608.1 54.9999 611 54.4999 613.1 53.8999C616.1 52.9999 617.3 52.9999 618.4 53.8999C619.7 54.9999 620.5 54.7999 622.9 53.0999C624.5 51.8999 627.1 50.9999 628.7 50.9999C630.2 50.9999 632.9 50.0999 634.5 48.9999C636.2 47.8999 638.5 46.9999 639.7 46.9999C642.7 46.9999 643.7 44.9999 641.5 43.2999C639.4 41.7999 638.6 41.7999 635 42.8999Z" fill="#1AAB9B"/>
<path d="M765 43.4C765 45.3 767.3 45.9 774.3 45.8C779.1 45.8 780 45.5 779.8 44.1C779.4 41.8 765 41.1 765 43.4Z" fill="#1AAB9B"/>
<path d="M793.2 43.0999C788.9 44.3999 789.6 46.5999 794.1 46.2999C799.7 45.7999 802 44.9999 802 43.4999C802 41.7999 798.4 41.5999 793.2 43.0999Z" fill="#1AAB9B"/>
<path d="M752.8 48.6997C749.7 49.4997 750.9 51.8997 754.9 52.9997C757.1 53.5997 761.3 53.7997 764.2 53.3997C768.6 52.8997 769.8 53.0997 771 54.4997C772.5 56.2997 772.6 56.2997 765.9 61.0997C762.8 63.2997 764 65.9997 768.1 65.9997C769.9 65.9997 772.2 66.7997 773.2 67.6997C774.9 69.1997 775.3 69.1997 778.6 67.6997C783.4 65.3997 785.3 65.4997 784.5 67.9997C783.7 70.4997 785.5 70.5997 793.5 68.1997C801.6 65.7997 817.5 65.8997 821.3 68.4997C824.8 70.7997 837.4 70.1997 841.1 67.6997C842.4 66.6997 844.2 65.9997 845.2 65.9997C846.4 65.9997 847 65.1997 847 63.6997C847 57.5997 837.7 55.0997 823.7 57.4997C818.9 58.2997 813.7 58.9997 812.1 58.9997C810.4 58.9997 808.8 59.3997 808.5 59.9997C807.6 61.4997 801.6 61.1997 799.4 59.4997C796.9 57.5997 794 57.5997 791.3 59.4997C789.4 60.8997 789.2 60.7997 788.8 58.4997C788.5 57.1997 788.9 55.4997 789.7 54.6997C790.9 53.4997 790.5 53.0997 787.1 51.4997C784.8 50.4997 781.9 49.9997 780.4 50.2997C778.9 50.5997 775.6 50.1997 773.1 49.3997C768.8 48.0997 756.6 47.6997 752.8 48.6997Z" fill="#1AAB9B"/>
<path d="M664.801 50.5999C661.601 52.2999 661.601 52.3999 663.201 54.8999C664.901 57.5999 663.501 59.9999 660.301 59.9999C655.501 59.8999 647.801 57.3999 646.401 55.4999C644.501 52.8999 630.001 52.0999 626.501 54.3999C625.201 55.2999 623.201 55.9999 622.201 55.9999C621.201 55.9999 619.301 56.7999 618.201 57.8999C617.001 58.8999 615.001 59.4999 613.801 59.2999C611.001 58.7999 604.701 62.5999 605.301 64.2999C605.501 64.9999 606.401 65.2999 607.101 65.0999C607.901 64.7999 609.801 64.5999 611.301 64.5999C612.801 64.4999 614.401 63.9999 614.801 63.3999C615.201 62.7999 618.801 62.2999 622.801 62.1999C628.401 62.0999 630.001 62.3999 630.001 63.4999C630.001 65.1999 626.701 66.1999 623.001 65.7999C621.401 65.5999 620.501 66.0999 620.201 67.1999C619.701 69.5999 624.401 70.5999 629.701 69.1999C632.101 68.4999 635.301 67.9999 636.801 67.9999C638.301 67.9999 642.701 67.0999 646.501 65.9999C651.401 64.5999 656.501 63.9999 663.301 63.9999C679.601 63.9999 690.401 59.7999 685.801 55.1999C684.101 53.4999 682.301 53.6999 679.001 56.1999C675.101 59.0999 673.001 57.4999 675.501 53.6999C676.401 52.1999 676.901 50.5999 676.501 49.9999C675.601 48.4999 667.901 48.7999 664.801 50.5999Z" fill="#1AAB9B"/>
<path d="M721.101 51.0997C716.001 53.0997 712.201 58.7997 714.901 60.3997C715.401 60.6997 715.601 61.7997 715.401 62.7997C715.001 64.1997 715.701 64.4997 720.401 64.7997C724.801 64.9997 727.001 64.4997 731.801 61.9997C738.501 58.5997 743.001 54.7997 743.001 52.4997C743.001 50.1997 740.501 49.5997 737.701 51.3997C735.501 52.8997 735.101 52.8997 734.001 51.4997C732.601 49.7997 725.001 49.4997 721.101 51.0997Z" fill="#1AAB9B"/>
<path d="M699 52.4999C699 53.3999 699.7 54.2999 700.5 54.5999C701.3 54.9999 702 56.0999 702 57.0999C702 59.5999 704.2 60.4999 706.9 59.0999C708.9 57.9999 709.2 54.7999 707.6 52.1999C706.5 50.3999 699 50.5999 699 52.4999Z" fill="#1AAB9B"/>
<path d="M687.2 61.1999C684.8 63.5999 685.8 65.2999 689.2 64.5999C692.5 63.9999 695 62.2999 695 60.8999C695 59.5999 688.6 59.7999 687.2 61.1999Z" fill="#1AAB9B"/>
<path d="M740.8 62.1C738.4 63.5 738.5 65.7 741.1 67.1C744 68.6 752.1 67.6 753.5 65.6C754.2 64.7 755.5 64 756.5 64C757.9 64 758 63.7 757 62.5C755.5 60.7 743.6 60.4 740.8 62.1Z" fill="#1AAB9B"/>
<path d="M551.101 69.8997C550.001 70.9997 549.001 72.8997 549.001 73.8997C549.001 75.2997 547.901 76.1997 545.301 76.9997C543.201 77.6997 538.001 80.1997 533.801 82.5997C529.501 85.0997 524.601 87.2997 523.001 87.6997C519.001 88.3997 518.501 89.5997 521.001 91.6997C522.101 92.6997 523.001 94.1997 523.001 95.0997C523.001 98.7997 525.701 99.3997 531.901 97.0997C535.101 95.9997 539.701 94.9997 542.201 94.9997C545.501 94.9997 547.201 94.3997 548.601 92.8997C551.201 89.9997 555.601 87.8997 557.401 88.5997C558.301 88.8997 561.101 87.8997 563.701 86.1997C566.401 84.5997 570.501 82.8997 573.001 82.4997C575.501 82.1997 579.501 81.2997 582.001 80.4997C584.501 79.7997 589.001 78.8997 592.001 78.4997C601.201 77.4997 602.401 75.1997 595.601 71.4997C592.501 69.7997 591.501 69.6997 587.501 70.7997C581.501 72.3997 578.901 72.2997 576.201 70.3997C574.701 69.3997 570.601 68.6997 563.601 68.2997C554.001 67.7997 553.101 67.8997 551.101 69.8997Z" fill="#1AAB9B"/>
<path d="M744 73.0001C740.9 73.4001 737.5 74.2001 736.3 74.8001C735.1 75.5001 733 76.0001 731.6 76.0001C730 76.0001 729 76.6001 729 77.4001C729 78.2001 727.9 79.1001 726.5 79.4001C723.2 80.2001 720.9 87.3001 723.1 89.5001C725.1 91.5001 730.8 89.9001 733.5 86.6001C735.9 83.7001 737.2 83.4001 742.4 84.5001C745.9 85.2001 747.3 84.8001 753.9 81.5001C758.1 79.4001 762.6 77.2001 764 76.6001C765.4 75.9001 766.5 74.8001 766.5 74.0001C766.5 72.8001 764.8 72.5001 758 72.4001C753.3 72.4001 747 72.6001 744 73.0001Z" fill="#1AAB9B"/>
<path d="M789.001 74C787.601 74.4 781.301 76.5 775.001 78.5C764.401 81.8 763.101 82.5 757.701 87.6C751.901 93.3 751.301 95 755.401 95C758.201 95 764.101 96.9 765.501 98.3C766.201 98.9 763.901 99 759.001 98.6C753.201 98.1 751.001 98.3 749.501 99.4C747.601 100.8 747.601 100.9 750.001 102.9C751.901 104.4 753.901 104.9 758.601 105C761.901 105 765.001 105.4 765.601 105.9C766.101 106.4 769.901 107 774.001 107.3C778.101 107.5 784.901 108.3 789.001 109.1C793.101 109.9 799.401 110.4 803.001 110.4C810.401 110.2 817.201 107.8 816.401 105.6C816.101 104.8 816.401 103.9 817.001 103.5C817.701 103.1 819.901 104.7 822.401 107.6C824.701 110.2 828.201 112.9 830.101 113.6L833.501 114.8L830.401 114.9C826.601 115 822.401 118.1 823.201 120.1C823.901 122 831.901 121.4 832.701 119.4C833.301 117.8 835.701 117.5 836.201 119C836.401 119.5 838.501 121 841.001 122.3C845.401 124.6 845.501 124.8 845.501 129.6C845.501 133.5 845.201 134.5 843.801 134.5C842.901 134.5 841.301 135.3 840.301 136.3C839.201 137.2 837.201 138 835.801 138C834.401 138 833.001 138.6 832.701 139.4C832.401 140.2 830.501 141.4 828.601 142.1C825.001 143.4 824.001 145.6 826.101 147.7C827.701 149.3 826.301 149.8 818.001 151C812.201 151.8 810.001 151.7 806.401 150.5C800.601 148.6 799.701 148.6 797.601 150.9C796.601 152 794.401 153 792.601 153.2C789.901 153.5 789.401 153.9 789.001 157C787.901 163.6 789.401 164.2 799.701 161.4C802.901 160.6 809.701 159.8 814.701 159.7C822.801 159.5 823.901 159.7 823.501 161.1C822.901 163 824.801 164.9 828.601 165.9C832.101 166.8 832.801 168.7 829.801 169.2C828.401 169.4 827.401 170.3 827.201 171.6C827.001 173.3 827.501 173.7 830.201 173.7C836.101 173.9 839.901 175.1 840.501 177.1C841.201 179.1 842.501 179.5 850.001 180.4C852.401 180.6 854.901 181.6 855.601 182.4C857.001 184.3 861.001 184.5 863.401 182.7C865.101 181.4 865.101 181.2 863.601 178.2C862.701 176.4 861.501 175 861.001 175C859.301 175 851.001 168.6 851.001 167.3C851.001 165.8 853.601 165.5 854.501 167C854.801 167.5 856.401 168 857.901 168C860.001 168 861.501 168.9 863.401 171.4C865.201 173.8 866.501 174.7 867.901 174.3C869.201 174 870.201 174.5 871.001 176.1L872.301 178.4L873.701 175.7C874.401 174.2 875.501 173 876.001 173C876.601 173 877.001 172.1 877.001 171C877.001 169.7 877.701 169 879.001 169C881.701 169 882.601 166.5 881.001 163.5C880.301 162.2 880.001 160.4 880.401 159.4C881.201 157.3 879.301 155 876.801 155C874.401 155 869.001 149.5 869.001 147.1C869.101 144.9 873.501 140 875.601 140C879.201 140 884.901 144.3 886.901 148.6C888.701 152.3 889.301 152.8 892.901 153.2C897.701 153.6 899.001 153.3 899.001 151.5C899.001 149.2 901.801 147.6 904.201 148.7C906.001 149.5 907.001 149.1 909.701 146.4C911.501 144.6 913.001 142.6 913.001 142.1C913.001 141.6 914.201 141.2 915.601 141.3C918.901 141.5 921.001 138.8 919.401 136.2C918.601 135 916.201 134.2 911.201 133.6C904.901 132.8 904.001 132.4 904.001 130.6C904.001 126.8 902.301 125.5 897.301 125.4C894.701 125.3 890.301 124.5 887.701 123.5C879.501 120.5 880.401 116.7 888.901 117.6C891.501 117.9 894.101 117.7 894.801 117.2C896.601 116 895.201 113 892.601 112.9C890.501 112.9 890.501 112.9 892.801 112C895.501 110.9 895.601 108.5 893.101 104.4C891.501 101.8 890.401 101.2 886.001 100.7C881.901 100.2 880.001 99.3 876.801 96.4C872.801 92.8 872.201 92.7 866.301 94.5C864.501 95.1 863.701 94.5 861.601 91.1C858.201 85.8 855.101 83.9 850.401 84.2C848.201 84.3 844.601 84 842.301 83.6C838.501 82.9 838.001 83.1 836.501 85.4C834.701 88.1 831.201 88.8 829.301 86.9C828.501 86.1 827.001 86.4 824.001 88C821.201 89.5 819.901 89.7 820.201 88.8C820.401 88.1 822.301 86.7 824.301 85.7C826.301 84.7 828.001 83.5 828.001 83.2C828.001 82.8 827.101 81.1 826.101 79.4C823.501 75.1 818.101 74.3 810.201 76.9C807.001 78 803.301 78.6 802.001 78.3C800.501 77.9 799.501 78.2 798.801 79.3C798.401 80.2 796.401 81.2 794.601 81.5C792.301 82 790.101 83.6 787.601 86.5C783.701 91.2 783.101 93 785.401 93C787.501 93 788.401 94.9 787.001 96.5C786.101 97.6 785.301 97.6 783.401 96.8C779.601 95 779.401 91.7 782.701 86.3C785.201 82.3 786.401 81.4 790.601 80.2C798.201 78 800.001 77.2 800.001 75.6C800.001 74.9 798.601 74 796.901 73.6C793.101 72.9 792.201 72.9 789.001 74Z" fill="#1AAB9B"/>
<path d="M661.5 74.9001C660.5 75.8001 661.1 77.8001 662.8 80.0001C664.5 82.1001 664.8 82.1001 670.3 80.9001C674.5 79.9001 676 79.1001 676 77.8001C676 76.9001 675.4 75.8001 674.8 75.3001C673.4 74.5001 662.2 74.1001 661.5 74.9001Z" fill="#1AAB9B"/>
<path d="M706 75.0997C698 75.3997 691.2 75.7997 690.8 75.8997C688.9 76.1997 690.3 77.8997 693.1 78.8997C697.1 80.2997 696.4 82.1997 691.6 83.3997C688.6 84.1997 687.2 83.9997 684.5 82.5997C681.9 81.1997 680.8 80.9997 679.1 81.9997C676.2 83.4997 676.8 84.9997 681.5 87.6997C683.7 88.8997 685.9 91.1997 686.6 92.9997C687.9 95.8997 688.3 96.1997 691.2 95.5997C693 95.2997 697.3 94.6997 700.8 94.0997C710.7 92.6997 719 85.4997 713.4 83.2997C711.9 82.6997 711.9 82.4997 713.6 81.2997C714.6 80.5997 716.5 79.9997 717.9 79.9997C721.4 79.9997 723.3 78.5997 722.8 76.4997C722.4 74.1997 723.1 74.1997 706 75.0997Z" fill="#1AAB9B"/>
<path d="M828.3 76.1002C826.4 78.1002 826.7 79.8002 829.4 81.5002C831.5 82.9002 832.5 82.9002 836.2 81.9002C838.8 81.2002 843.2 81.0002 847.3 81.4002C853.4 82.0002 854 81.9002 854 80.1002C854 76.6002 851.3 75.7002 840.2 75.2002C832.3 74.9002 829.2 75.1002 828.3 76.1002Z" fill="#1AAB9B"/>
<path d="M643.3 82.1998C641.6 83.9998 640 86.7998 639.8 88.4998C639.4 92.0998 634.8 95.1998 632.9 93.2998C632 92.3998 632.1 91.4998 633.4 89.5998C635.6 86.0998 635.4 84.4998 632.5 83.1998C629.1 81.5998 627.5 81.6998 626 83.4998C625.2 84.3998 623.1 84.9998 620.5 84.9998C617.6 84.9998 616 84.4998 615.6 83.4998C614.8 81.3998 611.4 81.5998 606.3 84.0998C601.4 86.4998 599.8 85.9998 602.5 82.9998C605.1 80.0998 603.6 79.3998 598.2 80.8998C595.6 81.5998 588.8 83.2998 583 84.4998C577.2 85.7998 569.9 87.9998 566.8 89.4998C560.5 92.3998 559.1 94.9998 563.8 94.9998C566.4 94.9998 569 96.4998 569 98.0998C569 98.4998 566.3 98.9998 563 99.1998C556.4 99.6998 555.5 100.2 556.4 102.5C557 104.2 557.5 104.2 581.6 102.4C587.4 102 589.1 102.3 590.4 103.6C593.2 106.3 591.7 107.5 585.9 107.4C582.9 107.3 574.3 107.4 566.7 107.7C555.5 108.1 552.7 108.5 552.3 109.8C551.1 112.7 555 114.1 563.2 113.8C567.4 113.7 571.2 113.9 571.6 114.3C572 114.7 571.3 116.2 569.9 117.6C567.9 119.7 567.8 120.3 569 121.1C571 122.4 581.9 121.6 590 119.5C593.6 118.6 600.8 117.5 606 117.1C611.8 116.7 616.8 115.7 618.8 114.6C621.9 113 622.3 113 624.3 114.4C625.5 115.3 627.4 116.6 628.5 117.4C630.1 118.6 632.3 118.7 640.5 117.8C653 116.6 653.6 116.4 652 114.5C649.7 111.8 652.5 110 659 110C666.9 110 667.5 108 660.7 104.9C657.9 103.6 654.7 102.5 653.6 102.5C650.4 102.5 650.2 97.5998 653.3 95.4998C655.3 94.1998 655.9 92.7998 656.4 87.7998C657.3 80.5998 656.1 78.9998 650 78.9998C647.2 78.9998 645.7 79.7998 643.3 82.1998Z" fill="#1AAB9B"/>
<path d="M715.5 92.6999C714.4 92.9999 712.7 93.8999 711.8 94.7999C710.8 95.5999 710 95.8999 710 95.3999C710 94.8999 708 96.6999 705.5 99.3999C703.1 102.1 700.1 104.8 698.9 105.4C695.7 107 696.2 108.3 700.6 110C706.5 112.3 707.3 112.9 705.9 114.6C705.3 115.4 703.8 116 702.6 116C699.8 116 697.6 117.5 698.4 118.9C698.8 119.5 700.2 120 701.6 120C702.9 120 704 120.4 704 121C704 121.5 702.7 122 701.1 122C699.5 122 697.7 122.7 697 123.5C696.3 124.3 694.4 125 692.7 125C691 125 688.2 125.5 686.3 126.2C683.8 127.1 683.2 127.8 683.5 129.4C684.2 132.2 682.7 134.3 680.4 133.8C677.5 133.3 677.5 130.1 680.6 126.9C683.6 123.8 683.6 123.7 676 122.1C671 121 668.8 121.9 663.9 127.2C661.2 130.2 661.2 130.2 655.7 128.9C651.4 128 648.8 128 644.4 128.9C638.9 130 638.4 129.9 634.8 127.5C632.1 125.7 630.3 125.1 628.4 125.6C625.5 126.3 620.8 122.7 621.7 120.4C622.5 118.2 617.4 117.6 611.7 119.3C608.8 120.2 604.4 121.2 601.8 121.6C598.5 122 597 122.7 597 123.7C597 125.2 600.8 125.2 612 123.7C615.3 123.3 613.9 125.6 610.3 126.3C601 128.4 598.4 129.4 595.8 132.2L593 135.2L589.1 130.9L585.3 126.6L580.4 127.7C575.2 129 550.5 129.8 549.5 128.8C549.1 128.4 549.1 127.2 549.5 126.1C550 124.3 550.9 124 555.4 124C562.1 124 564.2 122.2 561 119C559.1 117.1 558.1 116.9 553.2 117.5C549.3 117.9 545.6 117.6 541.5 116.4C538.2 115.5 533.6 114.4 531.3 113.9C529 113.5 525.4 112.2 523.3 111C518.1 108.3 513.1 108.4 508.5 111.6C504.4 114.3 502 114.2 502 111.2C502 110.1 501.3 108.7 500.5 108C499.2 106.9 498.4 107.2 495.6 109.9C493.3 112.1 491.5 113.1 489.9 112.8C487.9 112.6 487.5 111.8 487.2 108.2C486.8 103.2 484.8 102.6 480.3 106.4C477.2 109 472.7 110.6 465.8 111.6C463.2 111.9 459.6 113.3 457.9 114.6C455.2 116.5 453.4 117 448.3 117C442.8 117 441.6 117.4 439.4 119.6C436.2 122.7 432.6 122.5 432.2 119.2C431.9 117.6 432.4 117 433.7 117C434.7 117 437.8 115.9 440.5 114.5C443.9 112.9 447.2 112.1 450.8 112C455.8 112 464 108.7 464 106.7C464 105.7 453.1 107 449.4 108.5C445.8 110 439.2 111.2 433.5 111.5C424.8 112 418.8 113.7 416.3 116.5C414.1 118.8 413.2 119.1 410.1 118.6C408.1 118.3 403.8 116.7 400.6 115C396.5 112.9 393.3 112 389.9 112C386.3 112 384.4 111.4 382.2 109.5C378.7 106.6 377.4 106.4 373.1 108.6C370.2 110 369.5 110 365.2 108.6C357.8 106.2 338.4 103.7 331.8 104.3C326.7 104.7 325.6 104.5 324 102.8C322.4 101.1 321.3 100.8 317.6 101.3C314 101.8 312.7 101.5 310.6 99.8999C306.6 96.7999 300.8 96.2999 297.3 98.7999C295 100.4 292.5 100.8 283.5 101.2C274.2 101.5 271.9 101.9 268.3 104C264.5 106.1 263.7 106.2 261.6 105C258.9 103.6 256.2 104.1 245.8 107.9C242.6 109.1 238.9 110 237.4 110C235.9 110 233.3 111.3 231.3 113C228.9 115.2 226.9 116 224.2 116C222.1 116 218.8 116.9 216.7 118C214.4 119.3 211 120 207.8 120C204.7 120.1 201.7 120.7 200.6 121.5C199.5 122.3 197.8 123 196.8 123C194.2 123 194.6 124.9 197.5 126C200.9 127.3 202.6 131.1 201.1 133.9C200 135.8 200.2 136 203 136C206.5 136 206.8 137.2 204.2 141.5C202.6 144.1 201.7 144.5 197.9 144.5C195.5 144.6 192.7 145 191.8 145.4C190.5 146 190 145.8 190 144.7C190 143.8 190.9 142.8 192 142.5C196.1 141.2 193.8 140 187.3 140C182.1 140 179.7 140.5 177 142.2C175.1 143.4 171.7 144.5 169.5 144.6C166 144.9 152.6 149.1 151.3 150.4C150.1 151.6 152.4 153 155.8 153.1C158.5 153.2 158.9 153.4 157 153.7C155.7 154 153.5 155 152.2 156C150.2 157.7 150.1 157.9 151.6 158.8C153.6 159.9 175.8 159.1 178.3 157.8C179.8 157 180 157.2 179.4 159.7C178.4 164 178.1 164.2 173.9 163.5C170.2 162.9 169.9 163 168.6 166C166.5 171.2 155.6 174.5 147.7 172.5C145.4 171.9 143.9 172.4 139.6 175.4C136.7 177.4 133.2 179 131.8 179C130.3 179 127.4 180.5 125 182.5C122.3 184.8 119.8 186 117.9 186C114.4 186 113.3 188.1 114.9 191.6C115.8 193.7 115.7 194.2 114.2 194.6C109.4 196.1 108.3 198 109.5 202.7C110.2 205.5 111.2 205.5 120.2 202.9C122.8 202.2 125.3 201.9 125.6 202.3C126.5 203.2 122.1 208 120.3 208C119.6 208 118.5 209.1 118 210.5C117.5 211.8 115.7 213.6 114 214.5C112.4 215.3 111 216.3 111 216.6C111 217.4 123.2 215.9 125.2 214.9C128.2 213.3 131.8 214.9 132.2 217.8L132.5 220.5L135.6 217.2C138.3 214.3 138.9 214.1 141.6 215C143.7 215.7 145.5 215.8 147.3 215.1C149.5 214.2 150 214.3 150 215.5C150 216.5 148.9 217 146.7 217C144.1 217 143.1 217.6 142.2 219.5C141.5 220.9 140.2 222 139.1 222C138 222 136.3 223.1 135.2 224.5C133.6 226.5 132.3 227 129.1 227C124.5 227 120.5 228.7 117.6 231.9C116.5 233.1 114.5 234 112.7 234C111 234 107.4 235.1 104.6 236.4C96.8 240 93 241.2 87 241.9C84 242.3 80.5 243.1 79.3 243.8C78.1 244.5 75.9 245 74.4 245C71.8 245 62.1 250.7 62 252.2C62 253.5 66.2 254.2 68.8 253.2C70.3 252.6 72.8 251.9 74.4 251.5C75.9 251.2 78.4 250.1 79.8 249.2C81.3 248.2 84.6 247.4 87.5 247.4C94.2 247.2 99.1 246.1 101.2 244.3C102.3 243.3 103.9 243 105.9 243.5C108.4 244 109.5 243.6 112.7 240.7C116 237.7 117.4 237.1 123.5 236.5C131.5 235.6 135.6 233.9 136.5 231C136.8 229.9 137.9 229 138.8 229C139.8 229 141.6 228.3 142.8 227.4C144.1 226.5 146.8 225.8 148.8 225.7C150.8 225.7 153.2 225.1 154.1 224.3C155 223.5 158.1 222.6 160.9 222.1C164.4 221.6 167 220.4 168.9 218.6C170.4 217.1 173.3 215.7 175.3 215.3C178.4 214.8 178.9 214.4 179.2 211.6C179.5 208.2 180.3 207.8 190.3 205.9C194.1 205.2 197.2 203.9 199.3 202.1C203.6 198.4 208.3 196 211.5 196C213 196 215.6 194.9 217.3 193.6C221.1 190.7 227.5 189.7 227.5 192C227.5 193 226.1 193.7 222.9 194C220.3 194.3 216.3 195.9 213.4 197.7C210.7 199.4 207.2 201.1 205.6 201.4C203.9 201.8 201.2 203.4 199.4 205C197.6 206.5 195.6 208 194.9 208.2C194.2 208.4 193.9 209.3 194.3 210.3C195.2 212.8 200.1 212.4 205.6 209.5C208.7 207.9 211.9 207 214.9 207C218.3 207 220 206.5 221.3 205C222.6 203.5 224.3 203 228.2 202.9C237.2 202.7 238.5 202 238.5 197.5C238.5 194.1 238.8 193.5 240.9 193.2C244.6 192.6 247.5 193.8 250.6 196.9C253.6 200 261 203.3 264.5 203.2C265.6 203.1 268.1 202.8 270 202.5C274.1 201.8 285.9 205.6 289.3 208.7C290.5 209.8 292.2 211 293.2 211.3C294.1 211.6 295.1 213.2 295.5 214.8C295.9 217 297.1 218.2 300.1 219.5C304.5 221.5 304.5 222.3 299.9 222.2C297.2 222.1 296.9 222.4 297.5 224.3C298.5 227.5 298.4 229 296.6 233.9C295.6 236.3 295.1 238.9 295.4 239.7C296.3 241.8 300.9 239 304.5 234.1C306.5 231.4 308.3 230 309.8 230C311.5 230 312.5 229 313.6 226.4C315 223.1 315 222.6 313.4 220.9C311.8 219.1 311.8 219 314 219C316.1 219 316.2 219.3 315.6 223.5C315.1 226.8 315.3 228.6 316.4 230.2C319.1 234 318.5 240.4 315 244.3C312.4 247.3 312.3 247.8 313.6 249.1C314.4 250 315.3 252.9 315.6 255.6C316.2 260.3 316 260.8 313.4 262.8C307.4 267.3 307 268 309 271C309.9 272.3 310.3 272.1 312.1 270.1C315 266.5 316.8 268.8 314.4 272.9L312.5 276.1L315.8 278.6C319.5 281.6 320 284 316.8 284C315.1 284 314 285.1 312.7 288.1C310.3 293.2 311 295 315.4 295C317.9 295 319 295.5 319.5 296.9C319.8 298 321.9 299.5 324 300.4C327.6 301.8 328 302.3 328 305.5C328 308 328.6 309.4 330.4 310.5C332 311.6 332.9 313.3 333.3 316.3C333.8 319.9 333.5 320.9 331.3 323.2C328.9 325.7 328.5 325.8 326.6 324.5C324.2 322.8 320.4 322.5 319.5 324C318.4 325.7 315.2 325.1 314.5 323C314.2 321.9 313 321 311.9 321C310.4 321 310 321.8 309.8 325.2C309.6 330.9 309.6 331.1 310.5 334.2C311.1 336.5 310.7 337.4 308.1 339.8C306.2 341.5 304.9 343.8 304.6 345.8C304.4 347.8 302.7 350.6 300.1 353.5C297.9 355.9 296 358.4 296 358.9C296 360.2 288.4 369.5 283.8 373.7C279.7 377.6 278.6 379.6 276 388C274.1 394.2 272.1 398.3 270.2 400.4C267.4 403.3 267.2 404.1 266.8 413.7C266.4 421.8 266.6 424.2 267.8 425.3C269.4 426.9 269.7 433.4 268.5 438.8C267.9 441.7 268 442.2 269.9 442.7C273.1 443.5 272.5 448.6 269.3 448.3C267.9 448.1 267 448.6 267 449.4C267 452.1 271.1 460 273.1 461C274.6 461.9 275 463 274.8 466.3L274.5 470.5L278.7 470.2C282.1 469.9 282.9 470.2 283.5 471.8C283.8 472.9 285.1 474.1 286.3 474.4C287.5 474.7 290.2 477 292.3 479.5C295.9 483.8 296.2 484.5 296.5 491.8C296.7 496 297.5 502.1 298.4 505.3C299.3 508.5 300 513.1 300 515.5C300 519 300.6 520.7 303 523.3C304.7 525.2 306 527.4 306 528.2C306 529 306.9 530.5 308 531.5C310.7 533.9 310.5 535.6 307.4 538.6C305.3 540.7 304.3 541.1 301.5 540.6C297.1 539.7 295.9 541.7 299.2 544.5C300.5 545.6 301.9 547.3 302.3 548.3C303 550.2 309.4 553.2 311.3 552.4C312 552.2 314.5 553.7 316.9 555.9C321.2 559.9 321.2 560 320.6 565.2C319.8 572.2 321.5 576.7 326.9 581.9C330.5 585.4 331.1 586.5 330.7 588.8C329.6 594.1 333.3 595.5 338.4 591.7C340.3 590.3 340.3 589.9 339 585.9C337.3 580.6 335.5 578.2 332.6 577.8C330.4 577.5 330 575.9 328.4 560.1C328.1 557.1 326.9 553.3 325.9 551.6C324.9 549.9 324 547.8 324 546.9C324 546 323.3 544.7 322.5 544C321.6 543.2 321 541 321 538.1C321 535.2 320.2 532.2 318.9 530.1C317.3 527.4 317.1 526.5 318.2 525.8C319.2 525.1 319.1 524.6 317.5 523.5C311.7 519.1 311.8 519.4 312.4 511.2C312.7 507 313 502.2 313 500.6L313.1 497.7L315.4 499.9C317.1 501.5 318.5 502 319.9 501.5C321.3 501.1 322.2 501.4 322.6 502.4C322.9 503.3 324.1 504 325.1 504C326.8 504 327 504.8 327 510.6C327 515.3 327.9 519.8 329.9 525.9C331.5 530.6 333 535.6 333.2 537C333.4 538.9 334.3 539.6 337.3 540.3C340.7 541.1 341 541.5 341 544.7C341 547.4 341.8 549 344.6 551.8C348.1 555.3 348.2 555.5 346.6 558.1C345.7 559.6 345 561.6 345 562.7C345 563.7 349.6 569.2 355.4 574.9C361.2 580.7 366.1 586.5 366.5 587.8C366.8 589.2 368.5 592.3 370.2 594.6C372.5 597.8 373.1 599.6 372.7 601.7C372.4 603.5 372.9 605.8 374.3 608.3L376.5 612.2L374 614C371.6 615.8 371.6 616 373.3 617.2C375 618.5 374.9 618.7 372.5 622C369.3 626.3 369.3 627.5 372.9 631.1C374.6 632.7 376.2 634.9 376.5 636C376.9 637.1 378 638 379.1 638C380.5 638 381.6 639.2 382.6 641.6C383.8 644.4 384.5 645.1 386.1 644.7C387.2 644.4 389.6 645 391.3 646C393.1 647 396.5 648.1 398.8 648.5C401.2 648.9 403.9 650.1 404.8 651.2C408.1 655 416.9 661 419.3 661C420.6 661 423.4 662.1 425.5 663.6C434.8 669.9 446.7 673.5 452.8 671.8C454.9 671.3 457.7 669.5 459.2 667.9C461.3 665.7 462.8 665 465.7 665C469.6 665 474 667.2 474 669.1C474 671.2 480.4 679.7 486.6 685.7C492.6 691.6 493.3 692 497.6 692C500.6 692 503.5 692.8 505.7 694.1C507.5 695.3 511.8 697 515.2 698.1C521.3 699.9 521.5 699.9 524.8 698C529 695.4 529.3 695.5 528.8 698.5C528.4 700.5 529.5 702.4 534.3 707.8C542.6 717.2 543.1 718.2 543.3 724.7C543.4 729.5 543.8 730.8 546 732.7C547.4 733.9 549.3 735 550.4 735C551.9 735 552.1 734.5 551.6 732.4C550.7 728.8 552.7 730.3 554.5 734.6C555.3 736.5 557 738.4 558.4 739C560.5 739.8 560.9 740.7 561.2 744.7L561.5 749.5L568.7 749.2C576.7 748.9 579.6 749.9 581 753.6C581.6 755.1 582.7 756 584 756C585.3 756 586.4 757 587 758.5C588.1 761.5 590.9 761.7 594.1 759.1L596.5 757.2L594.3 754.8C591.5 751.8 591.4 751 593.9 751C595 751 596.1 750.1 596.5 749.1C597.4 746 601 742 602.8 742C603.6 742 606.5 743.5 609.2 745.3C613.7 748.3 615.2 751.1 613 752.5C611.5 753.4 611.8 755.6 613.6 757.4C615 758.9 615.4 758.9 618 757.3C620.7 755.8 623 752.3 623 749.8C623 747.5 614.7 737.8 611.6 736.5C609.9 735.8 606.4 734.9 603.9 734.5C599.6 733.9 599 734.1 596.1 736.9C594.3 738.6 591.9 740 590.5 740C589.2 740 586.5 740.8 584.6 741.7C580 743.8 576 742.4 576 738.5C576 737 575.1 735.4 573.6 734.4C572.2 733.6 571 732.1 570.8 731.2C570.6 730.3 569.6 729.5 568.6 729.5C567.1 729.5 566.4 728 564.8 722.2L562.9 714.8L565.4 707.7C567.2 702.3 567.7 699.3 567.3 695.7C566.8 691.8 567.1 690.3 568.7 688.1C569.8 686.6 571.1 683.6 571.4 681.4C572.2 676.9 570.6 674.8 565.8 673.6C563.9 673.2 563 672.3 563 671C563 668.1 557.7 666.3 550.5 666.7C544.8 667.1 539.8 667.1 531.3 666.9C529.2 666.9 525.9 667.2 523.9 667.5C518.3 668.5 518 666.4 522.9 661.9C526.2 658.8 527 657.4 527 654.5C527 652.5 527.7 649.5 528.6 647.8C529.5 646.1 530 644 529.7 643C529.5 642.1 529.7 640.5 530.2 639.5C531 638.1 531.4 638 532.1 639.1C532.5 639.8 533.2 640.2 533.5 639.8C534.5 638.8 535.9 632 536 628.3C536 626.1 536.6 624.7 538.1 624C539.2 623.3 540.8 621.3 541.6 619.5C542.4 617.6 543.9 615.6 545.1 615C546.7 614.1 547 613.3 546.5 611.2C545.5 607.2 544 605.9 541.6 606.6C540.4 607 538.3 607.3 536.8 607.2C535.3 607.1 531.8 607.9 529 609C526.2 610.1 522.6 611 521 611C514.4 611 511 615.1 511 623.1C511 624.9 510.4 625.9 509 626.3C507.9 626.6 506.7 627.6 506.4 628.7C505 632.9 503.7 634.8 502.4 634.3C500.1 633.4 497.9 635.9 498.6 638.6C499.1 640.5 498.8 641 497.2 641C496.1 641 494.6 640 493.8 638.8C492.3 636.6 492.3 636.6 487.6 638.4C485 639.4 480.1 640.8 476.7 641.5C470.6 642.8 470.5 642.8 467.8 640.3C466.3 638.8 463.4 637.4 461.3 637.1C457.6 636.5 457.5 636.3 456.7 631.5C456.2 628.7 455.6 625.5 455.4 624.3C455.2 623.1 453.9 621 452.7 619.8C451.1 618.3 449.6 614.4 448.1 608.5L445.9 599.5L447.9 593C448.9 589.4 450.1 584.5 450.5 582C451.4 576.7 453 573.2 457.6 566.9C460.4 563 461 561.3 461 557.1C461 554.2 460.3 550.6 459.5 548.9C458 546 458 545.9 461.6 542.7C463.6 541 466.3 538.9 467.7 538.2C469 537.5 470.5 535.8 471 534.4C471.8 532.4 472.6 532 475.8 532C478.8 532 480.3 531.3 482.6 528.9C484.2 527.2 486.6 525.4 487.9 524.9C489.2 524.4 490 523.6 489.6 523.3C489 522.6 499.2 519 501.8 519C502.5 519 504.4 520 506 521.2C508.9 523.3 509 523.3 512.4 521.5C515.3 519.9 516.1 519.8 517.4 520.9C518.3 521.7 519 523.4 519 524.7C519 527 519.3 527.2 522.8 526.6C532.1 525.1 534 525.2 535.1 527.1C535.6 528.2 537.2 529 538.6 529C541 529 541.2 528.7 540.6 525.8C540.2 524 539.8 521.7 539.7 520.7C539.5 519.8 538.5 518.3 537.4 517.6C534.4 515.4 536.9 513.8 544.7 512.8C550.3 512.2 551.7 512.3 552.6 513.5C553.6 514.8 554.5 514.8 558.6 513.9C564.3 512.6 572.7 513.8 572.2 515.9C571.7 518.4 574.2 520 578.5 520C581.1 520 583.2 519.4 584 518.4C586.1 516 590.2 517.1 592 520.5C592.8 522.1 594.3 524.1 595.3 525C596.7 526.2 597.2 528.3 597.4 535.3C597.5 540.1 597.3 544.3 596.8 544.6C595.4 545.5 595.9 548.4 598 551C599.1 552.4 600 554.2 600 555.1C600 556 601.1 558.4 602.5 560.4C603.9 562.4 605 565.2 605 566.5C605 569.2 606 569.7 610.6 569.2C612.9 568.9 614 568.3 614 567.1C614 566.2 614.7 563.5 615.6 561C618.3 553.3 618.4 539 615.9 527.5C612.8 513.1 613.1 508.8 617.7 502C622.1 495.6 628.6 489 630.5 489C631.2 489 633.2 487.9 634.8 486.5C636.5 485.1 638.7 484 639.9 484C641.3 484 642 483.4 642 482.1C642 479.2 647.4 474 650.3 474C651.9 474 654.7 472.4 657.4 470.1C659.9 467.9 662.8 465.9 663.9 465.5C665 465.2 666.7 463.1 667.6 460.9C669.1 457.5 669.8 457 672.6 457C676 457 678.5 454.9 677.7 452.6C677.4 451.9 677.6 449.4 678.2 447.1C678.9 444.3 678.9 442.6 678.2 441.7C677.5 440.9 677.5 438.9 678 436C678.5 433.5 678.9 429.8 679 427.7C679 422.6 682.4 416 685 416C687.5 416 687.5 416.6 684.5 421.4C682.8 424.2 682.3 426.2 682.7 428.2C683 429.9 682.6 431.9 681.6 433.5C680 436 679.4 441.4 680.8 440.8C681.2 440.6 684.4 437.4 687.9 433.7C694.5 426.5 694.9 425 692.5 418.7C691.8 417.1 692.1 416.9 695.2 417.5C698.2 418.1 699.3 417.7 702.3 415.1C704.2 413.3 706.7 409.9 707.7 407.5L709.5 403H714.7C719.1 403 720.3 402.6 722.5 400.3C723.9 398.8 725 397.3 725 396.9C725 396.6 726.8 395.3 729.1 394.1C732.8 392 733.6 391.9 739.4 392.9C747.7 394.4 747.5 394.4 748.8 391.4C749.7 389.6 749.7 388.3 748.9 386.9C747.9 385 747.7 385 746.1 386.4C744.8 387.6 744.1 387.7 743.2 386.8C741.5 385.1 741.7 382.3 743.5 381.6C744.3 381.3 745 380.2 745 379.1C745 378 747.1 375.1 749.8 372.6C753.4 369.1 755.3 368 757.7 368C762.1 368 766 366.4 766 364.5C766 363.4 767.1 363 769.8 363C771.9 363 774.5 362.3 775.6 361.5C776.6 360.7 779.1 359.6 781.1 359C783.2 358.4 785 357.2 785.3 356.1C785.6 354.9 786.7 354.3 788.7 354.2C790.3 354.2 794 353.2 797 352.1C803.5 349.6 803 349.7 803 351.4C803 352.9 797.3 356.6 793.5 357.6C792.1 357.9 791 358.7 791 359.2C791 359.8 789.9 361.3 788.5 362.6C786.3 364.6 786.2 365.2 787.1 367.9C789.1 373.5 794.9 372.7 802.7 365.9C804.5 364.4 807.6 362.8 809.7 362.4C811.7 362 814.8 360.9 816.4 360C818.1 359 821.5 357.9 823.8 357.6C829.2 356.8 836 353.4 836 351.6C836 349.1 833.5 348.1 825.5 347.4C817.9 346.7 812 344.2 809.8 340.7C808.4 338.5 808.9 331 810.5 330.4C812.2 329.7 812.5 326.4 810.9 325.5C810.4 325.1 808.6 325.4 806.9 326C804.6 327 803.7 327 802.5 326C800 323.9 802.4 322.6 808.4 322.9C813.2 323.1 814.3 322.7 817.2 320.1C820.1 317.5 820.4 316.9 819.5 314.4C817.9 310 815.1 309.1 807.6 310.7C795.4 313.2 790 314.9 786.8 317.3C781.7 321.1 773.1 324.5 771.8 323.2C771 322.4 772.2 321.4 776.1 319.5C779.1 318.1 783 315.9 784.9 314.5C786.9 313 789.6 312 791.7 312C794.4 312 796.1 311 800.8 306.4L806.5 300.8L834.7 301.3C861.7 301.7 863 301.7 864.7 299.8C865.6 298.7 869.2 295.9 872.6 293.5C877.2 290.2 880.2 288.8 884.6 288.1C891.2 287 901.4 281.9 903.4 278.7C905.8 274.9 906.2 269.4 904.5 266C903.2 263.6 902.3 263 899.6 263C896.7 263 896.2 262.6 895.7 260.3C895.4 258.8 895.7 256.8 896.4 255.8C897.3 254.2 897.1 253.6 895.6 252.4C894.5 251.6 892.4 251 890.9 251C889 251 887.9 250.4 887.5 249C887 247.5 886 247 883 247C879.5 247 879.1 246.7 878.8 244.3C878.6 242.3 877.6 241.1 875.5 240.2C870.1 237.8 869.5 237.3 869.2 234.7C868.9 232.5 869.3 232.1 871.7 231.8C874.4 231.5 874.5 231.3 874.1 226.5C873.9 223.8 873.2 220.6 872.4 219.5C871.6 218.5 871 216.6 871 215.5C871 214.4 870.1 211.7 869 209.5C867.9 207.3 867 204 867 202C867 198.5 865.6 196 863.6 196C862.3 196 854 205 854 206.5C854 208 847 213 844.7 213C843.8 213 841.3 213.9 839.1 215.1C834.8 217.3 833.1 216.9 829.7 213.2C828.6 212 827.1 211.4 825.9 211.7C824.2 212.2 824 211.7 824 207.7C824 203.1 826.9 197.2 830.6 194.5C831.5 193.9 832.1 192.5 831.8 191.4C831.5 189.8 830.5 189.5 825.2 189.2C820.3 189 818.9 188.6 819.4 187.5C819.7 186.7 818.6 185.3 816.7 184.1C814.9 183 812.3 181.1 810.8 179.9C808.2 177.8 807.7 177.7 802.5 178.9C798.7 179.8 793.5 179.9 786.1 179.5C775.8 178.8 775.1 178.9 774.1 180.8C773.5 181.9 773 184.4 773 186.2C773 188.1 771.9 191.1 770.5 193.2C769.1 195.2 768 198.2 768 199.8C768 202.7 763.9 206.4 755.3 211.5C751.4 213.8 751.1 217.3 754.7 217.8C759.9 218.6 761.8 227.4 757.9 232.4C756.6 234.1 756 236 756.3 237.5C756.6 239.5 756.3 240 754.6 240C752.3 240 749.1 241.9 745 245.6C742.5 247.9 737.5 250 729 252.4C720.6 254.8 720 255.4 720 261.6C720 264.6 719.3 268.7 718.4 270.8C717.6 272.8 716.7 275.7 716.5 277.2C716.2 279.7 711.9 286.5 709.6 288.2C709.1 288.5 708.1 288.6 707.4 288.3C706.6 288 705.3 288.5 704.5 289.4C702.5 291.3 699.6 291.5 698.3 289.7C697.3 288.4 695 282.7 693.3 277.3C692.4 274.6 692.8 272.8 696.2 264.3C698.4 258.9 700.6 253.9 701.2 253.3C703.7 250.3 701.4 249.3 690.9 249.2C685.3 249.1 680.4 248.7 680.1 248.4C679.8 248.1 679.5 246.6 679.5 245.2C679.5 242.5 679.4 242.5 673.3 242.8C667.2 243.2 667 243.1 665.9 240.3C663.8 234.9 663.3 234.5 658.1 233.7C654.7 233.1 652.7 232.2 652 230.9C650.7 228.6 643.5 228.2 640.4 230.4C638.1 232 634.6 232.8 634.2 231.7C634.1 231.3 634.7 229.9 635.6 228.5C636.6 226.9 637 225.1 636.6 223.5C636.2 222.1 636.4 220.1 637 218.9C638.8 215.5 637.3 213.1 632.9 212.4C627.9 211.6 627.7 208.8 632.6 206.2C633.8 205.6 635 203.7 635.3 202.1C635.9 199.2 639.7 195.9 646.9 192.1C648.3 191.4 650.6 189.7 652 188.5C653.4 187.3 655.3 186 656.3 185.7C657.2 185.3 658 184.5 658 183.8C658 183.1 661.4 181.2 665.5 179.6C672.5 176.9 673 176.6 673 173.8C673 171.1 673.3 170.8 675.5 171.4C676.9 171.7 679.1 172.3 680.5 172.6C685.2 173.8 687.9 169.2 683.8 167.2C681.8 166.3 682.1 166.1 686.5 166C689.3 166 692.6 165.9 694 165.9C695.3 165.8 697 165.1 697.6 164.2C698.4 163 700.4 162.5 703.7 162.4C706.3 162.3 709.9 161.9 711.5 161.5C715.7 160.4 726.7 152.4 727.3 150C727.6 148.8 728.7 148 729.8 148C731 148 732.1 147.6 732.4 147.1C732.7 146.6 734.6 145.9 736.6 145.6C739.7 145 740.1 144.6 739.8 142.2C739.5 139.7 739.8 139.5 743.6 139.2C746.4 139 748.3 139.4 749.3 140.4C750.2 141.3 752.2 142 753.9 142C756.3 142 757 141.6 757 140.1C757 137.2 758.6 136.7 761.9 138.6C764.5 140.1 765.3 140.2 769.5 139C773.3 137.9 779.7 134.1 784 130.3C784.3 130 783.7 129.3 782.7 128.6C778.8 125.7 782 118.3 786 120.8C788.3 122.2 790.6 121.5 791.3 119.2C791.6 118.3 792.1 116.7 792.5 115.7C793.1 114.4 792.7 114 790.8 114C789.4 114 787.5 113.1 786.6 112.1C784.6 109.9 777.2 108.9 772.3 110.2C769.7 110.9 768.8 111.8 767.9 115.1C766.7 118.9 764.3 120.6 761.2 119.8C760.5 119.6 759.4 120.6 758.7 121.9C758 123.4 755.5 125.1 752 126.4C749 127.6 745.4 129.3 744 130.2C740.7 132.6 737.3 132.5 736 129.9C734.1 126.4 735.2 123.8 739 122.5C741.9 121.5 742.5 120.8 742.5 118.4C742.5 115.8 742.1 115.5 738.8 115.2C736.2 115 734.8 115.4 733.8 116.7C732.1 119.1 727 122.3 726.2 121.6C725.2 120.5 728.9 114 730.6 114C731.5 114 732 113.3 731.8 112.2C731.4 110.4 728 110 724.8 111.5C723.4 112 723 111.7 723 110.1C723 108.5 723.8 107.8 725.8 107.4C728.6 106.8 728.7 106.6 728.7 100.9C728.8 95.2999 728.6 94.7999 725.9 93.4999C723.1 91.9999 719.4 91.7999 715.5 92.6999Z" fill="#1AAB9B"/>
<path d="M982.2 105.7C979.4 106.2 978.6 108.1 979.4 111.5C980.1 114.1 980.1 114.1 988.5 113.6C998 113.1 999.4 112.6 998.1 110.3C996.6 107.5 987 104.7 982.2 105.7Z" fill="#1AAB9B"/>
<path d="M677.701 112C675.601 113.8 673.101 115 671.401 115C668.001 115 665.201 116.5 666.301 117.7C666.801 118.1 668.801 118.5 670.801 118.6C672.801 118.7 677.501 119.1 681.101 119.5C689.201 120.4 692.301 119.2 691.801 115.2C691.601 113.3 690.801 112.4 689.301 112.2C688.101 112 686.601 111.2 686.001 110.4C684.101 108.2 681.401 108.7 677.701 112Z" fill="#1AAB9B"/>
<path d="M813.501 113C813.201 113.5 811.101 114.4 809.001 115C804.101 116.3 803.501 119 808.001 119C811.001 119 816.001 115.3 816.001 113C816.001 111.7 814.301 111.7 813.501 113Z" fill="#1AAB9B"/>
<path d="M819.4 124.3C815.4 126.6 810.9 131 811.5 132C811.8 132.5 814.8 133 818.1 133C823.4 133 824.4 132.7 827.7 129.7C832.4 125.3 831.8 123 825.8 123C823.4 123.1 820.6 123.6 819.4 124.3Z" fill="#1AAB9B"/>
<path d="M832.6 125.9C832.2 126.5 832.9 127.9 834 129C835.7 130.7 836.4 130.8 838.1 130C841.1 128.3 840.1 125.6 836.3 125.2C834.6 125 832.9 125.3 832.6 125.9Z" fill="#1AAB9B"/>
<path d="M739.1 149.6C736.2 151.4 733.1 153.8 732.3 154.9C731.5 156.1 730.3 157 729.6 157C728.9 157 727.8 158.1 727.2 159.5C726.3 161.5 725.3 162 722.6 162C719.1 162 716 164.1 716 166.4C716 167.2 717.6 167.6 720.8 167.6C724.9 167.5 725.5 167.8 725.8 169.7C726.2 172.6 726.8 172.6 733.8 169C737.1 167.3 740.2 166 740.8 166C741.4 166 742.8 165.1 743.8 164C745.6 162 745.7 162 748 164.5C750.8 167.5 756.8 169.3 760.6 168.4C762.3 168 763.5 168.2 764.1 169.1C765.2 171 766.8 169.3 767.6 165.3C768.2 162.2 768.1 162.1 764.4 161.8C761.4 161.6 760.4 161 760.2 159.5C759.6 156.5 757 153.9 752.3 151.9C749.2 150.6 748 149.5 748 148C748 145.2 745.5 145.6 739.1 149.6Z" fill="#1AAB9B"/>
<path d="M788 165.6C788 167.2 790.3 170 791.5 170C793.7 170 793.3 167.2 791.1 166C788.9 164.9 788 164.7 788 165.6Z" fill="#1AAB9B"/>
<path d="M779.201 169.2C779.401 170.5 780.301 171.6 781.301 171.8C783.501 172.2 784.801 169.1 782.901 167.9C780.401 166.3 778.801 166.9 779.201 169.2Z" fill="#1AAB9B"/>
<path d="M735.301 175.6C731.001 178.2 729.801 180.4 732.301 181.2C736.801 182.8 749.001 178.2 749.001 175C749.001 171.9 740.801 172.3 735.301 175.6Z" fill="#1AAB9B"/>
<path d="M757.701 180.5C755.801 181.9 755.701 186.1 757.501 186.7C758.901 187.1 764.001 182.2 764.001 180.5C764.001 178.6 760.101 178.6 757.701 180.5Z" fill="#1AAB9B"/>
<path d="M866.7 184.7C866.3 185 866 186.2 866 187.2C866 190 869.4 189.1 869.8 186.2C870.1 184.1 868.2 183.1 866.7 184.7Z" fill="#1AAB9B"/>
<path d="M92.2007 198.7C88.2007 199.2 87.3007 201.1 89.7007 203.9C92.0007 206.6 92.8007 206.5 97.0007 203C99.9007 200.5 100.201 199.9 99.0007 199C98.2007 198.5 97.1007 198.1 96.5007 198.2C96.0007 198.3 94.0007 198.5 92.2007 198.7Z" fill="#1AAB9B"/>
<path d="M177.5 217.4C176.4 218.1 175.1 218.8 174.5 218.9C174 218.9 173.5 219.6 173.5 220.2C173.5 221.1 174.9 221.4 177.9 221.3C183.2 221 184.7 219.9 182.5 217.6C180.5 215.6 180 215.6 177.5 217.4Z" fill="#1AAB9B"/>
<path d="M164 225C162.3 226.7 162.2 227.4 163 229.1C164.1 231 164.3 231.1 166.7 229.4C168.2 228.5 170.5 227.4 171.9 227C176.1 225.9 175.1 223.5 170.3 223.2C167.1 223 165.6 223.4 164 225Z" fill="#1AAB9B"/>
<path d="M308.4 233.4C305.3 234.8 303.5 237.4 304.6 239.1C304.9 239.6 305.9 239.6 307 239C308 238.5 310.5 238 312.5 238C316.4 238 318 236 316 233.5C314.5 231.7 312.5 231.7 308.4 233.4Z" fill="#1AAB9B"/>
<path d="M730 238.2C727.7 242 728.3 243.4 731.8 242.5C736.9 241.2 739.1 235 734.5 235C732.7 235 731.4 236 730 238.2Z" fill="#1AAB9B"/>
<path d="M305.301 241.7C304.601 241.9 304.001 242.9 304.001 243.8C304.001 244.6 303.301 246.2 302.301 247.2C300.801 248.9 300.801 249.1 302.301 250.8C303.301 251.8 304.001 253.7 304.001 254.9C304.001 258.1 306.201 257.1 308.201 252.9C311.801 245.5 312.201 244.1 311.701 242.6C311.101 241.1 307.901 240.6 305.301 241.7Z" fill="#1AAB9B"/>
<path d="M48.4999 253C46.2999 254.1 43.9999 255 43.2999 255C41.5999 255 41.5999 258.9 43.3999 259.6C44.0999 259.9 46.1999 259.2 48.0999 258.1C49.9999 257 53.1999 255.8 55.2999 255.5C58.0999 254.9 58.9999 254.4 58.5999 253.3C58.2999 252.5 57.9999 251.6 57.9999 251.4C57.9999 250.2 51.8999 251.2 48.4999 253Z" fill="#1AAB9B"/>
<path d="M299 254C299 254.5 299.5 255 300 255C300.6 255 301 254.5 301 254C301 253.4 300.6 253 300 253C299.5 253 299 253.4 299 254Z" fill="#1AAB9B"/>
<path d="M15.6004 265.2C14.1004 267.1 13.4004 268.8 14.0004 269.4C15.2004 270.6 19.2004 269.4 22.1004 267.1C24.1004 265.5 24.2004 265 23.1004 263.6C21.0004 261.1 18.4004 261.7 15.6004 265.2Z" fill="#1AAB9B"/>
<path d="M289 263.8C286.6 265.8 286.5 265.8 288.4 267.9C291 270.8 294.6 270.6 296.6 267.5C297.6 265.9 299.2 265 300.8 265C305.2 265 301.9 263 296.4 262.4C292.4 261.9 291 262.2 289 263.8Z" fill="#1AAB9B"/>
<path d="M2.00036 268.5C0.70036 269.9 0.000359979 271.3 0.30036 271.7C1.40036 272.7 6.00036 270.2 6.00036 268.6C6.00036 266 4.40036 266 2.00036 268.5Z" fill="#1AAB9B"/>
<path d="M696.8 270.1C695.8 270.6 695 272 695 273C695 274.6 695.7 275 698.3 275C702.2 275 706 272.6 704.5 271.1C702.9 269.5 698.6 268.9 696.8 270.1Z" fill="#1AAB9B"/>
<path d="M289.301 271.7C286.601 272.2 286.501 273.1 288.901 278.9C290.001 281.5 291.001 282.9 291.401 282.2C291.801 281.5 291.901 281 291.601 281C291.301 281 291.701 279 292.401 276.6C293.701 272.5 293.601 270.8 292.101 271.1C291.801 271.2 290.501 271.5 289.301 271.7Z" fill="#1AAB9B"/>
<path d="M894.1 288.3C889.9 289.6 879.9 298.8 874.5 306.3C872 309.8 869.1 312.5 866.8 313.6C864.3 314.7 863 316 863 317.2C863 320.3 861.1 323 859 323C856.3 323 854.7 326.2 856.4 328.5C857.4 329.9 858.4 330.1 860.6 329.5C862.2 329.1 865.2 328.8 867.3 328.9C877.2 329.2 880.8 329.2 883.7 328.5C885.5 328.1 887.7 328.1 888.6 328.4C890.1 329 890.1 329.2 888.5 331C887.5 332.1 885.9 333 884.8 333C882.3 333 882.5 334.7 885.4 336.5C888.4 338.5 891.1 337.4 893.6 333C895.4 330.1 900.5 327.1 901.7 328.4C902.1 328.7 901.3 330.4 900.1 332.1C898.1 334.8 898 335.4 899.2 336.6C902.7 340.1 909 340 909 336.4C909 335.8 909.7 334.7 910.6 333.9C913 331.9 915.3 326.9 914.3 325.9C913.7 325.3 912 325.4 910.1 326.1C905.9 327.6 905.3 326.8 908.1 323.1C910.2 320.3 910.2 319.9 908.7 318.3C907.4 316.7 907.3 316.3 908.6 314.6C910.5 311.9 910.4 309.7 908 306.9C906.4 305 905.9 304.8 905.1 305.9C904.6 306.6 903.7 306.9 903.1 306.6C902.5 306.2 901.3 306.6 900.4 307.5C898 309.8 895.6 308.9 895 305.5C894.5 302.9 894 302.5 891.7 302.8C890.2 302.9 889 302.6 889 302C889 300.8 895 294.9 898.8 292.3C901.5 290.5 901.8 287 899.3 287.1C898.3 287.2 896 287.7 894.1 288.3Z" fill="#1AAB9B"/>
<path d="M299.401 297.3C299.801 299 301.401 301.7 303.001 303.2C304.701 304.7 306.001 306.6 306.001 307.5C306.001 308.3 307.101 309.5 308.301 309.9C309.601 310.4 311.201 312.1 311.901 313.8C312.801 315.9 314.601 317.3 318.601 318.9C325.301 321.7 327.001 321.2 327.001 316.4C327.001 313.7 326.501 312.7 325.001 312.3C323.701 312 323.001 310.9 323.001 309.4C323.001 304.6 321.101 301.9 316.301 299.8C313.601 298.7 310.701 297 309.701 296.2C308.701 295.3 305.901 294.5 303.301 294.3L298.801 294.1L299.401 297.3Z" fill="#1AAB9B"/>
<path d="M823 305.1C823 306.2 823.8 307.4 824.8 307.7C825.7 308.1 827.5 309.4 828.7 310.7C830.7 312.8 831.8 313.1 836.7 312.8C841.3 312.6 842.6 312.1 842.8 310.8C843 309.6 842.2 308.6 840.3 307.9C838.8 307.3 836.2 306.1 834.5 305.4C832.9 304.7 829.6 303.9 827.3 303.6C823.6 303.3 823 303.4 823 305.1Z" fill="#1AAB9B"/>
<path d="M836.2 328.2C834.8 329.6 834.6 332 836 332C836.9 332 839 328.9 839 327.6C839 326.6 837.5 326.9 836.2 328.2Z" fill="#1AAB9B"/>
<path d="M813 335.5C811.1 337.8 812.6 341.9 815.8 342.6C817.3 343 819.4 343.9 820.5 344.6C823.2 346.5 825.4 346.3 827.5 344C828.5 342.9 830 342 830.7 342C831.5 342 832 341.4 831.7 340.7C831.5 340 829.4 339.5 826.4 339.5C820.3 339.4 815.8 337.6 816.6 335.5C817.4 333.5 814.7 333.5 813 335.5Z" fill="#1AAB9B"/>
<path d="M841 336.7C839.1 338 837.2 340 836.8 341.1C836.4 342.1 835.6 343 835 343C833.2 343 833.9 345.8 836.2 347.4C838.5 349 842.6 349.5 845.4 348.4C847.1 347.7 847.6 343 846 343C845.5 343 845 342.3 845 341.5C845 340.7 845.4 340 845.9 340C847 340 847.8 337 847.3 335.2C846.6 333.5 845 333.8 841 336.7Z" fill="#1AAB9B"/>
<path d="M639.401 556C639.301 560.2 639.701 562 640.501 562C642.301 562 643.901 559.7 644.601 556C645.201 553.4 644.901 552.4 643.501 551.3C640.201 549 639.501 549.8 639.401 556Z" fill="#1AAB9B"/>
<path d="M646.4 566.5C644.7 567.8 644.7 567.9 646.3 568C647.3 568 648 568.8 648 570.1C648 571.5 648.5 572 649.7 571.8C651.6 571.4 652.3 568.1 650.8 566.3C649.5 564.6 648.8 564.7 646.4 566.5Z" fill="#1AAB9B"/>
<path d="M640.6 568.7C639.5 569.8 640 571 641.5 571C642.3 571 643 570.6 643 570.1C643 568.8 641.4 567.9 640.6 568.7Z" fill="#1AAB9B"/>
<path d="M629.7 571.7C628.4 573 629 576.8 630.7 577.4C633 578.3 635.1 576 634.4 573.2C633.8 571.1 631.1 570.2 629.7 571.7Z" fill="#1AAB9B"/>
<path d="M631.2 580.2C631.8 582 634 582.3 634 580.6C634 579.7 633.3 579 632.4 579C631.5 579 631 579.5 631.2 580.2Z" fill="#1AAB9B"/>
<path d="M656 588.4C656 592.2 657.6 594.1 658.6 591.6C659.4 589.5 658.3 585 657 585C656.4 585 656 586.5 656 588.4Z" fill="#1AAB9B"/>
<path d="M583.2 590.6C579.2 591.3 574.6 592.9 573 594C569.8 596.3 565.5 603.9 566.7 605.1C568.2 606.5 573 604.8 573 602.9C573 601.4 573.7 601 576.9 601C579.9 601 581.1 600.5 582.4 598.5C584.1 595.9 589.1 594.1 592.7 594.8C595.3 595.3 595.8 597 593.5 597C591.4 597 591.6 599.6 593.8 600.5C594.7 600.9 598.8 601.4 602.9 601.7C609.2 602.2 610 602.5 608.5 603.6C605.8 605.6 607.7 607 613.1 607C619.5 607 622 608.3 622 611.8C622 615 622.9 616.4 625.3 617.3C626.2 617.7 627.4 619 628 620.4C629.2 623.8 630.9 624.1 645.6 623.8C660.3 623.5 662.5 622.4 657.8 618C656.5 616.8 654.3 616 652.2 616C649.7 616 648.7 615.5 648.3 614C648 612.9 647.2 612 646.5 612C645.8 612 644.7 611.4 644 610.6C643.4 609.8 642.3 609.3 641.5 609.6C639.8 610.3 635.9 608.2 627.7 602.5C623.6 599.7 620.1 598 618.3 598C615 598 612.9 596.4 613.7 594.5C613.9 593.7 613.3 592.7 612.3 592.1C610.6 591.3 607.6 590.8 594 589.6C592.1 589.4 587.2 589.9 583.2 590.6Z" fill="#1AAB9B"/>
<path d="M664.6 596.5C665 598 664.8 599 664.1 599C663.5 599 663 599.4 663 600C663 601.6 667.7 601.1 668.4 599.4C669.2 597.3 669.2 597.4 667.4 595.6C665.1 593.3 663.9 593.7 664.6 596.5Z" fill="#1AAB9B"/>
<path d="M578.6 604.6C576.1 607 578.3 609.2 582.9 608.8C586 608.5 586.5 608.1 586.5 606C586.5 603.9 586 603.4 583.4 603.2C581.5 603 579.6 603.5 578.6 604.6Z" fill="#1AAB9B"/>
<path d="M671.8 624.8C667.1 625.1 663.3 627.5 666.1 628.4C666.9 628.6 668.9 629.3 670.5 629.8C672.8 630.5 673.4 631.2 673.2 632.9C673 634.1 673.4 635.8 674.1 636.6C676.4 639.5 673.7 640.4 667.2 639.1C659.6 637.4 656.6 637.9 656.2 640.7C655.9 642.5 656.5 643 659.2 643.4C661 643.6 663.4 643.9 664.5 643.9C672.1 644 681 645.4 681 646.5C681 647.8 683.1 649 685.6 649C686.3 649 687.6 647.4 688.4 645.5C690 641.9 691.7 641.2 695.2 643.1C696.8 644 697.6 643.8 699.1 642.1L701.1 640L705 642C710.2 644.7 710.6 644.6 712.6 640.5C714.6 636.1 713.3 634 708.5 634C706.5 634 704.6 633.2 703.4 631.9C702.4 630.8 699.2 628.7 696.3 627.4C691.1 624.9 683.2 624.1 671.8 624.8Z" fill="#1AAB9B"/>
<path d="M724 639.4C719.4 644 729.9 648.2 737.3 644.7C742.1 642.5 740.4 641 731.2 639.5C727.1 638.8 724.7 638.7 724 639.4Z" fill="#1AAB9B"/>
<path d="M621 641.8C621 642.8 622.1 644.7 623.5 646C625.7 648.1 626.4 648.2 629.4 647.3C631.3 646.7 633.9 646.4 635.2 646.7C638.2 647.3 640.7 644.8 638.8 643.3C637.5 642.4 626 640 622.6 640C621.7 640 621 640.8 621 641.8Z" fill="#1AAB9B"/>
</svg>
