<svg width="1280" height="1005" viewBox="0 0 1280 1005" fill="none" xmlns="http://www.w3.org/2000/svg">
<path d="M410.4 1.2C403.5 10.9 406.2 14.9 417.8 12.5C426.8 10.6 427.2 10.4 426.8 7.4C426.5 4.4 425.8 4 418.5 1.6C412.5 -0.299999 411.5 -0.399999 410.4 1.2Z" fill="#1AAB9B"/>
<path d="M438.1 13.1C435.1 15.2 431.5 17 430.1 17C424.8 17 423 18.1 421.8 22.1C421.2 24.3 420.1 26.5 419.3 27.1C417.6 28.6 417.6 34.4 419.4 35.9C420.3 36.7 421.5 36.7 423.4 36C425.2 35.3 427.1 35.4 429.7 36.3C433.2 37.4 433.5 37.8 434 42C434.5 46.3 434.8 46.6 440 49.3C445.2 52 446.1 52.1 456.5 51.8L467.5 51.5L467.8 54.7C468.2 58.4 466.7 59 463.4 56.5C460.9 54.6 456.6 54.6 454.9 56.6C453.9 57.9 452 58.1 445.6 57.8L437.5 57.5L437.2 60.3C436.8 63.8 438.9 66.3 444.6 69.1C450.3 71.8 451.3 73.8 450.4 80.6C449.5 87.9 451.4 91 456.8 91C460.5 91 465 88.2 465 86C465 84.7 469.1 81 470.6 81C471.3 81 472.5 82.2 473.2 83.7C474.2 85.9 475.4 86.6 478.6 87.1C484.1 87.8 487 89.9 488.4 94C489.3 96.8 490.1 97.6 492.5 97.8C494.2 98 500.2 99.6 506 101.5C511.8 103.4 520.7 105.6 525.8 106.4C535 107.7 535.2 107.9 540 112.6C542.7 115.3 546.5 118.9 548.5 120.7C551.1 123 552 124.6 552 127C552 128.9 553.9 133.6 556.6 138.7C561 146.7 561.3 147.8 562 157.3C562.4 162.9 562.3 169.4 561.7 171.9C560.9 175.6 561 176.5 562.5 177.6C563.8 178.6 565 178.5 568.7 177.3C580.6 173.2 590.4 180.3 591.7 193.9C592.4 200.9 593.7 202.1 599.3 200.8C601.6 200.3 606.8 200.1 610.8 200.5C621.9 201.5 631.5 201.3 633.6 200C637.3 197.7 641.2 190.9 640.6 188.1C640.2 186.7 639.8 184.9 639.7 184.2C639.6 183.4 641.2 182.3 643.4 181.5C647.7 180 649 178.6 649 175.3C649 173.7 649.8 172.9 651.8 172.4C653.3 172.1 656.9 170.7 659.8 169.3L665 166.7L671.3 168.5C674.7 169.4 678.3 170.7 679.4 171.2C680.4 171.7 683.9 172.6 687.3 173C694.9 174.1 696.5 175.7 696.5 182C696.5 187.8 698.8 190.8 704.1 191.9C707.2 192.5 707.5 192.9 707.7 196.5C707.8 198.7 707.9 201.1 707.9 201.8C708 202.5 709.8 203.7 712 204.6C716.6 206.5 720 210.2 720 213.5C720 216.9 722 217.9 728.5 217.7C733 217.5 735.7 218.1 739.1 219.7C741.6 221 745.5 222 747.9 222C751.3 222 753.1 222.8 757.5 226.1C764.2 231.2 769.7 232.3 772.9 229.1C774 228 775 226.4 775 225.7C775 223.6 770.8 220.2 766.5 218.8C762.8 217.6 762.5 217.2 762.2 213.5C761.8 206.5 761.1 205 758.7 205C755.8 205 754.1 203.6 750.7 198.2C748.1 194.2 747.7 194 743.7 194.2L739.5 194.5L739 190C738.2 184.1 736 180 731.3 176.1C724.1 170 723.4 169.2 720.8 163.9C716.2 154.6 716.2 152.7 720.9 148.1C725.2 143.9 726.2 140 724 135.9C723.4 134.9 718 131.5 712.1 128.5C701.5 123.2 701.2 123 699.4 118.3C695.9 108.4 694.1 105.1 690.4 101C686.4 96.6 680.2 93.1 676.3 93C674.9 93 672.1 90.7 668.3 86.3C665.1 82.6 660.6 77.7 658.3 75.4L654.1 71.2L642.8 71.3L631.5 71.5L618.5 65.2C603.5 57.9 604.3 58.4 599.6 54.7C596.7 52.3 594.3 51.6 585.8 50.4C573.2 48.6 572.6 48.5 567 45C564.5 43.5 561.4 41.9 560 41.5C558.7 41.1 556.4 39.8 554.9 38.8C549.3 34.6 537.8 35.7 535.9 40.7C535.4 42 535 44.2 535 45.6C535 47.6 534.1 48.5 530.8 50C528.4 51.1 525.2 52 523.7 52C521.7 52 519.8 53.1 517.3 55.9C515.4 58.1 512.7 60.1 511.3 60.5C509.1 61 508.9 61.5 509.4 64.3C509.7 66.1 509.6 68 509.2 68.6C508 70.5 504.3 72 501 72C491.3 72 484.2 61.4 481.9 43.6C480.4 32.2 477.1 20.1 475.1 19.1C474.2 18.6 471.7 17.8 469.6 17.4C467.4 17 464.1 15.7 462.2 14.4C460.2 13 457.2 12 455.1 12C453.1 11.9 450.4 11.3 449 10.5C445.4 8.40005 444.1 8.70005 438.1 13.1Z" fill="#1AAB9B"/>
<path d="M502.801 17.1C500.501 18.4 500.501 19.9 502.901 22.5C504.001 23.6 506.001 25.7 507.401 27.2C509.201 29.2 510.901 30 513.401 30C517.501 30 518.401 29 517.501 25C516.301 19.6 506.901 14.6 502.801 17.1Z" fill="#1AAB9B"/>
<path d="M715.301 39.5002C710.201 41.7002 708.201 48.1002 711.601 51.4002C713.901 53.7002 721.401 53.4002 726.101 50.8002C732.601 47.2002 732.401 43.4002 725.601 40.1002C720.701 37.7002 719.601 37.6002 715.301 39.5002Z" fill="#1AAB9B"/>
<path d="M773.2 54.2C769.7 57.7 773.3 62 779.6 62C783.4 62 784 61.7 784.6 59.5C785.5 55.8 782.7 53 778 53C776 53 773.9 53.5 773.2 54.2Z" fill="#1AAB9B"/>
<path d="M793.3 62.6001C793 63.4001 793.3 65.9001 793.9 68.1001C794.8 71.2001 795.7 72.1001 798.3 72.8001C800.4 73.3001 802.4 75.0001 804.1 77.5001C807.1 81.9001 810.3 83.5001 813.1 82.0001C815.6 80.6001 815.7 74.6001 813.3 72.5001C800.4 61.5001 794.8 58.7001 793.3 62.6001Z" fill="#1AAB9B"/>
<path d="M826.601 86.8001C824.601 90.6001 823.501 97.9001 824.401 101.3C824.701 102.7 825.901 104 827.101 104.3C830.101 105.1 834.601 102.6 835.401 99.7001C836.201 96.3001 834.301 90.3001 831.101 86.7001L828.301 83.6001L826.601 86.8001Z" fill="#1AAB9B"/>
<path d="M801.5 92.4003C800 94.6003 800 95.1003 801.4 97.9003C802.3 99.5003 803 101.8 803 102.9C803 105.5 800.1 108.3 798.1 107.5C797 107.1 795.1 108.4 792 112C786.6 118.1 782 119.4 776.6 116.5C773.3 114.7 773.2 114.7 769.6 117C766.5 118.8 765 119.1 760.9 118.6C758.2 118.3 753.8 117.7 751 117.4C744.8 116.6 743 117.9 743 123C743 127.5 746.5 131 751.1 131C752.7 131 757.4 132.2 761.6 133.6C767.7 135.7 770.4 136.2 775.4 135.8C782.4 135.2 793.4 130.6 798.5 126.1C800.4 124.5 803.3 122.9 805.2 122.5C810.1 121.4 812.6 119.4 817 112.8C820.3 107.9 821 105.9 821 102C821 96.8003 820.1 95.5003 815.5 94.4003C813.8 94.0003 811.4 92.9003 810.1 91.8003C806.8 89.3003 803.4 89.5003 801.5 92.4003Z" fill="#1AAB9B"/>
<path d="M716.401 114.4C716.101 115.2 716.001 116.9 716.201 118.2C716.401 120.1 717.201 120.6 720.201 120.8C723.201 121.1 724.001 120.7 724.501 119C725.801 114.8 717.901 110.4 716.401 114.4Z" fill="#1AAB9B"/>
<path d="M859.9 117.7C859.8 118.2 859.9 119.5 860 120.8C860.1 122 859 124.4 857.6 126.1C856.2 127.8 855 129.6 855 130.1C855 131.3 858.7 135 859.9 135C861.4 135 864 141.6 864 145.3C864 150 866.8 152 873.3 152C877.3 152 878.6 151.5 881.1 149.1C886 144.2 884.9 139.5 877.3 132.4C875 130.2 873 127.4 873 126.3C873 124 870.6 121.6 867.3 120.6C866.2 120.2 864.6 119.3 864 118.5C862.7 116.9 860.1 116.5 859.9 117.7Z" fill="#1AAB9B"/>
<path d="M729 123C727.6 125.6 728.9 127.4 731.6 126.8C732.9 126.6 733.5 125.6 733.5 124C733.5 120.8 730.5 120.2 729 123Z" fill="#1AAB9B"/>
<path d="M892.701 145.7C891.101 147.2 892.101 151.8 894.501 154C896.001 155.4 897.001 157.5 897.001 159.2C897.001 160.7 897.901 162.9 898.901 163.9C901.001 166 908.601 167.6 912.401 166.6C915.401 165.9 916.401 162.3 914.401 159.2C912.801 156.8 912.401 156.6 907.801 155.6C906.201 155.2 904.901 154.1 904.401 152.7C902.901 147.9 900.001 145 896.601 145C894.801 145 893.001 145.3 892.701 145.7Z" fill="#1AAB9B"/>
<path d="M543.701 167.2C535.301 176.3 534.301 177.9 536.001 181C537.401 183.5 538.601 183.5 543.501 180.9C545.701 179.7 549.501 178.4 551.901 178.1C557.301 177.4 560.001 174.2 560.701 167.8C561.401 161.5 559.901 159 555.201 159C551.901 159 550.801 159.8 543.701 167.2Z" fill="#1AAB9B"/>
<path d="M923.6 162.6C922.7 163.5 922 165.8 922 168C922 171 922.6 172.3 925.1 174.4C926.8 175.8 928.5 177 928.9 177C929.3 177 931.6 178.8 934.1 181C936.5 183.2 940.2 185.5 942.2 186.2C945.5 187.2 946.3 187.1 948 185.5C950.7 183.1 950.6 179.4 947.8 177.9C946.5 177.3 943 174.4 940 171.5C934.6 166.3 927.5 161 925.9 161C925.5 161 924.4 161.7 923.6 162.6Z" fill="#1AAB9B"/>
<path d="M904.201 176.2C903.501 176.9 903.001 178.5 903.001 179.8C903.001 181.1 902.201 183.5 901.301 185.2C899.501 188.1 899.501 188.2 901.901 190.1C904.701 192.4 905.501 192.5 907.201 190.4C907.901 189.5 909.901 187.4 911.701 185.7C915.401 182.2 915.001 180.2 909.701 177C905.901 174.7 905.801 174.6 904.201 176.2Z" fill="#1AAB9B"/>
<path d="M780.2 185.2C777.2 188.2 779.7 194 784 194C786.6 194 787 193.6 787 191.2C787 188.1 784.5 184 782.6 184C782 184 780.9 184.5 780.2 185.2Z" fill="#1AAB9B"/>
<path d="M962.7 188.7C962.3 189 962 191.7 962 194.5C962 198.7 962.6 200.5 964.9 203.8C968.5 208.7 969.4 209.3 972.1 208.5C975.6 207.4 976 204 973.4 199C972.1 196.5 971 193.6 971 192.5C971 191.3 970.5 189.9 969.8 189.2C968.5 187.9 963.8 187.6 962.7 188.7Z" fill="#1AAB9B"/>
<path d="M813.001 195C809.201 198.8 811.201 202.1 816.801 201.3C821.201 200.6 822.701 197.7 820.001 195C817.501 192.5 815.501 192.5 813.001 195Z" fill="#1AAB9B"/>
<path d="M941.6 199.9C941.2 200.4 941.2 201.5 941.5 202.2C941.8 203 941.6 204.9 941 206.4C939.6 210.2 941.2 212.7 946.3 215.1C951.7 217.5 955.7 217.5 959.8 215C962.6 213.3 963.1 212.5 962.8 209.7C962.5 206.6 962.3 206.5 957 205.9C950.9 205.2 948.4 204.2 945.6 201.1C943.5 198.8 942.4 198.5 941.6 199.9Z" fill="#1AAB9B"/>
<path d="M770.7 202.6C769.5 203.8 769.9 210.5 771.2 211.8C772.7 213.3 778.4 213.4 781.1 212C784.9 209.9 782.4 204.8 777 203.8C775.6 203.5 773.8 203 772.9 202.6C772.1 202.2 771.1 202.3 770.7 202.6Z" fill="#1AAB9B"/>
<path d="M781.2 216.2C777.7 219.7 782 224.1 787 222C790.3 220.6 791.5 218.3 789.9 216.4C788.5 214.7 782.8 214.6 781.2 216.2Z" fill="#1AAB9B"/>
<path d="M974.4 224.6C973.5 228.2 974.7 234.1 976.7 236.1C979.3 238.5 989.7 237.1 992.3 233.9C994.9 230.6 993.9 229.5 988.2 229.2C983.8 228.9 982.5 228.4 979.6 225.4C977.8 223.6 976 222 975.7 222C975.3 222 974.7 223.1 974.4 224.6Z" fill="#1AAB9B"/>
<path d="M800.601 231.6C798.401 233.7 798.601 235.3 801.301 237.8C804.201 240.5 806.601 240.6 808.001 238.1C809.401 235.3 809.301 234.3 807.001 232C804.601 229.6 802.701 229.5 800.601 231.6Z" fill="#1AAB9B"/>
<path d="M613.2 232.7C610.9 234.8 608 242 608 245.8C608 247.3 607 250.3 605.9 252.5C602 259.7 600.8 264.4 600.1 275.7C599.5 285.7 599.1 287.2 596.5 291C593.9 294.7 593.8 295.4 594.8 298.4C596.5 303 596.3 304.4 593.4 310.1C589.8 317.4 585.7 330.4 582 347C578.1 364.3 576.1 367.8 567 373.2C555.1 380.2 546.5 379.3 539.5 370.2C537 366.8 533.5 363.8 530 361.9C527 360.3 520.9 355.4 516.5 351C510.6 345.2 506.8 342.3 501.9 340.1C494.3 336.7 493.4 335.7 491.7 329.9C490.6 326.1 490 325.4 486.5 324.4C482.7 323.4 479 319.3 479 316.3C479 315.6 481.9 311.8 485.5 307.8C492.1 300.3 492.9 298.3 490.6 294.1C487.2 288.1 492.7 281.4 500.8 281.7C506.9 281.9 508.2 280.8 507.4 275.9C506.9 272.7 507.2 271.6 509.4 269C510.8 267.2 512 265.4 512 264.8C512 264.3 510.4 262.2 508.5 260.3C505.4 257.2 504.6 256.9 501.2 257.4C493.7 258.7 493.5 258.6 493.2 256C492.7 252.4 491.6 251.7 488.1 252.5C486.2 252.9 484.4 254.3 483.3 256.1C482.3 257.7 480.5 259.3 479.3 259.6C476.8 260.3 469.6 258.1 460 253.8C456.4 252.2 451.4 250.5 448.8 250C445.9 249.4 442.2 247.6 438.9 245.1C430.7 238.9 421 237.4 419.5 242.1C418.4 245.3 419.9 247.7 424 249.4C426.1 250.2 428.1 251.4 428.5 252C429.8 254 426.8 259.1 423.1 261.1C421.1 262.2 418.2 263.9 416.7 264.8C413.9 266.5 413.9 266.5 411.9 263.7C409.3 260.3 407.7 260.3 404.5 263.8C402.9 265.6 399.4 267.5 394.9 269C385.6 272.2 382.7 275.6 383.2 283.1C383.5 288.6 383.3 288.9 377.6 290.6C375.5 291.3 374.4 292.5 373.5 295C372.8 297.2 371 299.4 368.7 300.9C366.7 302.2 365 304 365 304.9C365 306.6 368.2 313.4 370.2 316.2C372.1 318.8 370.1 321.3 365.5 322.2C362.4 322.9 361 322.6 357.4 320.5C352.3 317.5 351.5 317.4 348.3 320C346.9 321.1 345.2 322 344.5 322C343.4 322 341 318 335.9 307.5C334.8 305.3 333.6 302.8 333.1 302C332.7 301.2 329.3 299 325.6 297.1C317.5 293 315.1 293.4 311.7 299.2C308.1 305.4 305.7 307.2 300.3 307.7C294.3 308.4 292.6 309.9 288.5 318.1C284.6 325.8 283.8 326.5 278.5 327.3C273 328.1 269.3 332.4 268.5 338.7C268.2 341.3 267.5 344.5 267 345.7C265.7 348.8 259.7 351.1 254.9 350.4C250.2 349.6 249 351.5 251.5 355.8C253.1 358.5 253.1 358.9 251.5 362.1C247.7 369.5 244.3 370.9 241.3 366.3C240 364.3 239.6 361.9 239.7 357.8C239.9 352.8 239.7 352 238.2 352C235.7 352 231.5 356.6 229.5 361.5C228.6 363.7 226.8 366.7 225.4 368.1C222.5 371.1 221 375.8 221 381.8C221 387.7 220.2 388.8 211.2 396.3C204.8 401.5 202.7 404.1 199.5 410.1C193.7 421.4 192.2 423 185.1 426.4C178.9 429.3 177.8 429.5 165.9 429.6C153.1 429.7 151 430.1 151 432.4C151 435.4 147.6 437 142.2 436.3C135.9 435.6 131.4 437.2 129.4 441.1C127.6 444.7 124.6 445.4 116.4 444.6C111.1 444.1 109.3 444.3 106.1 445.9C103.9 447 100.4 448.2 98.1002 448.6C95.1002 449.1 92.7002 450.5 88.7002 454.4C85.4002 457.6 80.1002 461.2 74.7002 463.8C67.0002 467.6 65.4002 468.9 61.8002 474.1C57.6002 480.1 55.7002 481.2 54.6002 478.5C53.8002 476.2 51.2002 476.7 49.5002 479.4C48.2002 481.3 48.0002 483.2 48.6002 487.8C49.3002 494.6 48.2002 497.9 41.0002 509.5C35.7002 518.1 34.9002 523.3 37.8002 530.6C42.2002 541.6 42.5002 557.7 38.4002 561.1C36.2002 562.9 35.2002 561.4 34.5002 555.2C33.7002 547.8 32.7002 546.1 30.3002 547.6C28.8002 548.6 28.6002 549.9 28.8002 556.4C29.1002 562.8 28.9002 564 27.6002 564C26.7002 564 25.5002 563.1 24.8002 562C24.1002 560.9 22.7002 560 21.8002 560C18.7002 560 19.4002 567.8 22.9002 572C28.6002 579 29.3002 581.5 28.7002 592.3L28.2002 602.2L32.1002 609.8C37.4002 620.2 37.8002 622.6 34.6002 627C33.2002 628.9 31.3002 631.6 30.3002 633C27.8002 636.4 27.4002 648.9 29.4002 662.3C32.1002 680.5 31.2002 687.3 24.8002 697.2C22.6002 700.6 20.1002 705.2 19.3002 707.4C17.4002 713 15.6002 714.6 9.40023 716.6C-1.19977 719.9 -3.19977 727.2 5.40023 731.5C6.90023 732.3 7.50023 733.5 7.50023 735.9C7.60023 740.2 9.60023 741.6 17.3002 742.4C23.9002 743.1 50.9002 740.7 53.8002 739.1C54.8002 738.6 56.4002 737.3 57.4002 736.1C59.3002 734 68.7002 730 71.8002 730C72.7002 730 76.0002 728.4 79.0002 726.5C83.2002 723.8 85.5002 723 89.1002 723C91.6002 723 95.7002 722.3 98.1002 721.4C101.5 720.2 104.8 720 112.5 720.4C118 720.7 129 721.1 137 721.2C153.8 721.5 151.2 722.6 166.4 708.8C174.1 701.7 175.8 700.6 180.2 699.9C183.5 699.4 186.3 698.1 188.6 696.1C190.5 694.4 193.1 693 194.4 693C195.6 693 198.9 691.5 201.6 689.7C205.9 686.9 207.4 686.5 214.7 686.1C221.5 685.9 223.9 686.2 228.2 688C233.3 690.1 233.7 690.1 240.5 688.6C244.6 687.7 252.7 684.4 259.9 680.7L272.3 674.5L288.4 673.9C297.3 673.6 306.2 672.7 308.2 672C311.4 670.9 312.2 670.9 314.5 672.4C315.9 673.4 318 676.1 319 678.6C320.1 681 321.1 683.1 321.2 683.1C321.4 683.2 328.3 683.7 336.5 684.4L351.5 685.5L352.5 688.7C353.1 690.5 354.8 693.2 356.3 694.8C359.4 698.1 359.6 698.7 357.4 701.1C355.9 702.7 356 703.4 357.9 709C360.2 715.6 361 730.9 359.6 738.1C359 740.9 359.2 742.1 360.6 743.4C362.2 745.1 362.5 745 366.3 740.6C368.4 738 371.9 735.1 374 734C377.3 732.3 377.9 731.5 378.2 728.3C378.5 724.1 378.9 723.8 393.5 717.7C400.1 714.9 401.8 713.7 403.2 710.9C405.6 706.3 408.2 704.3 413.1 703.5C418.4 702.6 419.7 704 416.5 707C414.8 708.6 414 710.4 414 712.6C414 716.8 411 720.3 404.5 723.8C400.9 725.7 399.2 727.4 398.5 729.6C398 731.3 396.4 734 395 735.8C393.6 737.5 391.7 740 390.8 741.4C389.6 743 387.8 744 385.9 744.2C382.4 744.5 380.3 746.8 381.3 749.4C381.8 750.6 383.2 751 387 751C394.5 751 397.5 749.1 400.6 742C402.4 737.8 404.8 735 406.6 735C407.4 735 408.7 736.2 409.7 737.6C411.3 740.2 411.3 740.4 408.1 746.6C406 750.7 403.6 753.7 401.4 755.1C397.8 757.3 397.3 759.8 400.6 759.1C406.6 757.8 407.4 758.2 408.7 764C410.3 771 409.2 775.3 404.4 780.8C401.3 784.5 400.9 785.5 401.4 788.5C401.8 790.4 403.6 793.7 405.5 796C407.4 798.3 409.2 801.8 409.6 803.8C410.6 809.2 411.6 810.7 416.3 813.4C422 816.6 425.5 817.3 429.7 815.9C433.4 814.7 435.6 815.8 444.1 823.1C446.4 825 449.3 826.4 451.8 826.7C455.5 827.2 456.2 826.9 460.7 822.8C466.8 817.1 469.4 815.7 472.9 816.5C475.6 817.1 477 816.2 486.2 808.9C490.4 805.5 492 807.5 492 816C492 821.9 492.3 823 494.6 825.4C496.1 826.8 499 828.5 501.2 829.2C504.7 830.2 505.3 830.1 507.8 828.1C513.8 823.3 519.8 819.8 524.8 818.4C529.5 817 530.4 816.3 532.2 812.5C533.5 809.9 535.4 807.7 536.9 807.1C542 805.1 551.8 804.3 558.7 805.4C568.5 806.8 574.3 806.7 577.4 805C579.4 804 581.5 800.8 584.7 794C591.4 779.7 591.4 779.8 597.5 775.5C601.2 772.9 604.1 769.8 606 766.4C607.6 763.5 610.4 760.3 612.2 759.2C616.9 756.2 622 750.7 636.5 732.5C652.9 712 653.4 711.4 660 707.2C668.3 701.9 689.2 683.5 693.6 677.7C695.8 674.9 701.7 667.6 706.9 661.5C715.7 651.2 720.9 642.5 722.6 635.4C723.7 630.5 725.8 627.3 730.8 622.3C735.1 618 735.9 616.4 738 609C739.9 601.8 740.1 599.1 739.6 591.4C739 583.7 739.2 581.6 740.9 577.3C744.3 568.5 745.1 561.6 744.1 545.8C743.3 531.5 743.2 530.9 739.9 525.4C738 522.3 733.2 516.5 729.2 512.5C721 504.3 721 504.7 723.1 490.1C724.4 480.9 724.4 480.7 722.2 479C721 478 717.5 476.8 714.5 476.5C705.8 475.4 703.6 472.3 701.9 458.7C701.4 454.4 699.8 447.9 698.5 444.3C697.1 440.7 696 435.8 696 433.4C696 429 695.9 428.9 690.8 426.6C685 424.1 682.7 421.9 681.1 417.7C680 414.9 679.6 414.6 674.6 413.5C671.5 412.8 663 404.5 660.3 399.6C658.4 396 659.1 383 661.5 377.3C663.5 372.5 663.4 369.1 661 363.9C659.3 360 659 357.3 659 338.6V317.7L654.6 313.6C651.6 310.8 650 308.5 649.8 306.5C649.4 302.3 646.3 302.1 639.1 306.1C630.9 310.6 629.5 309.9 630.3 301.2C630.6 297.5 631.5 292 632.3 289C633.4 284.9 633.5 282 632.8 277.5C632.3 274.2 631.6 267.7 631.2 263C630.5 256.1 629.9 253.8 627.6 250.5C625.3 247.1 624.9 245.9 625.5 242.2C626.3 236.6 625.5 234.3 622 232.5C618.2 230.5 615.7 230.6 613.2 232.7Z" fill="#1AAB9B"/>
<path d="M785.1 239.7C780.4 243.5 785.7 246.6 792.5 244C794.5 243.3 795.1 242.4 794.8 240.7C794.4 237.7 788.4 237.1 785.1 239.7Z" fill="#1AAB9B"/>
<path d="M388.8 241.7C387.3 243.6 388.3 247.4 390.7 248.4C391.8 249 393.5 250.9 394.4 252.7C396.3 256.6 398.7 256.9 405.2 254.1C413.8 250.4 418.8 243.8 414.8 241.3C412.7 240 390 240.3 388.8 241.7Z" fill="#1AAB9B"/>
<path d="M816.2 246.2C815.5 246.9 815 248.4 815 249.7C815 251 814.4 252 813.8 252C812 252.1 817.8 257 819.6 257C820.4 257 822.9 255.3 825.2 253.2C830.3 248.4 830 246 824.1 246C821.9 246 819.6 245.8 818.8 245.5C818.1 245.2 816.9 245.5 816.2 246.2Z" fill="#1AAB9B"/>
<path d="M944.401 250.1C944.101 250.7 944.301 252.2 945.001 253.4C945.901 255.1 946.801 255.6 948.701 255.2C951.701 254.6 952.701 252.5 951.001 250.5C949.501 248.8 945.401 248.5 944.401 250.1Z" fill="#1AAB9B"/>
<path d="M941.7 270.7C941.4 271.1 941.7 273.1 942.4 275C943.8 279.3 947.1 280.2 949.4 276.8C951.9 273.2 951.5 271.1 948.3 271.2C946.7 271.3 944.8 271 943.9 270.6C942.9 270.2 942 270.2 941.7 270.7Z" fill="#1AAB9B"/>
<path d="M1055.7 324C1054.1 325.3 1052.8 327.7 1052.2 330.7C1051 336.1 1052 339.5 1054.9 340.5C1057.3 341.2 1062.3 338.8 1064.4 335.8C1066.3 333.2 1066.5 324.9 1064.8 323.2C1063 321.4 1058.6 321.8 1055.7 324Z" fill="#1AAB9B"/>
<path d="M1060 345C1057.8 347.2 1057.6 347.9 1058.9 349.9C1059.4 350.7 1060.5 351 1061.8 350.6C1064.6 349.7 1069.2 345.2 1068.5 344C1067.4 342.3 1062.1 342.9 1060 345Z" fill="#1AAB9B"/>
<path d="M1067.3 354.3C1065.5 355.5 1064.1 357.2 1064.3 358C1064.9 362.1 1073 358.8 1073 354.5C1073 351.5 1071.6 351.5 1067.3 354.3Z" fill="#1AAB9B"/>
<path d="M1266.5 356.5C1262.3 360.6 1263.6 371 1268.3 371C1272.3 371 1280 363 1280 358.8C1280 353.7 1270.8 352.1 1266.5 356.5Z" fill="#1AAB9B"/>
<path d="M1250.5 372.1C1249.4 372.6 1245.8 375.2 1242.5 377.8C1237.3 382 1236.5 383.2 1236.2 386.5C1235.8 390.8 1237.5 395.6 1239.6 396.4C1241.8 397.2 1252.9 394.6 1258.5 391.9C1262.4 390 1263.7 388.8 1264.4 386.3C1265.6 381.8 1262.1 374.8 1257.6 372.6C1253.8 370.8 1253.3 370.8 1250.5 372.1Z" fill="#1AAB9B"/>
<path d="M974.201 389.2C971.401 392 974.201 398 978.301 398C980.001 398 982.001 395.1 982.001 392.6C982.001 389 976.701 386.7 974.201 389.2Z" fill="#1AAB9B"/>
<path d="M1247.3 405C1244.4 406.3 1243 407.5 1243 408.9C1243 411.3 1244.9 412 1249.5 411.3C1253.4 410.7 1256.6 407.1 1255.6 404.5C1254.9 402.5 1252.5 402.7 1247.3 405Z" fill="#1AAB9B"/>
<path d="M970 422.9C968.3 426.1 968.8 428.3 972.5 434.4C974.4 437.5 976.2 441.8 976.6 443.7C977.1 446.3 978.7 448.7 982.3 451.9C985 454.4 988.5 458.4 990.1 460.7C991.7 463 994.6 465.7 996.4 466.5C998.9 467.7 1000.4 469.5 1001.9 472.9C1003 475.5 1004.5 478.1 1005.2 478.7C1006.7 479.8 1020 479.8 1021.8 478.7C1023.9 477.3 1023.2 471 1020.5 467.4C1016.3 461.8 1012.1 459.5 1006.5 459.5H1001.5L1000.9 452.5C1000.1 442.3 997 438 990.5 438C985.6 438 981 433 981 427.8C981 422.1 972.5 418.3 970 422.9Z" fill="#1AAB9B"/>
<path d="M1025.7 483.8C1022.9 486.8 1023.6 488.8 1027.5 489.6C1031.8 490.4 1034.2 488.7 1033.8 485.1C1033.6 483 1032.9 482.4 1030.4 482.2C1028.4 482 1026.8 482.5 1025.7 483.8Z" fill="#1AAB9B"/>
<path d="M1019.9 747.5C1017.1 749 1012.3 758.6 1011.3 764.3C1010.7 768.2 1012.1 769.7 1017 770.2C1021 770.6 1022.4 773.4 1019 774.5C1014.2 776 1013.1 780.9 1013 801.6C1013 802.7 1009.7 807.5 1005.6 812.3C1001.5 817.1 997.301 822.2 996.201 823.8C993.901 826.9 992.001 828 983.501 831.1C976.801 833.5 968.001 841.3 968.001 844.8C968.001 846.2 969.801 848.1 973.801 850.7C977.301 853 979.601 855.3 979.801 856.6C980.501 861.6 972.001 870.4 963.201 874C959.001 875.6 957.501 879.1 959.201 882.8C960.901 886.3 964.101 886.6 973.601 884.5C982.301 882.6 991.201 876.6 996.701 868.8C1000.1 864.1 1000.3 864 1005.7 864C1013.2 864 1015 862.9 1015 858C1015 854.6 1015.6 853.7 1020.5 849.5C1024.4 846.2 1026.3 843.6 1027.2 840.8C1029 834.7 1031.1 833.8 1041.1 834.9C1051.3 836.1 1054.4 834.8 1057.6 828.1C1059.9 823.3 1061.4 822 1064.8 822C1066.5 822 1067.5 821 1068.6 818.2C1069.5 816.2 1071.4 813.2 1072.8 811.7C1075.1 809.3 1075.5 808 1075.5 802.7V796.5L1072 796.6C1070 796.6 1066.7 797.8 1064.5 799.3C1057.4 804 1047.3 805.3 1044 802C1041.5 799.5 1041.5 797.5 1043.9 795.1C1048.6 790.4 1049.6 783.2 1045.8 780.6C1042.2 778 1040.4 778.7 1036.3 783.9C1034.2 786.7 1031.9 789.1 1031.2 789.4C1027.4 791 1026.9 786 1030.5 782.4C1034.3 778.6 1035.1 776.5 1034.9 769.8C1034.8 766.3 1035.1 761.5 1035.5 759L1036.2 754.5L1031 750.2C1025.3 745.7 1023.9 745.3 1019.9 747.5Z" fill="#1AAB9B"/>
<path d="M368.8 759.9C364 760.6 360 763.2 360 765.7C360 766.6 361.7 767 365.8 767.1C368.9 767.2 371.9 767.2 372.3 767.1C372.8 767 375.8 766.7 379.1 766.3C385.1 765.7 387.8 763.8 386.2 761.3C385.3 759.9 374.7 759 368.8 759.9Z" fill="#1AAB9B"/>
<path d="M511 846.5C508.3 850.9 507.9 855.8 510.1 857.3C512.6 858.9 516.9 857.2 519 853.7C521.5 849.7 521.5 846.8 519.2 844.7C516.2 842 513.4 842.6 511 846.5Z" fill="#1AAB9B"/>
<path d="M443 847.1C437.4 850.9 437.1 853.4 442.1 853.8C445.1 854.1 446.5 853.5 449.5 850.7C456.5 844.3 451.3 841.5 443 847.1Z" fill="#1AAB9B"/>
<path d="M930.401 863.4C926.301 865.4 922.001 868.9 917.701 873.5C914.201 877.3 908.601 882 905.401 883.9C893.201 891 889.401 893.8 887.501 897.3C885.301 901.5 883.701 902.3 875.501 903.9C870.201 904.8 869.001 905.5 865.601 909.5C863.501 912 861.101 914 860.301 914C859.401 914 856.401 915.3 853.601 916.9C850.801 918.6 844.001 921 838.501 922.5C831.001 924.4 826.901 926.1 822.001 929.4C812.501 935.8 810.301 936.7 802.301 937.2C792.901 937.9 786.701 941.3 785.001 946.7C783.501 951.4 781.601 953 777.401 953C775.401 953 772.901 954.1 770.501 956C768.401 957.7 765.501 959.3 764.101 959.5C762.701 959.8 759.701 960.6 757.501 961.3C753.901 962.4 753.401 963 752.401 967L751.301 971.5L746.601 971.2C742.001 970.8 742.001 970.9 740.101 975.2C738.301 979.2 738.301 979.6 739.901 980.8C741.001 981.7 743.001 981.9 746.101 981.5C750.401 980.9 750.801 981.1 753.801 984.4C755.501 986.4 757.601 989.3 758.501 990.9C759.301 992.5 760.901 994.2 762.001 994.5C766.201 995.8 785.901 988.1 798.201 980.4C800.301 979.1 804.501 977 807.501 975.9C811.601 974.4 814.001 972.6 816.801 969.2C823.501 960.9 829.401 954.8 832.101 953.5C833.501 952.7 836.501 950.6 838.701 948.7C841.801 946.2 844.101 945.1 847.901 944.7C854.001 944 858.201 941.9 861.801 937.8C864.401 934.9 864.701 934.8 871.001 935.4C874.601 935.7 879.201 935.5 881.201 935C884.301 934.1 885.101 933.2 886.601 929.4C888.401 924.7 895.101 918 897.901 918C902.201 918 907.001 915.7 908.601 913.1C910.901 909.2 917.201 905.3 925.301 902.9C930.101 901.4 932.601 900 934.001 898C935.101 896.4 937.501 894.2 939.301 893.1C941.201 892 943.201 889.9 943.801 888.5C944.501 887 946.801 885.2 949.401 884.1C951.801 883 954.501 881.1 955.401 879.9C957.601 876.7 957.401 871.7 955.001 869.5C952.901 867.6 951.301 867.7 943.801 870.7C937.901 872.9 936.601 872 938.201 866.8C939.301 863.2 938.801 859.9 937.301 860.1C936.901 860.2 933.701 861.6 930.401 863.4Z" fill="#1AAB9B"/>
<path d="M449.701 866.7C448.901 867.7 446.101 872.5 443.601 877.3C439.301 885.4 439.001 886.5 439.601 891.1C440.301 896 440.201 896.1 436.101 899.9L432.001 903.7L432.601 910.1C433.001 913.6 433.401 916.7 433.601 916.9C433.801 917.1 433.001 919 431.801 921.1C427.401 928.9 432.201 930.1 444.501 924.1C454.601 919.2 467.001 914.1 473.401 912.4C479.501 910.7 480.701 909.7 482.101 904.9C483.501 900.3 485.201 898.7 490.301 897C494.401 895.7 495.801 893.5 498.001 884.8C499.601 878.6 502.301 874.5 505.701 872.8C507.401 872 508.501 870.7 508.501 869.5C508.501 866.8 503.101 866.3 497.301 868.5C494.501 869.6 491.701 870 489.201 869.5C486.001 869 484.801 869.4 480.501 872.5C474.201 876.9 470.601 877.1 468.501 873C466.901 869.8 463.601 867.5 462.001 868.5C461.501 868.8 458.901 868.2 456.401 867.1C450.801 864.6 451.601 864.6 449.701 866.7Z" fill="#1AAB9B"/>
<path d="M738.7 992.8C737.7 993.8 737 995.2 737 995.9C737 996.6 735.4 997.8 733.5 998.6C729.4 1000.3 729.2 1001 732.1 1003.6C734.1 1005.4 734.2 1005.4 737.8 1003.2C739.8 1002 743.2 1000.3 745.3 999.4C747.6 998.4 749 997.1 749 996C749 991.4 741.9 989.3 738.7 992.8Z" fill="#1AAB9B"/>
</svg>
