<svg width="898" height="1280" viewBox="0 0 898 1280" fill="none" xmlns="http://www.w3.org/2000/svg">
<path d="M483.801 1.1C480.301 3.1 482.101 7 486.501 7C488.701 7 490.401 3.2 488.901 1.4C487.601 -0.2 486.201 -0.3 483.801 1.1Z" fill="#1AAB9B"/>
<path d="M487.401 11.5C485.901 12.6 485.701 13.2 486.601 14.7C488.201 17.3 492.401 17.1 492.801 14.3C493.201 11.3 489.901 9.6 487.401 11.5Z" fill="#1AAB9B"/>
<path d="M492.3 27.7C490.3 28.4 490.8 32.8 492.9 34C494 34.5 495.1 35 495.3 35C496.2 35 498 28.8 497.4 27.9C496.8 26.9 494.3 26.8 492.3 27.7Z" fill="#1AAB9B"/>
<path d="M324.501 69.8999C321.801 70.4999 321.101 71.2999 318.001 77.9999C317.501 78.9999 315.801 79.4999 313.101 79.5999C309.901 79.5999 308.201 80.2999 305.701 82.6999C301.101 86.9999 298.901 87.9999 291.401 88.6999C286.101 89.1999 284.601 89.6999 283.401 91.5999C281.701 94.1999 277.201 95.9999 272.501 95.9999C265.401 95.9999 260.701 102.9 260.501 113.6C260.301 122.3 259.801 123.2 255.501 122.4C252.601 121.9 251.901 122.2 250.401 124.6C249.401 126.1 248.601 128.9 248.501 130.9C248.501 134.2 248.201 134.5 244.501 135.5C241.001 136.5 240.501 137.1 240.201 139.9C239.901 143 239.601 143.2 237.001 142.7C234.401 142.1 234.201 142.4 233.601 145.9C233.201 148.6 231.901 150.7 229.501 152.9C227.501 154.6 225.601 156 225.201 156C224.801 156 223.901 156.4 223.101 156.9C221.901 157.7 221.901 158.1 223.301 159.5C224.301 160.4 225.001 162.7 225.001 164.8C225.001 167 225.801 169.2 227.101 170.6C229.001 172.6 229.201 174.1 229.301 187.6C229.501 202.3 229.501 202.4 226.801 205.8C224.801 208.3 224.001 210.4 224.001 213.4C224.001 215.6 223.301 221.3 222.601 226C221.701 231.2 221.501 236.1 221.901 238.6C223.001 244.2 221.801 246 217.101 246C210.101 246 206.001 251.6 206.001 261.2C206.001 264.1 205.201 265.7 202.501 268.5C199.401 271.5 198.301 272 194.101 272C191.401 272 188.801 272.6 188.201 273.2C187.701 273.9 186.701 277.4 186.101 281C184.701 289.2 182.601 292 176.501 293.9C170.701 295.8 167.701 299.6 166.101 307.1C164.501 314.6 164.901 321.8 167.401 328.5C169.401 334 169.901 334.6 173.501 335.7C175.701 336.4 179.201 337.2 181.301 337.5C187.001 338.4 185.901 341.2 177.001 348.7C171.401 353.3 169.101 356 167.901 359.2C167.001 361.6 165.401 365.1 164.201 367C161.401 371.5 161.401 372.8 164.501 375.6C166.401 377.4 166.801 378.5 166.401 380.8C166.101 382.4 166.301 385.3 166.801 387.4C167.501 389.9 167.501 392 166.801 394.1C164.901 399.7 170.401 404.2 181.701 406C188.401 407.1 189.801 408.3 191.101 414C192.601 420.8 198.701 432.3 203.901 438.1C206.501 441.1 209.301 445.3 210.001 447.5C210.701 449.7 212.801 453.2 214.601 455.2C218.701 459.8 220.501 463.4 221.401 468.5C222.601 475.2 233.101 497 239.201 505.6C242.401 510 246.301 516.7 248.101 520.6C249.801 524.4 252.001 529.3 253.101 531.6C254.101 533.8 255.001 537.2 255.001 539.1C255.001 543 256.201 545 264.101 554.6C274.401 567.2 290.701 580.5 296.801 581.5C302.201 582.4 305.601 583.9 307.701 586.2C308.701 587.3 313.101 590 317.501 592.1C321.901 594.2 327.301 596.9 329.501 598.1C331.701 599.2 334.201 600.5 335.001 600.9C335.901 601.4 336.601 603.5 336.801 606.2C337.201 612 339.501 614.2 348.001 617C355.001 619.4 356.001 620.2 356.001 623.9C356.001 625.2 357.401 630.4 359.101 635.4C361.601 642.5 362.501 647.2 363.101 656.5C363.601 663.1 364.201 670.1 364.501 672C365.001 674.4 364.101 679.4 362.001 687.5C358.301 701.3 358.001 705.8 360.401 712C361.701 715.3 362.201 719.3 362.201 726.7C362.201 735.5 362.501 737.3 364.201 739.6C366.101 742 366.201 742.6 365.101 747.3C364.101 751.5 364.101 755.3 365.301 767.5C366.601 779.9 366.801 789.1 366.101 798.7C366.001 799.4 364.701 801.2 363.001 802.7C359.301 805.9 359.201 808.9 362.601 812.9C365.001 815.8 365.101 816.5 364.501 822.3C364.101 826 362.901 829.7 361.701 831.4C359.701 834.3 359.701 834.4 361.401 842.7C362.401 847.4 364.301 854.1 365.601 857.6C366.901 861.2 368.001 865 368.001 866.3C368.001 867.5 369.101 870.9 370.501 873.8C373.701 880.7 373.601 882.5 369.901 889.6C366.801 895.4 366.701 895.6 367.601 904.5C369.101 921.1 368.101 946.2 365.601 952.9C363.501 958.6 363.601 961.2 366.001 964.3C370.001 969.4 372.001 975.2 372.001 982.2C372.001 986.4 372.601 990.3 373.701 992.5C375.301 995.9 375.301 996.1 373.201 999C370.601 1002.4 370.501 1003.8 372.401 1006.5C373.101 1007.6 374.001 1010.7 374.301 1013.3C375.001 1018.6 381.501 1031.9 383.801 1032.7C384.601 1033.1 386.501 1032.5 388.101 1031.6C390.601 1030.1 391.401 1030.1 393.701 1031.2C395.201 1031.9 396.601 1033.4 396.801 1034.5C397.001 1035.6 398.701 1037.9 400.601 1039.7C404.001 1042.9 404.901 1046.1 403.101 1048.9C402.601 1049.6 402.701 1051.4 403.301 1053C404.101 1055.1 403.901 1056.7 402.601 1060C400.901 1064.4 401.601 1067 404.601 1067C406.701 1067 407.001 1068.4 405.801 1072.3C404.801 1075.5 404.901 1076.3 406.501 1078C407.501 1079.1 408.901 1080 409.601 1080C411.901 1080 415.001 1084.3 415.001 1087.4C415.001 1089.1 413.901 1092.9 412.501 1095.8C409.701 1101.9 409.501 1104.4 411.501 1108C412.401 1109.6 412.901 1113.6 413.001 1119.6C413.001 1127.3 412.701 1129.1 411.001 1131.3C409.901 1132.7 409.001 1134.2 409.001 1134.8C409.001 1135.3 409.901 1136.5 411.001 1137.5C412.101 1138.5 413.001 1139.8 413.001 1140.4C413.101 1143.1 415.101 1144.4 419.501 1144.5C422.201 1144.6 424.801 1145.4 425.701 1146.3C427.101 1147.7 427.001 1148 424.201 1149.4C421.101 1151 420.601 1152.2 419.501 1160.2C418.801 1164.6 419.001 1165.1 421.501 1167.2C428.501 1173 429.001 1173.8 429.001 1178.5C429.001 1182.8 430.801 1186 433.801 1187.1C434.301 1187.3 435.801 1190.2 437.101 1193.5C439.101 1198.4 440.201 1199.8 443.201 1201.2C445.201 1202.2 447.601 1204.3 448.601 1205.9C449.601 1207.5 451.401 1209.4 452.701 1210.1C454.301 1211 455.601 1213.1 456.601 1216.7C457.501 1219.7 459.101 1223.2 460.301 1224.6L462.501 1227.2L467.901 1224.4C472.901 1221.8 473.501 1221.7 479.301 1222.7C482.701 1223.3 487.201 1224.5 489.201 1225.4C492.401 1226.8 493.001 1227.5 493.001 1230C493.001 1236.2 484.701 1236.6 481.201 1230.6C477.901 1225.1 471.001 1225.2 471.001 1230.9C471.001 1234.1 473.301 1236.4 477.301 1237.4C481.001 1238.3 480.701 1240 476.901 1240C472.901 1240 473.601 1241.8 478.301 1243.6C480.301 1244.4 483.701 1245.7 485.801 1246.5C490.401 1248.2 495.201 1248.4 496.801 1246.8C497.501 1246.1 498.001 1244 498.001 1242C498.001 1239.4 499.301 1236.4 502.501 1231.5C510.701 1218.6 509.301 1219.7 517.601 1220.4C524.901 1221.1 525.001 1221.1 525.001 1218.7C525.001 1215.5 522.001 1213 518.201 1213C515.501 1213 515.001 1212.6 515.001 1210.7C515.001 1209.4 513.901 1207.3 512.601 1206.1C509.201 1202.9 507.001 1197.9 507.001 1193.6C507.001 1188.8 510.201 1182.7 513.401 1181.2C516.201 1179.9 516.301 1179.5 516.001 1167L515.801 1159.4L520.901 1154.7C523.701 1152.1 527.101 1149.5 528.501 1148.8C533.801 1146.4 535.201 1138.4 531.401 1132.2C530.201 1130.4 529.101 1130 524.601 1130C520.301 1130 518.501 1129.4 515.201 1127.1C513.001 1125.5 510.901 1123.6 510.501 1123.1C510.201 1122.5 508.101 1121.1 506.001 1120C501.201 1117.5 499.001 1113.6 499.001 1107.4C499.001 1103.5 499.501 1102.3 502.301 1099.5C504.501 1097.3 507.001 1095.9 509.601 1095.5C511.701 1095.2 514.201 1094.5 515.001 1094.1C516.701 1093.2 518.201 1086.6 518.101 1080.5C518.101 1078.3 518.001 1073.3 517.901 1069.5C517.901 1065.6 517.901 1062.2 517.901 1061.7C518.001 1061.3 519.101 1061 520.501 1061C523.701 1061 523.701 1059.2 520.401 1056.1C517.301 1053.1 517.601 1050.6 521.301 1050.2C523.201 1050 524.001 1049.3 524.001 1048C524.001 1045.6 522.301 1044.6 518.901 1044.8C517.401 1044.9 515.001 1044.6 513.601 1044C511.301 1043.1 511.001 1042.5 511.001 1037.8C511.001 1032.6 510.901 1032.5 506.201 1029.5C500.901 1026.1 499.601 1022.5 502.601 1019.5C505.001 1017.2 512.201 1018 516.401 1021.1C519.101 1023.2 520.901 1023.5 529.201 1023.8C537.901 1024.1 539.001 1024 540.901 1022.1C543.201 1019.8 543.801 1013.4 541.901 1012.8C541.301 1012.6 540.301 1008.6 539.701 1003.8C538.801 996.3 538.901 994.6 540.401 990.6C542.501 985.1 544.801 984.2 551.401 986.4C558.401 988.8 557.701 988.9 578.501 982.4C582.901 981.1 587.601 980 588.801 980C594.101 980 597.001 976.9 603.201 964.5C610.701 949.4 610.701 949.6 600.001 935.6C598.201 933.2 597.001 930.5 597.001 928.6C597.001 926.9 596.201 923.2 595.201 920.5L593.401 915.5L588.701 915.8C582.601 916.2 578.901 914.1 576.101 908.8C574.201 905.3 574.001 904 574.901 901.7C576.301 898.1 578.001 898.3 582.301 902.4C585.001 904.9 587.001 905.8 590.901 906.3C596.301 906.9 600.901 909 605.301 912.6C608.801 915.6 610.701 915.6 616.501 912.8L621.101 910.6L625.301 912.8C630.601 915.6 631.101 915.6 634.101 912.4C635.401 911 637.901 909.1 639.501 908.3C645.401 905.3 648.001 902 648.001 897.4C648.001 893.7 648.601 892.5 651.901 889.3C656.801 884.3 658.301 881.4 661.501 869.9C664.501 859.2 665.101 858.3 669.401 857.2C671.501 856.7 673.001 855.3 674.001 853.3C674.801 851.6 676.701 849.2 678.201 848C680.001 846.7 681.101 844.6 681.501 842.2C683.901 827.2 687.001 819.4 695.901 806.1C705.501 791.7 705.301 792.3 704.501 780.1C703.901 771.6 703.301 768.7 701.401 765.4C698.401 760.3 698.201 753.4 700.901 748.2C702.901 744.3 708.101 739.1 716.001 733.1C718.501 731.2 721.701 728 723.201 725.9C726.701 721.1 730.501 719.1 738.401 718.1C744.401 717.4 745.201 717 751.401 711.3C761.301 702.3 763.201 701.5 777.801 701.3C784.601 701.3 791.101 700.9 792.301 700.6C793.501 700.3 795.801 698 797.301 695.5C798.901 693 802.701 688.8 805.701 686.2L811.201 681.4L811.501 673.9C811.701 669.8 811.901 665.9 811.901 665.3C812.001 664.6 813.501 663.4 815.301 662.7C820.001 660.7 821.501 658.4 821.201 653.2C821.001 648.1 821.801 646.8 827.301 643.3C832.401 640.1 833.101 637.7 831.401 630.4C830.701 627.2 830.001 621.9 830.001 618.7C830.001 613.4 830.301 612.6 833.601 609.4C835.801 607.1 836.901 605.2 836.501 604.2C833.801 597 833.801 590.2 836.701 587.8C839.401 585.6 840.001 582.3 838.501 577.3C837.801 574.7 836.801 568.9 836.501 564.5C836.101 560.1 835.101 554.7 834.401 552.5C832.601 547.3 832.701 545.6 834.601 541.8C836.001 539 836.001 538.4 834.601 534.6C833.701 532.4 833.301 529.4 833.701 528C834.501 524.4 838.801 520.2 842.901 518.9C846.901 517.6 850.001 515.3 850.001 513.5C850.001 512.9 851.301 510.6 852.901 508.4C854.501 506.3 856.101 503.5 856.401 502.3C856.801 501 859.101 495.7 861.601 490.5C865.401 482.3 866.401 481 868.401 481C870.301 481 871.901 479.4 875.601 473.9C878.201 469.9 883.101 463.6 886.401 459.7L892.401 452.7L893.101 442.6C893.501 436.3 894.501 430.3 895.901 426.6C898.601 419 898.601 418.2 895.001 408C893.401 403.3 892.001 397.6 892.001 395.2C892.001 391.4 891.401 390.2 887.101 385.7L882.101 380.5L872.301 380.2C862.801 379.9 862.401 379.8 859.801 376.8C858.301 375.1 856.101 373.6 854.801 373.5C853.501 373.4 852.201 373.2 851.901 373.1C851.601 373.1 848.701 369.5 845.501 365.2C839.901 357.7 830.201 349.2 823.301 345.6C821.501 344.7 819.301 342.6 818.501 341C816.601 337.3 813.601 337.1 803.501 340C799.701 341.1 794.801 342 792.601 342C788.701 342 773.201 337.3 767.401 334.3C763.401 332.2 757.401 333 750.701 336.4C745.301 339.3 743.701 339.1 746.401 336.1C749.601 332.6 748.701 328.7 743.501 322.7C740.701 319.4 737.601 316.8 736.001 316.5C734.501 316.2 732.101 314.6 730.601 312.9C728.501 310.5 727.201 310 723.601 310C720.201 310 718.401 309.3 716.001 307.3C713.001 304.8 709.901 303.9 699.301 302.4C692.201 301.3 690.401 302.3 687.201 309.2C683.601 316.6 673.401 326 668.801 326C666.401 326 666.001 325.6 666.001 323.2C666.001 319.7 667.601 318 671.001 318C674.701 318 677.201 315.9 679.801 310.6C681.001 308.1 683.001 303.9 684.201 301.4C687.201 295.3 686.101 293.7 678.401 292.9C675.201 292.5 667.501 292.2 661.301 292.1C652.401 292 649.801 292.3 648.601 293.6C646.901 295.2 646.901 295.5 646.601 305.5C646.501 311.5 646.501 311.5 643.401 311.8C641.601 312 638.501 313.6 636.201 315.6C633.001 318.3 631.301 319 627.901 319H623.601L631.301 311.6C635.501 307.5 639.001 303.5 639.001 302.5C639.001 301.6 640.101 298.5 641.501 295.6C643.301 291.8 645.101 289.8 647.901 288.2C650.701 286.6 652.201 284.9 653.001 282.4C653.701 280.4 655.501 277.4 657.001 275.7C660.701 271.3 663.201 266.3 662.801 263.7C662.601 262 661.101 261.1 656.201 259.5C652.701 258.3 649.501 256.7 649.001 256C648.601 255.2 648.001 251 647.701 246.7C647.201 240.2 646.701 238.3 644.301 235.2C642.001 232.1 641.401 230.2 641.001 224.1L640.501 216.6L637.201 215.8C634.301 215 633.401 214 630.701 208.2C627.101 200.4 626.501 199.8 622.601 200.5C620.501 200.9 619.001 200.3 616.801 198.5C614.901 196.9 612.601 196 610.501 196C607.901 196 606.601 195.3 604.901 192.9C601.801 188.5 594.901 185.6 589.601 186.4C586.901 186.8 583.901 186.5 581.101 185.5C575.901 183.7 569.601 183.6 562.001 185.2C554.901 186.6 551.201 185.5 548.301 180.9C547.101 179 543.701 175.1 540.801 172.3C536.601 168.1 534.801 167 532.301 167C527.801 167 525.001 164 525.001 159.2C525.001 152.3 516.401 141.8 506.601 136.8C503.201 135 502.201 134.9 498.701 136C490.901 138.3 485.501 133.3 490.301 128.2C498.001 119.8 491.001 112 475.601 112C467.701 112 467.001 111.5 467.001 106.5C467.001 103.3 469.501 101 473.001 101C477.801 101 477.801 98.8999 473.001 95.6999C469.601 93.2999 465.201 93.5999 460.101 96.4999C457.301 98.0999 454.201 98.9999 451.401 98.9999C448.801 98.9999 445.701 99.7999 443.801 101C442.001 102.1 439.701 103 438.701 103C437.701 103 436.001 104.5 434.901 106.4C433.801 108.3 432.301 110 431.601 110.3C430.001 110.9 423.601 108.1 415.801 103.4L409.901 99.7999L399.201 100.4C393.301 100.8 386.701 101.3 384.401 101.6C379.401 102.3 377.001 100.3 377.001 95.4999C377.001 93.3999 376.101 91.0999 374.701 89.3999C372.501 86.8999 371.701 86.6999 364.901 86.5999L357.501 86.4999L357.801 81.2999C358.201 75.5999 357.401 74.6999 350.901 73.4999C348.301 72.9999 347.001 73.2999 346.001 74.4999C344.901 75.8999 345.201 76.5999 348.501 80.0999C352.101 83.6999 352.301 84.0999 350.801 85.5999C350.001 86.4999 346.601 87.4999 343.301 87.8999C336.601 88.6999 332.201 91.2999 329.001 96.4999C326.101 101.3 323.501 101.2 324.301 96.3999C324.801 93.6999 324.401 92.3999 322.901 90.8999C321.901 89.8999 321.001 88.3999 321.001 87.6999C321.001 85.9999 323.801 83.3999 326.601 82.5999C330.301 81.4999 334.001 77.2999 334.001 74.1999C334.001 69.3999 331.801 68.2999 324.501 69.8999Z" fill="#1AAB9B"/>
<path d="M481 75.4002C481 77.5002 483.1 78.5002 484 76.9002C484.5 76.2002 484.6 75.2002 484.4 74.8002C483.5 73.4002 481 73.9002 481 75.4002Z" fill="#1AAB9B"/>
<path d="M485.7 97.2001C483.1 98.1001 482.9 98.6001 483.4 101.6C484 104.3 483.7 105.1 482 106C480.3 106.9 480.1 107.4 481.1 108.6C482.9 110.8 488.4 110 488.8 107.5C489.1 106.4 490.1 104.7 491.1 103.7C493.4 101.5 493.6 97.4001 491.4 96.6001C489.5 95.9001 489.2 95.9001 485.7 97.2001Z" fill="#1AAB9B"/>
<path d="M1.60033 289.6C-0.399673 291.6 -0.399673 291.5 2.20033 296.2C4.20033 299.8 4.30033 300.3 2.80033 301.1C2.00033 301.6 0.900327 303.1 0.600327 304.5C-1.29967 312.2 8.00033 313.5 11.9003 306.2C13.8003 302.7 12.4003 294.6 9.30033 291C6.50033 287.7 3.90033 287.2 1.60033 289.6Z" fill="#1AAB9B"/>
<path d="M18.9999 302.5C17.8999 303.9 17.9999 304.4 19.6999 306.2C20.9999 307.5 22.4999 308 23.4999 307.6C25.5999 306.8 25.0999 304.1 22.3999 302.3C20.5999 301.1 20.0999 301.2 18.9999 302.5Z" fill="#1AAB9B"/>
<path d="M33.6 304.6C32.6 307.2 32.9 308 34.8 308C36.9 308 39 306.2 39 304.3C39 302.4 34.3 302.7 33.6 304.6Z" fill="#1AAB9B"/>
<path d="M380 1040C377.5 1042.5 377.5 1043.1 380.1 1048.3C382 1051.9 382.1 1053.1 381.3 1057.7C380.8 1060.6 380.6 1063.4 380.9 1063.9C381.2 1064.4 384 1065 387 1065.2L392.5 1065.5L392.8 1059.3C393 1055.1 392.6 1052.1 391.5 1050.1C390.7 1048.4 390 1046.2 390 1045C390 1042.6 385.8 1038 383.5 1038C382.7 1038 381.1 1038.9 380 1040Z" fill="#1AAB9B"/>
<path d="M525.7 1042.7C525.4 1043.1 525.2 1045.4 525.2 1047.8C525.1 1051.5 525.5 1052.2 528 1053.5C529.6 1054.3 532 1055 533.5 1055C535.6 1055 536 1054.5 536 1052.1C536 1050.5 535.4 1049 534.8 1048.7C534.1 1048.5 533.5 1047 533.5 1045.4C533.5 1042.8 533.1 1042.5 529.8 1042.2C527.8 1042 526 1042.3 525.7 1042.7Z" fill="#1AAB9B"/>
<path d="M406.201 1084.9C404.201 1086.1 406.501 1091.2 408.801 1090.8C411.201 1090.3 411.601 1086.4 409.301 1085.1C408.201 1084.6 406.801 1084.5 406.201 1084.9Z" fill="#1AAB9B"/>
<path d="M394.001 1092.2C390.201 1098.5 392.101 1101.3 399.701 1100.8C404.001 1100.5 404.501 1100.3 404.801 1097.9C405.201 1094.7 400.701 1089 397.901 1089C396.801 1089 395.101 1090.4 394.001 1092.2Z" fill="#1AAB9B"/>
<path d="M397.5 1112.4C396.7 1113.6 393.7 1115.9 390.9 1117.4C388.2 1118.9 386.1 1120.7 386.3 1121.3C386.5 1122 389.1 1122.6 392.6 1122.7C395.8 1122.8 400.6 1123.1 403.1 1123.5C406.7 1124 408 1123.8 409.4 1122.4C411.7 1120.1 410.8 1116.3 406.9 1112.7C403.3 1109.3 399.6 1109.2 397.5 1112.4Z" fill="#1AAB9B"/>
<path d="M399.3 1147.6C397.5 1148.4 396 1149.2 396 1149.4C396 1149.6 398.1 1151 400.7 1152.4C406 1155.4 407.3 1154.9 406.8 1149.9C406.4 1145.9 404.4 1145.3 399.3 1147.6Z" fill="#1AAB9B"/>
<path d="M401.001 1160.8C399.301 1161.4 399.901 1163.6 402.601 1166.1C404.701 1168 405.001 1169.1 404.501 1171.7C404.001 1174.6 404.201 1175.1 406.501 1176C409.301 1177.1 414.001 1177.4 414.001 1176.5C414.001 1176.2 413.401 1174.9 412.601 1173.7C411.001 1171.2 412.001 1167.3 414.501 1166.4C416.301 1165.7 416.501 1162.4 414.801 1161.3C413.501 1160.6 403.001 1160.2 401.001 1160.8Z" fill="#1AAB9B"/>
<path d="M633.001 1204.7C629.601 1205.3 628.301 1206.8 630.301 1207.6C632.701 1208.5 632.401 1210.1 629.301 1212.6L626.601 1214.7L629.001 1216C631.101 1217.1 631.601 1216.9 636.101 1211.9C638.701 1208.9 640.801 1206 640.601 1205.5C640.301 1204.4 636.701 1204 633.001 1204.7Z" fill="#1AAB9B"/>
<path d="M645.3 1208.2C641.4 1212.4 641.9 1216 646.4 1216C649.7 1216 653 1213.9 653 1211.9C653 1211.4 654 1211 655.3 1211C657.7 1211 661.9 1208.5 661 1207.7C660.7 1207.4 657.6 1206.9 654 1206.5C648 1205.9 647.3 1206 645.3 1208.2Z" fill="#1AAB9B"/>
<path d="M427.401 1210.4C426.601 1212.6 427.301 1216.3 428.701 1216.8C430.201 1217.2 432.301 1212.3 431.601 1210.3C430.901 1208.6 428.101 1208.6 427.401 1210.4Z" fill="#1AAB9B"/>
<path d="M511.4 1227.8C509.7 1228.9 508 1232.6 508 1235.4C508 1239 511.8 1241.4 515.4 1240C516.9 1239.5 518.8 1239 519.6 1239C521.9 1239 521.2 1242.7 518.4 1244.4C516.6 1245.7 516 1246.8 516.2 1248.8C516.5 1251.5 517.1 1251.8 525.3 1253.5C526.9 1253.8 528 1254.6 527.7 1255.3C527.1 1257.1 519.5 1257.3 515.8 1255.6C514 1254.8 509 1253.9 504.8 1253.6C497.9 1253 497.1 1253.1 496.6 1254.8C495.6 1257.9 497 1260 500 1260C501.5 1260 504.7 1260.7 507.1 1261.6C509.5 1262.4 515.5 1263.2 520.3 1263.4C525.3 1263.6 529.6 1264.2 530.2 1264.8C531.6 1266.2 535.2 1266.4 536.6 1265.1C537.9 1263.7 549.6 1261.6 555.5 1261.6C558.5 1261.7 561.9 1262.4 564 1263.6C566.6 1264.9 569.6 1265.4 575.3 1265.5C583.5 1265.5 585.3 1264.6 584.8 1260.5C584.5 1258.9 583.9 1258.6 581.1 1258.8C579.2 1258.9 577 1258.4 576.1 1257.7C575.2 1256.9 572.3 1256 569.7 1255.6C562.4 1254.7 550.8 1248.9 544.7 1243.1C541.7 1240.3 538.4 1238 537.3 1238C534.6 1238 532.7 1235.6 533.5 1233.1C533.9 1231.8 533.4 1230.4 532.1 1229.1C530.3 1227.3 528.8 1227 521.3 1227C516.4 1227 512 1227.4 511.4 1227.8Z" fill="#1AAB9B"/>
<path d="M442.7 1228.7C441.8 1230.1 444.7 1233.8 447.9 1235.4C450.8 1237 462.6 1236.5 463.6 1234.8C463.9 1234.4 461.5 1232.8 458.4 1231.3C452.3 1228.5 443.7 1227.1 442.7 1228.7Z" fill="#1AAB9B"/>
<path d="M501.6 1237.9C499.5 1240.2 500.2 1243.6 503 1244.5C505.7 1245.3 507 1244.3 507 1241.5C507 1236 504.7 1234.5 501.6 1237.9Z" fill="#1AAB9B"/>
<path d="M465 1241.6C463 1243.9 465.2 1247.8 468.7 1248.2C470.5 1248.4 471.5 1249.1 471.5 1250.2C471.5 1252.8 473.5 1254.3 475.9 1253.5C479.1 1252.5 478.7 1248.2 475.3 1246.9C473.8 1246.4 472 1245 471.3 1244C469.1 1240.8 466.4 1239.8 465 1241.6Z" fill="#1AAB9B"/>
<path d="M546 1265.2C544.1 1265.7 541.9 1266.7 541.2 1267.3C540.5 1267.8 538.3 1268.6 536.4 1268.9C533 1269.5 533 1269.6 534.5 1271.7C535.5 1273.2 537.1 1274 538.9 1274C540.5 1274 543.4 1274.7 545.3 1275.5C547.3 1276.3 550.1 1277 551.4 1277C553.7 1277 553.9 1276.7 553.4 1274.1L552.8 1271.2L558.1 1271.4C563 1271.5 563.5 1271.3 563.8 1269.2C564.4 1265.3 562.4 1264 555.6 1264.1C552.3 1264.1 547.9 1264.6 546 1265.2Z" fill="#1AAB9B"/>
<path d="M570.5 1273C564.4 1274.3 561 1275.8 561 1277.4C561 1279.6 563.9 1280.1 572.2 1279.4C580.3 1278.7 581.9 1277.6 580 1273.9C578.9 1271.9 577 1271.7 570.5 1273Z" fill="#1AAB9B"/>
</svg>
